<?xml version="1.0" encoding="UTF-8"?>
<svg id="_图层_2" data-name="图层 2" xmlns="http://www.w3.org/2000/svg" viewBox="0 0 1089.8 1095.9">
  <defs>
    <style>
      .cls-1 {
        fill: #f4f3f3;
      }

      .cls-2 {
        fill: #f05032;
      }
    </style>
  </defs>
  <g id="_图层_1-2" data-name="图层 1">
    <rect id="_背景" data-name="背景" class="cls-1" width="1089.8" height="1095.9"/>
    <path class="cls-2" d="m851.68,495.37l-279.42-279.4c-16.12-16.08-42.21-16.08-58.34,0l-57.9,58,73.6,73.6c25.64-8.69,53.46,5.06,62.15,30.69,3.49,10.29,3.45,21.45-.09,31.72l70.88,70.93c25.59-8.78,53.45,4.85,62.22,30.44,8.78,25.59-4.85,53.45-30.44,62.22-25.59,8.78-53.45-4.85-62.22-30.44-3.84-11.21-3.49-23.43.99-34.4l-66.38-66.01v173.99c24.29,12.03,34.24,41.47,22.22,65.76-12.03,24.29-41.47,34.24-65.76,22.22-4.82-2.39-9.22-5.55-13.01-9.36-19.13-19.06-19.19-50.02-.12-69.15.04-.04.08-.08.12-.12,4.63-4.62,10.11-8.3,16.14-10.82v-175.69c-25.06-10.37-36.98-39.09-26.61-64.15.02-.04.03-.08.05-.12l-72.32-72.66-191.61,191.49c-16,16.17-16,42.21,0,58.38l279.45,279.36c16.1,16.1,42.2,16.1,58.29,0h0s278.13-278.13,278.13-278.13c16.1-16.05,16.14-42.12.09-58.23-.03-.03-.06-.06-.09-.09v-.02Z"/>
  </g>
</svg>