<?xml version="1.0" encoding="UTF-8"?>
<svg id="_图层_2" data-name="图层 2" xmlns="http://www.w3.org/2000/svg" viewBox="0 0 1090.8 1096.9">
  <defs>
    <style>
      .cls-1 {
        fill: #f98f17;
      }

      .cls-2 {
        fill: #ffe780;
      }

      .cls-3 {
        fill: #ffad24;
      }

      .cls-4 {
        fill: #ffd362;
      }

      .cls-5 {
        fill: #ffbf44;
      }

      .cls-6 {
        fill: #fd9308;
      }

      .cls-7 {
        fill: #fff;
        stroke: #000;
        stroke-miterlimit: 10;
      }
    </style>
  </defs>
  <g id="logo">
    <g id="homekit">
      <rect id="_背景" data-name="背景" class="cls-7" x=".5" y=".5" width="1089.8" height="1095.9"/>
      <path class="cls-1" d="m269.42,576.39v-60.77c-2.08,0-3.71,0-5.34,0-19.18-.02-38.35.04-57.53-.09-7.71-.05-13.87-7.07-11.5-14.13,1.34-3.99,4.99-7.65,8.43-10.41,27.65-22.16,55.49-44.09,83.31-66.04,26.62-21.01,53.32-41.92,79.92-62.97,30.78-24.36,61.43-48.86,92.22-73.21,23.73-18.77,47.67-37.26,71.31-56.14,9.97-7.97,20.29-7.97,30.62.21,23.48,18.6,46.88,37.29,70.37,55.87,19.41,15.35,38.94,30.56,58.37,45.89,17.7,13.96,35.33,28,53.56,42.45.11-2,.26-3.43.26-4.86.02-15.34.29-30.69-.1-46.02-.17-6.77,5.26-12.26,12.29-12.2,16.87.14,33.75-.02,50.63.04,9.35.03,13.58,4.36,13.59,13.8.03,34.98.05,69.96-.04,104.94,0,3.44.78,5.7,3.75,8,22.31,17.34,44.4,34.95,66.53,52.52,5.46,4.33,7.3,9.31,5.55,14.32-1.88,5.38-6.2,8.02-13.52,8.03-19.93.04-39.85.01-60.57.01v60.77c-16.82,0-33.64,0-50.46,0,0-33.45-.06-66.9.02-100.34.01-6.05-1.76-11.21-6.4-15.08-8.55-7.14-17.13-14.25-25.87-21.16-30.28-23.95-60.61-47.82-90.96-71.69-29.86-23.49-59.76-46.93-89.65-70.39-8.68-6.82-16.78-6.81-25.47,0-15.38,12.04-30.78,24.05-46.13,36.12-14.76,11.6-29.49,23.23-44.2,34.89-18.3,14.49-36.54,29.07-54.88,43.52-19.29,15.2-38.7,30.26-58,45.47-6.61,5.21-9.88,11.72-9.78,20.63.38,32.68.14,65.36.13,98.04-16.82,0-33.64,0-50.46,0Z"/>
      <path class="cls-6" d="m771.07,576.38c16.82,0,33.64,0,50.46,0,.05,1.53.14,3.06.14,4.59.01,83.48.08,166.95-.1,250.43-.01,6.71-1.29,13.51-2.67,20.12-2.38,11.46-15.93,18.51-26.55,18.52-118.31.06-236.62.04-354.93.04-46.65,0-93.3.11-139.94-.08-12.19-.05-23.73-8.54-26.63-20.94-1.09-4.68-1.51-9.61-1.51-14.43-.09-85.16-.07-170.33-.07-255.49,0-.92.09-1.84.14-2.75,16.82,0,33.64,0,50.46,0,0,73.47.02,146.94.03,220.4,0,14.87,7.78,22.65,22.67,22.65,135.59,0,271.17,0,406.76,0,13.62,0,21.7-8.1,21.71-21.73,0-73.77.02-147.55.03-221.32Z"/>
      <path class="cls-3" d="m771.07,576.38c0,73.77-.02,147.55-.03,221.32,0,13.64-8.08,21.73-21.71,21.73-135.59,0-271.17,0-406.76,0-14.89,0-22.67-7.78-22.67-22.65,0-73.47-.02-146.94-.03-220.4,0-32.68.25-65.37-.13-98.04-.1-8.9,3.17-15.42,9.78-20.63,19.29-15.2,38.7-30.26,58-45.47,18.34-14.45,36.58-29.03,54.88-43.52,14.72-11.65,29.44-23.29,44.2-34.89,15.36-12.07,30.75-24.08,46.13-36.12,8.69-6.8,16.79-6.81,25.47,0,29.89,23.46,59.79,46.9,89.65,70.39,30.34,23.86,60.68,47.74,90.96,71.69,8.74,6.91,17.32,14.01,25.87,21.16,4.64,3.88,6.41,9.03,6.4,15.08-.08,33.45-.03,66.9-.02,100.34Zm-225.39,191.5c51.4,0,102.81-.2,154.21.15,11.42.08,19.74-7.18,19.7-19.95-.21-82.09-.19-164.19.03-246.28.02-8.48-3.6-14.23-9.79-19.07-20.56-16.07-41.17-32.08-61.69-48.2-30.36-23.85-60.65-47.8-91.01-71.65-8.54-6.71-14.73-6.66-23.21-.09-10.73,8.32-21.44,16.68-32.12,25.06-17.65,13.85-35.28,27.72-52.91,41.6-21.34,16.81-42.46,33.9-64.09,50.32-9.1,6.91-13.65,14.47-13.58,26.5.49,80.71.26,161.42.26,242.14,0,12.87,6.62,19.46,19.53,19.46,51.56,0,103.12,0,154.67,0Z"/>
      <path class="cls-5" d="m545.68,767.88c-51.56,0-103.12,0-154.67,0-12.92,0-19.53-6.59-19.53-19.46,0-80.71.22-161.43-.26-242.14-.07-12.04,4.49-19.6,13.58-26.5,21.63-16.42,42.75-33.52,64.09-50.32,17.63-13.88,35.26-27.75,52.91-41.6,10.68-8.38,21.39-16.74,32.12-25.06,8.48-6.57,14.66-6.62,23.21.09,30.37,23.85,60.65,47.8,91.01,71.65,20.52,16.12,41.13,32.13,61.69,48.2,6.19,4.84,9.81,10.59,9.79,19.07-.21,82.09-.24,164.19-.03,246.28.03,12.77-8.28,20.03-19.7,19.95-51.4-.35-102.81-.15-154.21-.15Zm-.21-51.56c35.6,0,71.19,0,106.79,0,9.77,0,15.65-5.86,15.66-15.69.02-15.04,0-30.07,0-45.11,0-43.11.13-86.23-.19-129.34-.03-4.22-1.57-9.78-4.49-12.39-10.21-9.14-21.34-17.26-32.11-25.79-14.12-11.18-28.21-22.39-42.33-33.55-11.49-9.08-22.93-18.23-34.56-27.14-5.62-4.31-11.78-4.3-17.45-.07-8.44,6.29-16.7,12.83-24.94,19.38-27.47,21.84-54.84,43.82-82.41,65.54-4.45,3.5-6.37,7.76-6.38,12.99-.06,58.76-.05,117.53-.01,176.29,0,8.86,6.25,14.87,15.17,14.87,35.75,0,71.5,0,107.25,0Z"/>
      <path class="cls-4" d="m545.47,716.32c-35.75,0-71.5,0-107.25,0-8.92,0-15.16-6.01-15.17-14.87-.04-58.76-.05-117.53.01-176.29,0-5.23,1.93-9.49,6.38-12.99,27.57-21.71,54.94-43.69,82.41-65.54,8.24-6.55,16.5-13.09,24.94-19.38,5.67-4.23,11.83-4.24,17.45.07,11.63,8.91,23.07,18.05,34.56,27.14,14.13,11.17,28.22,22.38,42.33,33.55,10.77,8.53,21.9,16.64,32.11,25.79,2.92,2.61,4.46,8.17,4.49,12.39.32,43.11.19,86.23.19,129.34,0,15.04.02,30.07,0,45.11-.02,9.83-5.89,15.69-15.66,15.69-35.6,0-71.19,0-106.79,0Zm-.13-50.64c19.18,0,38.36-.33,57.53.14,10.03.24,14.58-6.25,14.52-14.7-.22-33.75-.2-67.5,0-101.26.04-6.06-2.48-10.2-6.92-13.68-18.13-14.21-36.3-28.38-54.38-42.65-7.68-6.06-13.35-6.17-21.03-.14-18.24,14.32-36.52,28.59-54.75,42.92-4.28,3.36-6.77,7.43-6.73,13.32.19,34.21.09,68.42.1,102.64,0,8.69,4.64,13.41,13.21,13.41,19.48.01,38.97,0,58.45,0Z"/>
      <path class="cls-2" d="m545.34,665.69c-19.48,0-38.97,0-58.45,0-8.57,0-13.21-4.72-13.21-13.41,0-34.21.09-68.43-.1-102.64-.03-5.89,2.45-9.95,6.73-13.32,18.23-14.33,36.52-28.6,54.75-42.92,7.68-6.03,13.35-5.93,21.03.14,18.08,14.27,36.25,28.44,54.38,42.65,4.44,3.48,6.96,7.62,6.92,13.68-.2,33.75-.23,67.51,0,101.26.06,8.45-4.49,14.95-14.52,14.7-19.17-.47-38.35-.14-57.53-.14Z"/>
    </g>
  </g>
</svg>