<?xml version="1.0" encoding="UTF-8"?>
<svg id="_图层_2" data-name="图层 2" xmlns="http://www.w3.org/2000/svg" viewBox="0 0 1089.8 1095.9">
  <defs>
    <style>
      .cls-1 {
        fill: #020204;
      }

      .cls-2 {
        fill: #f4f3f3;
      }

      .cls-3 {
        fill: #fff;
      }

      .cls-4 {
        fill: #f5bd0c;
      }

      .cls-5 {
        fill: #d99a03;
      }

      .cls-6 {
        fill: #cd8907;
      }

      .cls-7 {
        fill: #604405;
      }
    </style>
  </defs>
  <g id="logo">
    <rect id="_背景" data-name="背景" class="cls-2" width="1089.8" height="1095.9"/>
    <g id="linux">
      <path class="cls-3" d="m552.91,301.46c-6.24,4.16-11.44,10.4-14.56,17.68-3.12,9.36-2.08,19.76,1.04,29.12,3.12,9.36,9.36,17.68,16.64,23.92,4.16,3.12,8.32,5.2,13.52,5.2,5.2,1.04,10.4,0,14.56-2.08,5.2-3.12,9.36-7.28,12.48-13.52,2.08-5.2,4.16-11.44,4.16-17.68,1.04-7.28,0-15.6-3.12-22.88-3.12-8.32-8.32-14.56-14.56-19.76-3.12-2.08-7.28-4.16-11.44-4.16s-8.32,0-12.48,1.04c-2.08,1.04-4.16,2.08-6.24,3.12"/>
      <path class="cls-1" d="m770.27,612.42c-4.16-21.84-10.4-42.64-17.68-62.4-5.2-15.6-13.52-29.12-22.88-42.64-9.36-12.48-21.84-22.88-30.16-35.36-5.2-6.24-9.36-13.52-14.56-20.8-2.08-4.16-4.16-8.32-6.24-12.48-6.24-13.52-11.44-27.04-18.72-39.52-1.04-2.08-2.08-4.16-3.12-6.24-1.04-12.48-2.08-23.92-3.12-36.4,1.04-24.96-1.04-48.88-6.24-72.8-3.12-11.44-8.32-22.88-14.56-32.24-7.28-12.48-16.64-22.88-28.08-31.2-18.72-13.52-40.56-19.76-62.4-19.76-16.64,0-33.28,3.12-47.84,11.44-15.6,8.32-28.08,21.84-35.36,37.44-7.28,15.6-11.44,33.28-11.44,50.96-1.04,17.68,1.04,34.32,2.08,52,1.04,17.68,0,35.36,2.08,53.04,0,5.2,1.04,11.44,1.04,17.68v9.36c-7.28,13.52-16.64,26-26,38.48-6.24,8.32-13.52,16.64-19.76,24.96-8.32,9.36-15.6,20.8-21.84,32.24-4.16,10.4-7.28,20.8-9.36,31.2v1.04c-4.16,12.48-8.32,23.92-13.52,35.36-1.04,1.04-1.04,2.08-1.04,3.12-3.12,7.28-6.24,13.52-10.4,19.76l-6.24,4.16c-2.08,4.16-5.2,9.36-7.28,14.56-1.04,3.12-2.08,6.24-2.08,9.36-1.04,6.24-1.04,13.52,1.04,19.76,0,2.08,1.04,3.12,1.04,5.2,2.08,5.2,4.16,9.36,6.24,13.52,1.04,2.08,2.08,4.16,3.12,6.24l1.04,1.04c1.04,2.08,2.08,4.16,3.12,5.2h0c1.04,2.08,3.12,4.16,4.16,6.24h0c1.04,2.08,3.12,4.16,4.16,6.24,5.2,21.84,15.6,42.64,30.16,60.32-2.08,4.16-4.16,7.28-6.24,11.44-7.28,11.44-14.56,22.88-18.72,36.4-2.08,6.24-2.08,13.52-1.04,19.76,1.04,7.28,4.16,13.52,10.4,17.68,3.12,3.12,7.28,4.16,12.48,5.2,4.16,1.04,8.32,1.04,13.52,1.04,16.64-1.04,33.28-4.16,49.92-9.36,9.36-2.08,19.76-5.2,29.12-7.28,10.4-2.08,20.8-4.16,31.2-4.16h7.28c7.28,1.04,14.56,1.04,21.84,1.04h8.32c12.48,1.04,24.96,2.08,37.44,4.16,11.44,2.08,21.84,4.16,32.24,6.24,16.64,5.2,34.32,8.32,50.96,9.36,4.16,0,9.36,0,13.52-1.04,4.16-1.04,8.32-3.12,12.48-5.2,5.2-4.16,8.32-10.4,10.4-17.68,1.04-7.28,1.04-13.52-1.04-19.76-5.2-12.48-11.44-24.96-19.76-36.4-3.12-4.16-5.2-9.36-8.32-14.56,11.44-13.52,21.84-28.08,31.2-42.64,5.2,0,10.4,0,15.6-2.08,13.52-4.16,24.96-13.52,33.28-24.96,2.08-3.12,4.16-7.28,5.2-11.44,5.2-8.32,8.32-17.68,10.4-27.04,3.12-14.56,2.08-31.2-1.04-46.8h0Z"/>
      <path class="cls-3" d="m476.99,397.14c-2.08,3.12-4.16,6.24-5.2,10.4s-1.04,7.28-1.04,11.44c0,7.28,0,15.6-2.08,22.88-3.12,8.32-6.24,15.6-11.44,21.84-9.36,11.44-15.6,23.92-20.8,37.44-2.08,8.32-3.12,16.64-2.08,26-9.36,13.52-17.68,28.08-23.92,43.68-10.4,22.88-16.64,46.8-19.76,71.76-3.12,30.16,1.04,61.36,12.48,89.44,8.32,20.8,21.84,38.48,38.48,53.04,8.32,7.28,17.68,13.52,28.08,18.72,35.36,17.68,76.96,16.64,112.32-1.04,17.68-10.4,33.28-22.88,47.84-37.44,9.36-8.32,16.64-17.68,23.92-27.04,11.44-20.8,18.72-43.68,19.76-67.6,7.28-40.56,3.12-83.2-12.48-121.68-6.24-12.48-14.56-24.96-23.92-34.32-3.12-17.68-8.32-35.36-15.6-52-5.2-11.44-12.48-22.88-17.68-35.36-2.08-5.2-4.16-10.4-6.24-14.56-2.08-5.2-5.2-9.36-9.36-13.52-4.16-4.16-8.32-6.24-14.56-8.32-5.2-2.08-10.4-2.08-16.64-3.12-11.44-1.04-21.84,1.04-33.28,0-8.32,0-17.68-2.08-26-1.04-4.16,0-8.32,1.04-12.48,3.12-2.08,1.04-5.2,4.16-8.32,7.28m4.16-95.68c-4.16,0-8.32,2.08-11.44,5.2s-5.2,6.24-6.24,10.4c-2.08,8.32-2.08,16.64-1.04,23.92,0,7.28,1.04,14.56,4.16,21.84,1.04,3.12,3.12,6.24,6.24,9.36s6.24,4.16,9.36,5.2,7.28,1.04,10.4,0,6.24-3.12,8.32-5.2c3.12-4.16,6.24-8.32,7.28-13.52s2.08-10.4,2.08-15.6c0-6.24-1.04-12.48-3.12-18.72s-5.2-11.44-9.36-16.64c-2.08-2.08-4.16-4.16-7.28-5.2-4.16,0-6.24-1.04-9.36-1.04m71.76,0c-6.24,4.16-11.44,10.4-14.56,17.68-3.12,9.36-2.08,19.76,1.04,29.12,3.12,9.36,9.36,17.68,16.64,23.92,4.16,3.12,8.32,5.2,13.52,5.2,5.2,1.04,10.4,0,14.56-2.08,5.2-3.12,9.36-7.28,12.48-13.52,2.08-5.2,4.16-11.44,4.16-17.68,1.04-7.28,0-15.6-3.12-22.88-3.12-8.32-8.32-14.56-14.56-19.76-3.12-2.08-7.28-4.16-11.44-4.16s-8.32,0-12.48,1.04c-2.08,1.04-4.16,2.08-6.24,3.12"/>
      <path class="cls-1" d="m567.47,321.22c-2.08,0-5.2,1.04-7.28,2.08s-4.16,3.12-5.2,5.2c-2.08,4.16-4.16,8.32-4.16,13.52,0,3.12,0,7.28,1.04,10.4s3.12,6.24,6.24,8.32c3.12,2.08,6.24,4.16,10.4,4.16s7.28-1.04,10.4-3.12c2.08-2.08,4.16-4.16,6.24-6.24,1.04-2.08,2.08-5.2,2.08-8.32,1.04-5.2,0-10.4-2.08-15.6s-6.24-8.32-11.44-10.4c-1.04,0-3.12,0-6.24,0"/>
      <path class="cls-3" d="m481.15,301.46c-4.16,0-8.32,2.08-11.44,5.2s-5.2,6.24-6.24,10.4c-2.08,8.32-2.08,16.64-1.04,23.92,0,7.28,1.04,14.56,4.16,21.84,1.04,3.12,3.12,6.24,6.24,9.36s6.24,4.16,9.36,5.2,7.28,1.04,10.4,0,6.24-3.12,8.32-5.2c3.12-4.16,6.24-8.32,7.28-13.52s2.08-10.4,2.08-15.6c0-6.24-1.04-12.48-3.12-18.72s-5.2-11.44-9.36-16.64c-2.08-2.08-4.16-4.16-7.28-5.2-4.16,0-6.24-1.04-9.36-1.04"/>
      <path class="cls-1" d="m470.75,335.78c-1.04,5.2-1.04,10.4,1.04,15.6,1.04,3.12,3.12,6.24,5.2,8.32,1.04,2.08,3.12,3.12,5.2,4.16,2.08,1.04,4.16,1.04,6.24,1.04,2.08-1.04,4.16-2.08,5.2-3.12,1.04-2.08,2.08-3.12,3.12-5.2,2.08-6.24,2.08-12.48,0-18.72-1.04-4.16-3.12-8.32-7.28-11.44-2.08-1.04-3.12-2.08-5.2-3.12s-4.16,0-6.24,1.04-4.16,3.12-5.2,5.2-2.08,4.16-2.08,6.24"/>
      <path class="cls-5" d="m461.39,400.26q0,1.04,1.04,2.08c1.04,1.04,1.04,2.08,2.08,2.08,1.04,1.04,2.08,1.04,3.12,2.08,5.2,3.12,10.4,8.32,13.52,13.52,4.16,7.28,10.4,13.52,16.64,18.72,5.2,3.12,10.4,5.2,16.64,6.24,7.28,1.04,14.56,0,20.8-2.08s12.48-4.16,17.68-8.32c9.36-7.28,19.76-14.56,31.2-20.8,2.08-1.04,5.2-2.08,7.28-3.12s4.16-3.12,6.24-5.2c1.04-2.08,1.04-5.2,1.04-7.28,0-3.12,1.04-5.2,2.08-8.32s0-5.2-1.04-8.32c-1.04-2.08-3.12-4.16-5.2-5.2s-4.16-2.08-6.24-2.08c-4.16,0-9.36,1.04-13.52,1.04-6.24,1.04-12.48,0-18.72,0-7.28,0-15.6,2.08-22.88,2.08-8.32,0-17.68-1.04-26-1.04-4.16,0-7.28,0-11.44,1.04s-7.28,2.08-10.4,4.16-5.2,5.2-8.32,7.28c-1.04,1.04-3.12,2.08-4.16,3.12-2.08,1.04-3.12,1.04-5.2,1.04h-3.12c-1.04,0-1.04,1.04-1.04,1.04l-1.04,1.04c0,2.08,0,3.12-1.04,5.2"/>
      <path class="cls-7" d="m480.11,380.5c-3.12,2.08-6.24,4.16-9.36,6.24-2.08,1.04-3.12,2.08-4.16,4.16-1.04,1.04-1.04,2.08-1.04,4.16v8.32s0,1.04,1.04,1.04l1.04,1.04h2.08c3.12,1.04,5.2,2.08,7.28,4.16s4.16,4.16,6.24,5.2c6.24,4.16,13.52,7.28,20.8,7.28s14.56-1.04,21.84-3.12c5.2-1.04,11.44-3.12,16.64-4.16,8.32-3.12,16.64-8.32,22.88-13.52,3.12-3.12,6.24-5.2,9.36-8.32,3.12-2.08,6.24-3.12,9.36-5.2,0,0,1.04,0,1.04-1.04l1.04-1.04v-2.08q0-1.04-1.04-1.04l-1.04-1.04c-3.12-2.08-7.28-4.16-12.48-4.16-4.16,0-8.32,0-12.48-1.04-4.16-1.04-8.32-2.08-11.44-3.12-4.16-1.04-8.32-2.08-12.48-3.12-10.4-2.08-19.76-1.04-30.16,1.04-7.28,1.04-16.64,5.2-24.96,9.36"/>
      <path class="cls-4" d="m479.07,370.1c-4.16,3.12-8.32,6.24-11.44,10.4-2.08,2.08-3.12,5.2-4.16,8.32-1.04,2.08-1.04,4.16-1.04,7.28v4.16s0,1.04,1.04,1.04q1.04,1.04,2.08,1.04h2.08c3.12,1.04,6.24,2.08,9.36,4.16s5.2,4.16,8.32,6.24c6.24,4.16,13.52,6.24,20.8,6.24s14.56-1.04,21.84-2.08c6.24-1.04,11.44-3.12,16.64-5.2,8.32-3.12,15.6-8.32,22.88-13.52,3.12-2.08,6.24-5.2,9.36-8.32,1.04-1.04,2.08-2.08,3.12-3.12s2.08-2.08,3.12-2.08c2.08-1.04,4.16-1.04,6.24,0,1.04,0,3.12,1.04,5.2,1.04h2.08c1.04,0,1.04-1.04,2.08-1.04,1.04-1.04,1.04-2.08,1.04-3.12s0-2.08-1.04-3.12c-1.04-2.08-3.12-3.12-5.2-4.16-3.12-1.04-5.2-2.08-8.32-2.08-8.32-2.08-16.64-5.2-24.96-9.36-4.16-2.08-7.28-4.16-11.44-6.24-4.16-2.08-8.32-4.16-12.48-5.2-9.36-3.12-19.76-2.08-30.16,1.04-10.4,3.12-19.76,9.36-27.04,17.68"/>
      <path class="cls-6" d="m528.99,357.62c1.04,2.08,3.12,1.04,5.2,2.08s2.08,2.08,4.16,2.08,4.16-1.04,4.16-2.08c0-2.08-2.08-3.12-4.16-4.16s-5.2-1.04-7.28,0-2.08,2.08-2.08,2.08Zm-26,0c-2.08-1.04-5.2,3.12-4.16,5.2,0,1.04,1.04,1.04,2.08,1.04s2.08-2.08,3.12-3.12c0-2.08,0-3.12-1.04-3.12Z"/>
      <path class="cls-4" d="m829.55,782.98c-1.04,4.16-4.16,7.28-6.24,10.4-6.24,7.28-14.56,12.48-22.88,16.64-14.56,6.24-28.08,14.56-42.64,21.84-9.36,6.24-17.68,12.48-24.96,19.76-6.24,6.24-13.52,12.48-19.76,18.72-7.28,5.2-15.6,9.36-24.96,10.4-11.44,1.04-22.88,0-33.28-5.2-7.28-3.12-13.52-7.28-18.72-14.56-4.16-7.28-5.2-14.56-5.2-22.88,0-13.52,2.08-28.08,5.2-41.6,2.08-11.44,4.16-22.88,5.2-34.32,2.08-20.8,2.08-42.64,1.04-63.44v-10.4c0-7.28,6.24-12.48,13.52-12.48,3.12,0,6.24,0,9.36,1.04,7.28,1.04,15.6,2.08,22.88,4.16,4.16,1.04,9.36,3.12,13.52,4.16,7.28,2.08,15.6,3.12,23.92,2.08,8.32-2.08,16.64-3.12,26-4.16,3.12,0,7.28,1.04,10.4,2.08,3.12,1.04,7.28,3.12,9.36,5.2,2.08,2.08,3.12,4.16,4.16,7.28,1.04,4.16,2.08,8.32,3.12,12.48,0,4.16,0,7.28,1.04,11.44,1.04,6.24,4.16,11.44,8.32,15.6,4.16,4.16,8.32,8.32,13.52,12.48,4.16,4.16,9.36,7.28,14.56,11.44,2.08,2.08,5.2,3.12,7.28,5.2s4.16,4.16,5.2,6.24c1.04,2.08,2.08,6.24,1.04,10.4"/>
      <path class="cls-4" d="m829.55,782.98c-1.04,4.16-4.16,7.28-6.24,10.4-6.24,7.28-14.56,12.48-22.88,16.64-14.56,6.24-28.08,14.56-42.64,21.84-9.36,6.24-17.68,12.48-24.96,19.76-6.24,6.24-13.52,12.48-19.76,18.72-7.28,5.2-15.6,9.36-24.96,10.4-11.44,1.04-22.88,0-33.28-5.2-7.28-3.12-13.52-7.28-18.72-14.56-4.16-7.28-5.2-14.56-5.2-22.88,0-13.52,2.08-28.08,5.2-41.6,2.08-11.44,4.16-22.88,5.2-34.32,2.08-20.8,2.08-42.64,1.04-63.44v-10.4c0-7.28,6.24-12.48,13.52-12.48,3.12,0,6.24,0,9.36,1.04,7.28,1.04,15.6,2.08,22.88,4.16,4.16,1.04,9.36,3.12,13.52,4.16,7.28,2.08,15.6,3.12,23.92,2.08,8.32-2.08,16.64-3.12,26-4.16,3.12,0,7.28,1.04,10.4,2.08,3.12,1.04,7.28,3.12,9.36,5.2,2.08,2.08,3.12,4.16,4.16,7.28,1.04,4.16,2.08,8.32,3.12,12.48,0,4.16,0,7.28,1.04,11.44,1.04,6.24,4.16,11.44,8.32,15.6,4.16,4.16,8.32,8.32,13.52,12.48,4.16,4.16,9.36,7.28,14.56,11.44,2.08,2.08,5.2,3.12,7.28,5.2s4.16,4.16,5.2,6.24c1.04,2.08,2.08,6.24,1.04,10.4m-478.4-117.52c4.16-1.04,7.28-2.08,11.44-1.04,4.16,1.04,7.28,2.08,11.44,4.16,6.24,5.2,11.44,10.4,16.64,17.68,10.4,14.56,20.8,30.16,30.16,45.76,7.28,12.48,14.56,26,22.88,37.44,5.2,7.28,12.48,14.56,17.68,22.88,6.24,7.28,10.4,16.64,13.52,26,3.12,12.48,2.08,24.96-4.16,36.4-4.16,8.32-10.4,14.56-17.68,18.72s-16.64,7.28-24.96,6.24c-13.52-2.08-28.08-6.24-40.56-12.48-27.04-10.4-55.12-13.52-83.2-21.84-8.32-2.08-16.64-5.2-24.96-8.32-4.16-1.04-7.28-2.08-11.44-3.12-3.12-1.04-6.24-4.16-8.32-7.28-1.04-3.12-2.08-5.2-2.08-8.32s1.04-6.24,2.08-8.32c2.08-5.2,5.2-10.4,7.28-16.64,3.12-9.36,4.16-19.76,4.16-29.12s-2.08-19.76-3.12-29.12v-13.52c1.04-8.32,8.32-15.6,16.64-16.64,4.16-1.04,8.32-1.04,12.48-1.04h12.48c4.16,0,8.32-1.04,11.44-3.12,3.12-2.08,6.24-5.2,8.32-8.32,2.08-3.12,4.16-6.24,6.24-10.4,2.08-4.16,4.16-6.24,6.24-9.36,2.08-3.12,5.2-5.2,9.36-7.28"/>
      <path class="cls-4" d="m351.15,665.46c4.16-1.04,7.28-2.08,11.44-1.04,4.16,1.04,7.28,2.08,11.44,4.16,6.24,5.2,11.44,10.4,16.64,17.68,10.4,14.56,20.8,30.16,30.16,45.76,7.28,12.48,14.56,26,22.88,37.44,5.2,7.28,12.48,14.56,17.68,22.88,6.24,7.28,10.4,16.64,13.52,26,3.12,12.48,2.08,24.96-4.16,36.4-4.16,8.32-10.4,14.56-17.68,18.72s-16.64,7.28-24.96,6.24c-13.52-2.08-28.08-6.24-40.56-12.48-27.04-10.4-55.12-13.52-83.2-21.84-8.32-2.08-16.64-5.2-24.96-8.32-4.16-1.04-7.28-2.08-11.44-3.12-3.12-1.04-6.24-4.16-8.32-7.28-1.04-3.12-2.08-5.2-2.08-8.32s1.04-6.24,2.08-8.32c2.08-5.2,5.2-10.4,7.28-16.64,3.12-9.36,4.16-19.76,4.16-29.12s-2.08-19.76-3.12-29.12v-13.52c1.04-8.32,8.32-15.6,16.64-16.64,4.16-1.04,8.32-1.04,12.48-1.04h12.48c4.16,0,8.32-1.04,11.44-3.12,3.12-2.08,6.24-5.2,8.32-8.32,2.08-3.12,4.16-6.24,6.24-10.4,2.08-4.16,4.16-6.24,6.24-9.36,2.08-3.12,5.2-5.2,9.36-7.28"/>
      <path class="cls-4" d="m356.35,672.74c3.12-1.04,7.28-1.04,10.4-1.04s7.28,2.08,9.36,5.2c5.2,5.2,10.4,10.4,13.52,16.64,9.36,14.56,17.68,30.16,26,44.72,6.24,11.44,12.48,22.88,19.76,33.28,5.2,7.28,11.44,13.52,16.64,19.76,5.2,7.28,9.36,14.56,12.48,22.88,3.12,10.4,2.08,22.88-3.12,32.24-4.16,7.28-9.36,13.52-16.64,17.68-7.28,4.16-15.6,6.24-22.88,5.2-12.48-2.08-24.96-6.24-36.4-11.44-22.88-8.32-48.88-9.36-71.76-16.64-8.32-2.08-16.64-5.2-24.96-7.28-4.16-1.04-7.28-2.08-11.44-3.12-4.16-1.04-7.28-4.16-9.36-7.28-1.04-2.08-2.08-5.2-2.08-8.32s1.04-6.24,2.08-8.32c2.08-5.2,5.2-10.4,7.28-15.6,3.12-8.32,4.16-17.68,3.12-26-1.04-8.32-2.08-17.68-3.12-26,0-4.16,0-8.32,1.04-11.44,1.04-4.16,2.08-7.28,5.2-10.4s7.28-5.2,11.44-5.2,8.32-1.04,12.48,0c4.16,1.04,8.32,1.04,12.48,1.04,8.32,0,15.6-5.2,19.76-12.48,2.08-3.12,3.12-7.28,4.16-10.4,1.04-4.16,3.12-7.28,5.2-10.4,2.08-4.16,5.2-6.24,9.36-7.28"/>
    </g>
  </g>
</svg>