<?xml version="1.0" encoding="UTF-8"?>
<svg id="_图层_2" data-name="图层 2" xmlns="http://www.w3.org/2000/svg" viewBox="0 0 1089.8 1095.9">
  <defs>
    <style>
      .cls-1 {
        fill: #66c6f8;
      }

      .cls-2 {
        fill: #f4f3f3;
      }

      .cls-3 {
        fill: #8bd4fa;
      }

      .cls-4 {
        fill: #aeabaa;
      }

      .cls-5 {
        fill: #dfdede;
      }

      .cls-6 {
        fill: #0f95bc;
      }

      .cls-7 {
        fill: #5bc1ed;
      }

      .cls-8 {
        fill: #474341;
      }
    </style>
  </defs>
  <g id="_图层_1-2" data-name="图层 1">
    <rect id="_背景" data-name="背景" class="cls-2" width="1089.8" height="1095.9"/>
    <g id="ssh">
      <path class="cls-3" d="m543.8,923.9c-220,0-400-180-400-400S323.8,123.9,543.8,123.9s400,180,400,400-180,400-400,400Z"/>
      <path class="cls-1" d="m943.8,523.9c0-27.76-2.88-54.87-8.33-81.07l-224.56-116.93-160.42-64.19s-21.36-13.56-62.18,72.66c-33.72,71.23-49.78,110.01-49.78,110.01,0,0-8.42,16.23,3.21,32.85,11.64,16.62,41.75,27.3,41.75,27.3,0,0-8.83,9.84-8.03,20.55.8,10.71,36.13,21.39,36.13,21.39l-19.51,48.56-16.21,30.58,8.42,16.62-16.06,6.73,1.61,22.56-16.06,6.75,3.21,20.18-16.86,9.11,6.42,17.01-24.89,15.04,16.86,52.24,90.19,131.67c5.01.19,10.01.38,15.06.38,220,0,400-180,400-400Z"/>
      <path class="cls-6" d="m749.04,351.92l-186.71-84.76c-19.07-8.66-41.76-.14-50.41,18.93l-71.35,157.17c-8.66,19.07-.14,41.76,18.93,50.41l186.71,84.76c19.07,8.66,41.76.14,50.41-18.93l71.35-157.18c8.66-19.07.14-41.76-18.92-50.41m-66.64,30.04c-4.33,9.54-15.67,13.79-25.21,9.46l-64.14-29.12c-9.54-4.33-13.79-15.67-9.46-25.21,4.33-9.54,15.67-13.79,25.21-9.46l64.14,29.12c9.53,4.33,13.79,15.67,9.46,25.21"/>
      <path class="cls-8" d="m661.87,587.24c-6,0-12.09-1.25-17.91-3.88l-186.71-84.76c-10.54-4.79-18.59-13.42-22.68-24.32-4.09-10.9-3.71-22.71,1.08-33.24l71.35-157.18c9.91-21.83,35.73-31.51,57.56-21.61l186.71,84.76c21.82,9.91,31.52,35.73,21.61,57.56l-71.35,157.18c-7.28,16.02-23.11,25.5-39.66,25.5m-115.19-318.07c-3.89,0-7.8.7-11.58,2.12-8.2,3.08-14.69,9.13-18.28,17.04l-71.36,157.18c-7.45,16.41-.16,35.81,16.24,43.26l186.71,84.76c16.39,7.46,35.81.16,43.27-16.25l71.35-157.17c7.45-16.41.17-35.82-16.24-43.27l-186.71-84.76c-4.21-1.92-8.79-2.91-13.41-2.91m118.32,129.36c-3.42,0-6.84-.73-10.04-2.18l-64.14-29.12c-12.27-5.57-17.72-20.09-12.16-32.35,5.57-12.27,20.08-17.71,32.35-12.15l64.14,29.12c12.27,5.57,17.72,20.08,12.16,32.35-2.69,5.93-7.54,10.46-13.67,12.76-2.76,1.04-5.69,1.57-8.64,1.57m-64.04-67.19c-1.65,0-3.29.3-4.84.89-3.42,1.29-6.14,3.81-7.63,7.11-3.11,6.85-.07,14.95,6.78,18.06l64.14,29.11c3.29,1.5,6.99,1.62,10.43.33,3.39-1.26,6.13-3.82,7.63-7.11,3.11-6.85.07-14.94-6.78-18.06l-64.14-29.12c-1.75-.8-3.66-1.21-5.59-1.21"/>
      <path class="cls-7" d="m630.24,536.69c18.47,8.38,40.43.13,48.81-18.33l17.53-38.61c8.38-18.46.13-40.43-18.33-48.81l-128.42-58.3c-9.23-4.19-15.58-4.47-19.48-3.68-3.91.8-16.09-6.09-35.67,35.09l-11.02,24.27c-8.66,19.07-.14,41.76,18.93,50.41l84.94,38.56,42.71,19.38h0Z"/>
      <path class="cls-5" d="m609.82,561.4l-114.42-51.94c-6.68-3.03-14.61-.04-17.64,6.63-3.03,6.68-.05,14.61,6.63,17.64l26.87,12.19-37.03,81.58,12.16,14.12-21.95,6.76,9.36,20.98-21.95,6.76,9.36,20.98-21.95,6.76,9.36,20.98-18.63.14-5.29,11.65,13.02,51.91,47.65-24.37,86.57-190.69,26.87,12.2c6.68,3.03,14.62.04,17.64-6.63s.04-14.61-6.63-17.64"/>
      <path class="cls-8" d="m437.71,793.93c-2.47,0-4.63-1.68-5.24-4.08l-13.02-51.91c-.3-1.18-.19-2.43.32-3.54l5.29-11.65c.87-1.91,2.77-3.15,4.87-3.16l10.37-.08-6-13.44c-1.21-2.72,0-5.91,2.73-7.13.2-.09.4-.17.61-.23l16.13-4.97-6.87-15.41c-.63-1.41-.62-3.02.01-4.43.64-1.4,1.85-2.47,3.33-2.93l16.13-4.97-6.87-15.41c-.63-1.41-.62-3.02.01-4.43.64-1.4,1.85-2.47,3.33-2.93l14.07-4.33-6.77-7.86c-1.37-1.6-1.69-3.84-.82-5.76l34.81-76.66-21.96-9.97c-4.53-2.04-8.05-5.81-9.78-10.47-1.76-4.64-1.59-9.8.47-14.32,2.06-4.54,5.78-8.01,10.47-9.77,4.7-1.77,9.78-1.61,14.32.47l114.42,51.93h0c4.54,2.06,8.01,5.79,9.78,10.48,1.76,4.7,1.6,9.78-.46,14.32-2.06,4.54-5.78,8.01-10.47,9.77-4.7,1.76-9.78,1.61-14.32-.47l-21.96-9.97-84.34,185.79c-.51,1.11-1.37,2.02-2.46,2.57l-47.64,24.36c-.76.39-1.61.6-2.46.59m-7.33-56.79l10.91,43.5,39.93-20.42,85.78-188.98c1.24-2.7,4.43-3.9,7.15-2.68l26.88,12.2c1.91.87,4.06.94,6.06.19,1.97-.73,3.56-2.21,4.43-4.13.87-1.92.94-4.07.19-6.06-.73-1.97-2.22-3.57-4.13-4.44l-114.41-51.94c-1.91-.87-4.1-.94-6.06-.19-1.97.73-3.56,2.22-4.43,4.13-.87,1.91-.94,4.1-.19,6.06.73,1.97,2.22,3.57,4.13,4.43l26.87,12.21c2.71,1.23,3.91,4.43,2.68,7.14l-35.61,78.43,9.91,11.5c1.94,2.26,1.68,5.68-.58,7.62-.56.48-1.21.84-1.92,1.06l-16.13,4.96,6.87,15.41c1.21,2.72,0,5.91-2.73,7.13-.2.09-.4.17-.61.23l-16.13,4.96,6.87,15.41c1.21,2.72,0,5.91-2.73,7.13-.2.09-.4.17-.61.23l-16.13,4.97,6.87,15.41c.74,1.66.59,3.59-.39,5.12-.98,1.54-2.68,2.47-4.5,2.48l-15.18.11-3.06,6.82h0Z"/>
      <path class="cls-4" d="m552.88,559.11l16.5,8.25-87.89,191.66-32.69,18.09,104.08-217.99Z"/>
      <path class="cls-8" d="m464.84,750.96c-2.09,0-3.78-1.7-3.78-3.78,0-.54.11-1.07.34-1.55l3.77-8.29c3.98-8.78,6.72-14.81,8.7-18.89.06-.3.15-.6.27-.89l2.14-4.7.43.19c2.01-3.28,2.86-2.88,4.58-2.09,2.36,1.07,2.69,2.29,1.76,4.97l.11.04c-.04.1-.51,1.13-1.4,3.09-.23.51-.47,1.04-.73,1.62-.03.04-.05.1-.07.14-1.83,4.04-4.81,10.58-8.91,19.62l-3.76,8.3c-.62,1.35-1.96,2.21-3.44,2.21m23.29-51.29c-.54,0-1.07-.11-1.56-.34-1.9-.87-2.74-3.1-1.88-5l4.32-9.53c.87-1.91,3.12-2.74,5.01-1.88,1.9.86,2.74,3.1,1.88,5l-4.32,9.53c-.61,1.35-1.96,2.22-3.44,2.23m10.69-23.56c-.54,0-1.07-.11-1.56-.34-1.9-.87-2.74-3.1-1.88-5l19.11-42.11c.87-1.9,3.1-2.74,5.01-1.88,1.9.86,2.74,3.1,1.88,5l-19.11,42.11c-.61,1.35-1.96,2.22-3.44,2.22m24.46-53.89c-2.08,0-3.77-1.68-3.78-3.76,0-.55.12-1.09.34-1.58l11.06-24.38c.86-1.91,3.12-2.74,5.01-1.88,1.9.87,2.74,3.1,1.88,5l-11.08,24.38c-.61,1.35-1.96,2.22-3.44,2.22m120.86-79.72c-5.78,0-11.49-1.24-16.74-3.63-1.9-.87-2.74-3.1-1.88-5,.86-1.9,3.1-2.74,5-1.88,8.01,3.63,17.01,3.92,25.31.8,8.3-3.11,14.87-9.24,18.51-17.26l17.53-38.61c7.55-16.62.17-36.27-16.45-43.81l-128.42-58.31c-8.02-3.64-17.01-3.92-25.29-.8-1.97.68-4.13-.37-4.81-2.35-.65-1.9.29-3.97,2.14-4.73,10.19-3.82,21.23-3.47,31.08,1l128.43,58.3c20.41,9.26,29.47,33.41,20.21,53.81l-17.53,38.61c-6.79,14.97-21.61,23.84-37.07,23.84m-57.88-22.68c-.52,0-1.06-.11-1.56-.34l-84.95-38.56c-10.14-4.61-17.89-12.92-21.84-23.41-3.94-10.5-3.57-21.86,1.03-32l11.01-24.27c.85-1.89,3.08-2.74,4.97-1.89.01,0,.02,0,.03.01,1.9.86,2.74,3.1,1.88,5l-11.01,24.27c-7.82,17.22-.17,37.59,17.04,45.41l84.96,38.56c1.9.86,2.74,3.1,1.88,5-.61,1.35-1.96,2.22-3.44,2.22m66.53-154.41c-8.72,0-17.36-2.14-25.33-6.38-12.74-6.79-22.09-18.14-26.3-31.95s-2.79-28.44,4-41.19c6.78-12.74,18.13-22.09,31.94-26.3,13.81-4.21,28.46-2.79,41.19,3.99,21.61,11.51,32.81,36.18,27.25,60.01-.47,2.03-2.49,3.29-4.51,2.83,0,0-.02,0-.03,0-2.03-.48-3.29-2.51-2.81-4.53,0,0,0,0,0,0,4.79-20.49-4.85-41.72-23.44-51.62-10.96-5.84-23.54-7.06-35.43-3.44-11.89,3.62-21.65,11.66-27.49,22.62-5.84,10.96-7.06,23.55-3.44,35.43,3.63,11.89,11.66,21.64,22.63,27.48,11.38,6.07,24.39,7.14,36.64,3.05,2-.6,4.1.54,4.7,2.54.57,1.91-.44,3.93-2.3,4.62-5.56,1.89-11.4,2.85-17.27,2.86"/>
    </g>
  </g>
</svg>