<?xml version="1.0" encoding="utf-8"?>
<!-- Generator: Adobe Illustrator 27.7.0, SVG Export Plug-In . SVG Version: 6.00 Build 0)  -->
<svg version="1.1" id="logo" xmlns:serif="http://www.serif.com/"
	 xmlns="http://www.w3.org/2000/svg" xmlns:xlink="http://www.w3.org/1999/xlink" x="0px" y="0px" viewBox="0 0 1920 1080"
	 style="enable-background:new 0 0 1920 1080;" xml:space="preserve">
<style type="text/css">
	.st0{fill-rule:evenodd;clip-rule:evenodd;fill:#F4F3F3;}
	.st1{display:none;}
	.st2{display:inline;fill:#FFFFFF;}
	.st3{display:inline;fill:#020204;}
	.st4{display:inline;fill:#D99A03;}
	.st5{display:inline;fill:#604405;}
	.st6{display:inline;fill:#F5BD0C;}
	.st7{display:inline;fill:#CD8907;}
	.st8{display:none;fill:#F05032;}
	.st9{display:inline;fill:#8BD4FA;}
	.st10{display:inline;fill:#66C6F8;}
	.st11{display:inline;fill:#0F95BC;}
	.st12{display:inline;fill:#474341;}
	.st13{display:inline;fill:#5BC1ED;}
	.st14{display:inline;fill:#DFDEDE;}
	.st15{display:inline;fill:#AEABAA;}
	.st16{display:inline;fill:#FFFFFF;stroke:#000000;stroke-miterlimit:10;}
	.st17{display:inline;fill:#F98F17;}
	.st18{display:inline;fill:#FD9308;}
	.st19{display:inline;fill:#FFAD24;}
	.st20{display:inline;fill:#FFBF44;}
	.st21{display:inline;fill:#FFD362;}
	.st22{display:inline;fill:#FFE780;}
	.st23{display:inline;fill:#9FB7DE;}
	.st24{display:inline;fill:#6D92CB;}
	.st25{display:inline;fill:#2965AF;}
	.st26{display:inline;fill:#E98F36;}
	.st27{display:inline;fill:#099DFD;}
	.st28{display:inline;fill:#E5ECFF;}
	.st29{display:inline;fill:#5B79FB;}
	.st30{display:inline;fill:#FF7E71;}
	.st31{display:inline;fill:#A4BEFF;}
	.st32{display:inline;fill:#83A4FF;}
	.st33{fill:#4B81EE;}
	.st34{fill:#DBE6FC;}
	.st35{fill:#FF7879;}
</style>
<rect id="背景" x="414.7" y="-7.9" class="st0" width="1089.8" height="1095.9"/>
<g id="linux" class="st1">
	<path class="st2" d="M967.6,293.6c-6.2,4.2-11.4,10.4-14.6,17.7c-3.1,9.4-2.1,19.8,1,29.1c3.1,9.4,9.4,17.7,16.6,23.9
		c4.2,3.1,8.3,5.2,13.5,5.2c5.2,1,10.4,0,14.6-2.1c5.2-3.1,9.4-7.3,12.5-13.5c2.1-5.2,4.2-11.4,4.2-17.7c1-7.3,0-15.6-3.1-22.9
		c-3.1-8.3-8.3-14.6-14.6-19.8c-3.1-2.1-7.3-4.2-11.4-4.2s-8.3,0-12.5,1C971.8,291.5,969.7,292.5,967.6,293.6"/>
	<path class="st3" d="M1185,604.5c-4.2-21.8-10.4-42.6-17.7-62.4c-5.2-15.6-13.5-29.1-22.9-42.6c-9.4-12.5-21.8-22.9-30.2-35.4
		c-5.2-6.2-9.4-13.5-14.6-20.8c-2.1-4.2-4.2-8.3-6.2-12.5c-6.2-13.5-11.4-27-18.7-39.5c-1-2.1-2.1-4.2-3.1-6.2
		c-1-12.5-2.1-23.9-3.1-36.4c1-25-1-48.9-6.2-72.8c-3.1-11.4-8.3-22.9-14.6-32.2c-7.3-12.5-16.6-22.9-28.1-31.2
		c-18.7-13.5-40.6-19.8-62.4-19.8c-16.6,0-33.3,3.1-47.8,11.4c-15.6,8.3-28.1,21.8-35.4,37.4c-7.3,15.6-11.4,33.3-11.4,51
		c-1,17.7,1,34.3,2.1,52c1,17.7,0,35.4,2.1,53c0,5.2,1,11.4,1,17.7c0,3.1,0,6.2,0,8.3v1c-7.3,13.5-16.6,26-26,38.5
		c-6.2,8.3-13.5,16.6-19.8,25c-8.3,9.4-15.6,20.8-21.8,32.2c-4.2,10.4-7.3,20.8-9.4,31.2v1c-4.2,12.5-8.3,23.9-13.5,35.4
		c-1,1-1,2.1-1,3.1c-3.1,7.3-6.2,13.5-10.4,19.8l-6.2,4.2c-2.1,4.2-5.2,9.4-7.3,14.6c-1,3.1-2.1,6.2-2.1,9.4c-1,6.2-1,13.5,1,19.8
		c0,2.1,1,3.1,1,5.2c2.1,5.2,4.2,9.4,6.2,13.5c1,2.1,2.1,4.2,3.1,6.2l1,1c1,2.1,2.1,4.2,3.1,5.2l0,0c1,2.1,3.1,4.2,4.2,6.2l0,0
		c1,2.1,3.1,4.2,4.2,6.2c5.2,21.8,15.6,42.6,30.2,60.3c-2.1,4.2-4.2,7.3-6.2,11.4c-7.3,11.4-14.6,22.9-18.7,36.4
		c-2.1,6.2-2.1,13.5-1,19.8c1,7.3,4.2,13.5,10.4,17.7c3.1,3.1,7.3,4.2,12.5,5.2c4.2,1,8.3,1,13.5,1c16.6-1,33.3-4.2,49.9-9.4
		c9.4-2.1,19.8-5.2,29.1-7.3c10.4-2.1,20.8-4.2,31.2-4.2c2.1,0,5.2,0,7.3,0c7.3,1,14.6,1,21.8,1h3.1c2.1,0,4.2,0,5.2,0
		c12.5,1,25,2.1,37.4,4.2c11.4,2.1,21.8,4.2,32.2,6.2c16.6,5.2,34.3,8.3,51,9.4c4.2,0,9.4,0,13.5-1c4.2-1,8.3-3.1,12.5-5.2
		c5.2-4.2,8.3-10.4,10.4-17.7c1-7.3,1-13.5-1-19.8c-5.2-12.5-11.4-25-19.8-36.4c-3.1-4.2-5.2-9.4-8.3-14.6
		c11.4-13.5,21.8-28.1,31.2-42.6c5.2,0,10.4,0,15.6-2.1c13.5-4.2,25-13.5,33.3-25c2.1-3.1,4.2-7.3,5.2-11.4
		c5.2-8.3,8.3-17.7,10.4-27C1189.1,636.8,1188.1,620.1,1185,604.5L1185,604.5z"/>
	<path class="st2" d="M891.7,389.2c-2.1,3.1-4.2,6.2-5.2,10.4c-1,4.2-1,7.3-1,11.4c0,7.3,0,15.6-2.1,22.9
		c-3.1,8.3-6.2,15.6-11.4,21.8c-9.4,11.4-15.6,23.9-20.8,37.4c-2.1,8.3-3.1,16.6-2.1,26c-9.4,13.5-17.7,28.1-23.9,43.7
		c-10.4,22.9-16.6,46.8-19.8,71.8c-3.1,30.2,1,61.4,12.5,89.4c8.3,20.8,21.8,38.5,38.5,53c8.3,7.3,17.7,13.5,28.1,18.7
		c35.4,17.7,77,16.6,112.3-1c17.7-10.4,33.3-22.9,47.8-37.4c9.4-8.3,16.6-17.7,23.9-27c11.4-20.8,18.7-43.7,19.8-67.6
		c7.3-40.6,3.1-83.2-12.5-121.7c-6.2-12.5-14.6-25-23.9-34.3c-3.1-17.7-8.3-35.4-15.6-52c-5.2-11.4-12.5-22.9-17.7-35.4
		c-2.1-5.2-4.2-10.4-6.2-14.6c-2.1-5.2-5.2-9.4-9.4-13.5c-4.2-4.2-8.3-6.2-14.6-8.3c-5.2-2.1-10.4-2.1-16.6-3.1
		c-11.4-1-21.8,1-33.3,0c-8.3,0-17.7-2.1-26-1c-4.2,0-8.3,1-12.5,3.1C897.9,383,894.8,386.1,891.7,389.2 M895.9,293.6
		c-4.2,0-8.3,2.1-11.4,5.2c-3.1,3.1-5.2,6.2-6.2,10.4c-2.1,8.3-2.1,16.6-1,23.9c0,7.3,1,14.6,4.2,21.8c1,3.1,3.1,6.2,6.2,9.4
		c3.1,3.1,6.2,4.2,9.4,5.2c3.1,1,7.3,1,10.4,0s6.2-3.1,8.3-5.2c3.1-4.2,6.2-8.3,7.3-13.5c1-5.2,2.1-10.4,2.1-15.6
		c0-6.2-1-12.5-3.1-18.7s-5.2-11.4-9.4-16.6c-2.1-2.1-4.2-4.2-7.3-5.2C901.1,294.6,899,293.6,895.9,293.6 M967.6,293.6
		c-6.2,4.2-11.4,10.4-14.6,17.7c-3.1,9.4-2.1,19.8,1,29.1c3.1,9.4,9.4,17.7,16.6,23.9c4.2,3.1,8.3,5.2,13.5,5.2
		c5.2,1,10.4,0,14.6-2.1c5.2-3.1,9.4-7.3,12.5-13.5c2.1-5.2,4.2-11.4,4.2-17.7c1-7.3,0-15.6-3.1-22.9c-3.1-8.3-8.3-14.6-14.6-19.8
		c-3.1-2.1-7.3-4.2-11.4-4.2s-8.3,0-12.5,1C971.8,291.5,969.7,292.5,967.6,293.6"/>
	<path class="st3" d="M982.2,313.3c-2.1,0-5.2,1-7.3,2.1c-2.1,1-4.2,3.1-5.2,5.2c-2.1,4.2-4.2,8.3-4.2,13.5c0,3.1,0,7.3,1,10.4
		s3.1,6.2,6.2,8.3c3.1,2.1,6.2,4.2,10.4,4.2s7.3-1,10.4-3.1c2.1-2.1,4.2-4.2,6.2-6.2c1-2.1,2.1-5.2,2.1-8.3c1-5.2,0-10.4-2.1-15.6
		s-6.2-8.3-11.4-10.4C987.4,313.3,985.3,313.3,982.2,313.3"/>
	<path class="st2" d="M895.9,293.6c-4.2,0-8.3,2.1-11.4,5.2c-3.1,3.1-5.2,6.2-6.2,10.4c-2.1,8.3-2.1,16.6-1,23.9
		c0,7.3,1,14.6,4.2,21.8c1,3.1,3.1,6.2,6.2,9.4c3.1,3.1,6.2,4.2,9.4,5.2c3.1,1,7.3,1,10.4,0s6.2-3.1,8.3-5.2
		c3.1-4.2,6.2-8.3,7.3-13.5c1-5.2,2.1-10.4,2.1-15.6c0-6.2-1-12.5-3.1-18.7s-5.2-11.4-9.4-16.6c-2.1-2.1-4.2-4.2-7.3-5.2
		C901.1,294.6,899,293.6,895.9,293.6"/>
	<path class="st3" d="M885.5,327.9c-1,5.2-1,10.4,1,15.6c1,3.1,3.1,6.2,5.2,8.3c1,2.1,3.1,3.1,5.2,4.2s4.2,1,6.2,1
		c2.1-1,4.2-2.1,5.2-3.1c1-2.1,2.1-3.1,3.1-5.2c2.1-6.2,2.1-12.5,0-18.7c-1-4.2-3.1-8.3-7.3-11.4c-2.1-1-3.1-2.1-5.2-3.1
		c-2.1-1-4.2,0-6.2,1s-4.2,3.1-5.2,5.2S885.5,325.8,885.5,327.9"/>
	<path class="st4" d="M876.1,392.4c0,1,0,1,1,2.1c1,1,1,2.1,2.1,2.1c1,1,2.1,1,3.1,2.1c5.2,3.1,10.4,8.3,13.5,13.5
		c4.2,7.3,10.4,13.5,16.6,18.7c5.2,3.1,10.4,5.2,16.6,6.2c7.3,1,14.6,0,20.8-2.1s12.5-4.2,17.7-8.3c9.4-7.3,19.8-14.6,31.2-20.8
		c2.1-1,5.2-2.1,7.3-3.1s4.2-3.1,6.2-5.2c1-2.1,1-5.2,1-7.3c0-3.1,1-5.2,2.1-8.3s0-5.2-1-8.3c-1-2.1-3.1-4.2-5.2-5.2
		s-4.2-2.1-6.2-2.1c-4.2,0-9.4,1-13.5,1c-6.2,1-12.5,0-18.7,0c-7.3,0-15.6,2.1-22.9,2.1c-8.3,0-17.7-1-26-1c-4.2,0-7.3,0-11.4,1
		c-4.2,1-7.3,2.1-10.4,4.2c-3.1,2.1-5.2,5.2-8.3,7.3c-1,1-3.1,2.1-4.2,3.1c-2.1,1-3.1,1-5.2,1c-1,0-2.1,0-3.1,0s-1,1-1,1l-1,1
		C877.1,389.2,877.1,390.3,876.1,392.4"/>
	<path class="st5" d="M894.8,372.6c-3.1,2.1-6.2,4.2-9.4,6.2c-2.1,1-3.1,2.1-4.2,4.2c-1,1-1,2.1-1,4.2c0,1,0,2.1,0,4.2
		c0,1,0,2.1,0,3.1v1c0,0,0,1,1,1l1,1c1,0,1,0,2.1,0c3.1,1,5.2,2.1,7.3,4.2s4.2,4.2,6.2,5.2c6.2,4.2,13.5,7.3,20.8,7.3
		s14.6-1,21.8-3.1c5.2-1,11.4-3.1,16.6-4.2c8.3-3.1,16.6-8.3,22.9-13.5c3.1-3.1,6.2-5.2,9.4-8.3c3.1-2.1,6.2-3.1,9.4-5.2
		c0,0,1,0,1-1c0,0,0,0,1-1c0-1,0-1,0-2.1s0-1-1-1l-1-1c-3.1-2.1-7.3-4.2-12.5-4.2c-4.2,0-8.3,0-12.5-1s-8.3-2.1-11.4-3.1
		c-4.2-1-8.3-2.1-12.5-3.1c-10.4-2.1-19.8-1-30.2,1C912.5,364.3,903.1,368.4,894.8,372.6"/>
	<path class="st6" d="M893.8,362.2c-4.2,3.1-8.3,6.2-11.4,10.4c-2.1,2.1-3.1,5.2-4.2,8.3c-1,2.1-1,4.2-1,7.3c0,1,0,2.1,0,3.1v1
		c0,0,0,1,1,1c1,1,1,1,2.1,1s1,0,2.1,0c3.1,1,6.2,2.1,9.4,4.2c3.1,2.1,5.2,4.2,8.3,6.2c6.2,4.2,13.5,6.2,20.8,6.2s14.6-1,21.8-2.1
		c6.2-1,11.4-3.1,16.6-5.2c8.3-3.1,15.6-8.3,22.9-13.5c3.1-2.1,6.2-5.2,9.4-8.3c1-1,2.1-2.1,3.1-3.1s2.1-2.1,3.1-2.1
		c2.1-1,4.2-1,6.2,0c1,0,3.1,1,5.2,1c1,0,2.1,0,2.1,0c1,0,1-1,2.1-1c1-1,1-2.1,1-3.1s0-2.1-1-3.1c-1-2.1-3.1-3.1-5.2-4.2
		c-3.1-1-5.2-2.1-8.3-2.1c-8.3-2.1-16.6-5.2-25-9.4c-4.2-2.1-7.3-4.2-11.4-6.2s-8.3-4.2-12.5-5.2c-9.4-3.1-19.8-2.1-30.2,1
		C910.4,347.6,901.1,353.9,893.8,362.2"/>
	<path class="st7" d="M943.7,349.7c1,2.1,3.1,1,5.2,2.1c2.1,1,2.1,2.1,4.2,2.1c2.1,0,4.2-1,4.2-2.1c0-2.1-2.1-3.1-4.2-4.2
		c-2.1-1-5.2-1-7.3,0C943.7,348.7,943.7,349.7,943.7,349.7z M917.7,349.7c-2.1-1-5.2,3.1-4.2,5.2c0,1,1,1,2.1,1s2.1-2.1,3.1-3.1
		C918.7,350.8,918.7,349.7,917.7,349.7z"/>
	<path class="st6" d="M1244.3,775.1c-1,4.2-4.2,7.3-6.2,10.4c-6.2,7.3-14.6,12.5-22.9,16.6c-14.6,6.2-28.1,14.6-42.6,21.8
		c-9.4,6.2-17.7,12.5-25,19.8c-6.2,6.2-13.5,12.5-19.8,18.7c-7.3,5.2-15.6,9.4-25,10.4c-11.4,1-22.9,0-33.3-5.2
		c-7.3-3.1-13.5-7.3-18.7-14.6c-4.2-7.3-5.2-14.6-5.2-22.9c0-13.5,2.1-28.1,5.2-41.6c2.1-11.4,4.2-22.9,5.2-34.3
		c2.1-20.8,2.1-42.6,1-63.4c0-3.1,0-7.3,0-10.4c0-7.3,6.2-12.5,13.5-12.5c3.1,0,6.2,0,9.4,1c7.3,1,15.6,2.1,22.9,4.2
		c4.2,1,9.4,3.1,13.5,4.2c7.3,2.1,15.6,3.1,23.9,2.1c8.3-2.1,16.6-3.1,26-4.2c3.1,0,7.3,1,10.4,2.1s7.3,3.1,9.4,5.2s3.1,4.2,4.2,7.3
		c1,4.2,2.1,8.3,3.1,12.5c0,4.2,0,7.3,1,11.4c1,6.2,4.2,11.4,8.3,15.6c4.2,4.2,8.3,8.3,13.5,12.5c4.2,4.2,9.4,7.3,14.6,11.4
		c2.1,2.1,5.2,3.1,7.3,5.2s4.2,4.2,5.2,6.2C1244.3,766.8,1245.3,770.9,1244.3,775.1"/>
	<path class="st6" d="M1244.3,775.1c-1,4.2-4.2,7.3-6.2,10.4c-6.2,7.3-14.6,12.5-22.9,16.6c-14.6,6.2-28.1,14.6-42.6,21.8
		c-9.4,6.2-17.7,12.5-25,19.8c-6.2,6.2-13.5,12.5-19.8,18.7c-7.3,5.2-15.6,9.4-25,10.4c-11.4,1-22.9,0-33.3-5.2
		c-7.3-3.1-13.5-7.3-18.7-14.6c-4.2-7.3-5.2-14.6-5.2-22.9c0-13.5,2.1-28.1,5.2-41.6c2.1-11.4,4.2-22.9,5.2-34.3
		c2.1-20.8,2.1-42.6,1-63.4c0-3.1,0-7.3,0-10.4c0-7.3,6.2-12.5,13.5-12.5c3.1,0,6.2,0,9.4,1c7.3,1,15.6,2.1,22.9,4.2
		c4.2,1,9.4,3.1,13.5,4.2c7.3,2.1,15.6,3.1,23.9,2.1c8.3-2.1,16.6-3.1,26-4.2c3.1,0,7.3,1,10.4,2.1s7.3,3.1,9.4,5.2s3.1,4.2,4.2,7.3
		c1,4.2,2.1,8.3,3.1,12.5c0,4.2,0,7.3,1,11.4c1,6.2,4.2,11.4,8.3,15.6c4.2,4.2,8.3,8.3,13.5,12.5c4.2,4.2,9.4,7.3,14.6,11.4
		c2.1,2.1,5.2,3.1,7.3,5.2s4.2,4.2,5.2,6.2C1244.3,766.8,1245.3,770.9,1244.3,775.1 M765.9,657.6c4.2-1,7.3-2.1,11.4-1
		c4.2,1,7.3,2.1,11.4,4.2c6.2,5.2,11.4,10.4,16.6,17.7c10.4,14.6,20.8,30.2,30.2,45.8c7.3,12.5,14.6,26,22.9,37.4
		c5.2,7.3,12.5,14.6,17.7,22.9c6.2,7.3,10.4,16.6,13.5,26c3.1,12.5,2.1,25-4.2,36.4c-4.2,8.3-10.4,14.6-17.7,18.7s-16.6,7.3-25,6.2
		c-13.5-2.1-28.1-6.2-40.6-12.5c-27-10.4-55.1-13.5-83.2-21.8c-8.3-2.1-16.6-5.2-25-8.3c-4.2-1-7.3-2.1-11.4-3.1
		c-3.1-1-6.2-4.2-8.3-7.3c-1-3.1-2.1-5.2-2.1-8.3s1-6.2,2.1-8.3c2.1-5.2,5.2-10.4,7.3-16.6c3.1-9.4,4.2-19.8,4.2-29.1
		c0-9.4-2.1-19.8-3.1-29.1c0-4.2,0-8.3,0-13.5c1-8.3,8.3-15.6,16.6-16.6c4.2-1,8.3-1,12.5-1s8.3,0,12.5,0s8.3-1,11.4-3.1
		c3.1-2.1,6.2-5.2,8.3-8.3s4.2-6.2,6.2-10.4s4.2-6.2,6.2-9.4C758.6,661.7,761.7,659.6,765.9,657.6"/>
	<path class="st6" d="M765.9,657.6c4.2-1,7.3-2.1,11.4-1c4.2,1,7.3,2.1,11.4,4.2c6.2,5.2,11.4,10.4,16.6,17.7
		c10.4,14.6,20.8,30.2,30.2,45.8c7.3,12.5,14.6,26,22.9,37.4c5.2,7.3,12.5,14.6,17.7,22.9c6.2,7.3,10.4,16.6,13.5,26
		c3.1,12.5,2.1,25-4.2,36.4c-4.2,8.3-10.4,14.6-17.7,18.7s-16.6,7.3-25,6.2c-13.5-2.1-28.1-6.2-40.6-12.5
		c-27-10.4-55.1-13.5-83.2-21.8c-8.3-2.1-16.6-5.2-25-8.3c-4.2-1-7.3-2.1-11.4-3.1c-3.1-1-6.2-4.2-8.3-7.3c-1-3.1-2.1-5.2-2.1-8.3
		s1-6.2,2.1-8.3c2.1-5.2,5.2-10.4,7.3-16.6c3.1-9.4,4.2-19.8,4.2-29.1c0-9.4-2.1-19.8-3.1-29.1c0-4.2,0-8.3,0-13.5
		c1-8.3,8.3-15.6,16.6-16.6c4.2-1,8.3-1,12.5-1s8.3,0,12.5,0s8.3-1,11.4-3.1c3.1-2.1,6.2-5.2,8.3-8.3s4.2-6.2,6.2-10.4
		s4.2-6.2,6.2-9.4C758.6,661.7,761.7,659.6,765.9,657.6"/>
	<path class="st6" d="M771.1,664.8c3.1-1,7.3-1,10.4-1c3.1,0,7.3,2.1,9.4,5.2c5.2,5.2,10.4,10.4,13.5,16.6
		c9.4,14.6,17.7,30.2,26,44.7c6.2,11.4,12.5,22.9,19.8,33.3c5.2,7.3,11.4,13.5,16.6,19.8c5.2,7.3,9.4,14.6,12.5,22.9
		c3.1,10.4,2.1,22.9-3.1,32.2c-4.2,7.3-9.4,13.5-16.6,17.7c-7.3,4.2-15.6,6.2-22.9,5.2c-12.5-2.1-25-6.2-36.4-11.4
		c-22.9-8.3-48.9-9.4-71.8-16.6c-8.3-2.1-16.6-5.2-25-7.3c-4.2-1-7.3-2.1-11.4-3.1c-4.2-1-7.3-4.2-9.4-7.3c-1-2.1-2.1-5.2-2.1-8.3
		s1-6.2,2.1-8.3c2.1-5.2,5.2-10.4,7.3-15.6c3.1-8.3,4.2-17.7,3.1-26c-1-8.3-2.1-17.7-3.1-26c0-4.2,0-8.3,1-11.4
		c1-4.2,2.1-7.3,5.2-10.4c3.1-3.1,7.3-5.2,11.4-5.2s8.3-1,12.5,0s8.3,1,12.5,1c8.3,0,15.6-5.2,19.8-12.5c2.1-3.1,3.1-7.3,4.2-10.4
		c1-4.2,3.1-7.3,5.2-10.4C763.8,668,766.9,665.9,771.1,664.8"/>
</g>
<path class="st8" d="M1266.4,487.5L987,208.1c-16.1-16.1-42.2-16.1-58.3,0l-57.9,58l73.6,73.6c25.6-8.7,53.5,5.1,62.2,30.7
	c3.5,10.3,3.5,21.5-0.1,31.7l70.9,70.9c25.6-8.8,53.4,4.9,62.2,30.4c8.8,25.6-4.9,53.4-30.4,62.2s-53.4-4.9-62.2-30.4
	c-3.8-11.2-3.5-23.4,1-34.4l-66.4-66v174c24.3,12,34.2,41.5,22.2,65.8s-41.5,34.2-65.8,22.2c-4.8-2.4-9.2-5.5-13-9.4
	c-19.1-19.1-19.2-50-0.1-69.2l0.1-0.1c4.6-4.6,10.1-8.3,16.1-10.8V431.6c-25.1-10.4-37-39.1-26.6-64.2c0,0,0-0.1,0.1-0.1l-72.3-72.7
	L650.5,486.2c-16,16.2-16,42.2,0,58.4L930,823.9c16.1,16.1,42.2,16.1,58.3,0l0,0l278.1-278.1c16.1-16.1,16.1-42.1,0.1-58.2
	C1266.4,487.5,1266.4,487.5,1266.4,487.5L1266.4,487.5z"/>
<g id="ssh" class="st1">
	<path class="st9" d="M958.5,916c-220,0-400-180-400-400s180-400,400-400s400,180,400,400S1178.5,916,958.5,916z"/>
	<path class="st10" d="M1358.5,516c0-27.8-2.9-54.9-8.3-81.1L1125.6,318l-160.4-64.2c0,0-21.4-13.6-62.2,72.7
		c-33.7,71.2-49.8,110-49.8,110s-8.4,16.2,3.2,32.9c11.6,16.6,41.8,27.3,41.8,27.3s-8.8,9.8-8,20.6c0.8,10.7,36.1,21.4,36.1,21.4
		l-19.5,48.6l-16.2,30.6l8.4,16.6l-16.1,6.7l1.6,22.6l-16.1,6.8l3.2,20.2l-16.9,9.1l6.4,17l-24.9,15l16.9,52.2l90.2,131.7
		c5,0.2,10,0.4,15.1,0.4C1178.5,916,1358.5,736,1358.5,516z"/>
	<path class="st11" d="M1163.7,344L977,259.3c-19.1-8.7-41.8-0.1-50.4,18.9l-71.4,157.2c-8.7,19.1-0.1,41.8,18.9,50.4l186.7,84.8
		c19.1,8.7,41.8,0.1,50.4-18.9l71.3-157.2C1191.3,375.4,1182.8,352.7,1163.7,344 M1097.1,374.1c-4.3,9.5-15.7,13.8-25.2,9.5
		l-64.1-29.1c-9.5-4.3-13.8-15.7-9.5-25.2s15.7-13.8,25.2-9.5l64.1,29.1C1097.2,353.2,1101.4,364.5,1097.1,374.1"/>
	<path class="st12" d="M1076.6,579.3c-6,0-12.1-1.2-17.9-3.9L872,490.7c-10.5-4.8-18.6-13.4-22.7-24.3c-4.1-10.9-3.7-22.7,1.1-33.2
		L921.7,276c9.9-21.8,35.7-31.5,57.6-21.6l186.7,84.8c21.8,9.9,31.5,35.7,21.6,57.6L1116.2,554
		C1109,569.9,1093.1,579.3,1076.6,579.3 M961.4,261.3c-3.9,0-7.8,0.7-11.6,2.1c-8.2,3.1-14.7,9.1-18.3,17l-71.4,157.2
		c-7.5,16.4-0.2,35.8,16.2,43.3l186.7,84.8c16.4,7.5,35.8,0.2,43.3-16.2l71.4-157.2c7.4-16.4,0.2-35.8-16.2-43.3l-186.7-84.8
		C970.6,262.3,966,261.3,961.4,261.3 M1079.7,390.6c-3.4,0-6.8-0.7-10-2.2l-64.1-29.1c-12.3-5.6-17.7-20.1-12.2-32.4
		c5.6-12.3,20.1-17.7,32.3-12.1l64.1,29.1c12.3,5.6,17.7,20.1,12.2,32.4c-2.7,5.9-7.5,10.5-13.7,12.8
		C1085.6,390.1,1082.7,390.6,1079.7,390.6 M1015.7,323.4c-1.7,0-3.3,0.3-4.8,0.9c-3.4,1.3-6.1,3.8-7.6,7.1
		c-3.1,6.9-0.1,14.9,6.8,18.1l64.1,29.1c3.3,1.5,7,1.6,10.4,0.3c3.4-1.3,6.1-3.8,7.6-7.1c3.1-6.9,0.1-14.9-6.8-18.1l-64.1-29.1
		C1019.5,323.8,1017.6,323.4,1015.7,323.4"/>
	<path class="st13" d="M1044.9,528.8c18.5,8.4,40.4,0.1,48.8-18.3l17.5-38.6c8.4-18.5,0.1-40.4-18.3-48.8l-128.4-58.3
		c-9.2-4.2-15.6-4.5-19.5-3.7s-16.1-6.1-35.7,35.1l-11,24.3c-8.7,19.1-0.1,41.8,18.9,50.4l84.9,38.6L1044.9,528.8L1044.9,528.8z"/>
	<path class="st14" d="M1024.5,553.5l-114.4-51.9c-6.7-3-14.6,0-17.6,6.6c-3,6.7,0,14.6,6.6,17.6L926,538l-37,81.6l12.2,14.1
		l-22,6.8l9.4,21l-22,6.8l9.4,21l-22,6.7l9.4,21l-18.6,0.1l-5.3,11.7l13,51.9l47.6-24.4l86.6-190.7l26.9,12.2c6.7,3,14.6,0,17.6-6.6
		C1034.2,564.5,1031.2,556.5,1024.5,553.5"/>
	<path class="st12" d="M852.4,786c-2.5,0-4.6-1.7-5.2-4.1l-13-51.9c-0.3-1.2-0.2-2.4,0.3-3.5l5.3-11.6c0.9-1.9,2.8-3.1,4.9-3.2
		l10.4-0.1l-6-13.4c-1.2-2.7,0-5.9,2.7-7.1c0.2-0.1,0.4-0.2,0.6-0.2l16.1-5l-6.9-15.4c-0.6-1.4-0.6-3,0-4.4s1.9-2.5,3.3-2.9l16.1-5
		l-6.9-15.4c-0.6-1.4-0.6-3,0-4.4s1.9-2.5,3.3-2.9l14.1-4.3l-6.8-7.9c-1.4-1.6-1.7-3.8-0.8-5.8l34.8-76.7l-22-10
		c-4.5-2-8.1-5.8-9.8-10.5c-1.8-4.6-1.6-9.8,0.5-14.3s5.8-8,10.5-9.8s9.8-1.6,14.3,0.5l114.4,51.9l0,0c4.5,2.1,8,5.8,9.8,10.5
		s1.6,9.8-0.5,14.3s-5.8,8-10.5,9.8c-4.7,1.8-9.8,1.6-14.3-0.5l-22-10L905,758.5c-0.5,1.1-1.4,2-2.5,2.6l-47.6,24.4
		C854.1,785.8,853.3,786,852.4,786 M845.1,729.2l10.9,43.5l39.9-20.4l85.8-189c1.2-2.7,4.4-3.9,7.1-2.7l26.9,12.2
		c1.9,0.9,4.1,0.9,6.1,0.2s3.6-2.2,4.4-4.1c0.9-1.9,0.9-4.1,0.2-6.1c-0.7-2-2.2-3.6-4.1-4.4l-114.4-51.9c-1.9-0.9-4.1-0.9-6.1-0.2
		c-2,0.7-3.6,2.2-4.4,4.1c-0.9,1.9-0.9,4.1-0.2,6.1s2.2,3.6,4.1,4.4l26.9,12.2c2.7,1.2,3.9,4.4,2.7,7.1l-35.6,78.4l9.9,11.5
		c1.9,2.3,1.7,5.7-0.6,7.6c-0.6,0.5-1.2,0.8-1.9,1.1l-16.1,5l6.9,15.4c1.2,2.7,0,5.9-2.7,7.1c-0.2,0.1-0.4,0.2-0.6,0.2l-16.1,5
		l6.9,15.4c1.2,2.7,0,5.9-2.7,7.1c-0.2,0.1-0.4,0.2-0.6,0.2l-16.1,5l6.9,15.4c0.7,1.7,0.6,3.6-0.4,5.1s-2.7,2.5-4.5,2.5l-15.2,0.1
		L845.1,729.2L845.1,729.2z"/>
	<path class="st15" d="M967.6,551.2l16.5,8.2l-87.9,191.7l-32.7,18.1L967.6,551.2z"/>
	<path class="st12" d="M879.5,743.1c-2.1,0-3.8-1.7-3.8-3.8c0-0.5,0.1-1.1,0.3-1.6l3.8-8.3c4-8.8,6.7-14.8,8.7-18.9
		c0.1-0.3,0.2-0.6,0.3-0.9l2.1-4.7l0.4,0.2c2-3.3,2.9-2.9,4.6-2.1c2.4,1.1,2.7,2.3,1.8,5h0.1c0,0.1-0.5,1.1-1.4,3.1
		c-0.2,0.5-0.5,1-0.7,1.6c0,0,0,0.1-0.1,0.1c-1.8,4-4.8,10.6-8.9,19.6l-3.8,8.3C882.4,742.2,881,743.1,879.5,743.1 M902.8,691.8
		c-0.5,0-1.1-0.1-1.6-0.3c-1.9-0.9-2.7-3.1-1.9-5l4.3-9.5c0.9-1.9,3.1-2.7,5-1.9c1.9,0.9,2.7,3.1,1.9,5l-4.3,9.5
		C905.7,690.9,904.3,691.8,902.8,691.8 M913.5,668.2c-0.5,0-1.1-0.1-1.6-0.3c-1.9-0.9-2.7-3.1-1.9-5l19.1-42.1
		c0.9-1.9,3.1-2.7,5-1.9c1.9,0.9,2.7,3.1,1.9,5L917,666C916.4,667.3,915,668.2,913.5,668.2 M938,614.3c-2.1,0-3.8-1.7-3.8-3.8
		c0-0.5,0.1-1.1,0.3-1.6l11.1-24.4c0.9-1.9,3.1-2.7,5-1.9c1.9,0.9,2.7,3.1,1.9,5L941.4,612C940.8,613.4,939.5,614.3,938,614.3
		 M1058.8,534.6c-5.8,0-11.5-1.2-16.7-3.6c-1.9-0.9-2.7-3.1-1.9-5c0.9-1.9,3.1-2.7,5-1.9c8,3.6,17,3.9,25.3,0.8
		c8.3-3.1,14.9-9.2,18.5-17.3l17.5-38.6c7.6-16.6,0.2-36.3-16.4-43.8l-128.4-58.3c-8-3.6-17-3.9-25.3-0.8c-2,0.7-4.1-0.4-4.8-2.3
		s0.3-4,2.1-4.7c10.2-3.8,21.2-3.5,31.1,1l128.4,58.3c20.4,9.3,29.5,33.4,20.2,53.8l-17.5,38.6
		C1089.1,525.7,1074.3,534.6,1058.8,534.6 M1001,511.9c-0.5,0-1.1-0.1-1.6-0.3l-85-38.6c-10.1-4.6-17.9-12.9-21.8-23.4
		c-3.9-10.5-3.6-21.9,1-32l11-24.3c0.9-1.9,3.1-2.7,5-1.9l0,0c1.9,0.9,2.7,3.1,1.9,5l-11,24.3c-7.8,17.2-0.2,37.6,17,45.4l85,38.6
		c1.9,0.9,2.7,3.1,1.9,5C1003.8,511,1002.5,511.9,1001,511.9 M1067.5,357.5c-8.7,0-17.4-2.1-25.3-6.4c-12.7-6.8-22.1-18.1-26.3-32
		s-2.8-28.4,4-41.2c6.8-12.7,18.1-22.1,31.9-26.3c13.8-4.2,28.5-2.8,41.2,4c21.6,11.5,32.8,36.2,27.2,60c-0.5,2-2.5,3.3-4.5,2.8l0,0
		c-2-0.5-3.3-2.5-2.8-4.5l0,0c4.8-20.5-4.8-41.7-23.4-51.6c-11-5.8-23.5-7.1-35.4-3.4c-11.9,3.6-21.7,11.7-27.5,22.6
		s-7.1,23.6-3.4,35.4c3.6,11.9,11.7,21.6,22.6,27.5c11.4,6.1,24.4,7.1,36.6,3c2-0.6,4.1,0.5,4.7,2.5c0.6,1.9-0.4,3.9-2.3,4.6
		C1079.2,356.5,1073.4,357.5,1067.5,357.5"/>
</g>
<g id="homekit" class="st1">
	
		<rect id="背景_00000079470748961063974500000016777663795988644770_" x="414.7" y="-7.9" class="st16" width="1089.8" height="1095.9"/>
	<path class="st17" d="M683.6,568c0-20.1,0-40.1,0-60.8c-2.1,0-3.7,0-5.3,0c-19.2,0-38.4,0-57.5-0.1c-7.7-0.1-13.9-7.1-11.5-14.1
		c1.3-4,5-7.7,8.4-10.4c27.7-22.2,55.5-44.1,83.3-66c26.6-21,53.3-41.9,79.9-63c30.8-24.4,61.4-48.9,92.2-73.2
		c23.7-18.8,47.7-37.3,71.3-56.1c10-8,20.3-8,30.6,0.2c23.5,18.6,46.9,37.3,70.4,55.9c19.4,15.4,38.9,30.6,58.4,45.9
		c17.7,14,35.3,28,53.6,42.4c0.1-2,0.3-3.4,0.3-4.9c0-15.3,0.3-30.7-0.1-46c-0.2-6.8,5.3-12.3,12.3-12.2c16.9,0.1,33.8,0,50.6,0
		c9.3,0,13.6,4.4,13.6,13.8c0,35,0.1,70,0,104.9c0,3.4,0.8,5.7,3.8,8c22.3,17.3,44.4,34.9,66.5,52.5c5.5,4.3,7.3,9.3,5.5,14.3
		c-1.9,5.4-6.2,8-13.5,8c-19.9,0-39.9,0-60.6,0c0,20.4,0,40.6,0,60.8c-16.8,0-33.6,0-50.5,0c0-33.4-0.1-66.9,0-100.3
		c0-6.1-1.8-11.2-6.4-15.1c-8.5-7.1-17.1-14.2-25.9-21.2c-30.3-23.9-60.6-47.8-91-71.7c-29.9-23.5-59.8-46.9-89.7-70.4
		c-8.7-6.8-16.8-6.8-25.5,0c-15.4,12-30.8,24.1-46.1,36.1c-14.8,11.6-29.5,23.2-44.2,34.9c-18.3,14.5-36.5,29.1-54.9,43.5
		c-19.3,15.2-38.7,30.3-58,45.5c-6.6,5.2-9.9,11.7-9.8,20.6c0.4,32.7,0.1,65.4,0.1,98C717.3,568,700.4,568,683.6,568z"/>
	<path class="st18" d="M1185.3,568c16.8,0,33.6,0,50.5,0c0,1.5,0.1,3.1,0.1,4.6c0,83.5,0.1,167-0.1,250.4c0,6.7-1.3,13.5-2.7,20.1
		c-2.4,11.5-15.9,18.5-26.5,18.5c-118.3,0.1-236.6,0-354.9,0c-46.6,0-93.3,0.1-139.9-0.1c-12.2,0-23.7-8.5-26.6-20.9
		c-1.1-4.7-1.5-9.6-1.5-14.4c-0.1-85.2-0.1-170.3-0.1-255.5c0-0.9,0.1-1.8,0.1-2.8c16.8,0,33.6,0,50.5,0c0,73.5,0,146.9,0,220.4
		c0,14.9,7.8,22.7,22.7,22.7c135.6,0,271.2,0,406.8,0c13.6,0,21.7-8.1,21.7-21.7C1185.3,715.5,1185.3,641.8,1185.3,568z"/>
	<path class="st19" d="M1185.3,568c0,73.8,0,147.5,0,221.3c0,13.6-8.1,21.7-21.7,21.7c-135.6,0-271.2,0-406.8,0
		c-14.9,0-22.7-7.8-22.7-22.7c0-73.5,0-146.9,0-220.4c0-32.7,0.2-65.4-0.1-98c-0.1-8.9,3.2-15.4,9.8-20.6
		c19.3-15.2,38.7-30.3,58-45.5c18.3-14.5,36.6-29,54.9-43.5c14.7-11.7,29.4-23.3,44.2-34.9c15.4-12.1,30.8-24.1,46.1-36.1
		c8.7-6.8,16.8-6.8,25.5,0c29.9,23.5,59.8,46.9,89.7,70.4c30.3,23.9,60.7,47.7,91,71.7c8.7,6.9,17.3,14,25.9,21.2
		c4.6,3.9,6.4,9,6.4,15.1C1185.2,501.1,1185.3,534.5,1185.3,568z M959.9,759.5c51.4,0,102.8-0.2,154.2,0.2
		c11.4,0.1,19.7-7.2,19.7-19.9c-0.2-82.1-0.2-164.2,0-246.3c0-8.5-3.6-14.2-9.8-19.1c-20.6-16.1-41.2-32.1-61.7-48.2
		c-30.4-23.9-60.6-47.8-91-71.7c-8.5-6.7-14.7-6.7-23.2-0.1c-10.7,8.3-21.4,16.7-32.1,25.1c-17.7,13.8-35.3,27.7-52.9,41.6
		c-21.3,16.8-42.5,33.9-64.1,50.3c-9.1,6.9-13.7,14.5-13.6,26.5c0.5,80.7,0.3,161.4,0.3,242.1c0,12.9,6.6,19.5,19.5,19.5
		C856.8,759.5,908.3,759.5,959.9,759.5z"/>
	<path class="st20" d="M959.9,759.5c-51.6,0-103.1,0-154.7,0c-12.9,0-19.5-6.6-19.5-19.5c0-80.7,0.2-161.4-0.3-242.1
		c-0.1-12,4.5-19.6,13.6-26.5c21.6-16.4,42.8-33.5,64.1-50.3c17.6-13.9,35.3-27.8,52.9-41.6c10.7-8.4,21.4-16.7,32.1-25.1
		c8.5-6.6,14.7-6.6,23.2,0.1c30.4,23.8,60.6,47.8,91,71.7c20.5,16.1,41.1,32.1,61.7,48.2c6.2,4.8,9.8,10.6,9.8,19.1
		c-0.2,82.1-0.2,164.2,0,246.3c0,12.8-8.3,20-19.7,19.9C1062.7,759.3,1011.3,759.5,959.9,759.5z M959.7,707.9c35.6,0,71.2,0,106.8,0
		c9.8,0,15.6-5.9,15.7-15.7c0-15,0-30.1,0-45.1c0-43.1,0.1-86.2-0.2-129.3c0-4.2-1.6-9.8-4.5-12.4c-10.2-9.1-21.3-17.3-32.1-25.8
		c-14.1-11.2-28.2-22.4-42.3-33.6c-11.5-9.1-22.9-18.2-34.6-27.1c-5.6-4.3-11.8-4.3-17.5-0.1c-8.4,6.3-16.7,12.8-24.9,19.4
		c-27.5,21.8-54.8,43.8-82.4,65.5c-4.4,3.5-6.4,7.8-6.4,13c-0.1,58.8-0.1,117.5,0,176.3c0,8.9,6.2,14.9,15.2,14.9
		C888.2,707.9,923.9,707.9,959.7,707.9z"/>
	<path class="st21" d="M959.7,707.9c-35.7,0-71.5,0-107.2,0c-8.9,0-15.2-6-15.2-14.9c0-58.8,0-117.5,0-176.3c0-5.2,1.9-9.5,6.4-13
		c27.6-21.7,54.9-43.7,82.4-65.5c8.2-6.6,16.5-13.1,24.9-19.4c5.7-4.2,11.8-4.2,17.5,0.1c11.6,8.9,23.1,18.1,34.6,27.1
		c14.1,11.2,28.2,22.4,42.3,33.6c10.8,8.5,21.9,16.6,32.1,25.8c2.9,2.6,4.5,8.2,4.5,12.4c0.3,43.1,0.2,86.2,0.2,129.3
		c0,15,0,30.1,0,45.1c0,9.8-5.9,15.7-15.7,15.7C1030.9,707.9,995.3,707.9,959.7,707.9z M959.5,657.3c19.2,0,38.4-0.3,57.5,0.1
		c10,0.2,14.6-6.3,14.5-14.7c-0.2-33.8-0.2-67.5,0-101.3c0-6.1-2.5-10.2-6.9-13.7c-18.1-14.2-36.3-28.4-54.4-42.6
		c-7.7-6.1-13.4-6.2-21-0.1c-18.2,14.3-36.5,28.6-54.8,42.9c-4.3,3.4-6.8,7.4-6.7,13.3c0.2,34.2,0.1,68.4,0.1,102.6
		c0,8.7,4.6,13.4,13.2,13.4C920.6,657.3,940.1,657.3,959.5,657.3z"/>
	<path class="st22" d="M959.5,657.3c-19.5,0-39,0-58.5,0c-8.6,0-13.2-4.7-13.2-13.4c0-34.2,0.1-68.4-0.1-102.6
		c0-5.9,2.5-10,6.7-13.3c18.2-14.3,36.5-28.6,54.8-42.9c7.7-6,13.3-5.9,21,0.1c18.1,14.3,36.3,28.4,54.4,42.6
		c4.4,3.5,7,7.6,6.9,13.7c-0.2,33.8-0.2,67.5,0,101.3c0.1,8.4-4.5,14.9-14.5,14.7C997.9,657,978.7,657.3,959.5,657.3z"/>
</g>
<g id="netlink" class="st1">
	<path class="st23" d="M716.1,304.6c-14.5,0-28.4-5.8-38.5-16.1c-21.4-21.5-21.4-56.3,0-77.7c21.3-20.6,55.1-20.6,76.5,0
		c7,7.2,11.9,16.2,13.9,26h124.7c18.8-0.2,36.6,8.9,47.5,24.2l73.3,117.1c5.8,6.2,13.9,9.7,22.4,9.9h70.4
		c0-20.7,11.6-39.7,30.1-49.1c18.4-9.4,40.6-7.4,57,5.1c16.5,12.6,24.6,33.5,20.7,53.9c0,14.5-5.7,28.4-15.8,38.9
		c-21,21.2-55.3,21.4-76.5,0.3c-4.9-4.8-8.8-10.5-11.5-16.8h-74.1c-18.8-0.5-36.5-9.3-48.2-24l-73.3-117.5
		c-5.9-6.5-14-10.4-22.7-10.8H768c-7.7,21.7-28,36.3-51,36.7H716.1z M1300.8,641.6c30.4-0.6,55.5,23.5,56.1,53.9
		c0.6,30.4-23.5,55.5-53.9,56.1c-15,0.3-29.4-5.5-40-16.1c-6-6-10.5-13.2-13.2-21.3h-102.5c-18.3,0-21.1,2.9-21.4,3.7l-73.3,111.5
		c-11.8,15.2-29.9,24.1-49.1,24h-90.8c-13.1,27.4-45.9,39.1-73.3,26c-22.1-10.5-34.6-34.3-30.6-58.5c3-8.1,7.9-15.4,14.3-21.3
		c9.5-10.2,22.7-16.4,36.7-17c23.8,0.4,44.7,16.1,51.7,38.9h91.7c8.5,0,16.6-3.6,22.4-9.9l73.3-111.3c11.6-13.8,29.4-20.7,47.3-18.3
		h101.4c6.7-23.4,27.9-39.7,52.2-40L1300.8,641.6z"/>
	<path class="st24" d="M926.4,671.3H765.6c-11,28.3-42.9,42.3-71.2,31.3c-20-7.8-33.6-26.4-35-47.8c0-14.4,5.7-28.2,15.8-38.5
		c21-21.2,55.2-21.5,76.5-0.5c6.7,6.6,11.6,14.9,14.1,23.9H926c8.8-29.1,39.5-45.5,68.6-36.7c29.1,8.8,45.5,39.5,36.7,68.6
		s-39.5,45.5-68.6,36.7c-17.6-5.3-31.4-19.1-36.7-36.7L926.4,671.3z"/>
	<path class="st25" d="M918,464.8c-0.1,30.4-24.8,54.9-55.1,54.9c-30.4-0.1-54.9-24.8-54.9-55.1c0.1-30.4,24.8-54.9,55.1-54.9
		c14.3,0,28.1,5.7,38.4,15.7c10.3,10.3,16,24.3,15.9,38.9L918,464.8z"/>
</g>
<g id="brain" class="st1">
	<path class="st26" d="M1128.2,563.8c-22.3,0-38.2,16.6-44.6,34.6h-59v24.5h59c5.8,20.2,22.3,34.6,44.6,34.6
		c26.6,0,46.8-20.2,46.8-46.8C1174.3,584,1154.1,563.8,1128.2,563.8L1128.2,563.8z M1164.2,429.9h56.9c4.3,20.2,24.5,34.6,44.6,34.6
		c26.6,0,46.8-20.2,46.8-46.8c0-26.6-20.2-46.8-46.8-46.8c-22.3,0-38.2,16.6-44.6,34.6h-69.1l-59,91.4h-70.6v24.5h82.8
		C1105.1,521.3,1164.2,429.9,1164.2,429.9z M1128.2,365.1c26.6,0,46.8-20.2,46.8-46.8c0-26.6-20.2-46.8-46.8-46.8
		c-22.3,0-38.2,16.6-44.6,34.6h-59v24.5h59C1089.3,352.9,1105.9,365.1,1128.2,365.1z M1184.3,776.2c-22.3,0-38.2,16.6-44.6,34.6
		h-117.4v24.5h118.1c4.3,20.2,24.5,34.6,44.6,34.6c26.6,0,46.8-20.2,46.8-46.8C1231.1,796.4,1211,776.2,1184.3,776.2L1184.3,776.2z"
		/>
	<path class="st27" d="M1283.7,566c-26.6,0-46.8,20.2-46.8,46.8c0,12.2,4.3,24.5,12.2,32.4l-34.6,54.7h-190.1v22.3H1229l44.6-64.8
		c4.3,0,7.9,2.2,12.2,2.2c26.6,0,46.8-20.2,46.8-46.8C1330.5,586.1,1308.2,566,1283.7,566z M935.2,210.3
		c-36.7-22.3-74.9-24.5-111.6-6.5c-40.3,20.2-64.8,54.7-67,92.9c0,2.9-0.7,5.8-0.7,8.6c-48.2,2.9-79.9,20.9-94.3,54
		c-16.6,35.3-11.5,75.6,8.6,109.4c-43.9,17.3-53.3,50.4-53.3,77c0,39.6,21.6,70.6,62.6,92.9c-11.5,29.5-11.5,61.9,0,90
		c13.7,32.4,41,50.4,80.6,54.7c1.4,40.3,23,74.9,61.2,92.9c26.6,12.2,49,16.6,67,16.6c24.5,0,42.5-5.8,56.9-16.6
		c28.1-18,44.6-49,44.6-70.6v-517C989.9,262.9,965.5,230.5,935.2,210.3z M925.1,852.5c-24.5,14.4-56.9,12.2-91.4-4.3
		c-44.6-20.2-46.8-60.5-44.6-77c4.3-36.7,26.6-67,56.9-77c7.9-2.2,12.2-10.1,10.1-18c-2.2-7.9-10.1-12.2-18-10.1
		c-38.2,13-66.2,46.1-74.9,87.8c-29.5-3.6-45.4-15.8-56.9-37.4c-16.6-38.2-2.2-95,50.4-123.8c7.9-4.3,10.1-12.2,5.8-20.2
		s-12.2-10.1-20.2-5.8c-20.2,11.5-36.7,27.4-49,45.4c-30.2-15.8-46.1-37.4-46.1-65.5c0-17.3,3.6-40.3,42.5-51.1
		c9.4,9.4,20.2,18,32.4,24.5c2.2,2.2,5.8,2.2,7.9,2.2c5.8,0,10.1-4.3,14.4-7.9c4.3-5.8,2.2-16.6-5.8-20.2
		c-50.4-30.2-64.8-85-49-121.7c9.4-22.3,32.4-34.6,70.6-36c5.8,17.3,17.3,32.4,32.4,42.5c5.8,4.3,16.6,2.2,20.2-4.3
		c4.3-5.8,2.2-16.6-4.3-20.2c-16.6-12.2-24.5-32.4-22.3-54.7c0-28.1,18-52.6,46.8-67c34.6-16.6,62.6-7.9,81.4,4.3
		c26.6,16.6,40.3,40.3,40.3,52.6v88.6c-27.4-10.8-43.9-31-50.4-57.6c-2.2-7.9-10.1-14.4-18-12.2c-7.9,2.2-14.4,10.1-12.2,18
		c9.4,43.9,36,72.7,81.4,85v394.6C955.4,818,945.3,840.3,925.1,852.5z"/>
	<path class="st9" d="M898.5,434.9c-7.9,4.3-10.1,12.2-7.9,20.2c2.2,9.4,12.2,34.6-43.2,60.5c-10.8-7.9-24.5-15.8-39.6-23.8
		c-7.9-2.2-16.6,0-20.2,7.9c-2.2,7.9,0,16.6,7.9,20.2c36.7,18,59,36.7,62.6,56.9c4.3,14.4-2.2,28.1-14.4,46.8
		c-4.3,5.8-2.2,16.6,4.3,20.2c2.2,2.2,4.3,2.2,7.9,2.2c4.3,0,7.9-2.2,12.2-5.8c18-26.6,24.5-50.4,18-72.7
		c-2.9-10.8-8.6-20.2-16.6-30.2c57.6-30.2,59.8-67,49-93.6C915.1,434.9,907.1,432.8,898.5,434.9z"/>
</g>
<g id="network_x5F_earth" class="st1">
	<path class="st28" d="M646.9,520c0,169,136.9,306,305.9,306c169,0,306-136.9,306-305.9c0,0,0-0.1,0-0.1c0-169-136.9-306-305.9-306
		C783.9,214,646.9,350.9,646.9,520C646.9,519.9,646.9,520,646.9,520z"/>
	<path class="st29" d="M880.1,724c-87.5-43.7-211.3-36.4-131.1-204c27.9-58.5-24.8-87.4-86.4-96.5c-10.1,30.3-15.6,62.8-15.6,96.5
		c0,162.7,127,295.6,287.2,305.3C937,792.3,929.7,748.8,880.1,724L880.1,724z M1069.5,498.2c0,0,36.4,43.7-21.9,58.3
		s-94.7,43.7-80.2,102s0,58.3,80.2,51s102-80.2,102-94.7c0-14.6,21.9-94.7-21.9-116.5C1084,476.3,1076.7,461.7,1069.5,498.2
		L1069.5,498.2z"/>
	<path class="st30" d="M1357,457c-5.5-39.8-52.2-68.4-134.9-82.7h-0.2c5.7,10.5,10.8,21.4,15.3,32.7c54.2,12,87.8,31.7,91,54.1
		c3.5,25-30.4,57.2-90.8,86.3c-67,32.3-158.8,57.8-258.6,71.8c-99.8,14-195,14.7-268.3,2c-66-11.4-107.6-33.1-111-58
		c-2.5-18.4,15.2-40.7,49-62.8c-0.2-0.3-0.4-0.4-0.6-0.6c0.8-12.2,2.4-24.2,4.6-35.9c-58.4,32.9-86.7,68.4-81.7,103.4
		c5.5,39.8,52.2,68.4,134.9,82.7c36.4,6.2,77.8,9.4,122.3,9.4c48.8,0,101.3-3.8,155-11.2c102.7-14.4,197.5-40.8,267.2-74.4
		C1325.5,537.1,1362.5,496.8,1357,457L1357,457z"/>
	<path class="st31" d="M967.6,214.4c-4.8-0.2-9.8-0.4-14.7-0.4c-110.2,0-206.7,58.3-260.6,145.6c46.9-0.5,86-22.5,97.1-52.1
		c8.2,0.8,16.5,1.2,25,1.2c52.1,0,98.3-15.3,127.5-38.9c8,6.1,19.7,9.8,32.7,9.8c0.5,0,1,0,1.4-0.1c4.7,22.9,26,86.4,114.8,84.2
		c0,0,54.1-1.3,79.2,108.1c0,0,56.3,22.5,72-51.7C1202.3,304.7,1095.3,220.5,967.6,214.4z"/>
	<path class="st32" d="M901.9,385.3c0,14.1,13.1,25.5,29.2,25.5c16.1,0,29.2-11.4,29.2-25.5c0,0,0,0,0,0c0-14.1-13.1-25.5-29.2-25.5
		C915,359.7,901.9,371.2,901.9,385.3C901.9,385.2,901.9,385.2,901.9,385.3z"/>
	<path class="st31" d="M986.5,394.1c4.6,7.6,17.5,13.1,25.1,12.5s10-7.2,5.3-14.9c-3.5-5.8-10.3-10.7-17.6-15.3
		c-4.6-7.6-17.5-13.1-25.1-12.5s-10,7.2-5.3,14.9C972.5,384.6,979.2,389.6,986.5,394.1z"/>
</g>
<g id="path_x5F_planning">
	<path class="st33" d="M760.3,671.3h-31.5c-14.9,0-27-12.1-27-27c0-14.9,12.1-27,27-27h31.5c34.7,0,63-24.8,63-54.9
		c0-30.2-28.3-54.9-63-54.9h-36c-14.9,0-27-12.1-27-27s12.1-27,27-27h36c64.4,0,117,48.6,117,108.9S825.1,671.3,760.3,671.3
		L760.3,671.3z"/>
	<path class="st33" d="M1136.5,867.9H705.4c-64.3,0-117-56.2-117-125.1s52.7-125.1,117-125.1h49c14.9,0,27,12.2,27,27
		s-12.1,27-27,27h-49c-34.7,0-63,31.9-63,71.1s28.3,71.1,63,71.1h431.1c14.8,0,27,12.1,27,27
		C1163.5,855.8,1151.4,867.9,1136.5,867.9L1136.5,867.9z"/>
	<path class="st34" d="M833.2,306.8c0,72.5-96.3,172.4-108.9,172.4c-12.6,0-108.9-98.1-108.9-172.4c0-60.3,48.6-108.9,108.9-108.9
		C784.6,197.9,833.2,246.9,833.2,306.8z"/>
	<path class="st33" d="M724.3,506.6c-9.9,0-20.3-4.1-41-23.9c-13-12.6-27-28.4-39.6-45c-25.2-33.3-55.3-82.8-55.3-130.5
		c0-74.7,60.8-135.9,135.9-135.9s135.9,60.8,135.9,135.9c0,46.3-30.1,96.3-55.3,129.6C785.5,462.5,748.6,506.6,724.3,506.6z
		 M724.3,224.9c-45,0-81.9,36.9-81.9,81.9c0,49,56.2,116.6,81.9,140c26.5-24.3,81.9-94,81.9-140
		C806.2,261.8,769.8,224.9,724.3,224.9z"/>
	<path class="st35" d="M687,302.3c0,20.7,16.7,37.3,37.4,37.3c20.7,0,37.3-16.6,37.3-37.3c0-20.7-16.7-37.4-37.3-37.4
		C703.6,264.9,687,281.6,687,302.3C687,301.8,687,301.8,687,302.3z"/>
	<path class="st33" d="M1136.5,867.5c-9.9,0-23.4-3.2-59.8-38.2c-23.4-22.5-48.6-50.9-71.1-80.6C961,690.2,907.9,602.9,907.9,521
		c0-126,102.6-228.6,228.6-228.6S1365.1,395,1365.1,521c0,79.6-53.1,166.9-97.6,225.9c-22.5,29.7-47.7,59-71.1,81.5
		C1159.9,864.3,1146.4,867.5,1136.5,867.5z M1136.5,346.8c-96.3,0-174.6,78.3-174.6,174.6c0,109.4,134.1,259.2,174.2,288.9
		c40.5-30.1,174.6-180.5,174.6-288.9C1311.1,425.1,1232.8,346.8,1136.5,346.8z"/>
	<path class="st35" d="M1136.5,593.4c45.9,0,83.2-37.3,83.2-83.2s-37.3-83.2-83.2-83.2s-83.2,37.4-83.2,83.3
		S1090.6,593.4,1136.5,593.4z M1136.5,480.9c16.2,0,29.2,13,29.2,29.2s-13,29.2-29.2,29.2c-16.2,0-29.2-13.1-29.2-29.2
		C1107.3,494,1120.3,480.9,1136.5,480.9z"/>
</g>
</svg>
