<?xml version="1.0" encoding="UTF-8"?>
<svg id="logo" xmlns="http://www.w3.org/2000/svg" xmlns:serif="http://www.serif.com/" version="1.1" viewBox="0 0 1920 1080">
  <defs>
    <style>
      .cls-1 {
        stroke: #000;
        stroke-miterlimit: 10;
      }

      .cls-1, .cls-2 {
        fill: #fff;
      }

      .cls-3 {
        fill: #099dfd;
      }

      .cls-3, .cls-4, .cls-5, .cls-6, .cls-7, .cls-8, .cls-9, .cls-10, .cls-11, .cls-12, .cls-13, .cls-14, .cls-15, .cls-16, .cls-17, .cls-18, .cls-19, .cls-20, .cls-21, .cls-22, .cls-23, .cls-24, .cls-25, .cls-26, .cls-27, .cls-28, .cls-29, .cls-30, .cls-31, .cls-32, .cls-33, .cls-34, .cls-35, .cls-2, .cls-36, .cls-37, .cls-38 {
        stroke-width: 0px;
      }

      .cls-4 {
        fill: #0f95bc;
      }

      .cls-5 {
        fill: #a4beff;
      }

      .cls-6 {
        fill: #e5ecff;
      }

      .cls-7 {
        fill: #f05032;
      }

      .cls-7, .cls-39 {
        display: none;
      }

      .cls-8 {
        fill: #f5bd0c;
      }

      .cls-9 {
        fill: #f98f17;
      }

      .cls-10 {
        fill: #474341;
      }

      .cls-11 {
        fill: #4b81ee;
      }

      .cls-12 {
        fill: #46af4b;
      }

      .cls-13 {
        fill: #2965af;
      }

      .cls-14 {
        fill: #aeabaa;
      }

      .cls-15 {
        fill: #604405;
      }

      .cls-16 {
        fill: #ffd362;
      }

      .cls-17 {
        fill: #5b79fb;
      }

      .cls-18 {
        fill: #d99a03;
      }

      .cls-19 {
        fill: #000;
      }

      .cls-20 {
        fill: #e98f36;
      }

      .cls-21 {
        fill: #8bd4fa;
      }

      .cls-22 {
        fill: #dfdede;
      }

      .cls-23 {
        fill: #66c6f8;
      }

      .cls-24 {
        fill: #ff7879;
      }

      .cls-25 {
        fill: #020204;
      }

      .cls-26 {
        fill: #5bc1ed;
      }

      .cls-27 {
        fill: #fd9308;
      }

      .cls-28 {
        fill: #83a4ff;
      }

      .cls-29 {
        fill: #ff7e71;
      }

      .cls-30 {
        fill: #6d92cb;
      }

      .cls-31 {
        fill: #ffbf44;
      }

      .cls-32 {
        fill: #cd2355;
      }

      .cls-33 {
        fill: #ffad24;
      }

      .cls-34 {
        fill: #f4f3f3;
      }

      .cls-35 {
        fill: #9fb7de;
      }

      .cls-36 {
        fill: #dbe6fc;
      }

      .cls-37 {
        fill: #ffe780;
      }

      .cls-38 {
        fill: #cd8907;
      }
    </style>
  </defs>
  <rect id="_背景" data-name="背景" class="cls-34" x="414.7" y="-7.9" width="1089.8" height="1095.9"/>
  <g id="linux" class="cls-39">
    <path class="cls-2" d="M967.6,293.6c-6.2,4.2-11.4,10.4-14.6,17.7-3.1,9.4-2.1,19.8,1,29.1,3.1,9.4,9.4,17.7,16.6,23.9,4.2,3.1,8.3,5.2,13.5,5.2,5.2,1,10.4,0,14.6-2.1,5.2-3.1,9.4-7.3,12.5-13.5,2.1-5.2,4.2-11.4,4.2-17.7,1-7.3,0-15.6-3.1-22.9-3.1-8.3-8.3-14.6-14.6-19.8-3.1-2.1-7.3-4.2-11.4-4.2s-8.3,0-12.5,1c-2,1.2-4.1,2.2-6.2,3.3"/>
    <path class="cls-25" d="M1185,604.5c-4.2-21.8-10.4-42.6-17.7-62.4-5.2-15.6-13.5-29.1-22.9-42.6-9.4-12.5-21.8-22.9-30.2-35.4-5.2-6.2-9.4-13.5-14.6-20.8-2.1-4.2-4.2-8.3-6.2-12.5-6.2-13.5-11.4-27-18.7-39.5-1-2.1-2.1-4.2-3.1-6.2-1-12.5-2.1-23.9-3.1-36.4,1-25-1-48.9-6.2-72.8-3.1-11.4-8.3-22.9-14.6-32.2-7.3-12.5-16.6-22.9-28.1-31.2-18.7-13.5-40.6-19.8-62.4-19.8s-33.3,3.1-47.8,11.4c-15.6,8.3-28.1,21.8-35.4,37.4-7.3,15.6-11.4,33.3-11.4,51-1,17.7,1,34.3,2.1,52,1,17.7,0,35.4,2.1,53,0,5.2,1,11.4,1,17.7v9.3c-7.3,13.5-16.6,26-26,38.5-6.2,8.3-13.5,16.6-19.8,25-8.3,9.4-15.6,20.8-21.8,32.2-4.2,10.4-7.3,20.8-9.4,31.2v1c-4.2,12.5-8.3,23.9-13.5,35.4-1,1-1,2.1-1,3.1-3.1,7.3-6.2,13.5-10.4,19.8l-6.2,4.2c-2.1,4.2-5.2,9.4-7.3,14.6-1,3.1-2.1,6.2-2.1,9.4-1,6.2-1,13.5,1,19.8,0,2.1,1,3.1,1,5.2,2.1,5.2,4.2,9.4,6.2,13.5,1,2.1,2.1,4.2,3.1,6.2l1,1c1,2.1,2.1,4.2,3.1,5.2h0c1,2.1,3.1,4.2,4.2,6.2h0c1,2.1,3.1,4.2,4.2,6.2,5.2,21.8,15.6,42.6,30.2,60.3-2.1,4.2-4.2,7.3-6.2,11.4-7.3,11.4-14.6,22.9-18.7,36.4-2.1,6.2-2.1,13.5-1,19.8,1,7.3,4.2,13.5,10.4,17.7,3.1,3.1,7.3,4.2,12.5,5.2,4.2,1,8.3,1,13.5,1,16.6-1,33.3-4.2,49.9-9.4,9.4-2.1,19.8-5.2,29.1-7.3,10.4-2.1,20.8-4.2,31.2-4.2h7.3c7.3,1,14.6,1,21.8,1h8.3c12.5,1,25,2.1,37.4,4.2,11.4,2.1,21.8,4.2,32.2,6.2,16.6,5.2,34.3,8.3,51,9.4,4.2,0,9.4,0,13.5-1,4.2-1,8.3-3.1,12.5-5.2,5.2-4.2,8.3-10.4,10.4-17.7,1-7.3,1-13.5-1-19.8-5.2-12.5-11.4-25-19.8-36.4-3.1-4.2-5.2-9.4-8.3-14.6,11.4-13.5,21.8-28.1,31.2-42.6,5.2,0,10.4,0,15.6-2.1,13.5-4.2,25-13.5,33.3-25,2.1-3.1,4.2-7.3,5.2-11.4,5.2-8.3,8.3-17.7,10.4-27,3.1-14.3,2.1-31-1-46.6h0Z"/>
    <path class="cls-2" d="M891.7,389.2c-2.1,3.1-4.2,6.2-5.2,10.4-1,4.2-1,7.3-1,11.4,0,7.3,0,15.6-2.1,22.9-3.1,8.3-6.2,15.6-11.4,21.8-9.4,11.4-15.6,23.9-20.8,37.4-2.1,8.3-3.1,16.6-2.1,26-9.4,13.5-17.7,28.1-23.9,43.7-10.4,22.9-16.6,46.8-19.8,71.8-3.1,30.2,1,61.4,12.5,89.4,8.3,20.8,21.8,38.5,38.5,53,8.3,7.3,17.7,13.5,28.1,18.7,35.4,17.7,77,16.6,112.3-1,17.7-10.4,33.3-22.9,47.8-37.4,9.4-8.3,16.6-17.7,23.9-27,11.4-20.8,18.7-43.7,19.8-67.6,7.3-40.6,3.1-83.2-12.5-121.7-6.2-12.5-14.6-25-23.9-34.3-3.1-17.7-8.3-35.4-15.6-52-5.2-11.4-12.5-22.9-17.7-35.4-2.1-5.2-4.2-10.4-6.2-14.6-2.1-5.2-5.2-9.4-9.4-13.5-4.2-4.2-8.3-6.2-14.6-8.3-5.2-2.1-10.4-2.1-16.6-3.1-11.4-1-21.8,1-33.3,0-8.3,0-17.7-2.1-26-1-4.2,0-8.3,1-12.5,3.1-2.1,1.1-5.2,4.2-8.3,7.3M895.9,293.6c-4.2,0-8.3,2.1-11.4,5.2-3.1,3.1-5.2,6.2-6.2,10.4-2.1,8.3-2.1,16.6-1,23.9,0,7.3,1,14.6,4.2,21.8,1,3.1,3.1,6.2,6.2,9.4,3.1,3.1,6.2,4.2,9.4,5.2,3.1,1,7.3,1,10.4,0s6.2-3.1,8.3-5.2c3.1-4.2,6.2-8.3,7.3-13.5,1-5.2,2.1-10.4,2.1-15.6s-1-12.5-3.1-18.7-5.2-11.4-9.4-16.6c-2.1-2.1-4.2-4.2-7.3-5.2-4.3,0-6.4-1.1-9.5-1.1M967.6,293.6c-6.2,4.2-11.4,10.4-14.6,17.7-3.1,9.4-2.1,19.8,1,29.1,3.1,9.4,9.4,17.7,16.6,23.9,4.2,3.1,8.3,5.2,13.5,5.2,5.2,1,10.4,0,14.6-2.1,5.2-3.1,9.4-7.3,12.5-13.5,2.1-5.2,4.2-11.4,4.2-17.7,1-7.3,0-15.6-3.1-22.9-3.1-8.3-8.3-14.6-14.6-19.8-3.1-2.1-7.3-4.2-11.4-4.2s-8.3,0-12.5,1c-2,1.2-4.1,2.2-6.2,3.3"/>
    <path class="cls-25" d="M982.2,313.3c-2.1,0-5.2,1-7.3,2.1-2.1,1-4.2,3.1-5.2,5.2-2.1,4.2-4.2,8.3-4.2,13.5s0,7.3,1,10.4,3.1,6.2,6.2,8.3c3.1,2.1,6.2,4.2,10.4,4.2s7.3-1,10.4-3.1c2.1-2.1,4.2-4.2,6.2-6.2,1-2.1,2.1-5.2,2.1-8.3,1-5.2,0-10.4-2.1-15.6s-6.2-8.3-11.4-10.4c-.9-.1-3-.1-6.1-.1"/>
    <path class="cls-2" d="M895.9,293.6c-4.2,0-8.3,2.1-11.4,5.2-3.1,3.1-5.2,6.2-6.2,10.4-2.1,8.3-2.1,16.6-1,23.9,0,7.3,1,14.6,4.2,21.8,1,3.1,3.1,6.2,6.2,9.4,3.1,3.1,6.2,4.2,9.4,5.2,3.1,1,7.3,1,10.4,0s6.2-3.1,8.3-5.2c3.1-4.2,6.2-8.3,7.3-13.5,1-5.2,2.1-10.4,2.1-15.6s-1-12.5-3.1-18.7-5.2-11.4-9.4-16.6c-2.1-2.1-4.2-4.2-7.3-5.2-4.3,0-6.4-1.1-9.5-1.1"/>
    <path class="cls-25" d="M885.5,327.9c-1,5.2-1,10.4,1,15.6,1,3.1,3.1,6.2,5.2,8.3,1,2.1,3.1,3.1,5.2,4.2s4.2,1,6.2,1c2.1-1,4.2-2.1,5.2-3.1,1-2.1,2.1-3.1,3.1-5.2,2.1-6.2,2.1-12.5,0-18.7-1-4.2-3.1-8.3-7.3-11.4-2.1-1-3.1-2.1-5.2-3.1-2.1-1-4.2,0-6.2,1s-4.2,3.1-5.2,5.2-2,4.1-2,6.2"/>
    <path class="cls-18" d="M876.1,392.4q0,1,1,2.1c1,1,1,2.1,2.1,2.1,1,1,2.1,1,3.1,2.1,5.2,3.1,10.4,8.3,13.5,13.5,4.2,7.3,10.4,13.5,16.6,18.7,5.2,3.1,10.4,5.2,16.6,6.2,7.3,1,14.6,0,20.8-2.1s12.5-4.2,17.7-8.3c9.4-7.3,19.8-14.6,31.2-20.8,2.1-1,5.2-2.1,7.3-3.1s4.2-3.1,6.2-5.2c1-2.1,1-5.2,1-7.3,0-3.1,1-5.2,2.1-8.3s0-5.2-1-8.3c-1-2.1-3.1-4.2-5.2-5.2s-4.2-2.1-6.2-2.1c-4.2,0-9.4,1-13.5,1-6.2,1-12.5,0-18.7,0s-15.6,2.1-22.9,2.1-17.7-1-26-1-7.3,0-11.4,1c-4.2,1-7.3,2.1-10.4,4.2-3.1,2.1-5.2,5.2-8.3,7.3-1,1-3.1,2.1-4.2,3.1-2.1,1-3.1,1-5.2,1h-3.1c-1,0-1,1-1,1l-1,1c0,2.1,0,3.2-1.1,5.3"/>
    <path class="cls-15" d="M894.8,372.6c-3.1,2.1-6.2,4.2-9.4,6.2-2.1,1-3.1,2.1-4.2,4.2-1,1-1,2.1-1,4.2v8.3s0,1,1,1l1,1h2.1c3.1,1,5.2,2.1,7.3,4.2s4.2,4.2,6.2,5.2c6.2,4.2,13.5,7.3,20.8,7.3s14.6-1,21.8-3.1c5.2-1,11.4-3.1,16.6-4.2,8.3-3.1,16.6-8.3,22.9-13.5,3.1-3.1,6.2-5.2,9.4-8.3,3.1-2.1,6.2-3.1,9.4-5.2,0,0,1,0,1-1l1-1v-2.1c0-1.1,0-1-1-1l-1-1c-3.1-2.1-7.3-4.2-12.5-4.2s-8.3,0-12.5-1-8.3-2.1-11.4-3.1c-4.2-1-8.3-2.1-12.5-3.1-10.4-2.1-19.8-1-30.2,1-7.1.9-16.5,5-24.8,9.2"/>
    <path class="cls-8" d="M893.8,362.2c-4.2,3.1-8.3,6.2-11.4,10.4-2.1,2.1-3.1,5.2-4.2,8.3-1,2.1-1,4.2-1,7.3v4.1s0,1,1,1q1,1,2.1,1h2.1c3.1,1,6.2,2.1,9.4,4.2,3.1,2.1,5.2,4.2,8.3,6.2,6.2,4.2,13.5,6.2,20.8,6.2s14.6-1,21.8-2.1c6.2-1,11.4-3.1,16.6-5.2,8.3-3.1,15.6-8.3,22.9-13.5,3.1-2.1,6.2-5.2,9.4-8.3,1-1,2.1-2.1,3.1-3.1s2.1-2.1,3.1-2.1c2.1-1,4.2-1,6.2,0,1,0,3.1,1,5.2,1h2.1c1,0,1-1,2.1-1,1-1,1-2.1,1-3.1s0-2.1-1-3.1c-1-2.1-3.1-3.1-5.2-4.2-3.1-1-5.2-2.1-8.3-2.1-8.3-2.1-16.6-5.2-25-9.4-4.2-2.1-7.3-4.2-11.4-6.2s-8.3-4.2-12.5-5.2c-9.4-3.1-19.8-2.1-30.2,1-10.4,3.3-19.7,9.6-27,17.9"/>
    <path class="cls-38" d="M943.7,349.7c1,2.1,3.1,1,5.2,2.1,2.1,1,2.1,2.1,4.2,2.1s4.2-1,4.2-2.1c0-2.1-2.1-3.1-4.2-4.2-2.1-1-5.2-1-7.3,0-2.1,1.1-2.1,2.1-2.1,2.1ZM917.7,349.7c-2.1-1-5.2,3.1-4.2,5.2,0,1,1,1,2.1,1s2.1-2.1,3.1-3.1c0-2,0-3.1-1-3.1Z"/>
    <path class="cls-8" d="M1244.3,775.1c-1,4.2-4.2,7.3-6.2,10.4-6.2,7.3-14.6,12.5-22.9,16.6-14.6,6.2-28.1,14.6-42.6,21.8-9.4,6.2-17.7,12.5-25,19.8-6.2,6.2-13.5,12.5-19.8,18.7-7.3,5.2-15.6,9.4-25,10.4-11.4,1-22.9,0-33.3-5.2-7.3-3.1-13.5-7.3-18.7-14.6-4.2-7.3-5.2-14.6-5.2-22.9,0-13.5,2.1-28.1,5.2-41.6,2.1-11.4,4.2-22.9,5.2-34.3,2.1-20.8,2.1-42.6,1-63.4v-10.4c0-7.3,6.2-12.5,13.5-12.5s6.2,0,9.4,1c7.3,1,15.6,2.1,22.9,4.2,4.2,1,9.4,3.1,13.5,4.2,7.3,2.1,15.6,3.1,23.9,2.1,8.3-2.1,16.6-3.1,26-4.2,3.1,0,7.3,1,10.4,2.1s7.3,3.1,9.4,5.2,3.1,4.2,4.2,7.3c1,4.2,2.1,8.3,3.1,12.5,0,4.2,0,7.3,1,11.4,1,6.2,4.2,11.4,8.3,15.6,4.2,4.2,8.3,8.3,13.5,12.5,4.2,4.2,9.4,7.3,14.6,11.4,2.1,2.1,5.2,3.1,7.3,5.2s4.2,4.2,5.2,6.2c1.1,2.2,2.1,6.3,1.1,10.5"/>
    <path class="cls-8" d="M1244.3,775.1c-1,4.2-4.2,7.3-6.2,10.4-6.2,7.3-14.6,12.5-22.9,16.6-14.6,6.2-28.1,14.6-42.6,21.8-9.4,6.2-17.7,12.5-25,19.8-6.2,6.2-13.5,12.5-19.8,18.7-7.3,5.2-15.6,9.4-25,10.4-11.4,1-22.9,0-33.3-5.2-7.3-3.1-13.5-7.3-18.7-14.6-4.2-7.3-5.2-14.6-5.2-22.9,0-13.5,2.1-28.1,5.2-41.6,2.1-11.4,4.2-22.9,5.2-34.3,2.1-20.8,2.1-42.6,1-63.4v-10.4c0-7.3,6.2-12.5,13.5-12.5s6.2,0,9.4,1c7.3,1,15.6,2.1,22.9,4.2,4.2,1,9.4,3.1,13.5,4.2,7.3,2.1,15.6,3.1,23.9,2.1,8.3-2.1,16.6-3.1,26-4.2,3.1,0,7.3,1,10.4,2.1s7.3,3.1,9.4,5.2,3.1,4.2,4.2,7.3c1,4.2,2.1,8.3,3.1,12.5,0,4.2,0,7.3,1,11.4,1,6.2,4.2,11.4,8.3,15.6,4.2,4.2,8.3,8.3,13.5,12.5,4.2,4.2,9.4,7.3,14.6,11.4,2.1,2.1,5.2,3.1,7.3,5.2s4.2,4.2,5.2,6.2c1.1,2.2,2.1,6.3,1.1,10.5M765.9,657.6c4.2-1,7.3-2.1,11.4-1,4.2,1,7.3,2.1,11.4,4.2,6.2,5.2,11.4,10.4,16.6,17.7,10.4,14.6,20.8,30.2,30.2,45.8,7.3,12.5,14.6,26,22.9,37.4,5.2,7.3,12.5,14.6,17.7,22.9,6.2,7.3,10.4,16.6,13.5,26,3.1,12.5,2.1,25-4.2,36.4-4.2,8.3-10.4,14.6-17.7,18.7s-16.6,7.3-25,6.2c-13.5-2.1-28.1-6.2-40.6-12.5-27-10.4-55.1-13.5-83.2-21.8-8.3-2.1-16.6-5.2-25-8.3-4.2-1-7.3-2.1-11.4-3.1-3.1-1-6.2-4.2-8.3-7.3-1-3.1-2.1-5.2-2.1-8.3s1-6.2,2.1-8.3c2.1-5.2,5.2-10.4,7.3-16.6,3.1-9.4,4.2-19.8,4.2-29.1s-2.1-19.8-3.1-29.1v-13.5c1-8.3,8.3-15.6,16.6-16.6,4.2-1,8.3-1,12.5-1h12.5c4.2,0,8.3-1,11.4-3.1,3.1-2.1,6.2-5.2,8.3-8.3s4.2-6.2,6.2-10.4,4.2-6.2,6.2-9.4c2.3-3.5,5.4-5.6,9.6-7.6"/>
    <path class="cls-8" d="M765.9,657.6c4.2-1,7.3-2.1,11.4-1,4.2,1,7.3,2.1,11.4,4.2,6.2,5.2,11.4,10.4,16.6,17.7,10.4,14.6,20.8,30.2,30.2,45.8,7.3,12.5,14.6,26,22.9,37.4,5.2,7.3,12.5,14.6,17.7,22.9,6.2,7.3,10.4,16.6,13.5,26,3.1,12.5,2.1,25-4.2,36.4-4.2,8.3-10.4,14.6-17.7,18.7s-16.6,7.3-25,6.2c-13.5-2.1-28.1-6.2-40.6-12.5-27-10.4-55.1-13.5-83.2-21.8-8.3-2.1-16.6-5.2-25-8.3-4.2-1-7.3-2.1-11.4-3.1-3.1-1-6.2-4.2-8.3-7.3-1-3.1-2.1-5.2-2.1-8.3s1-6.2,2.1-8.3c2.1-5.2,5.2-10.4,7.3-16.6,3.1-9.4,4.2-19.8,4.2-29.1s-2.1-19.8-3.1-29.1v-13.5c1-8.3,8.3-15.6,16.6-16.6,4.2-1,8.3-1,12.5-1h12.5c4.2,0,8.3-1,11.4-3.1,3.1-2.1,6.2-5.2,8.3-8.3s4.2-6.2,6.2-10.4,4.2-6.2,6.2-9.4c2.3-3.5,5.4-5.6,9.6-7.6"/>
    <path class="cls-8" d="M771.1,664.8c3.1-1,7.3-1,10.4-1s7.3,2.1,9.4,5.2c5.2,5.2,10.4,10.4,13.5,16.6,9.4,14.6,17.7,30.2,26,44.7,6.2,11.4,12.5,22.9,19.8,33.3,5.2,7.3,11.4,13.5,16.6,19.8,5.2,7.3,9.4,14.6,12.5,22.9,3.1,10.4,2.1,22.9-3.1,32.2-4.2,7.3-9.4,13.5-16.6,17.7-7.3,4.2-15.6,6.2-22.9,5.2-12.5-2.1-25-6.2-36.4-11.4-22.9-8.3-48.9-9.4-71.8-16.6-8.3-2.1-16.6-5.2-25-7.3-4.2-1-7.3-2.1-11.4-3.1-4.2-1-7.3-4.2-9.4-7.3-1-2.1-2.1-5.2-2.1-8.3s1-6.2,2.1-8.3c2.1-5.2,5.2-10.4,7.3-15.6,3.1-8.3,4.2-17.7,3.1-26-1-8.3-2.1-17.7-3.1-26,0-4.2,0-8.3,1-11.4,1-4.2,2.1-7.3,5.2-10.4s7.3-5.2,11.4-5.2,8.3-1,12.5,0,8.3,1,12.5,1c8.3,0,15.6-5.2,19.8-12.5,2.1-3.1,3.1-7.3,4.2-10.4,1-4.2,3.1-7.3,5.2-10.4,2-4.2,5.1-6.3,9.3-7.4"/>
  </g>
  <path class="cls-7" d="M1266.4,487.5l-279.4-279.4c-16.1-16.1-42.2-16.1-58.3,0l-57.9,58,73.6,73.6c25.6-8.7,53.5,5.1,62.2,30.7,3.5,10.3,3.5,21.5,0,31.7l70.9,70.9c25.6-8.8,53.4,4.9,62.2,30.4,8.8,25.6-4.9,53.4-30.4,62.2s-53.4-4.9-62.2-30.4c-3.8-11.2-3.5-23.4,1-34.4l-66.4-66v174c24.3,12,34.2,41.5,22.2,65.8s-41.5,34.2-65.8,22.2c-4.8-2.4-9.2-5.5-13-9.4-19.1-19.1-19.2-50,0-69.2h0c4.6-4.7,10.1-8.4,16.1-10.9v-175.7c-25.1-10.4-37-39.1-26.6-64.2,0,0,0-.1,0-.1l-72.3-72.7-191.8,191.6c-16,16.2-16,42.2,0,58.4l279.5,279.3c16.1,16.1,42.2,16.1,58.3,0h0l278.1-278.1c16.1-16.1,16.1-42.1,0-58.2h0Z"/>
  <g id="ssh" class="cls-39">
    <path class="cls-21" d="M958.5,916c-220,0-400-180-400-400S738.5,116,958.5,116s400,180,400,400-180,400-400,400Z"/>
    <path class="cls-23" d="M1358.5,516c0-27.8-2.9-54.9-8.3-81.1l-224.6-116.9-160.4-64.2s-21.4-13.6-62.2,72.7c-33.7,71.2-49.8,110-49.8,110,0,0-8.4,16.2,3.2,32.9,11.6,16.6,41.8,27.3,41.8,27.3,0,0-8.8,9.8-8,20.6.8,10.7,36.1,21.4,36.1,21.4l-19.5,48.6-16.2,30.6,8.4,16.6-16.1,6.7,1.6,22.6-16.1,6.8,3.2,20.2-16.9,9.1,6.4,17-24.9,15,16.9,52.2,90.2,131.7c5,.2,10,.4,15.1.4,220.1-.2,400.1-180.2,400.1-400.2Z"/>
    <path class="cls-4" d="M1163.7,344l-186.7-84.7c-19.1-8.7-41.8-.1-50.4,18.9l-71.4,157.2c-8.7,19.1,0,41.8,18.9,50.4l186.7,84.8c19.1,8.7,41.8,0,50.4-18.9l71.3-157.2c8.8-19.1.3-41.8-18.8-50.5M1097.1,374.1c-4.3,9.5-15.7,13.8-25.2,9.5l-64.1-29.1c-9.5-4.3-13.8-15.7-9.5-25.2s15.7-13.8,25.2-9.5l64.1,29.1c9.6,4.3,13.8,15.6,9.5,25.2"/>
    <path class="cls-10" d="M1076.6,579.3c-6,0-12.1-1.2-17.9-3.9l-186.7-84.7c-10.5-4.8-18.6-13.4-22.7-24.3-4.1-10.9-3.7-22.7,1.1-33.2l71.3-157.2c9.9-21.8,35.7-31.5,57.6-21.6l186.7,84.8c21.8,9.9,31.5,35.7,21.6,57.6l-71.4,157.2c-7.2,15.9-23.1,25.3-39.6,25.3M961.4,261.3c-3.9,0-7.8.7-11.6,2.1-8.2,3.1-14.7,9.1-18.3,17l-71.4,157.2c-7.5,16.4-.2,35.8,16.2,43.3l186.7,84.8c16.4,7.5,35.8.2,43.3-16.2l71.4-157.2c7.4-16.4.2-35.8-16.2-43.3l-186.7-84.8c-4.2-1.9-8.8-2.9-13.4-2.9M1079.7,390.6c-3.4,0-6.8-.7-10-2.2l-64.1-29.1c-12.3-5.6-17.7-20.1-12.2-32.4,5.6-12.3,20.1-17.7,32.3-12.1l64.1,29.1c12.3,5.6,17.7,20.1,12.2,32.4-2.7,5.9-7.5,10.5-13.7,12.8-2.7,1-5.6,1.5-8.6,1.5M1015.7,323.4c-1.7,0-3.3.3-4.8.9-3.4,1.3-6.1,3.8-7.6,7.1-3.1,6.9,0,14.9,6.8,18.1l64.1,29.1c3.3,1.5,7,1.6,10.4.3,3.4-1.3,6.1-3.8,7.6-7.1,3.1-6.9,0-14.9-6.8-18.1l-64.1-29.1c-1.8-.8-3.7-1.2-5.6-1.2"/>
    <path class="cls-26" d="M1044.9,528.8c18.5,8.4,40.4,0,48.8-18.3l17.5-38.6c8.4-18.5,0-40.4-18.3-48.8l-128.4-58.3c-9.2-4.2-15.6-4.5-19.5-3.7s-16.1-6.1-35.7,35.1l-11,24.3c-8.7,19.1,0,41.8,18.9,50.4l84.9,38.6,42.8,19.3h0Z"/>
    <path class="cls-22" d="M1024.5,553.5l-114.4-51.9c-6.7-3-14.6,0-17.6,6.6-3,6.7,0,14.6,6.6,17.6l26.9,12.2-37,81.6,12.2,14.1-22,6.8,9.4,21-22,6.8,9.4,21-22,6.7,9.4,21h-18.6c0,0-5.3,11.8-5.3,11.8l13,51.9,47.6-24.4,86.6-190.7,26.9,12.2c6.7,3,14.6,0,17.6-6.6,3-6.7,0-14.7-6.7-17.7"/>
    <path class="cls-10" d="M852.4,786c-2.5,0-4.6-1.7-5.2-4.1l-13-51.9c-.3-1.2-.2-2.4.3-3.5l5.3-11.6c.9-1.9,2.8-3.1,4.9-3.2h10.4c0,0-6-13.5-6-13.5-1.2-2.7,0-5.9,2.7-7.1.2,0,.4-.2.6-.2l16.1-5-6.9-15.4c-.6-1.4-.6-3,0-4.4s1.9-2.5,3.3-2.9l16.1-5-6.9-15.4c-.6-1.4-.6-3,0-4.4s1.9-2.5,3.3-2.9l14.1-4.3-6.8-7.9c-1.4-1.6-1.7-3.8-.8-5.8l34.8-76.7-22-10c-4.5-2-8.1-5.8-9.8-10.5-1.8-4.6-1.6-9.8.5-14.3s5.8-8,10.5-9.8,9.8-1.6,14.3.5l114.4,51.9h0c4.5,2.1,8,5.8,9.8,10.5s1.6,9.8-.5,14.3-5.8,8-10.5,9.8c-4.7,1.8-9.8,1.6-14.3-.5l-22-10-84.1,185.8c-.5,1.1-1.4,2-2.5,2.6l-47.6,24.4c-.8.3-1.6.5-2.5.5M845.1,729.2l10.9,43.5,39.9-20.4,85.8-189c1.2-2.7,4.4-3.9,7.1-2.7l26.9,12.2c1.9.9,4.1.9,6.1.2s3.6-2.2,4.4-4.1c.9-1.9.9-4.1.2-6.1-.7-2-2.2-3.6-4.1-4.4l-114.4-51.9c-1.9-.9-4.1-.9-6.1-.2-2,.7-3.6,2.2-4.4,4.1-.9,1.9-.9,4.1-.2,6.1s2.2,3.6,4.1,4.4l26.9,12.2c2.7,1.2,3.9,4.4,2.7,7.1l-35.6,78.4,9.9,11.5c1.9,2.3,1.7,5.7-.6,7.6-.6.5-1.2.8-1.9,1.1l-16.1,5,6.9,15.4c1.2,2.7,0,5.9-2.7,7.1-.2,0-.4.2-.6.2l-16.1,5,6.9,15.4c1.2,2.7,0,5.9-2.7,7.1-.2,0-.4.2-.6.2l-16.1,5,6.9,15.4c.7,1.7.6,3.6-.4,5.1s-2.7,2.5-4.5,2.5h-15.2c0,0-3.3,7-3.3,7h0Z"/>
    <path class="cls-14" d="M967.6,551.2l16.5,8.2-87.9,191.7-32.7,18.1,104.1-218Z"/>
    <path class="cls-10" d="M879.5,743.1c-2.1,0-3.8-1.7-3.8-3.8s0-1.1.3-1.6l3.8-8.3c4-8.8,6.7-14.8,8.7-18.9,0-.3.2-.6.3-.9l2.1-4.7.4.2c2-3.3,2.9-2.9,4.6-2.1,2.4,1.1,2.7,2.3,1.8,5h0c0,0-.5,1.1-1.4,3.1-.2.5-.5,1-.7,1.6,0,0,0,0,0,0-1.8,4-4.8,10.6-8.9,19.6l-3.8,8.3c-.5,1.5-1.9,2.4-3.4,2.4M902.8,691.8c-.5,0-1.1,0-1.6-.3-1.9-.9-2.7-3.1-1.9-5l4.3-9.5c.9-1.9,3.1-2.7,5-1.9,1.9.9,2.7,3.1,1.9,5l-4.3,9.5c-.5,1.3-1.9,2.2-3.4,2.2M913.5,668.2c-.5,0-1.1,0-1.6-.3-1.9-.9-2.7-3.1-1.9-5l19.1-42.1c.9-1.9,3.1-2.7,5-1.9,1.9.9,2.7,3.1,1.9,5l-19,42.1c-.6,1.3-2,2.2-3.5,2.2M938,614.3c-2.1,0-3.8-1.7-3.8-3.8s0-1.1.3-1.6l11.1-24.4c.9-1.9,3.1-2.7,5-1.9,1.9.9,2.7,3.1,1.9,5l-11.1,24.4c-.6,1.4-1.9,2.3-3.4,2.3M1058.8,534.6c-5.8,0-11.5-1.2-16.7-3.6-1.9-.9-2.7-3.1-1.9-5,.9-1.9,3.1-2.7,5-1.9,8,3.6,17,3.9,25.3.8,8.3-3.1,14.9-9.2,18.5-17.3l17.5-38.6c7.6-16.6.2-36.3-16.4-43.8l-128.4-58.3c-8-3.6-17-3.9-25.3-.8-2,.7-4.1-.4-4.8-2.3s.3-4,2.1-4.7c10.2-3.8,21.2-3.5,31.1,1l128.4,58.3c20.4,9.3,29.5,33.4,20.2,53.8l-17.5,38.6c-6.8,14.9-21.6,23.8-37.1,23.8M1001,511.9c-.5,0-1.1-.1-1.6-.3l-85-38.6c-10.1-4.6-17.9-12.9-21.8-23.4-3.9-10.5-3.6-21.9,1-32l11-24.3c.9-1.9,3.1-2.7,5-1.9h0c1.9.9,2.7,3.1,1.9,5l-11,24.3c-7.8,17.2-.2,37.6,17,45.4l85,38.6c1.9.9,2.7,3.1,1.9,5-.6,1.3-1.9,2.2-3.4,2.2M1067.5,357.5c-8.7,0-17.4-2.1-25.3-6.4-12.7-6.8-22.1-18.1-26.3-32s-2.8-28.4,4-41.2c6.8-12.7,18.1-22.1,31.9-26.3,13.8-4.2,28.5-2.8,41.2,4,21.6,11.5,32.8,36.2,27.2,60-.5,2-2.5,3.3-4.5,2.8h0c-2-.5-3.3-2.5-2.8-4.5h0c4.8-20.5-4.8-41.7-23.4-51.6-11-5.8-23.5-7.1-35.4-3.4-11.9,3.6-21.7,11.7-27.5,22.6s-7.1,23.6-3.4,35.4c3.6,11.9,11.7,21.6,22.6,27.5,11.4,6.1,24.4,7.1,36.6,3,2-.6,4.1.5,4.7,2.5.6,1.9-.4,3.9-2.3,4.6-5.6,2-11.4,3-17.3,3"/>
  </g>
  <g id="homekit" class="cls-39">
    <rect id="_背景-2" data-name="背景" class="cls-1" x="414.7" y="-7.9" width="1089.8" height="1095.9"/>
    <path class="cls-9" d="M683.6,568v-60.8h-5.3c-19.2,0-38.4,0-57.5-.1-7.7-.1-13.9-7.1-11.5-14.1,1.3-4,5-7.7,8.4-10.4,27.7-22.2,55.5-44.1,83.3-66,26.6-21,53.3-41.9,79.9-63,30.8-24.4,61.4-48.9,92.2-73.2,23.7-18.8,47.7-37.3,71.3-56.1,10-8,20.3-8,30.6.2,23.5,18.6,46.9,37.3,70.4,55.9,19.4,15.4,38.9,30.6,58.4,45.9,17.7,14,35.3,28,53.6,42.4,0-2,.3-3.4.3-4.9,0-15.3.3-30.7,0-46-.2-6.8,5.3-12.3,12.3-12.2,16.9.1,33.8,0,50.6,0s13.6,4.4,13.6,13.8c0,35,0,70,0,104.9,0,3.4.8,5.7,3.8,8,22.3,17.3,44.4,34.9,66.5,52.5,5.5,4.3,7.3,9.3,5.5,14.3-1.9,5.4-6.2,8-13.5,8h-60.6v60.8h-50.5c0-33.4,0-66.9,0-100.3,0-6.1-1.8-11.2-6.4-15.1-8.5-7.1-17.1-14.2-25.9-21.2-30.3-23.9-60.6-47.8-91-71.7-29.9-23.5-59.8-46.9-89.7-70.4-8.7-6.8-16.8-6.8-25.5,0-15.4,12-30.8,24.1-46.1,36.1-14.8,11.6-29.5,23.2-44.2,34.9-18.3,14.5-36.5,29.1-54.9,43.5-19.3,15.2-38.7,30.3-58,45.5-6.6,5.2-9.9,11.7-9.8,20.6.4,32.7,0,65.4,0,98-16.6.2-33.5.2-50.3.2Z"/>
    <path class="cls-27" d="M1185.3,568h50.5c0,1.5,0,3.1,0,4.6,0,83.5,0,167,0,250.4,0,6.7-1.3,13.5-2.7,20.1-2.4,11.5-15.9,18.5-26.5,18.5-118.3,0-236.6,0-354.9,0s-93.3,0-139.9,0c-12.2,0-23.7-8.5-26.6-20.9-1.1-4.7-1.5-9.6-1.5-14.4,0-85.2,0-170.3,0-255.5s0-1.8,0-2.8h50.5v220.4c0,14.9,7.8,22.7,22.7,22.7h406.8c13.6,0,21.7-8.1,21.7-21.7,0-73.8,0-147.5,0-221.3Z"/>
    <path class="cls-33" d="M1185.3,568v221.3c0,13.6-8.1,21.7-21.7,21.7h-406.8c-14.9,0-22.7-7.8-22.7-22.7v-220.4c0-32.7.2-65.4,0-98,0-8.9,3.2-15.4,9.8-20.6,19.3-15.2,38.7-30.3,58-45.5,18.3-14.5,36.6-29,54.9-43.5,14.7-11.7,29.4-23.3,44.2-34.9,15.4-12.1,30.8-24.1,46.1-36.1,8.7-6.8,16.8-6.8,25.5,0,29.9,23.5,59.8,46.9,89.7,70.4,30.3,23.9,60.7,47.7,91,71.7,8.7,6.9,17.3,14,25.9,21.2,4.6,3.9,6.4,9,6.4,15.1-.3,33.4-.2,66.8-.2,100.3ZM959.9,759.5c51.4,0,102.8-.2,154.2.2,11.4,0,19.7-7.2,19.7-19.9-.2-82.1-.2-164.2,0-246.3,0-8.5-3.6-14.2-9.8-19.1-20.6-16.1-41.2-32.1-61.7-48.2-30.4-23.9-60.6-47.8-91-71.7-8.5-6.7-14.7-6.7-23.2-.1-10.7,8.3-21.4,16.7-32.1,25.1-17.7,13.8-35.3,27.7-52.9,41.6-21.3,16.8-42.5,33.9-64.1,50.3-9.1,6.9-13.7,14.5-13.6,26.5.5,80.7.3,161.4.3,242.1s6.6,19.5,19.5,19.5h154.7Z"/>
    <path class="cls-31" d="M959.9,759.5h-154.7c-12.9,0-19.5-6.6-19.5-19.5,0-80.7.2-161.4-.3-242.1,0-12,4.5-19.6,13.6-26.5,21.6-16.4,42.8-33.5,64.1-50.3,17.6-13.9,35.3-27.8,52.9-41.6,10.7-8.4,21.4-16.7,32.1-25.1,8.5-6.6,14.7-6.6,23.2.1,30.4,23.8,60.6,47.8,91,71.7,20.5,16.1,41.1,32.1,61.7,48.2,6.2,4.8,9.8,10.6,9.8,19.1-.2,82.1-.2,164.2,0,246.3,0,12.8-8.3,20-19.7,19.9-51.4-.4-102.8-.2-154.2-.2ZM959.7,707.9h106.8c9.8,0,15.6-5.9,15.7-15.7v-45.1c0-43.1,0-86.2-.2-129.3,0-4.2-1.6-9.8-4.5-12.4-10.2-9.1-21.3-17.3-32.1-25.8-14.1-11.2-28.2-22.4-42.3-33.6-11.5-9.1-22.9-18.2-34.6-27.1-5.6-4.3-11.8-4.3-17.5-.1-8.4,6.3-16.7,12.8-24.9,19.4-27.5,21.8-54.8,43.8-82.4,65.5-4.4,3.5-6.4,7.8-6.4,13,0,58.8,0,117.5,0,176.3,0,8.9,6.2,14.9,15.2,14.9,35.7,0,71.4,0,107.2,0Z"/>
    <path class="cls-16" d="M959.7,707.9h-107.2c-8.9,0-15.2-6-15.2-14.9v-176.3c0-5.2,1.9-9.5,6.4-13,27.6-21.7,54.9-43.7,82.4-65.5,8.2-6.6,16.5-13.1,24.9-19.4,5.7-4.2,11.8-4.2,17.5.1,11.6,8.9,23.1,18.1,34.6,27.1,14.1,11.2,28.2,22.4,42.3,33.6,10.8,8.5,21.9,16.6,32.1,25.8,2.9,2.6,4.5,8.2,4.5,12.4.3,43.1.2,86.2.2,129.3v45.1c0,9.8-5.9,15.7-15.7,15.7h-106.8ZM959.5,657.3c19.2,0,38.4-.3,57.5,0,10,.2,14.6-6.3,14.5-14.7-.2-33.8-.2-67.5,0-101.3,0-6.1-2.5-10.2-6.9-13.7-18.1-14.2-36.3-28.4-54.4-42.6-7.7-6.1-13.4-6.2-21-.1-18.2,14.3-36.5,28.6-54.8,42.9-4.3,3.4-6.8,7.4-6.7,13.3.2,34.2,0,68.4,0,102.6s4.6,13.4,13.2,13.4c19.6.1,39.1.1,58.5.1Z"/>
    <path class="cls-37" d="M959.5,657.3h-58.5c-8.6,0-13.2-4.7-13.2-13.4,0-34.2,0-68.4,0-102.6,0-5.9,2.5-10,6.7-13.3,18.2-14.3,36.5-28.6,54.8-42.9,7.7-6,13.3-5.9,21,.1,18.1,14.3,36.3,28.4,54.4,42.6,4.4,3.5,7,7.6,6.9,13.7-.2,33.8-.2,67.5,0,101.3,0,8.4-4.5,14.9-14.5,14.7-19.1-.5-38.3-.2-57.5-.2Z"/>
  </g>
  <g id="netlink" class="cls-39">
    <path class="cls-35" d="M716.1,304.6c-14.5,0-28.4-5.8-38.5-16.1-21.4-21.5-21.4-56.3,0-77.7,21.3-20.6,55.1-20.6,76.5,0,7,7.2,11.9,16.2,13.9,26h124.7c18.8-.2,36.6,8.9,47.5,24.2l73.3,117.1c5.8,6.2,13.9,9.7,22.4,9.9h70.4c0-20.7,11.6-39.7,30.1-49.1,18.4-9.4,40.6-7.4,57,5.1,16.5,12.6,24.6,33.5,20.7,53.9,0,14.5-5.7,28.4-15.8,38.9-21,21.2-55.3,21.4-76.5.3-4.9-4.8-8.8-10.5-11.5-16.8h-74.1c-18.8-.5-36.5-9.3-48.2-24l-73.3-117.5c-5.9-6.5-14-10.4-22.7-10.8h-124c-7.7,21.7-28,36.3-51,36.7h-.9ZM1300.8,641.6c30.4-.6,55.5,23.5,56.1,53.9s-23.5,55.5-53.9,56.1c-15,.3-29.4-5.5-40-16.1s-10.5-13.2-13.2-21.3h-102.5c-18.3,0-21.1,2.9-21.4,3.7l-73.3,111.5c-11.8,15.2-29.9,24.1-49.1,24h-90.8c-13.1,27.4-45.9,39.1-73.3,26-22.1-10.5-34.6-34.3-30.6-58.5,3-8.1,7.9-15.4,14.3-21.3,9.5-10.2,22.7-16.4,36.7-17,23.8.4,44.7,16.1,51.7,38.9h91.7c8.5,0,16.6-3.6,22.4-9.9l73.3-111.3c11.6-13.8,29.4-20.7,47.3-18.3h101.4c6.7-23.4,27.9-39.7,52.2-40l1-.4Z"/>
    <path class="cls-30" d="M926.4,671.3h-160.8c-11,28.3-42.9,42.3-71.2,31.3-20-7.8-33.6-26.4-35-47.8,0-14.4,5.7-28.2,15.8-38.5,21-21.2,55.2-21.5,76.5-.5,6.7,6.6,11.6,14.9,14.1,23.9h160.2c8.8-29.1,39.5-45.5,68.6-36.7s45.5,39.5,36.7,68.6-39.5,45.5-68.6,36.7c-17.6-5.3-31.4-19.1-36.7-36.7l.4-.3Z"/>
    <path class="cls-13" d="M918,464.8c0,30.4-24.8,54.9-55.1,54.9-30.4,0-54.9-24.8-54.9-55.1,0-30.4,24.8-54.9,55.1-54.9s28.1,5.7,38.4,15.7c10.3,10.3,16,24.3,15.9,38.9l.6.5Z"/>
  </g>
  <g id="brain" class="cls-39">
    <path class="cls-20" d="M1128.2,563.8c-22.3,0-38.2,16.6-44.6,34.6h-59v24.5h59c5.8,20.2,22.3,34.6,44.6,34.6s46.8-20.2,46.8-46.8c-.7-26.7-20.9-46.9-46.8-46.9h0ZM1164.2,429.9h56.9c4.3,20.2,24.5,34.6,44.6,34.6s46.8-20.2,46.8-46.8-20.2-46.8-46.8-46.8-38.2,16.6-44.6,34.6h-69.1l-59,91.4h-70.6v24.5h82.8c-.1-.1,59-91.5,59-91.5ZM1128.2,365.1c26.6,0,46.8-20.2,46.8-46.8s-20.2-46.8-46.8-46.8-38.2,16.6-44.6,34.6h-59v24.5h59c5.7,22.3,22.3,34.5,44.6,34.5ZM1184.3,776.2c-22.3,0-38.2,16.6-44.6,34.6h-117.4v24.5h118.1c4.3,20.2,24.5,34.6,44.6,34.6s46.8-20.2,46.8-46.8c-.7-26.7-20.8-46.9-47.5-46.9h0Z"/>
    <path class="cls-3" d="M1283.7,566c-26.6,0-46.8,20.2-46.8,46.8s4.3,24.5,12.2,32.4l-34.6,54.7h-190.1v22.3h204.6l44.6-64.8c4.3,0,7.9,2.2,12.2,2.2,26.6,0,46.8-20.2,46.8-46.8-2.1-26.7-24.4-46.8-48.9-46.8ZM935.2,210.3c-36.7-22.3-74.9-24.5-111.6-6.5-40.3,20.2-64.8,54.7-67,92.9,0,2.9-.7,5.8-.7,8.6-48.2,2.9-79.9,20.9-94.3,54-16.6,35.3-11.5,75.6,8.6,109.4-43.9,17.3-53.3,50.4-53.3,77,0,39.6,21.6,70.6,62.6,92.9-11.5,29.5-11.5,61.9,0,90,13.7,32.4,41,50.4,80.6,54.7,1.4,40.3,23,74.9,61.2,92.9,26.6,12.2,49,16.6,67,16.6s42.5-5.8,56.9-16.6c28.1-18,44.6-49,44.6-70.6V288.6c.1-25.7-24.3-58.1-54.6-78.3ZM925.1,852.5c-24.5,14.4-56.9,12.2-91.4-4.3-44.6-20.2-46.8-60.5-44.6-77,4.3-36.7,26.6-67,56.9-77,7.9-2.2,12.2-10.1,10.1-18-2.2-7.9-10.1-12.2-18-10.1-38.2,13-66.2,46.1-74.9,87.8-29.5-3.6-45.4-15.8-56.9-37.4-16.6-38.2-2.2-95,50.4-123.8,7.9-4.3,10.1-12.2,5.8-20.2s-12.2-10.1-20.2-5.8c-20.2,11.5-36.7,27.4-49,45.4-30.2-15.8-46.1-37.4-46.1-65.5s3.6-40.3,42.5-51.1c9.4,9.4,20.2,18,32.4,24.5,2.2,2.2,5.8,2.2,7.9,2.2,5.8,0,10.1-4.3,14.4-7.9,4.3-5.8,2.2-16.6-5.8-20.2-50.4-30.2-64.8-85-49-121.7,9.4-22.3,32.4-34.6,70.6-36,5.8,17.3,17.3,32.4,32.4,42.5,5.8,4.3,16.6,2.2,20.2-4.3,4.3-5.8,2.2-16.6-4.3-20.2-16.6-12.2-24.5-32.4-22.3-54.7,0-28.1,18-52.6,46.8-67,34.6-16.6,62.6-7.9,81.4,4.3,26.6,16.6,40.3,40.3,40.3,52.6v88.6c-27.4-10.8-43.9-31-50.4-57.6-2.2-7.9-10.1-14.4-18-12.2-7.9,2.2-14.4,10.1-12.2,18,9.4,43.9,36,72.7,81.4,85v394.6c-.1,12-10.2,34.3-30.4,46.5Z"/>
    <path class="cls-21" d="M898.5,434.9c-7.9,4.3-10.1,12.2-7.9,20.2,2.2,9.4,12.2,34.6-43.2,60.5-10.8-7.9-24.5-15.8-39.6-23.8-7.9-2.2-16.6,0-20.2,7.9-2.2,7.9,0,16.6,7.9,20.2,36.7,18,59,36.7,62.6,56.9,4.3,14.4-2.2,28.1-14.4,46.8-4.3,5.8-2.2,16.6,4.3,20.2,2.2,2.2,4.3,2.2,7.9,2.2s7.9-2.2,12.2-5.8c18-26.6,24.5-50.4,18-72.7-2.9-10.8-8.6-20.2-16.6-30.2,57.6-30.2,59.8-67,49-93.6-3.4-8.8-11.4-10.9-20-8.8Z"/>
  </g>
  <g id="network_earth" class="cls-39">
    <path class="cls-6" d="M646.9,520c0,169,136.9,306,305.9,306s306-136.9,306-305.9h0c0-169.1-136.9-306.1-305.9-306.1s-306,136.9-306,306c0,0,0,0,0,0Z"/>
    <path class="cls-17" d="M880.1,724c-87.5-43.7-211.3-36.4-131.1-204,27.9-58.5-24.8-87.4-86.4-96.5-10.1,30.3-15.6,62.8-15.6,96.5,0,162.7,127,295.6,287.2,305.3,2.8-33-4.5-76.5-54.1-101.3h0ZM1069.5,498.2s36.4,43.7-21.9,58.3-94.7,43.7-80.2,102,0,58.3,80.2,51c80.2-7.3,102-80.2,102-94.7s21.9-94.7-21.9-116.5c-43.7-22-51-36.6-58.2,0h0Z"/>
    <path class="cls-29" d="M1357,457c-5.5-39.8-52.2-68.4-134.9-82.7h-.2c5.7,10.5,10.8,21.4,15.3,32.7,54.2,12,87.8,31.7,91,54.1,3.5,25-30.4,57.2-90.8,86.3-67,32.3-158.8,57.8-258.6,71.8-99.8,14-195,14.7-268.3,2-66-11.4-107.6-33.1-111-58-2.5-18.4,15.2-40.7,49-62.8-.2-.3-.4-.4-.6-.6.8-12.2,2.4-24.2,4.6-35.9-58.4,32.9-86.7,68.4-81.7,103.4,5.5,39.8,52.2,68.4,134.9,82.7,36.4,6.2,77.8,9.4,122.3,9.4s101.3-3.8,155-11.2c102.7-14.4,197.5-40.8,267.2-74.4,75.3-36.7,112.3-77,106.8-116.8h0Z"/>
    <path class="cls-5" d="M967.6,214.4c-4.8-.2-9.8-.4-14.7-.4-110.2,0-206.7,58.3-260.6,145.6,46.9-.5,86-22.5,97.1-52.1,8.2.8,16.5,1.2,25,1.2,52.1,0,98.3-15.3,127.5-38.9,8,6.1,19.7,9.8,32.7,9.8s1,0,1.4-.1c4.7,22.9,26,86.4,114.8,84.2,0,0,54.1-1.3,79.2,108.1,0,0,56.3,22.5,72-51.7-39.7-115.4-146.7-199.6-274.4-205.7Z"/>
    <path class="cls-28" d="M901.9,385.3c0,14.1,13.1,25.5,29.2,25.5s29.2-11.4,29.2-25.5h0c0-14.1-13.1-25.5-29.2-25.5-16.1,0-29.2,11.4-29.2,25.5q0,0,0,0Z"/>
    <path class="cls-5" d="M986.5,394.1c4.6,7.6,17.5,13.1,25.1,12.5s10-7.2,5.3-14.9c-3.5-5.8-10.3-10.7-17.6-15.3-4.6-7.6-17.5-13.1-25.1-12.5s-10,7.2-5.3,14.9c3.6,5.8,10.3,10.8,17.6,15.3Z"/>
  </g>
  <g id="path_planning" class="cls-39">
    <path class="cls-11" d="M760.3,671.3h-31.5c-14.9,0-27-12.1-27-27s12.1-27,27-27h31.5c34.7,0,63-24.8,63-54.9s-28.3-54.9-63-54.9h-36c-14.9,0-27-12.1-27-27s12.1-27,27-27h36c64.4,0,117,48.6,117,108.9s-52.2,108.9-117,108.9h0Z"/>
    <path class="cls-11" d="M1136.5,867.9h-431.1c-64.3,0-117-56.2-117-125.1s52.7-125.1,117-125.1h49c14.9,0,27,12.2,27,27s-12.1,27-27,27h-49c-34.7,0-63,31.9-63,71.1s28.3,71.1,63,71.1h431.1c14.8,0,27,12.1,27,27s-12.1,27-27,27h0Z"/>
    <path class="cls-36" d="M833.2,306.8c0,72.5-96.3,172.4-108.9,172.4s-108.9-98.1-108.9-172.4,48.6-108.9,108.9-108.9,108.9,49,108.9,108.9Z"/>
    <path class="cls-11" d="M724.3,506.6c-9.9,0-20.3-4.1-41-23.9-13-12.6-27-28.4-39.6-45-25.2-33.3-55.3-82.8-55.3-130.5,0-74.7,60.8-135.9,135.9-135.9s135.9,60.8,135.9,135.9-30.1,96.3-55.3,129.6c-19.4,25.7-56.3,69.8-80.6,69.8ZM724.3,224.9c-45,0-81.9,36.9-81.9,81.9s56.2,116.6,81.9,140c26.5-24.3,81.9-94,81.9-140s-36.4-81.9-81.9-81.9Z"/>
    <path class="cls-24" d="M687,302.3c0,20.7,16.7,37.3,37.4,37.3s37.3-16.6,37.3-37.3-16.7-37.4-37.3-37.4-37.4,16.7-37.4,37.4q0-.5,0,0Z"/>
    <path class="cls-11" d="M1136.5,867.5c-9.9,0-23.4-3.2-59.8-38.2-23.4-22.5-48.6-50.9-71.1-80.6-44.6-58.5-97.7-145.8-97.7-227.7,0-126,102.6-228.6,228.6-228.6s228.6,102.6,228.6,228.6-53.1,166.9-97.6,225.9c-22.5,29.7-47.7,59-71.1,81.5-36.5,35.9-50,39.1-59.9,39.1ZM1136.5,346.8c-96.3,0-174.6,78.3-174.6,174.6s134.1,259.2,174.2,288.9c40.5-30.1,174.6-180.5,174.6-288.9.4-96.3-77.9-174.6-174.2-174.6Z"/>
    <path class="cls-24" d="M1136.5,593.4c45.9,0,83.2-37.3,83.2-83.2s-37.3-83.2-83.2-83.2-83.2,37.4-83.2,83.3,37.3,83.1,83.2,83.1ZM1136.5,480.9c16.2,0,29.2,13,29.2,29.2s-13,29.2-29.2,29.2-29.2-13.1-29.2-29.2,13-29.2,29.2-29.2Z"/>
  </g>
  <g id="raspberrypi">
    <g id="_图层_1-2" data-name=" 图层 1-2" focusable="false">
      <path class="cls-19" d="M1298,613.8c-2.2-36.9-19.5-71.3-47.8-95-4.4-15.7-12-30.5-22.1-43-3.4-34.7-20.3-66.5-47-88.8,4.4-3.8,8-8.2,11-13.3,27.9-11.6,48.6-35.7,55.8-65.1,15.7-14.5,25.3-34.7,26.9-56,.4-8.6-1.2-17.3-4.8-25.1,13.3-12.7,18.1-31.9,12.5-49.4-9.4-27.1-42-44.6-85.9-46.4-13.3-11.4-30.5-17.1-47.8-16.3-8.8,0-17.3,1.2-25.9,3.2-8-3.6-16.7-5.4-25.3-5.2-16.9,0-33.7,4.8-48.4,13.1-2-.2-4-.4-5.8-.4-20.3,2-39.4,10.4-54.6,23.9-10.8,8.8-20.5,18.7-28.7,29.9-8.4-11.2-17.9-21.1-28.7-29.9-15.1-13.5-34.3-21.9-54.6-23.9-2,0-4,0-5.8.4-14.9-8.4-31.7-13.1-48.6-13.1s-17.3,1.6-25.3,5.2c-8.4-2-17.1-3.2-25.9-3.2-17.5-.8-34.5,5.2-47.8,16.3-43.8,1.8-76.5,19.3-85.9,46.4-5.8,17.5-.8,36.7,12.5,49.4-3.6,8-5.2,16.5-4.8,25.3,1.6,21.3,11.4,41.4,26.9,56,7.2,29.3,27.9,53.4,55.8,64.9,2.8,5,6.6,9.6,11,13.3-26.7,22.3-43.6,54.2-47,88.8-10.4,12.7-17.7,27.3-22.1,43-28.5,23.7-45.6,58.2-47.8,95-5,36.5,5.8,73.1,29.5,101.2,4,20.1,12.4,39.2,24.3,55.8,2.6,31.5,15.5,61.4,36.7,84.9,21.1,24.3,49.4,41,80.9,48,18.7,17.5,40.6,31.1,64.7,40,57.6,53,146,53,203.6,0,23.9-9,46-22.5,64.7-40,31.5-7,59.8-23.7,80.9-48,21.1-23.5,34.1-53.4,36.7-84.9,12-16.7,20.3-35.7,24.3-55.8,23.7-28.1,34.5-64.7,29.5-101.2h.2Z"/>
      <path class="cls-12" d="M1042.1,171.5c1.8-.6,3.8.6,4.2,2.4v1.4c-1.2,10.4,5.2,9,6.6,7.2,11-16.1,29.7-25.1,49-23.5,2,0,3.2,1.8,3.2,3.8s-.4,1.2-.8,1.8c-6.2,9.2.4,10.8,3,9.2,25.1-15.7,49-15.7,58.2-9.2,1.6,1.2,1.8,3.4.6,4.8,0,0-.4.4-.4.6-9.4,8-4.2,11.8-.8,10.6,24.5-7.6,51-4.2,72.9,9.4,1.4,1.2,1.6,3.4.4,5,0,0-.2.2-.4.4-14.7,11.4-24.3,28.1-26.7,46.4-.6,6.2,9.4,4.8,13.7,3.8,1.8-.4,3.8.6,4.2,2.6v.8c.4,14.7-13.5,30.9-34.1,44.6-2.8,1.8-2.4,6.2,4,6.4,1.8,0,3.4,1.6,3.4,3.4s0,1.2-.4,1.8c-7.4,13.7-17.3,26.5-51.4,35.3-1.8.4-3,2.4-2.6,4.2.2,1,1,2,2,2.4,1.8.4,2.8,2.4,2.4,4.2,0,.8-.6,1.4-1.2,1.8-33.9,29.1-119.9,17.7-130.9-31.5-.2-1,0-2,.6-2.8,36.5-48.8,85.9-86.3,142.6-108.6,1.4-.4,2.2-2,1.6-3.4-.4-1.2-1.8-2-3-1.8-62.2,9-117.9,42.6-155,93.4-1,1.4-3,1.8-4.4,1-55.2-28.5-9.8-112.6,39-127.5l.4-.2ZM718,304.8c-1-1.6-.4-3.8,1.2-4.6.6-.4,1.2-.4,1.8-.4,6.4,0,6.8-4.6,4-6.4-20.7-13.7-34.5-29.9-34.1-44.6,0-2,1.6-3.4,3.6-3.4h.8c4.2,1.2,14.3,2.4,13.7-3.8-2.2-18.3-12-35.1-26.7-46.4-1.4-1.2-1.6-3.6-.2-5l.4-.4c21.9-13.3,48.4-16.9,72.9-9.4,3.4,1.2,8.6-2.8-.8-10.6-1.4-1.2-1.6-3.4-.4-5,0,0,.4-.4.6-.6,9.2-6.6,33.1-6.6,58.2,9.2,2.4,1.6,9,0,3-9.2-1.2-1.6-1-3.6.6-4.8.6-.4,1.2-.6,1.8-.8,19.3-1.6,38,7.4,49,23.5,1.4,1.8,7.8,3.2,6.6-7.2,0-2,1.2-3.6,3.2-3.8h1.4c48.8,14.9,94.2,99,39,127.5-1.6.8-3.4.4-4.4-1-37.1-50.6-92.8-84.3-155-93.4-1.4-.2-2.8.6-3.2,2.2-.2,1.4.6,2.6,1.8,3,56.8,22.1,106.2,59.8,142.6,108.6.6.8.8,1.8.6,2.8-11,49-97,60.6-130.9,31.5-1.4-1-1.8-3.2-.8-4.6.4-.6,1-1,1.8-1.2,1.8-.8,2.6-2.8,1.8-4.6-.4-1-1.2-1.8-2.4-2-34.1-8.8-44-21.7-51.4-35.3h-.2Z"/>
      <path class="cls-32" d="M1177.3,454.8c14.1,37.6,3.2,55.8-30.5,36.5-27.1-14.9-51-35.1-70.5-59-25.3-30.1-8.8-43.4,30.9-36.3,30.9,8.2,56.6,29.7,69.9,58.6l.2.2ZM1026.9,412.4c48,39.8-7,68.1-66.7,68.1s-114.7-28.3-66.7-68.1c39-31.3,94.6-31.3,133.7,0h-.2ZM742.9,454.8c13.3-28.9,39-50.4,69.9-58.6,39.8-7.2,56.2,6.2,30.9,36.3-19.5,24.1-43.4,44-70.5,59-33.5,19.1-44.6,1-30.5-36.5l.2-.2ZM673.5,663.8c-11.2-30.1-8.2-63.5,8-91.4,17.7-30.1,35.7-28.9,42.6-3.4,9,35.3,5.8,72.5-9.2,105.6-13.1,26.1-29.5,17.3-41.4-10.8ZM801.2,859c-44.4-11.2-76.7-49.6-80.3-95.2,6.6-154.8,229.7,121.7,80.3,95.2ZM805.8,666.2c-37.5-21.5-47.4-74.5-22.1-118.1,25.3-43.6,75.9-61.6,113.3-39.8,37.5,21.5,47.4,74.5,22.1,118.1-25.3,43.6-75.9,61.6-113.3,39.8ZM1022.5,918.2c-37.3,26.9-87.6,26.9-124.9,0-37.1-25.5.2-55,62.4-55s99.4,29.5,62.4,55h.2Z"/>
      <ellipse class="cls-32" cx="960" cy="749.8" rx="86.9" ry="74.5"/>
      <path class="cls-32" d="M1001,626.3c-25.3-43.6-15.3-96.6,22.1-118.1,37.5-21.5,88.2-3.8,113.3,39.8,25.3,43.6,15.3,96.6-22.1,118.1-37.5,21.5-88.2,3.8-113.3-39.8ZM1119,859c-149.4,26.3,73.7-250,80.3-95.2-3.6,45.6-35.9,84.1-80.3,95.2h0ZM1246.7,663.8c-11.8,28.1-28.3,36.9-41.4,10.8-14.9-33.1-18.1-70.3-9.2-105.6,7.2-25.5,24.9-26.7,42.6,3.4,16.1,27.7,19.1,61.2,8,91.4h0Z"/>
    </g>
  </g>
</svg>