<svg t="1715234229290" class="icon" viewBox="0 0 1024 1024" version="1.1" xmlns="http://www.w3.org/2000/svg" p-id="1447" width="200" height="200"><path d="M518.84487111 4.31445333c-277.87264 0-503.09802667 225.22538667-503.09802666 503.09802667s225.22538667 503.09802667 503.09802666 503.09802667 503.09802667-225.22538667 503.09802667-503.09802667S796.71751111 4.31445333 518.84487111 4.31445333zM738.82737778 381.58336c0 2.18453333-0.58254222 4.22343111-1.82044445 5.97105778-1.23790222 1.74762667-3.05834667 4.07779555-5.46133333 6.99050667-5.75260445 5.75260445-10.12167111 8.66531555-12.96156445 8.66531555-1.96608 0-3.78652445-0.80099555-5.31569777-2.33016889-23.52014222-20.17052445-46.45774222-34.95253333-68.88561778-44.27320889-28.39893333-12.45184-59.05521778-18.64135111-91.89603555-18.64135111-29.4912 0-58.61831111 5.46133333-87.23569778 16.31118222-5.97105778 2.18453333-10.99548445-1.89326222-15.00046222-12.30620444-1.96608-5.53415111-2.91271111-9.75758222-2.69425778-12.67029334 0.65536-3.56807111 2.47580445-5.75260445 5.31569778-6.62641777C481.70780445 310.07630222 514.91271111 303.74115555 552.41386667 303.74115555c36.40888889 0 71.43424 7.13614222 105.22168888 21.3356089 30.43783111 12.88874667 56.50659555 29.70965333 78.20629334 50.60835555C737.80792889 377.35992889 738.82737778 379.39882667 738.82737778 381.58336zM379.98136889 616.93041778c11.06830222-3.56807111 17.76753778-2.18453333 19.95207111 4.00497777 8.22840889 21.99096889 19.00544 40.48668445 32.25827555 55.55996445l0.3640889 0L432.55580445 563.04526222c0.65536-30.21937778 12.01493333-55.92405333 33.93308444-77.25966222 23.30168889-22.86478222 51.40935111-34.29717333 84.25016889-34.29717333 32.62236445 0 60.43875555 11.43239111 83.52199111 34.29717333 23.08323555 22.86478222 34.58844445 50.46272 34.58844444 82.86663111 0 32.62236445-11.57802667 60.43875555-34.80689778 83.52199111-23.15605333 23.08323555-50.97244445 34.58844445-83.37635555 34.58844445-12.88874667 0-25.26776889-1.74762667-37.28270222-5.31569778-6.18951111-2.47580445-7.64586667-9.17504-4.29624889-20.31616 3.56807111-11.28675555 8.44686222-16.09272889 14.63637333-14.34510222l4.66033778 1.01944888c3.13116445 0.65536 6.69923555 1.31072 10.84984889 1.96608 4.07779555 0.65536 7.50023111 1.01944889 10.12167111 1.0194489 23.08323555 0 42.5984-7.93713778 58.61831111-23.81141334 15.94709333-15.87427555 23.95704889-35.24380445 23.95704889-58.10858666 0-22.42787555-8.00995555-41.36049778-23.95704889-56.94350223-15.72864-15.72864-35.17098667-23.66577778-58.25422222-23.66577777-23.73859555 0-43.47221333 8.88376889-59.27367111 26.65130666-14.19946667 15.94709333-21.33560889 33.71463111-21.33560889 53.22979556l0 137.47996444c24.39395555 14.85482667 51.26371555 22.28224 80.53646222 22.28224 21.33560889 0 41.79740445-4.07779555 61.60384-12.16056889 19.73361778-8.08277333 37.06424889-19.58798222 51.91907556-34.44280889 14.85482667-14.85482667 26.36003555-32.03982222 34.44280888-51.62780444 8.08277333-19.51516445 12.16056889-39.83132445 12.1605689-60.94848 0-43.90912-15.65582222-81.55591111-46.96746667-112.86755556-31.09319111-31.09319111-68.66716445-46.60337778-112.86755556-46.60337778-44.41884445 0-82.13845333 15.51018667-113.15882667 46.60337778-11.79648 11.79648-20.31616 21.40842667-25.63185777 28.98147556l-0.65536 0.65536c-1.74762667 2.47580445-3.20398222 4.15061333-4.29624889 5.17006222-1.09226667 1.01944889-3.49525333 2.03889778-7.13614222 3.13116444-3.64088889 1.09226667-7.93713778 0.80099555-12.81592889-1.01944888-4.66033778-1.09226667-8.73813333-2.91271111-12.16056889-5.46133334-3.42243555-2.54862222-5.17006222-5.46133333-5.17006222-8.81095111L368.91306667 252.47744c0-3.34961778 1.16508445-6.26232889 3.49525333-8.81095111 2.33016889-2.54862222 5.38851555-3.85934222 9.17504-3.85934222l291.92647111 0c6.62641778 0 9.97603555 6.11669333 9.97603556 18.27726222 0 12.23338667-3.34961778 18.27726222-9.97603556 18.27726222L403.57432889 276.36167111l0 160.78165334 0.36408889 0c8.88376889-9.32067555 20.17052445-18.64135111 33.93308444-27.96202667 13.76256-9.32067555 25.77749333-16.09272889 35.97198223-20.31616 24.17550222-10.19448889 49.80736-15.29173333 76.89557333-15.29173333 26.86976 0 52.13752889 5.09724445 75.87612444 15.29173333 23.73859555 10.19448889 44.49166222 24.17550222 62.2592 41.94304 17.98599111 17.98599111 31.96700445 38.59342222 41.94304 61.89511111 10.19448889 24.83086222 15.29173333 50.24426667 15.29173333 76.24021333 0 26.2144-5.09724445 51.48216889-15.29173333 75.87612445-9.97603555 23.30168889-23.95704889 43.90912-41.94304 61.89511111-17.76753778 17.76753778-38.52060445 31.74855111-62.2592 41.94304-23.73859555 10.19448889-49.07918222 15.29173333-75.87612444 15.29173333-26.86976 0-52.13752889-5.09724445-75.87612445-15.29173333-23.73859555-10.19448889-44.49166222-24.17550222-62.2592-41.94304-18.20444445-18.20444445-32.03982222-38.81187555-41.57895111-61.89511111-3.34961778-7.13614222-5.02442667-11.50520889-5.02442667-13.32565334L365.63626667 631.49397333C363.67018667 625.59573333 368.40334222 620.71694222 379.98136889 616.93041778zM507.12120889 550.08369778c-3.56807111-3.56807111-1.96608-8.51968 4.66033778-15.00046223 4.00497778-4.00497778 7.42741333-5.97105778 10.34012444-5.97105777 1.31072 0 2.76707555 0.58254222 4.29624889 1.67480889l21.62688 21.99096888 21.62688-21.62688c4.00497778-3.78652445 9.32067555-2.33016889 15.94709333 4.2962489 5.97105778 5.97105778 7.20896 10.84984889 3.64088889 14.63637333l-21.99096889 21.99096889 20.97152 20.97152c4.66033778 4.66033778 3.85934222 10.12167111-2.33016888 16.31118222-3.78652445 3.78652445-7.35459555 5.67978667-10.63139556 5.67978666-2.18453333 0-4.29624889-1.09226667-6.33514667-3.34961777L548.40888889 591.29856l-21.99096889 21.99096889c-1.09226667 1.09226667-2.76707555 1.67480889-5.02442667 1.67480889-3.34961778 0-6.77205333-1.74762667-10.34012444-5.31569778l-0.65536-0.65536c-4.00497778-3.34961778-5.97105778-6.5536-5.97105778-9.68476445 0-1.52917333 0.87381333-3.42243555 2.69425778-5.67978666l21.99096889-21.62688L507.12120889 550.08369778zM746.47324445 754.77447111l-1.96608 1.96608c-25.04931555 25.26776889-53.81233778 44.71011555-86.2162489 58.25422222-34.15153778 14.19946667-69.32252445 21.33560889-105.51296 21.33560889-36.62734222 0-71.79832889-7.13614222-105.51296-21.33560889-32.84081778-13.98101333-61.60384-33.42336-86.21624888-58.25422222-25.04931555-24.83086222-44.49166222-53.44824889-58.25422222-85.85216-9.32067555-22.86478222-15.29173333-43.83630222-17.98599112-62.91456-0.87381333-6.18951111 4.44188445-10.19448889 15.94709334-12.01493333 11.28675555-1.74762667 17.54908445 0.43690667 18.64135111 6.62641777 0.21845333 0.21845333 0.36408889 0.65536 0.36408889 1.31072 4.00497778 19.95207111 9.10222222 37.64679111 15.29173333 52.93852445 11.06830222 27.52512 27.96202667 52.57443555 50.60835555 75.22076445 21.77251555 21.77251555 46.82183111 38.59342222 75.22076445 50.60835555 29.27274667 12.45184 59.92903111 18.64135111 91.89603555 18.64135111 31.74855111 0 62.33201778-6.18951111 91.89603556-18.64135111 28.39893333-12.23338667 53.37543111-29.05429333 74.92949334-50.60835555l1.96608-1.96608c2.18453333-2.18453333 5.02442667-2.91271111 8.30122666-1.96608 2.69425778 0.65536 6.33514667 3.13116445 10.99548444 7.35459555C748.80341333 743.70616889 750.69667555 750.11413333 746.47324445 754.77447111z" fill="#2c2c2c" p-id="1448"></path></svg>