<?xml version="1.0" encoding="UTF-8"?>
<svg id="_图层_2" data-name="图层 2" xmlns="http://www.w3.org/2000/svg" viewBox="0 0 1089.8 1095.9">
  <defs>
    <style>
      .cls-1 {
        fill: #f4f3f3;
      }

      .cls-2 {
        fill: #e98f36;
      }

      .cls-3 {
        fill: #8bd4fa;
      }

      .cls-4 {
        fill: #099dfd;
      }
    </style>
  </defs>
  <g id="logo">
    <rect id="_背景" data-name="背景" class="cls-1" width="1089.8" height="1095.9"/>
    <g id="brain">
      <path class="cls-2" d="m713.48,571.73c-22.32,0-38.16,16.56-44.64,34.56h-59.04v24.48h59.04c5.76,20.16,22.32,34.56,44.64,34.56,26.64,0,46.8-20.16,46.8-46.8-.72-26.64-20.88-46.8-46.8-46.8h0Zm36-133.92h56.88c4.32,20.16,24.48,34.56,44.64,34.56,26.64,0,46.8-20.16,46.8-46.8s-20.16-46.8-46.8-46.8c-22.32,0-38.16,16.56-44.64,34.56h-69.12l-59.04,91.44h-70.56v24.48h82.8s59.04-91.44,59.04-91.44Zm-36-64.8c26.64,0,46.8-20.16,46.8-46.8s-20.16-46.8-46.8-46.8c-22.32,0-38.16,16.56-44.64,34.56h-59.04v24.48h59.04c5.76,22.32,22.32,34.56,44.64,34.56Zm56.16,411.12c-22.32,0-38.16,16.56-44.64,34.56h-117.36v24.48h118.08c4.32,20.16,24.48,34.56,44.64,34.56,26.64,0,46.8-20.16,46.8-46.8-.72-26.64-20.88-46.8-47.52-46.8h0Z"/>
      <path class="cls-4" d="m869,573.89c-26.64,0-46.8,20.16-46.8,46.8,0,12.24,4.32,24.48,12.24,32.4l-34.56,54.72h-190.08v22.32h204.48l44.64-64.8c4.32,0,7.92,2.16,12.24,2.16,26.64,0,46.8-20.16,46.8-46.8-2.16-26.64-24.48-46.8-48.96-46.8Zm-348.48-355.68c-36.72-22.32-74.88-24.48-111.6-6.48-40.32,20.16-64.8,54.72-66.96,92.88,0,2.88-.72,5.76-.72,8.64-48.24,2.88-79.92,20.88-94.32,54-16.56,35.28-11.52,75.6,8.64,109.44-43.92,17.28-53.28,50.4-53.28,77.04,0,39.6,21.6,70.56,62.64,92.88-11.52,29.52-11.52,61.92,0,90,13.68,32.4,41.04,50.4,80.64,54.72,1.44,40.32,23.04,74.88,61.2,92.88,26.64,12.24,48.96,16.56,66.96,16.56,24.48,0,42.48-5.76,56.88-16.56,28.08-18,44.64-48.96,44.64-70.56V296.69c0-25.92-24.48-58.32-54.72-78.48Zm-10.08,642.24c-24.48,14.4-56.88,12.24-91.44-4.32-44.64-20.16-46.8-60.48-44.64-77.04,4.32-36.72,26.64-66.96,56.88-77.04,7.92-2.16,12.24-10.08,10.08-18s-10.08-12.24-18-10.08c-38.16,12.96-66.24,46.08-74.88,87.84-29.52-3.6-45.36-15.84-56.88-37.44-16.56-38.16-2.16-95.04,50.4-123.84,7.92-4.32,10.08-12.24,5.76-20.16s-12.24-10.08-20.16-5.76c-20.16,11.52-36.72,27.36-48.96,45.36-30.24-15.84-46.08-37.44-46.08-65.52,0-17.28,3.6-40.32,42.48-51.12,9.36,9.36,20.16,18,32.4,24.48,2.16,2.16,5.76,2.16,7.92,2.16,5.76,0,10.08-4.32,14.4-7.92,4.32-5.76,2.16-16.56-5.76-20.16-50.4-30.24-64.8-84.96-48.96-121.68,9.36-22.32,32.4-34.56,70.56-36,5.76,17.28,17.28,32.4,32.4,42.48,5.76,4.32,16.56,2.16,20.16-4.32,4.32-5.76,2.16-16.56-4.32-20.16-16.56-12.24-24.48-32.4-22.32-54.72,0-28.08,18-52.56,46.8-66.96,34.56-16.56,62.64-7.92,81.36,4.32,26.64,16.56,40.32,40.32,40.32,52.56v88.56c-27.36-10.8-43.92-30.96-50.4-57.6-2.16-7.92-10.08-14.4-18-12.24-7.92,2.16-14.4,10.08-12.24,18,9.36,43.92,36,72.72,81.36,84.96v394.56c0,12.24-10.08,34.56-30.24,46.8Z"/>
      <path class="cls-3" d="m483.8,442.85c-7.92,4.32-10.08,12.24-7.92,20.16,2.16,9.36,12.24,34.56-43.2,60.48-10.8-7.92-24.48-15.84-39.6-23.76-7.92-2.16-16.56,0-20.16,7.92-2.16,7.92,0,16.56,7.92,20.16,36.72,18,59.04,36.72,62.64,56.88,4.32,14.4-2.16,28.08-14.4,46.8-4.32,5.76-2.16,16.56,4.32,20.16,2.16,2.16,4.32,2.16,7.92,2.16,4.32,0,7.92-2.16,12.24-5.76,18-26.64,24.48-50.4,18-72.72-2.88-10.8-8.64-20.16-16.56-30.24,57.6-30.24,59.76-66.96,48.96-93.6-3.6-8.64-11.52-10.8-20.16-8.64Z"/>
    </g>
  </g>
</svg>