<?xml version="1.0" encoding="UTF-8"?>
<svg id="_图层_2" data-name="图层 2" xmlns="http://www.w3.org/2000/svg" xmlns:xlink="http://www.w3.org/1999/xlink" viewBox="0 0 1000 1000">
  <defs>
    <style>
      .cls-1 {
        fill: url(#_未命名的渐变_7);
      }

      .cls-1, .cls-2, .cls-3 {
        stroke-width: 0px;
      }

      .cls-2 {
        fill: #f4f3f3;
      }

      .cls-3 {
        fill: #fff;
      }
    </style>
    <linearGradient id="_未命名的渐变_7" data-name="未命名的渐变 7" x1="500" y1="865.01" x2="500" y2="134.99" gradientUnits="userSpaceOnUse">
      <stop offset="0" stop-color="#12284a"/>
      <stop offset="1" stop-color="#224f86"/>
    </linearGradient>
  </defs>
  <g id="logo">
    <rect id="_背景" data-name=" 背景" class="cls-2" width="1000" height="1000"/>
    <rect id="_背景白色" data-name="背景白色" class="cls-3" x="40.49" y="40.49" width="919.01" height="919.01" rx="87.7" ry="87.7"/>
    <path id="clash" class="cls-1" d="M270.62,795.97c4.56-42.59,8.69-84.66,13.64-126.63,7.95-67.46,15.68-134.97,24.9-202.27,9.71-70.84,20.33-141.57,32.02-212.11,5.95-35.89,14.6-71.36,23.1-106.77,3.56-14.81,10.26-16.8,22.4-7.22,9.26,7.31,18.33,15.73,24.9,25.42,18.64,27.48,36.34,55.63,53.54,84.03,4.6,7.59,8.59,9.34,17.16,7.46,62.71-13.79,125.59-11.95,188.3.08,9.35,1.79,13.73.21,18.41-8.65,16.53-31.26,34.13-61.96,51.83-92.59,3.54-6.13,8.86-11.48,14.17-16.3,9.43-8.55,15.57-7.13,18.53,5.02,7.18,29.44,14.94,58.85,19.86,88.7,20.06,121.85,40.34,243.68,58.13,365.87,10.87,74.69,17.63,149.98,25.67,225.06,2.87,26.8,1.2,28.06-25.18,30.51-116.88,10.84-234.09,9.9-351.24,8.76-63.24-.62-126.47-3.89-189.67-6.87-13.82-.65-27.38-5.71-41.21-7.72-11.76-1.71-23.79-1.48-35.59-2.97-39.76-5-74.55-19.98-95.78-55.75-35.32-59.5-14.75-140.65,63.06-163.61,6.17-1.82,13.84-1.47,20.04.41,12.21,3.71,13.64,12.59,3.67,20.61-10.12,8.15-21.26,15.04-31.35,23.23-19.33,15.67-29,35.68-25.16,61.04,3.27,21.62,13.64,38.6,32.89,49.65,16.91,9.71,47.79,15.91,68.96,13.6ZM479.8,421.96c.2-18.32-14.28-33.18-32.51-33.38-18.31-.2-33.18,14.29-33.38,32.52-.2,18.32,14.28,33.19,32.51,33.38,18.32.2,33.17-14.27,33.38-32.52ZM713.33,454.48c18.33.21,33.2-14.24,33.42-32.47.22-18.32-14.24-33.21-32.47-33.42-18.32-.22-33.21,14.25-33.42,32.47-.21,18.33,14.24,33.21,32.47,33.43ZM575.98,498.44c16.94,13.9,33.82,14.7,40.09,1.43-1.3-.49-2.79-1.67-3.79-1.35-13.52,4.42-24.8,2.32-33.26-10.16-.73-1.07-5.62-1.15-6.23-.19-8.42,13.13-20.31,14.71-34.07,11.12-.76-.2-1.83.82-2.75,1.27,6.08,12.92,22.41,11.97,40.01-2.12Z"/>
  </g>
</svg>