<?xml version="1.0" standalone="no"?><!DOCTYPE svg PUBLIC "-//W3C//DTD SVG 1.1//EN" "http://www.w3.org/Graphics/SVG/1.1/DTD/svg11.dtd"><svg class="icon" width="200px" height="200.00px" viewBox="0 0 1024 1024" version="1.1" xmlns="http://www.w3.org/2000/svg"><path d="M362.92 630.94c0.14-2.64 0.4-5.25 0.4-7.93 0-83.21-67.45-150.66-150.66-150.66S62 539.81 62 623.01s67.45 150.66 150.66 150.66h346.21V630.94H362.92z" fill="#0C2E97" /><path d="M771.69 393.06c-20.84 0-40.87 3.4-59.64 9.59-41.42-89.89-132.25-152.32-237.72-152.32-144.52 0-261.67 117.16-261.67 261.67s117.16 261.67 261.67 261.67c1.33 0 2.64-0.08 3.96-0.1v0.1h293.39c105.1 0 190.31-85.2 190.31-190.31s-85.19-190.3-190.3-190.3z" fill="#1AADF9" /></svg>