<?xml version="1.0" standalone="no"?><!DOCTYPE svg PUBLIC "-//W3C//DTD SVG 1.1//EN" "http://www.w3.org/Graphics/SVG/1.1/DTD/svg11.dtd"><svg class="icon" width="200px" height="200.00px" viewBox="0 0 1024 1024" version="1.1" xmlns="http://www.w3.org/2000/svg"><path d="M386.1 616.02c-8.14-82.33-76.77-146.88-161.24-146.88C134.91 469.15 62 542.06 62 632c0 88.47 70.66 160.1 158.57 162.42v0.43h291.42V623.43l-125.89-7.41z" fill="#0C2E97" /><path d="M768.42 621.87c14.25-33.78 22.13-70.9 22.13-109.86 0-156.22-126.63-282.87-282.83-282.87-156.24 0-282.87 126.64-282.87 282.87 0 154.78 124.31 280.53 278.58 282.82v0.03h291.41V623.43l-26.42-1.56z" fill="#4381F1" /><path d="M799.13 469.15c-89.95 0-162.87 72.91-162.87 162.85 0 89.95 72.92 162.87 162.87 162.87S962 721.94 962 631.99c0-89.93-72.92-162.84-162.87-162.84" fill="#ACCDFF" /></svg>