<?xml version="1.0" standalone="no"?><!DOCTYPE svg PUBLIC "-//W3C//DTD SVG 1.1//EN" "http://www.w3.org/Graphics/SVG/1.1/DTD/svg11.dtd"><svg class="icon" width="200px" height="200.00px" viewBox="0 0 1024 1024" version="1.1" xmlns="http://www.w3.org/2000/svg"><path d="M503.35 794.81H220.54C132.62 792.39 62 720.39 62 631.77c0-89.65 73.04-162.69 162.69-162.69h3.12a294.35 294.35 0 0 0-3.12 42.92c0 14.54 1.04 29.08 3.12 42.92h-3.12c-42.58 0-76.85 34.27-76.85 76.85 0 41.19 32.19 74.77 72.69 76.85 1.39 0.35 2.77 0.35 4.15 0.35 22.85 0 43.62-10.04 57.46-25.96 17.65 22.85 38.42 43.27 61.96 59.54 45.02 32.18 100.06 51.22 159.25 52.26z" fill="#0C2E97" /><path d="M794.81 794.81H503.35c-59.19-1.04-114.23-20.08-159.23-52.27-23.54-16.27-44.31-36.69-61.96-59.54-17.31-22.85-31.15-48.12-40.85-75.46-6.23-16.96-10.73-34.62-13.5-52.62-2.08-13.84-3.12-28.38-3.12-42.92 0-14.54 1.04-28.73 3.12-42.92C248.58 333.04 365.93 229.2 507.5 229.2c141.92 0 259.62 104.19 280.04 240.23-40.15 2.77-76.5 20.42-103.5 47.42 0.35-1.73 0.35-3.12 0.35-4.85 0-97.62-78.92-176.88-176.88-176.88-96.58 0-174.81 77.54-176.19 173.77-0.35 1.04-0.35 2.08-0.35 3.11 0 38.42 12.12 73.73 32.89 102.81a172.52 172.52 0 0 0 23.54 26.65c30.46 28.38 70.96 46.04 115.96 46.73 1.39 0.35 2.77 0.35 4.16 0.35 1.38 0 3.11 0 4.5-0.35 49.16-1.04 93.12-21.81 124.27-55.04 0.35 40.5 15.58 77.54 40.5 105.92 28.71 33.24 70.94 54.35 118.02 55.74z" fill="#4381F1" /><path d="M798.96 469.08c-3.81 0-7.62 0-11.42 0.35-40.15 2.77-76.5 20.42-103.5 47.42-25.62 25.62-42.58 59.54-46.73 97.27-0.69 5.88-1.04 11.77-1.04 17.65v1.38c0.35 40.5 15.58 77.54 40.5 105.92 28.73 33.23 70.96 54.35 118.04 55.73h4.15c90 0 163.04-73.04 163.04-163.04 0-89.64-73.04-162.68-163.04-162.68z m0 250.27h-4.15c-25.96-1.38-48.81-13.84-64.04-32.88-12.11-14.89-19.38-33.92-19.38-54.69 0-4.5 0.35-8.65 1.04-13.15 5.88-38.77 37.39-69.23 76.5-73.73 3.46-0.35 6.58-0.69 10.04-0.69 48.46 0 87.58 39.46 87.58 87.58-0.01 48.44-39.13 87.56-87.59 87.56z" fill="#1AADF9" /></svg>