<?xml version="1.0" standalone="no"?><!DOCTYPE svg PUBLIC "-//W3C//DTD SVG 1.1//EN" "http://www.w3.org/Graphics/SVG/1.1/DTD/svg11.dtd"><svg class="icon" width="200px" height="200.00px" viewBox="0 0 1024 1024" version="1.1" xmlns="http://www.w3.org/2000/svg"><path d="M450.06 786.77H200.47C123.97 785.04 62 722.04 62 644.49c0-68.54 48.81-125.66 113.2-139.16-1.04 43.62 7.96 84.81 25.27 121.85 22.5 48.81 58.85 89.66 104.2 118.04 42.23 26.32 92.08 41.55 145.39 41.55z" fill="#4381F1" /><path d="M960.32 612.99c-12.81 100.74-103.16 173.78-204.93 173.78H681.3c-43.96 0-65.77-53.31-34.27-84.12l45.7-44.66h-88.62l105.24-174.82H587.84L464.26 688.8h89.31l-34.96 60.58c-13.5 23.19-37.73 37.39-64.04 37.39h-4.5c-53.31 0-103.16-15.23-145.39-41.54-45.35-28.39-81.7-69.23-104.2-118.04-17.31-37.04-26.31-78.24-25.27-121.85 0.35-8.65 0.69-16.96 1.73-25.96 14.19-121.85 111.12-222.24 232.63-239.21 127.74-18.35 241.28 51.24 290.09 156.82 19.73-6.58 40.5-10.04 62.66-10.04 118.73-0.01 213.58 104.19 198 226.04z" fill="#1AADF9" /></svg>