<?xml version="1.0" standalone="no"?><!DOCTYPE svg PUBLIC "-//W3C//DTD SVG 1.1//EN" "http://www.w3.org/Graphics/SVG/1.1/DTD/svg11.dtd"><svg class="icon" width="200px" height="200.00px" viewBox="0 0 1024 1024" version="1.1" xmlns="http://www.w3.org/2000/svg"><path d="M311.648 640.704a32 32 0 0 1 16.384 37.728 160.416 160.416 0 0 1 43.296 59.072l53.76-16.384a32 32 0 0 1 22.176 59.904l-3.52 1.28-59.744 18.24a160 160 0 1 1-110.4-152.704 32 32 0 0 1 38.048-7.136zM224 704a96 96 0 1 0 0 192 96 96 0 0 0 0-192z m394.016-8.384a32 32 0 0 1-17.728 38.656l-3.52 1.28-61.184 18.72a32 32 0 0 1-22.208-59.936l3.52-1.28 61.184-18.72a32 32 0 0 1 39.936 21.28z m-234.816-198.016a32 32 0 0 1 15.776 39.488l-1.472 3.424-28.608 57.28a32 32 0 0 1-58.72-25.216l1.472-3.424 28.608-57.248a32 32 0 0 1 42.944-14.304zM512 64a192 192 0 1 1-62.912 373.44l-8.64 17.216a32 32 0 0 1-58.72-25.184l1.472-3.424 9.696-19.456A192 192 0 0 1 512 64z m0 64a128 128 0 1 0 0 256 128 128 0 0 0 0-256z m0 64a64 64 0 1 1 0 128 64 64 0 0 1 0-128z" fill="#252B3A" /><path d="M800 800a160 160 0 1 0 0-320 160 160 0 0 0 0 320z m0-64a96 96 0 1 1 0-192 96 96 0 0 1 0 192z" fill="#4C84FF" /></svg>