<?xml version="1.0" standalone="no"?><!DOCTYPE svg PUBLIC "-//W3C//DTD SVG 1.1//EN" "http://www.w3.org/Graphics/SVG/1.1/DTD/svg11.dtd"><svg class="icon" width="200px" height="200.00px" viewBox="0 0 1024 1024" version="1.1" xmlns="http://www.w3.org/2000/svg"><path d="M613.32 165.6H234.83c-29.25 0-52.81 23.54-52.81 52.81v378.47c0 29.04 23.56 52.81 52.81 52.81h378.49c29.25 0 52.81-23.77 52.81-52.81V218.41c0-29.27-23.56-52.81-52.81-52.81" fill="#4381F1" /><path d="M666.12 218.41v55.67H182.03v-55.67c0-29.26 23.54-52.81 52.81-52.81h378.47c29.27 0 52.81 23.55 52.81 52.81z" fill="#0C2E97" /><path d="M824.41 393.89H445.96c-29.28 0-52.81 23.77-52.81 52.81v378.49c0 29.25 23.52 52.81 52.81 52.81h378.45c29.28 0 52.81-23.56 52.81-52.81V446.7c0-29.04-23.53-52.81-52.81-52.81" fill="#4381F1" /><path d="M666.12 394v202.88c0 29.04-23.54 52.81-52.81 52.81H393.05V446.81c0-29.05 23.55-52.81 52.81-52.81h220.26zM393.13 825.18v-55.67h484.09v55.67c0 29.26-23.54 52.81-52.81 52.81H445.94c-29.27 0-52.81-23.55-52.81-52.81z" fill="#0C2E97" /><path d="M920.42 377.73c-8.19 0-16.16-3.52-21.65-9.85l-67.88-77.96c-10.43-11.97-9.16-30.11 2.81-40.52 11.93-10.42 30.03-9.18 40.5 2.79l24.16 27.73a178.35 178.35 0 0 0-5.46-30.84c-25.21-93.35-121.74-148.85-215.05-123.55-15.37 4.13-31.08-4.96-35.19-20.23-4.15-15.32 4.9-31.1 20.23-35.23 123.76-33.42 252 40.13 285.48 164.06 10.85 40.28 10.77 82.64-0.26 122.54a28.719 28.719 0 0 1-21.32 20.36c-2.11 0.48-4.24 0.7-6.37 0.7zM299.98 962c-41.7 0-82.77-11.29-119.42-33.32-53.33-32.01-90.96-82.88-106.03-143.21-10.1-40.39-9.2-82.77 2.58-122.49 2.99-10.14 11.33-17.8 21.69-19.95s21.06 1.57 27.86 9.69l66.39 79.23c10.17 12.16 8.56 30.26-3.59 40.47-12.16 10.1-30.29 8.64-40.47-3.59l-23.6-28.16c0.71 10.36 2.32 20.72 4.86 30.89 11.37 45.44 39.72 83.78 79.89 107.86 40.13 24.12 87.33 31.23 132.73 19.82 15.18-3.93 31 5.5 34.82 20.91 3.85 15.37-5.5 30.97-20.91 34.82-18.8 4.71-37.87 7.03-56.8 7.03z" fill="#39E2A0" /></svg>