<?xml version="1.0" encoding="UTF-8"?>
<svg id="_图层_2" data-name="图层 2" xmlns="http://www.w3.org/2000/svg" viewBox="0 0 868.2 873.1">
  <defs>
    <style>
      .cls-1 {
        fill: #f05032;
      }

      .cls-1, .cls-2 {
        stroke-width: 0px;
      }

      .cls-2 {
        fill: #f4f3f3;
      }
    </style>
  </defs>
  <g id="logo">
    <rect id="_背景" data-name=" 背景" class="cls-2" width="868.2" height="873.1"/>
    <path id="git" class="cls-1" d="M807.54,401.98L468.86,63.3c-19.52-19.52-51.15-19.52-70.67,0l-70.18,70.31,89.22,89.22c31.03-10.55,64.85,6.18,75.4,37.21,4.24,12.49,4.24,26.06,0,38.43l85.94,85.94c31.03-10.67,64.73,5.94,75.4,36.85,10.67,31.03-5.94,64.73-36.85,75.4-30.91,10.67-64.73-5.94-75.4-36.85-4.61-13.58-4.24-28.36,1.21-41.7l-80.49-80v210.92c29.46,14.55,41.46,50.31,26.91,79.76-14.55,29.46-50.31,41.46-79.76,26.91-5.82-2.91-11.15-6.67-15.76-11.39-23.15-23.15-23.27-60.61,0-83.88h0c5.58-5.7,12.24-10.18,19.52-13.21v-212.98c-30.43-12.61-44.85-47.4-32.24-77.82h0c0-.12-87.64-88.25-87.64-88.25L60.97,400.4c-19.39,19.64-19.39,51.15,0,70.79l338.8,338.56c19.52,19.52,51.15,19.52,70.67,0h0l337.11-337.11c19.52-19.52,19.52-51.03,0-70.55h0v-.12Z"/>
  </g>
</svg>