<?xml version="1.0" encoding="UTF-8"?>
<svg id="_图层_2" data-name="图层 2" xmlns="http://www.w3.org/2000/svg" viewBox="0 0 868.2 873.1">
  <defs>
    <style>
      .cls-1 {
        fill: #f4f3f3;
      }

      .cls-1, .cls-2 {
        stroke-width: 0px;
      }

      .cls-2 {
        fill: #000;
        fill-rule: evenodd;
      }
    </style>
  </defs>
  <g id="logo">
    <rect id="_背景" data-name=" 背景" class="cls-1" width="868.2" height="873.1"/>
    <path id="github" class="cls-2" d="M434.1,57.71c-214.56,0-388.41,173.85-388.41,388.41,0,171.57,111.26,317.23,265.64,368.56,19.47,3.54,26.55-8.34,26.55-18.71,0-9.23-.38-33.63-.51-66-108.1,23.39-130.86-52.09-130.86-52.09-17.7-44.88-43.11-56.9-43.11-56.9-35.28-24.02,2.66-23.52,2.66-23.52,38.94,2.78,59.43,39.95,59.43,39.95,34.64,59.43,90.91,42.23,113.03,32.37,3.54-25.16,13.66-42.23,24.66-51.97-86.23-9.74-176.88-43.11-176.88-191.93,0-42.48,15.17-77.13,39.95-104.31-3.92-9.74-17.32-49.31,3.79-102.79,0,0,32.62-10.37,106.84,39.83,30.98-8.6,64.23-12.9,97.23-13.02,33,.13,66.25,4.43,97.23,13.02,74.22-50.2,106.71-39.83,106.71-39.83,21.24,53.48,7.97,93.06,3.92,102.79,24.91,27.18,39.83,61.83,39.83,104.31,0,149.19-90.78,181.94-177.26,191.68,13.91,11.89,26.3,35.66,26.3,71.82,0,51.97-.38,93.82-.38,106.59,0,10.37,6.95,22.51,26.68,18.71,154.25-51.46,265.39-196.99,265.39-368.56,0-214.56-173.85-388.41-388.41-388.41Z"/>
  </g>
</svg>