<?xml version="1.0" encoding="UTF-8"?>
<svg id="_图层_2" data-name="图层 2" xmlns="http://www.w3.org/2000/svg" viewBox="0 0 868.21 873.07">
  <defs>
    <style>
      .cls-1 {
        fill: #f98f17;
      }

      .cls-1, .cls-2, .cls-3, .cls-4, .cls-5, .cls-6, .cls-7 {
        stroke-width: 0px;
      }

      .cls-2 {
        fill: #ffd362;
      }

      .cls-3 {
        fill: #fd9308;
      }

      .cls-4 {
        fill: #ffbf44;
      }

      .cls-5 {
        fill: #ffad24;
      }

      .cls-6 {
        fill: #f4f3f3;
      }

      .cls-7 {
        fill: #ffe780;
      }
    </style>
  </defs>
  <g id="logo">
    <rect id="_背景" data-name=" 背景" class="cls-6" width="868.21" height="873.07"/>
    <g id="homekit">
      <path class="cls-1" d="M158.11,464.49v-60.8h-5.3c-19.2,0-38.4,0-57.5-.1-7.7-.1-13.9-7.1-11.5-14.1,1.3-4,5-7.7,8.4-10.4,27.7-22.2,55.5-44.1,83.3-66,26.6-21,53.3-41.9,79.9-63,30.8-24.4,61.4-48.9,92.2-73.2,23.7-18.8,47.7-37.3,71.3-56.1,10-8,20.3-8,30.6.2,23.5,18.6,46.9,37.3,70.4,55.9,19.4,15.4,38.9,30.6,58.4,45.9,17.7,14,35.3,28,53.6,42.4,0-2,.3-3.4.3-4.9,0-15.3.3-30.7,0-46-.2-6.8,5.3-12.3,12.3-12.2,16.9.1,33.8,0,50.6,0s13.6,4.4,13.6,13.8v104.9c0,3.4.8,5.7,3.8,8,22.3,17.3,44.4,34.9,66.5,52.5,5.5,4.3,7.3,9.3,5.5,14.3-1.9,5.4-6.2,8-13.5,8h-60.6v60.8h-50.5v-100.3c0-6.1-1.8-11.2-6.4-15.1-8.5-7.1-17.1-14.2-25.9-21.2-30.3-23.9-60.6-47.8-91-71.7-29.9-23.5-59.8-46.9-89.7-70.4-8.7-6.8-16.8-6.8-25.5,0-15.4,12-30.8,24.1-46.1,36.1-14.8,11.6-29.5,23.2-44.2,34.9-18.3,14.5-36.5,29.1-54.9,43.5-19.3,15.2-38.7,30.3-58,45.5-6.6,5.2-9.9,11.7-9.8,20.6.4,32.7,0,65.4,0,98-16.6.2-33.5.2-50.3.2h0Z"/>
      <path class="cls-3" d="M659.81,464.49h50.5v255c0,6.7-1.3,13.5-2.7,20.1-2.4,11.5-15.9,18.5-26.5,18.5H186.31c-12.2,0-23.7-8.5-26.6-20.9-1.1-4.7-1.5-9.6-1.5-14.4v-255.5c0-85.2,0-1.8,0-2.8h50.5v220.4c0,14.9,7.8,22.7,22.7,22.7h406.8c13.6,0,21.7-8.1,21.7-21.7v-221.3l-.1-.1Z"/>
      <path class="cls-5" d="M659.81,464.49v221.3c0,13.6-8.1,21.7-21.7,21.7H231.31c-14.9,0-22.7-7.8-22.7-22.7v-220.4c0-32.7.2-65.4,0-98,0-8.9,3.2-15.4,9.8-20.6,19.3-15.2,38.7-30.3,58-45.5,18.3-14.5,36.6-29,54.9-43.5,14.7-11.7,29.4-23.3,44.2-34.9,15.4-12.1,30.8-24.1,46.1-36.1,8.7-6.8,16.8-6.8,25.5,0,29.9,23.5,59.8,46.9,89.7,70.4,30.3,23.9,60.7,47.7,91,71.7,8.7,6.9,17.3,14,25.9,21.2,4.6,3.9,6.4,9,6.4,15.1-.3,33.4-.2,66.8-.2,100.3h-.1ZM434.41,655.99c51.4,0,102.8-.2,154.2.2,11.4,0,19.7-7.2,19.7-19.9-.2-82.1-.2-164.2,0-246.3,0-8.5-3.6-14.2-9.8-19.1-20.6-16.1-41.2-32.1-61.7-48.2-30.4-23.9-60.6-47.8-91-71.7-8.5-6.7-14.7-6.7-23.2-.1-10.7,8.3-21.4,16.7-32.1,25.1-17.7,13.8-35.3,27.7-52.9,41.6-21.3,16.8-42.5,33.9-64.1,50.3-9.1,6.9-13.7,14.5-13.6,26.5.5,80.7.3,161.4.3,242.1s6.6,19.5,19.5,19.5h154.7Z"/>
      <path class="cls-4" d="M434.41,655.99h-154.7c-12.9,0-19.5-6.6-19.5-19.5,0-80.7.2-161.4-.3-242.1,0-12,4.5-19.6,13.6-26.5,21.6-16.4,42.8-33.5,64.1-50.3,17.6-13.9,35.3-27.8,52.9-41.6,10.7-8.4,21.4-16.7,32.1-25.1,8.5-6.6,14.7-6.6,23.2.1,30.4,23.8,60.6,47.8,91,71.7,20.5,16.1,41.1,32.1,61.7,48.2,6.2,4.8,9.8,10.6,9.8,19.1-.2,82.1-.2,164.2,0,246.3,0,12.8-8.3,20-19.7,19.9-51.4-.4-102.8-.2-154.2-.2h0ZM434.21,604.39h106.8c9.8,0,15.6-5.9,15.7-15.7v-45.1c0-43.1,0-86.2-.2-129.3,0-4.2-1.6-9.8-4.5-12.4-10.2-9.1-21.3-17.3-32.1-25.8-14.1-11.2-28.2-22.4-42.3-33.6-11.5-9.1-22.9-18.2-34.6-27.1-5.6-4.3-11.8-4.3-17.5-.1-8.4,6.3-16.7,12.8-24.9,19.4-27.5,21.8-54.8,43.8-82.4,65.5-4.4,3.5-6.4,7.8-6.4,13v176.3c0,8.9,6.2,14.9,15.2,14.9h107.2Z"/>
      <path class="cls-2" d="M434.21,604.39h-107.2c-8.9,0-15.2-6-15.2-14.9v-176.3c0-5.2,1.9-9.5,6.4-13,27.6-21.7,54.9-43.7,82.4-65.5,8.2-6.6,16.5-13.1,24.9-19.4,5.7-4.2,11.8-4.2,17.5.1,11.6,8.9,23.1,18.1,34.6,27.1,14.1,11.2,28.2,22.4,42.3,33.6,10.8,8.5,21.9,16.6,32.1,25.8,2.9,2.6,4.5,8.2,4.5,12.4.3,43.1.2,86.2.2,129.3v45.1c0,9.8-5.9,15.7-15.7,15.7h-106.8ZM434.01,553.79c19.2,0,38.4-.3,57.5,0,10,.2,14.6-6.3,14.5-14.7-.2-33.8-.2-67.5,0-101.3,0-6.1-2.5-10.2-6.9-13.7-18.1-14.2-36.3-28.4-54.4-42.6-7.7-6.1-13.4-6.2-21-.1-18.2,14.3-36.5,28.6-54.8,42.9-4.3,3.4-6.8,7.4-6.7,13.3.2,34.2,0,68.4,0,102.6s4.6,13.4,13.2,13.4c19.6.1,39.1.1,58.5.1l.1.1Z"/>
      <path class="cls-7" d="M434.01,553.79h-58.5c-8.6,0-13.2-4.7-13.2-13.4v-102.6c0-5.9,2.5-10,6.7-13.3,18.2-14.3,36.5-28.6,54.8-42.9,7.7-6,13.3-5.9,21,.1,18.1,14.3,36.3,28.4,54.4,42.6,4.4,3.5,7,7.6,6.9,13.7-.2,33.8-.2,67.5,0,101.3,0,8.4-4.5,14.9-14.5,14.7-19.1-.5-38.3-.2-57.5-.2h-.1Z"/>
    </g>
  </g>
</svg>