<?xml version="1.0" encoding="UTF-8"?>
<svg id="_图层_2" data-name="图层 2" xmlns="http://www.w3.org/2000/svg" viewBox="0 0 868.2 873.1">
  <defs>
    <style>
      .cls-1 {
        fill: #f5bd0c;
      }

      .cls-1, .cls-2, .cls-3, .cls-4, .cls-5, .cls-6, .cls-7 {
        stroke-width: 0px;
      }

      .cls-2 {
        fill: #604405;
      }

      .cls-3 {
        fill: #d99a03;
      }

      .cls-4 {
        fill: #020204;
      }

      .cls-5 {
        fill: #f4f3f3;
      }

      .cls-6 {
        fill: #fff;
      }

      .cls-7 {
        fill: #cd8907;
      }
    </style>
  </defs>
  <g id="logo">
    <rect id="_背景" data-name=" 背景" class="cls-5" width="868.2" height="873.1"/>
    <g id="linux">
      <path class="cls-6" d="M444.09,133.02c-7.68,5.2-14.12,12.88-18.08,21.92-3.84,11.64-2.6,24.52,1.24,36.04,3.84,11.64,11.64,21.92,20.56,29.6,5.2,3.84,10.28,6.44,16.72,6.44,6.44,1.24,12.88,0,18.08-2.6,6.44-3.84,11.64-9.04,15.48-16.72,2.6-6.44,5.2-14.12,5.2-21.92,1.24-9.04,0-19.32-3.84-28.36-3.84-10.28-10.28-18.08-18.08-24.52-3.84-2.6-9.04-5.2-14.12-5.2s-10.28,0-15.48,1.24c-2.48,1.49-5.08,2.72-7.68,4.09"/>
      <path class="cls-4" d="M713.37,518.11c-5.2-27-12.88-52.77-21.92-77.29-6.44-19.32-16.72-36.04-28.36-52.77-11.64-15.48-27-28.36-37.41-43.85-6.44-7.68-11.64-16.72-18.08-25.76-2.6-5.2-5.2-10.28-7.68-15.48-7.68-16.72-14.12-33.44-23.16-48.93-1.24-2.6-2.6-5.2-3.84-7.68-1.24-15.48-2.6-29.6-3.84-45.09,1.24-30.97-1.24-60.57-7.68-90.17-3.84-14.12-10.28-28.36-18.08-39.88-9.04-15.48-20.56-28.36-34.81-38.65-23.16-16.72-50.29-24.52-77.29-24.52s-41.25,3.84-59.21,14.12c-19.32,10.28-34.81,27-43.85,46.32-9.04,19.32-14.12,41.25-14.12,63.17-1.24,21.92,1.24,42.48,2.6,64.41,1.24,21.92,0,43.85,2.6,65.65,0,6.44,1.24,14.12,1.24,21.92v11.52c-9.04,16.72-20.56,32.2-32.2,47.69-7.68,10.28-16.72,20.56-24.52,30.97-10.28,11.64-19.32,25.76-27,39.88-5.2,12.88-9.04,25.76-11.64,38.65v1.24c-5.2,15.48-10.28,29.6-16.72,43.85-1.24,1.24-1.24,2.6-1.24,3.84-3.84,9.04-7.68,16.72-12.88,24.52l-7.68,5.2c-2.6,5.2-6.44,11.64-9.04,18.08-1.24,3.84-2.6,7.68-2.6,11.64-1.24,7.68-1.24,16.72,1.24,24.52,0,2.6,1.24,3.84,1.24,6.44,2.6,6.44,5.2,11.64,7.68,16.72,1.24,2.6,2.6,5.2,3.84,7.68l1.24,1.24c1.24,2.6,2.6,5.2,3.84,6.44h0c1.24,2.6,3.84,5.2,5.2,7.68h0c1.24,2.6,3.84,5.2,5.2,7.68,6.44,27,19.32,52.77,37.41,74.69-2.6,5.2-5.2,9.04-7.68,14.12-9.04,14.12-18.08,28.36-23.16,45.09-2.6,7.68-2.6,16.72-1.24,24.52,1.24,9.04,5.2,16.72,12.88,21.92,3.84,3.84,9.04,5.2,15.48,6.44,5.2,1.24,10.28,1.24,16.72,1.24,20.56-1.24,41.25-5.2,61.81-11.64,11.64-2.6,24.52-6.44,36.04-9.04,12.88-2.6,25.76-5.2,38.65-5.2h9.04c9.04,1.24,18.08,1.24,27,1.24h10.28c15.48,1.24,30.97,2.6,46.32,5.2,14.12,2.6,27,5.2,39.88,7.68,20.56,6.44,42.48,10.28,63.17,11.64,5.2,0,11.64,0,16.72-1.24,5.2-1.24,10.28-3.84,15.48-6.44,6.44-5.2,10.28-12.88,12.88-21.92,1.24-9.04,1.24-16.72-1.24-24.52-6.44-15.48-14.12-30.97-24.52-45.09-3.84-5.2-6.44-11.64-10.28-18.08,14.12-16.72,27-34.81,38.65-52.77,6.44,0,12.88,0,19.32-2.6,16.72-5.2,30.97-16.72,41.25-30.97,2.6-3.84,5.2-9.04,6.44-14.12,6.44-10.28,10.28-21.92,12.88-33.44,3.84-17.71,2.6-38.4-1.24-57.72h0Z"/>
      <path class="cls-6" d="M350.08,251.43c-2.6,3.84-5.2,7.68-6.44,12.88-1.24,5.2-1.24,9.04-1.24,14.12,0,9.04,0,19.32-2.6,28.36-3.84,10.28-7.68,19.32-14.12,27-11.64,14.12-19.32,29.6-25.76,46.32-2.6,10.28-3.84,20.56-2.6,32.2-11.64,16.72-21.92,34.81-29.6,54.13-12.88,28.36-20.56,57.97-24.52,88.93-3.84,37.41,1.24,76.05,15.48,110.73,10.28,25.76,27,47.69,47.69,65.65,10.28,9.04,21.92,16.72,34.81,23.16,43.85,21.92,95.37,20.56,139.1-1.24,21.92-12.88,41.25-28.36,59.21-46.32,11.64-10.28,20.56-21.92,29.6-33.44,14.12-25.76,23.16-54.13,24.52-83.73,9.04-50.29,3.84-103.05-15.48-150.74-7.68-15.48-18.08-30.97-29.6-42.48-3.84-21.92-10.28-43.85-19.32-64.41-6.44-14.12-15.48-28.36-21.92-43.85-2.6-6.44-5.2-12.88-7.68-18.08-2.6-6.44-6.44-11.64-11.64-16.72-5.2-5.2-10.28-7.68-18.08-10.28-6.44-2.6-12.88-2.6-20.56-3.84-14.12-1.24-27,1.24-41.25,0-10.28,0-21.92-2.6-32.2-1.24-5.2,0-10.28,1.24-15.48,3.84-2.6,1.36-6.44,5.2-10.28,9.04M355.28,133.02c-5.2,0-10.28,2.6-14.12,6.44-3.84,3.84-6.44,7.68-7.68,12.88-2.6,10.28-2.6,20.56-1.24,29.6,0,9.04,1.24,18.08,5.2,27,1.24,3.84,3.84,7.68,7.68,11.64,3.84,3.84,7.68,5.2,11.64,6.44,3.84,1.24,9.04,1.24,12.88,0s7.68-3.84,10.28-6.44c3.84-5.2,7.68-10.28,9.04-16.72,1.24-6.44,2.6-12.88,2.6-19.32s-1.24-15.48-3.84-23.16-6.44-14.12-11.64-20.56c-2.6-2.6-5.2-5.2-9.04-6.44-5.33,0-7.93-1.36-11.77-1.36M444.09,133.02c-7.68,5.2-14.12,12.88-18.08,21.92-3.84,11.64-2.6,24.52,1.24,36.04,3.84,11.64,11.64,21.92,20.56,29.6,5.2,3.84,10.28,6.44,16.72,6.44,6.44,1.24,12.88,0,18.08-2.6,6.44-3.84,11.64-9.04,15.48-16.72,2.6-6.44,5.2-14.12,5.2-21.92,1.24-9.04,0-19.32-3.84-28.36-3.84-10.28-10.28-18.08-18.08-24.52-3.84-2.6-9.04-5.2-14.12-5.2s-10.28,0-15.48,1.24c-2.48,1.49-5.08,2.72-7.68,4.09"/>
      <path class="cls-4" d="M462.18,157.42c-2.6,0-6.44,1.24-9.04,2.6-2.6,1.24-5.2,3.84-6.44,6.44-2.6,5.2-5.2,10.28-5.2,16.72s0,9.04,1.24,12.88,3.84,7.68,7.68,10.28c3.84,2.6,7.68,5.2,12.88,5.2s9.04-1.24,12.88-3.84c2.6-2.6,5.2-5.2,7.68-7.68,1.24-2.6,2.6-6.44,2.6-10.28,1.24-6.44,0-12.88-2.6-19.32s-7.68-10.28-14.12-12.88c-1.11-.12-3.72-.12-7.56-.12"/>
      <path class="cls-6" d="M355.28,133.02c-5.2,0-10.28,2.6-14.12,6.44-3.84,3.84-6.44,7.68-7.68,12.88-2.6,10.28-2.6,20.56-1.24,29.6,0,9.04,1.24,18.08,5.2,27,1.24,3.84,3.84,7.68,7.68,11.64,3.84,3.84,7.68,5.2,11.64,6.44,3.84,1.24,9.04,1.24,12.88,0s7.68-3.84,10.28-6.44c3.84-5.2,7.68-10.28,9.04-16.72,1.24-6.44,2.6-12.88,2.6-19.32s-1.24-15.48-3.84-23.16-6.44-14.12-11.64-20.56c-2.6-2.6-5.2-5.2-9.04-6.44-5.33,0-7.93-1.36-11.77-1.36"/>
      <path class="cls-4" d="M342.4,175.5c-1.24,6.44-1.24,12.88,1.24,19.32,1.24,3.84,3.84,7.68,6.44,10.28,1.24,2.6,3.84,3.84,6.44,5.2s5.2,1.24,7.68,1.24c2.6-1.24,5.2-2.6,6.44-3.84,1.24-2.6,2.6-3.84,3.84-6.44,2.6-7.68,2.6-15.48,0-23.16-1.24-5.2-3.84-10.28-9.04-14.12-2.6-1.24-3.84-2.6-6.44-3.84-2.6-1.24-5.2,0-7.68,1.24s-5.2,3.84-6.44,6.44-2.48,5.08-2.48,7.68"/>
      <path class="cls-3" d="M330.76,255.39c0,.87.37,1.73,1.24,2.6,1.24,1.24,1.24,2.6,2.6,2.6,1.24,1.24,2.6,1.24,3.84,2.6,6.44,3.84,12.88,10.28,16.72,16.72,5.2,9.04,12.88,16.72,20.56,23.16,6.44,3.84,12.88,6.44,20.56,7.68,9.04,1.24,18.08,0,25.76-2.6s15.48-5.2,21.92-10.28c11.64-9.04,24.52-18.08,38.65-25.76,2.6-1.24,6.44-2.6,9.04-3.84s5.2-3.84,7.68-6.44c1.24-2.6,1.24-6.44,1.24-9.04,0-3.84,1.24-6.44,2.6-10.28s0-6.44-1.24-10.28c-1.24-2.6-3.84-5.2-6.44-6.44s-5.2-2.6-7.68-2.6c-5.2,0-11.64,1.24-16.72,1.24-7.68,1.24-15.48,0-23.16,0s-19.32,2.6-28.36,2.6-21.92-1.24-32.2-1.24-9.04,0-14.12,1.24c-5.2,1.24-9.04,2.6-12.88,5.2-3.84,2.6-6.44,6.44-10.28,9.04-1.24,1.24-3.84,2.6-5.2,3.84-2.6,1.24-3.84,1.24-6.44,1.24h-3.84c-1.24,0-1.24,1.24-1.24,1.24l-1.24,1.24c0,2.6,0,3.96-1.36,6.56"/>
      <path class="cls-2" d="M353.92,230.87c-3.84,2.6-7.68,5.2-11.64,7.68-2.6,1.24-3.84,2.6-5.2,5.2-1.24,1.24-1.24,2.6-1.24,5.2v10.28s0,1.24,1.24,1.24l1.24,1.24h2.6c3.84,1.24,6.44,2.6,9.04,5.2s5.2,5.2,7.68,6.44c7.68,5.2,16.72,9.04,25.76,9.04s18.08-1.24,27-3.84c6.44-1.24,14.12-3.84,20.56-5.2,10.28-3.84,20.56-10.28,28.36-16.72,3.84-3.84,7.68-6.44,11.64-10.28,3.84-2.6,7.68-3.84,11.64-6.44,0,0,1.24,0,1.24-1.24l1.24-1.24v-2.6c0-1.36,0-1.24-1.24-1.24l-1.24-1.24c-3.84-2.6-9.04-5.2-15.48-5.2s-10.28,0-15.48-1.24-10.28-2.6-14.12-3.84c-5.2-1.24-10.28-2.6-15.48-3.84-12.88-2.6-24.52-1.24-37.41,1.24-8.79,1.11-20.44,6.19-30.72,11.4"/>
      <path class="cls-1" d="M352.68,217.99c-5.2,3.84-10.28,7.68-14.12,12.88-2.6,2.6-3.84,6.44-5.2,10.28-1.24,2.6-1.24,5.2-1.24,9.04v5.08s0,1.24,1.24,1.24c.87.87,1.73,1.24,2.6,1.24h2.6c3.84,1.24,7.68,2.6,11.64,5.2,3.84,2.6,6.44,5.2,10.28,7.68,7.68,5.2,16.72,7.68,25.76,7.68s18.08-1.24,27-2.6c7.68-1.24,14.12-3.84,20.56-6.44,10.28-3.84,19.32-10.28,28.36-16.72,3.84-2.6,7.68-6.44,11.64-10.28,1.24-1.24,2.6-2.6,3.84-3.84s2.6-2.6,3.84-2.6c2.6-1.24,5.2-1.24,7.68,0,1.24,0,3.84,1.24,6.44,1.24h2.6c1.24,0,1.24-1.24,2.6-1.24,1.24-1.24,1.24-2.6,1.24-3.84s0-2.6-1.24-3.84c-1.24-2.6-3.84-3.84-6.44-5.2-3.84-1.24-6.44-2.6-10.28-2.6-10.28-2.6-20.56-6.44-30.97-11.64-5.2-2.6-9.04-5.2-14.12-7.68s-10.28-5.2-15.48-6.44c-11.64-3.84-24.52-2.6-37.41,1.24-12.88,4.09-24.4,11.89-33.44,22.17"/>
      <path class="cls-7" d="M414.49,202.5c1.24,2.6,3.84,1.24,6.44,2.6,2.6,1.24,2.6,2.6,5.2,2.6s5.2-1.24,5.2-2.6c0-2.6-2.6-3.84-5.2-5.2-2.6-1.24-6.44-1.24-9.04,0-2.6,1.36-2.6,2.6-2.6,2.6h0ZM382.29,202.5c-2.6-1.24-6.44,3.84-5.2,6.44,0,1.24,1.24,1.24,2.6,1.24s2.6-2.6,3.84-3.84c0-2.48,0-3.84-1.24-3.84h0Z"/>
      <path class="cls-1" d="M786.82,729.41c-1.24,5.2-5.2,9.04-7.68,12.88-7.68,9.04-18.08,15.48-28.36,20.56-18.08,7.68-34.81,18.08-52.77,27-11.64,7.68-21.92,15.48-30.97,24.52-7.68,7.68-16.72,15.48-24.52,23.16-9.04,6.44-19.32,11.64-30.97,12.88-14.12,1.24-28.36,0-41.25-6.44-9.04-3.84-16.72-9.04-23.16-18.08-5.2-9.04-6.44-18.08-6.44-28.36,0-16.72,2.6-34.81,6.44-51.53,2.6-14.12,5.2-28.36,6.44-42.48,2.6-25.76,2.6-52.77,1.24-78.53v-12.88c0-9.04,7.68-15.48,16.72-15.48s7.68,0,11.64,1.24c9.04,1.24,19.32,2.6,28.36,5.2,5.2,1.24,11.64,3.84,16.72,5.2,9.04,2.6,19.32,3.84,29.6,2.6,10.28-2.6,20.56-3.84,32.2-5.2,3.84,0,9.04,1.24,12.88,2.6s9.04,3.84,11.64,6.44,3.84,5.2,5.2,9.04c1.24,5.2,2.6,10.28,3.84,15.48,0,5.2,0,9.04,1.24,14.12,1.24,7.68,5.2,14.12,10.28,19.32,5.2,5.2,10.28,10.28,16.72,15.48,5.2,5.2,11.64,9.04,18.08,14.12,2.6,2.6,6.44,3.84,9.04,6.44s5.2,5.2,6.44,7.68c1.36,2.72,2.6,7.8,1.36,13.01"/>
      <path class="cls-1" d="M786.82,729.41c-1.24,5.2-5.2,9.04-7.68,12.88-7.68,9.04-18.08,15.48-28.36,20.56-18.08,7.68-34.81,18.08-52.77,27-11.64,7.68-21.92,15.48-30.97,24.52-7.68,7.68-16.72,15.48-24.52,23.16-9.04,6.44-19.32,11.64-30.97,12.88-14.12,1.24-28.36,0-41.25-6.44-9.04-3.84-16.72-9.04-23.16-18.08-5.2-9.04-6.44-18.08-6.44-28.36,0-16.72,2.6-34.81,6.44-51.53,2.6-14.12,5.2-28.36,6.44-42.48,2.6-25.76,2.6-52.77,1.24-78.53v-12.88c0-9.04,7.68-15.48,16.72-15.48s7.68,0,11.64,1.24c9.04,1.24,19.32,2.6,28.36,5.2,5.2,1.24,11.64,3.84,16.72,5.2,9.04,2.6,19.32,3.84,29.6,2.6,10.28-2.6,20.56-3.84,32.2-5.2,3.84,0,9.04,1.24,12.88,2.6s9.04,3.84,11.64,6.44,3.84,5.2,5.2,9.04c1.24,5.2,2.6,10.28,3.84,15.48,0,5.2,0,9.04,1.24,14.12,1.24,7.68,5.2,14.12,10.28,19.32,5.2,5.2,10.28,10.28,16.72,15.48,5.2,5.2,11.64,9.04,18.08,14.12,2.6,2.6,6.44,3.84,9.04,6.44s5.2,5.2,6.44,7.68c1.36,2.72,2.6,7.8,1.36,13.01M194.26,583.88c5.2-1.24,9.04-2.6,14.12-1.24,5.2,1.24,9.04,2.6,14.12,5.2,7.68,6.44,14.12,12.88,20.56,21.92,12.88,18.08,25.76,37.41,37.41,56.73,9.04,15.48,18.08,32.2,28.36,46.32,6.44,9.04,15.48,18.08,21.92,28.36,7.68,9.04,12.88,20.56,16.72,32.2,3.84,15.48,2.6,30.97-5.2,45.09-5.2,10.28-12.88,18.08-21.92,23.16-9.04,5.08-20.56,9.04-30.97,7.68-16.72-2.6-34.81-7.68-50.29-15.48-33.44-12.88-68.25-16.72-103.05-27-10.28-2.6-20.56-6.44-30.97-10.28-5.2-1.24-9.04-2.6-14.12-3.84-3.84-1.24-7.68-5.2-10.28-9.04-1.24-3.84-2.6-6.44-2.6-10.28s1.24-7.68,2.6-10.28c2.6-6.44,6.44-12.88,9.04-20.56,3.84-11.64,5.2-24.52,5.2-36.04s-2.6-24.52-3.84-36.04v-16.72c1.24-10.28,10.28-19.32,20.56-20.56,5.2-1.24,10.28-1.24,15.48-1.24h15.48c5.2,0,10.28-1.24,14.12-3.84,3.84-2.6,7.68-6.44,10.28-10.28s5.2-7.68,7.68-12.88,5.2-7.68,7.68-11.64c2.85-4.34,6.69-6.94,11.89-9.41"/>
      <path class="cls-1" d="M194.26,583.88c5.2-1.24,9.04-2.6,14.12-1.24,5.2,1.24,9.04,2.6,14.12,5.2,7.68,6.44,14.12,12.88,20.56,21.92,12.88,18.08,25.76,37.41,37.41,56.73,9.04,15.48,18.08,32.2,28.36,46.32,6.44,9.04,15.48,18.08,21.92,28.36,7.68,9.04,12.88,20.56,16.72,32.2,3.84,15.48,2.6,30.97-5.2,45.09-5.2,10.28-12.88,18.08-21.92,23.16-9.04,5.08-20.56,9.04-30.97,7.68-16.72-2.6-34.81-7.68-50.29-15.48-33.44-12.88-68.25-16.72-103.05-27-10.28-2.6-20.56-6.44-30.97-10.28-5.2-1.24-9.04-2.6-14.12-3.84-3.84-1.24-7.68-5.2-10.28-9.04-1.24-3.84-2.6-6.44-2.6-10.28s1.24-7.68,2.6-10.28c2.6-6.44,6.44-12.88,9.04-20.56,3.84-11.64,5.2-24.52,5.2-36.04s-2.6-24.52-3.84-36.04v-16.72c1.24-10.28,10.28-19.32,20.56-20.56,5.2-1.24,10.28-1.24,15.48-1.24h15.48c5.2,0,10.28-1.24,14.12-3.84,3.84-2.6,7.68-6.44,10.28-10.28s5.2-7.68,7.68-12.88,5.2-7.68,7.68-11.64c2.85-4.34,6.69-6.94,11.89-9.41"/>
      <path class="cls-1" d="M200.7,592.79c3.84-1.24,9.04-1.24,12.88-1.24s9.04,2.6,11.64,6.44c6.44,6.44,12.88,12.88,16.72,20.56,11.64,18.08,21.92,37.41,32.2,55.37,7.68,14.12,15.48,28.36,24.52,41.25,6.44,9.04,14.12,16.72,20.56,24.52,6.44,9.04,11.64,18.08,15.48,28.36,3.84,12.88,2.6,28.36-3.84,39.88-5.2,9.04-11.64,16.72-20.56,21.92-9.04,5.2-19.32,7.68-28.36,6.44-15.48-2.6-30.97-7.68-45.09-14.12-28.36-10.28-60.57-11.64-88.93-20.56-10.28-2.6-20.56-6.44-30.97-9.04-5.2-1.24-9.04-2.6-14.12-3.84-5.2-1.24-9.04-5.2-11.64-9.04-1.24-2.6-2.6-6.44-2.6-10.28s1.24-7.68,2.6-10.28c2.6-6.44,6.44-12.88,9.04-19.32,3.84-10.28,5.2-21.92,3.84-32.2-1.24-10.28-2.6-21.92-3.84-32.2,0-5.2,0-10.28,1.24-14.12,1.24-5.2,2.6-9.04,6.44-12.88s9.04-6.44,14.12-6.44,10.28-1.24,15.48,0,10.28,1.24,15.48,1.24c10.28,0,19.32-6.44,24.52-15.48,2.6-3.84,3.84-9.04,5.2-12.88,1.24-5.2,3.84-9.04,6.44-12.88,2.48-5.2,6.32-7.8,11.52-9.17"/>
    </g>
  </g>
</svg>