<?xml version="1.0" encoding="UTF-8"?>
<svg id="_图层_2" data-name="图层 2" xmlns="http://www.w3.org/2000/svg" viewBox="0 0 1000 1000">
  <defs>
    <style>
      .cls-1 {
        fill: #f5bd0c;
      }

      .cls-1, .cls-2, .cls-3, .cls-4, .cls-5, .cls-6, .cls-7 {
        stroke-width: 0px;
      }

      .cls-2 {
        fill: #604405;
      }

      .cls-3 {
        fill: #d99a03;
      }

      .cls-4 {
        fill: #020204;
      }

      .cls-5 {
        fill: #f4f3f3;
      }

      .cls-6 {
        fill: #fff;
      }

      .cls-7 {
        fill: #cd8907;
      }
    </style>
  </defs>
  <g id="logo">
    <g id="_背景组" data-name="背景组">
      <rect id="_背景" data-name=" 背景" class="cls-5" width="1000" height="1000"/>
      <rect id="_背景白色" data-name="背景白色" class="cls-6" x="86.66" y="86.66" width="826.68" height="826.68" rx="87.7" ry="87.7"/>
    </g>
    <g id="linux">
      <path class="cls-6" d="M509.69,238.47c-6.8,4.59-12.44,11.38-15.97,19.33-3.35,10.24-2.29,21.62,1.06,31.77,3.35,10.24,10.24,19.33,18.18,26.12,4.59,3.35,9.09,5.65,14.74,5.65,5.65,1.06,11.38,0,15.97-2.29,5.65-3.35,10.24-7.94,13.68-14.74,2.29-5.65,4.59-12.44,4.59-19.33,1.06-7.94,0-17.03-3.35-25.06-3.35-9.09-9.09-15.97-15.97-21.62-3.35-2.29-7.94-4.59-12.44-4.59s-9.09,0-13.68,1.06c-2.21,1.32-4.5,2.38-6.8,3.62"/>
      <path class="cls-4" d="M747.35,578.33c-4.59-23.83-11.38-46.6-19.33-68.22-5.65-17.03-14.74-31.77-25.06-46.6-10.24-13.68-23.83-25.06-33.01-38.65-5.65-6.8-10.24-14.74-15.97-22.77-2.29-4.59-4.59-9.09-6.8-13.68-6.8-14.74-12.44-29.48-20.47-43.15-1.06-2.29-2.29-4.59-3.35-6.8-1.06-13.68-2.29-26.12-3.35-39.8,1.06-27.36-1.06-53.48-6.8-79.6-3.35-12.44-9.09-25.06-15.97-35.21-7.94-13.68-18.18-25.06-30.71-34.06-20.47-14.74-44.39-21.62-68.22-21.62s-36.36,3.35-52.24,12.44c-17.03,9.09-30.71,23.83-38.65,40.86-7.94,17.03-12.44,36.36-12.44,55.77-1.06,19.33,1.06,37.51,2.29,56.83,1.06,19.33,0,38.65,2.29,57.89,0,5.65,1.06,12.44,1.06,19.33v10.15c-7.94,14.74-18.18,28.42-28.42,42.1-6.8,9.09-14.74,18.18-21.62,27.36-9.09,10.24-17.03,22.77-23.83,35.21-4.59,11.38-7.94,22.77-10.24,34.06v1.06c-4.59,13.68-9.09,26.12-14.74,38.65-1.06,1.06-1.06,2.29-1.06,3.35-3.35,7.94-6.8,14.74-11.38,21.62l-6.8,4.59c-2.29,4.59-5.65,10.24-7.94,15.97-1.06,3.35-2.29,6.8-2.29,10.24-1.06,6.8-1.06,14.74,1.06,21.62,0,2.29,1.06,3.35,1.06,5.65,2.29,5.65,4.59,10.24,6.8,14.74,1.06,2.29,2.29,4.59,3.35,6.8l1.06,1.06c1.06,2.29,2.29,4.59,3.35,5.65h0c1.06,2.29,3.35,4.59,4.59,6.8h0c1.06,2.29,3.35,4.59,4.59,6.8,5.65,23.83,17.03,46.6,33.01,65.92-2.29,4.59-4.59,7.94-6.8,12.44-7.94,12.44-15.97,25.06-20.47,39.8-2.29,6.8-2.29,14.74-1.06,21.62,1.06,7.94,4.59,14.74,11.38,19.33,3.35,3.35,7.94,4.59,13.68,5.65,4.59,1.06,9.09,1.06,14.74,1.06,18.18-1.06,36.36-4.59,54.54-10.24,10.24-2.29,21.62-5.65,31.77-7.94,11.38-2.29,22.77-4.59,34.06-4.59h7.94c7.94,1.06,15.97,1.06,23.83,1.06h9.09c13.68,1.06,27.36,2.29,40.86,4.59,12.44,2.29,23.83,4.59,35.21,6.8,18.18,5.65,37.51,9.09,55.77,10.24,4.59,0,10.24,0,14.74-1.06,4.59-1.06,9.09-3.35,13.68-5.65,5.65-4.59,9.09-11.38,11.38-19.33,1.06-7.94,1.06-14.74-1.06-21.62-5.65-13.68-12.44-27.36-21.62-39.8-3.35-4.59-5.65-10.24-9.09-15.97,12.44-14.74,23.83-30.71,34.06-46.6,5.65,0,11.38,0,17.03-2.29,14.74-4.59,27.36-14.74,36.36-27.36,2.29-3.35,4.59-7.94,5.65-12.44,5.65-9.09,9.09-19.33,11.38-29.48,3.35-15.62,2.29-33.89-1.06-50.92h0l.18.35h0Z"/>
      <path class="cls-6" d="M426.73,342.96c-2.29,3.35-4.59,6.8-5.65,11.38-1.06,4.59-1.06,7.94-1.06,12.44,0,7.94,0,17.03-2.29,25.06-3.35,9.09-6.8,17.03-12.44,23.83-10.24,12.44-17.03,26.12-22.77,40.86-2.29,9.09-3.35,18.18-2.29,28.42-10.24,14.74-19.33,30.71-26.12,47.74-11.38,25.06-18.18,51.19-21.62,78.45-3.35,33.01,1.06,67.16,13.68,97.69,9.09,22.77,23.83,42.1,42.1,57.89,9.09,7.94,19.33,14.74,30.71,20.47,38.65,19.33,84.19,18.18,122.76-1.06,19.33-11.38,36.36-25.06,52.24-40.86,10.24-9.09,18.18-19.33,26.12-29.48,12.44-22.77,20.47-47.74,21.62-73.87,7.94-44.39,3.35-90.99-13.68-132.99-6.8-13.68-15.97-27.36-26.12-37.51-3.35-19.33-9.09-38.65-17.03-56.83-5.65-12.44-13.68-25.06-19.33-38.65-2.29-5.65-4.59-11.38-6.8-15.97-2.29-5.65-5.65-10.24-10.24-14.74-4.59-4.59-9.09-6.8-15.97-9.09-5.65-2.29-11.38-2.29-18.18-3.35-12.44-1.06-23.83,1.06-36.36,0-9.09,0-19.33-2.29-28.42-1.06-4.59,0-9.09,1.06-13.68,3.35-2.29,1.24-5.65,4.59-9.09,7.94M431.32,238.47c-4.59,0-9.09,2.29-12.44,5.65-3.35,3.35-5.65,6.8-6.8,11.38-2.29,9.09-2.29,18.18-1.06,26.12,0,7.94,1.06,15.97,4.59,23.83,1.06,3.35,3.35,6.8,6.8,10.24,3.35,3.35,6.8,4.59,10.24,5.65,3.35,1.06,7.94,1.06,11.38,0s6.8-3.35,9.09-5.65c3.35-4.59,6.8-9.09,7.94-14.74,1.06-5.65,2.29-11.38,2.29-17.03s-1.06-13.68-3.35-20.47c-2.29-6.8-5.65-12.44-10.24-18.18-2.29-2.29-4.59-4.59-7.94-5.65-4.68,0-6.97-1.24-10.41-1.24M509.69,238.47c-6.8,4.59-12.44,11.38-15.97,19.33-3.35,10.24-2.29,21.62,1.06,31.77,3.35,10.24,10.24,19.33,18.18,26.12,4.59,3.35,9.09,5.65,14.74,5.65,5.65,1.06,11.38,0,15.97-2.29,5.65-3.35,10.24-7.94,13.68-14.74,2.29-5.65,4.59-12.44,4.59-19.33,1.06-7.94,0-17.03-3.35-25.06-3.35-9.09-9.09-15.97-15.97-21.62-3.35-2.29-7.94-4.59-12.44-4.59s-9.09,0-13.68,1.06c-2.21,1.32-4.5,2.38-6.8,3.62"/>
      <path class="cls-4" d="M525.66,260.01c-2.29,0-5.65,1.06-7.94,2.29-2.29,1.06-4.59,3.35-5.65,5.65-2.29,4.59-4.59,9.09-4.59,14.74s0,7.94,1.06,11.38,3.35,6.8,6.8,9.09c3.35,2.29,6.8,4.59,11.38,4.59s7.94-1.06,11.38-3.35c2.29-2.29,4.59-4.59,6.8-6.8,1.06-2.29,2.29-5.65,2.29-9.09,1.06-5.65,0-11.38-2.29-17.03s-6.8-9.09-12.44-11.38c-.97-.09-3.27-.09-6.71-.09"/>
      <path class="cls-6" d="M431.32,238.47c-4.59,0-9.09,2.29-12.44,5.65-3.35,3.35-5.65,6.8-6.8,11.38-2.29,9.09-2.29,18.18-1.06,26.12,0,7.94,1.06,15.97,4.59,23.83,1.06,3.35,3.35,6.8,6.8,10.24,3.35,3.35,6.8,4.59,10.24,5.65,3.35,1.06,7.94,1.06,11.38,0s6.8-3.35,9.09-5.65c3.35-4.59,6.8-9.09,7.94-14.74,1.06-5.65,2.29-11.38,2.29-17.03s-1.06-13.68-3.35-20.47c-2.29-6.8-5.65-12.44-10.24-18.18-2.29-2.29-4.59-4.59-7.94-5.65-4.68,0-6.97-1.24-10.41-1.24"/>
      <path class="cls-4" d="M419.94,275.98c-1.06,5.65-1.06,11.38,1.06,17.03,1.06,3.35,3.35,6.8,5.65,9.09,1.06,2.29,3.35,3.35,5.65,4.59s4.59,1.06,6.8,1.06c2.29-1.06,4.59-2.29,5.65-3.35,1.06-2.29,2.29-3.35,3.35-5.65,2.29-6.8,2.29-13.68,0-20.47-1.06-4.59-3.35-9.09-7.94-12.44-2.29-1.06-3.35-2.29-5.65-3.35-2.29-1.06-4.59,0-6.8,1.06s-4.59,3.35-5.65,5.65-2.21,4.5-2.21,6.8"/>
      <path class="cls-3" d="M409.7,346.49c0,.79.35,1.5,1.06,2.29,1.06,1.06,1.06,2.29,2.29,2.29,1.06,1.06,2.29,1.06,3.35,2.29,5.65,3.35,11.38,9.09,14.74,14.74,4.59,7.94,11.38,14.74,18.18,20.47,5.65,3.35,11.38,5.65,18.18,6.8,7.94,1.06,15.97,0,22.77-2.29,6.8-2.29,13.68-4.59,19.33-9.09,10.24-7.94,21.62-15.97,34.06-22.77,2.29-1.06,5.65-2.29,7.94-3.35s4.59-3.35,6.8-5.65c1.06-2.29,1.06-5.65,1.06-7.94,0-3.35,1.06-5.65,2.29-9.09s0-5.65-1.06-9.09c-1.06-2.29-3.35-4.59-5.65-5.65s-4.59-2.29-6.8-2.29c-4.59,0-10.24,1.06-14.74,1.06-6.8,1.06-13.68,0-20.47,0s-17.03,2.29-25.06,2.29-19.33-1.06-28.42-1.06-7.94,0-12.44,1.06c-4.59,1.06-7.94,2.29-11.38,4.59-3.35,2.29-5.65,5.65-9.09,7.94-1.06,1.06-3.35,2.29-4.59,3.35-2.29,1.06-3.35,1.06-5.65,1.06h-3.35c-1.06,0-1.06,1.06-1.06,1.06l-1.06,1.06c0,2.29,0,3.53-1.24,5.82"/>
      <path class="cls-2" d="M430.09,324.78c-3.35,2.29-6.8,4.59-10.24,6.8-2.29,1.06-3.35,2.29-4.59,4.59-1.06,1.06-1.06,2.29-1.06,4.59v9.09s0,1.06,1.06,1.06l1.06,1.06h2.29c3.35,1.06,5.65,2.29,7.94,4.59s4.59,4.59,6.8,5.65c6.8,4.59,14.74,7.94,22.77,7.94s15.97-1.06,23.83-3.35c5.65-1.06,12.44-3.35,18.18-4.59,9.09-3.35,18.18-9.09,25.06-14.74,3.35-3.35,6.8-5.65,10.24-9.09,3.35-2.29,6.8-3.35,10.24-5.65,0,0,1.06,0,1.06-1.06l1.06-1.06v-2.29c0-1.24,0-1.06-1.06-1.06l-1.06-1.06c-3.35-2.29-7.94-4.59-13.68-4.59s-9.09,0-13.68-1.06c-4.59-1.06-9.09-2.29-12.44-3.35-4.59-1.06-9.09-2.29-13.68-3.35-11.38-2.29-21.62-1.06-33.01,1.06-7.77.97-18,5.47-27.09,10.06"/>
      <path class="cls-1" d="M429.03,313.49c-4.59,3.35-9.09,6.8-12.44,11.38-2.29,2.29-3.35,5.65-4.59,9.09-1.06,2.29-1.06,4.59-1.06,7.94v4.5s0,1.06,1.06,1.06c.79.79,1.5,1.06,2.29,1.06h2.29c3.35,1.06,6.8,2.29,10.24,4.59,3.35,2.29,5.65,4.59,9.09,6.8,6.8,4.59,14.74,6.8,22.77,6.8s15.97-1.06,23.83-2.29c6.8-1.06,12.44-3.35,18.18-5.65,9.09-3.35,17.03-9.09,25.06-14.74,3.35-2.29,6.8-5.65,10.24-9.09,1.06-1.06,2.29-2.29,3.35-3.35s2.29-2.29,3.35-2.29c2.29-1.06,4.59-1.06,6.8,0,1.06,0,3.35,1.06,5.65,1.06h2.29c1.06,0,1.06-1.06,2.29-1.06,1.06-1.06,1.06-2.29,1.06-3.35s0-2.29-1.06-3.35c-1.06-2.29-3.35-3.35-5.65-4.59-3.35-1.06-5.65-2.29-9.09-2.29-9.09-2.29-18.18-5.65-27.36-10.24s-7.94-4.59-12.44-6.8-9.09-4.59-13.68-5.65c-10.24-3.35-21.62-2.29-33.01,1.06-11.38,3.62-21.53,10.5-29.48,19.59"/>
      <path class="cls-7" d="M483.57,299.81c1.06,2.29,3.35,1.06,5.65,2.29,2.29,1.06,2.29,2.29,4.59,2.29s4.59-1.06,4.59-2.29c0-2.29-2.29-3.35-4.59-4.59-2.29-1.06-5.65-1.06-7.94,0-2.29,1.24-2.29,2.29-2.29,2.29h0ZM455.15,299.81c-2.29-1.06-5.65,3.35-4.59,5.65,0,1.06,1.06,1.06,2.29,1.06s2.29-2.29,3.35-3.35c0-2.21,0-3.35-1.06-3.35h0Z"/>
      <path class="cls-1" d="M812.13,764.8c-1.06,4.59-4.59,7.94-6.8,11.38-6.8,7.94-15.97,13.68-25.06,18.18-15.97,6.8-30.71,15.97-46.6,23.83-10.24,6.8-19.33,13.68-27.36,21.62-6.8,6.8-14.74,13.68-21.62,20.47-7.94,5.65-17.03,10.24-27.36,11.38-12.44,1.06-25.06,0-36.36-5.65-7.94-3.35-14.74-7.94-20.47-15.97-4.59-7.94-5.65-15.97-5.65-25.06,0-14.74,2.29-30.71,5.65-45.45,2.29-12.44,4.59-25.06,5.65-37.51,2.29-22.77,2.29-46.6,1.06-69.28v-11.38c0-7.94,6.8-13.68,14.74-13.68s6.8,0,10.24,1.06c7.94,1.06,17.03,2.29,25.06,4.59,4.59,1.06,10.24,3.35,14.74,4.59,7.94,2.29,17.03,3.35,26.12,2.29,9.09-2.29,18.18-3.35,28.42-4.59,3.35,0,7.94,1.06,11.38,2.29s7.94,3.35,10.24,5.65,3.35,4.59,4.59,7.94c1.06,4.59,2.29,9.09,3.35,13.68,0,4.59,0,7.94,1.06,12.44,1.06,6.8,4.59,12.44,9.09,17.03,4.59,4.59,9.09,9.09,14.74,13.68,4.59,4.59,10.24,7.94,15.97,12.44,2.29,2.29,5.65,3.35,7.94,5.65s4.59,4.59,5.65,6.8c1.24,2.38,2.29,6.88,1.24,11.47"/>
      <path class="cls-1" d="M812.13,764.8c-1.06,4.59-4.59,7.94-6.8,11.38-6.8,7.94-15.97,13.68-25.06,18.18-15.97,6.8-30.71,15.97-46.6,23.83-10.24,6.8-19.33,13.68-27.36,21.62-6.8,6.8-14.74,13.68-21.62,20.47-7.94,5.65-17.03,10.24-27.36,11.38-12.44,1.06-25.06,0-36.36-5.65-7.94-3.35-14.74-7.94-20.47-15.97-4.59-7.94-5.65-15.97-5.65-25.06,0-14.74,2.29-30.71,5.65-45.45,2.29-12.44,4.59-25.06,5.65-37.51,2.29-22.77,2.29-46.6,1.06-69.28v-11.38c0-7.94,6.8-13.68,14.74-13.68s6.8,0,10.24,1.06c7.94,1.06,17.03,2.29,25.06,4.59,4.59,1.06,10.24,3.35,14.74,4.59,7.94,2.29,17.03,3.35,26.12,2.29,9.09-2.29,18.18-3.35,28.42-4.59,3.35,0,7.94,1.06,11.38,2.29s7.94,3.35,10.24,5.65,3.35,4.59,4.59,7.94c1.06,4.59,2.29,9.09,3.35,13.68,0,4.59,0,7.94,1.06,12.44,1.06,6.8,4.59,12.44,9.09,17.03,4.59,4.59,9.09,9.09,14.74,13.68,4.59,4.59,10.24,7.94,15.97,12.44,2.29,2.29,5.65,3.35,7.94,5.65s4.59,4.59,5.65,6.8c1.24,2.38,2.29,6.88,1.24,11.47M289.24,636.39c4.59-1.06,7.94-2.29,12.44-1.06,4.59,1.06,7.94,2.29,12.44,4.59,6.8,5.65,12.44,11.38,18.18,19.33,11.38,15.97,22.77,33.01,33.01,50.04,7.94,13.68,15.97,28.42,25.06,40.86,5.65,7.94,13.68,15.97,19.33,25.06,6.8,7.94,11.38,18.18,14.74,28.42,3.35,13.68,2.29,27.36-4.59,39.8-4.59,9.09-11.38,15.97-19.33,20.47-7.94,4.5-18.18,7.94-27.36,6.8-14.74-2.29-30.71-6.8-44.39-13.68-29.48-11.38-60.19-14.74-90.99-23.83-9.09-2.29-18.18-5.65-27.36-9.09-4.59-1.06-7.94-2.29-12.44-3.35-3.35-1.06-6.8-4.59-9.09-7.94-1.06-3.35-2.29-5.65-2.29-9.09s1.06-6.8,2.29-9.09c2.29-5.65,5.65-11.38,7.94-18.18,3.35-10.24,4.59-21.62,4.59-31.77s-2.29-21.62-3.35-31.77v-14.74c1.06-9.09,9.09-17.03,18.18-18.18,4.59-1.06,9.09-1.06,13.68-1.06h13.68c4.59,0,9.09-1.06,12.44-3.35s6.8-5.65,9.09-9.09,4.59-6.8,6.8-11.38,4.59-6.8,6.8-10.24c2.47-3.79,5.91-6.09,10.5-8.3"/>
      <path class="cls-1" d="M289.24,636.39c4.59-1.06,7.94-2.29,12.44-1.06,4.59,1.06,7.94,2.29,12.44,4.59,6.8,5.65,12.44,11.38,18.18,19.33,11.38,15.97,22.77,33.01,33.01,50.04,7.94,13.68,15.97,28.42,25.06,40.86,5.65,7.94,13.68,15.97,19.33,25.06,6.8,7.94,11.38,18.18,14.74,28.42,3.35,13.68,2.29,27.36-4.59,39.8-4.59,9.09-11.38,15.97-19.33,20.47-7.94,4.5-18.18,7.94-27.36,6.8-14.74-2.29-30.71-6.8-44.39-13.68-29.48-11.38-60.19-14.74-90.99-23.83-9.09-2.29-18.18-5.65-27.36-9.09-4.59-1.06-7.94-2.29-12.44-3.35-3.35-1.06-6.8-4.59-9.09-7.94-1.06-3.35-2.29-5.65-2.29-9.09s1.06-6.8,2.29-9.09c2.29-5.65,5.65-11.38,7.94-18.18,3.35-10.24,4.59-21.62,4.59-31.77s-2.29-21.62-3.35-31.77v-14.74c1.06-9.09,9.09-17.03,18.18-18.18,4.59-1.06,9.09-1.06,13.68-1.06h13.68c4.59,0,9.09-1.06,12.44-3.35s6.8-5.65,9.09-9.09,4.59-6.8,6.8-11.38,4.59-6.8,6.8-10.24c2.47-3.79,5.91-6.09,10.5-8.3"/>
      <path class="cls-1" d="M294.89,644.25c3.35-1.06,7.94-1.06,11.38-1.06s7.94,2.29,10.24,5.65c5.65,5.65,11.38,11.38,14.74,18.18,10.24,15.97,19.33,33.01,28.42,48.89,6.8,12.44,13.68,25.06,21.62,36.36,5.65,7.94,12.44,14.74,18.18,21.62,5.65,7.94,10.24,15.97,13.68,25.06,3.35,11.38,2.29,25.06-3.35,35.21-4.59,7.94-10.24,14.74-18.18,19.33s-17.03,6.8-25.06,5.65c-13.68-2.29-27.36-6.8-39.8-12.44-25.06-9.09-53.48-10.24-78.45-18.18-9.09-2.29-18.18-5.65-27.36-7.94-4.59-1.06-7.94-2.29-12.44-3.35-4.59-1.06-7.94-4.59-10.24-7.94-1.06-2.29-2.29-5.65-2.29-9.09s1.06-6.8,2.29-9.09c2.29-5.65,5.65-11.38,7.94-17.03,3.35-9.09,4.59-19.33,3.35-28.42-1.06-9.09-2.29-19.33-3.35-28.42,0-4.59,0-9.09,1.06-12.44,1.06-4.59,2.29-7.94,5.65-11.38s7.94-5.65,12.44-5.65,9.09-1.06,13.68,0,9.09,1.06,13.68,1.06c9.09,0,17.03-5.65,21.62-13.68,2.29-3.35,3.35-7.94,4.59-11.38,1.06-4.59,3.35-7.94,5.65-11.38,2.21-4.59,5.56-6.88,10.15-8.12"/>
    </g>
  </g>
</svg>