<?xml version="1.0" encoding="UTF-8"?>
<svg id="_图层_2" data-name="图层 2" xmlns="http://www.w3.org/2000/svg" viewBox="0 0 1089.8 1095.9">
  <defs>
    <style>
      .cls-1 {
        fill: #f4f3f3;
      }

      .cls-2 {
        fill: #9fb7de;
      }

      .cls-3 {
        fill: #6d92cb;
      }

      .cls-4 {
        fill: #2965af;
      }
    </style>
  </defs>
  <g id="logo">
    <rect id="_背景" data-name="背景" class="cls-1" width="1089.8" height="1095.9"/>
    <g id="netlink">
      <path class="cls-2" d="m301.42,312.52c-14.48.03-28.37-5.79-38.5-16.13-21.45-21.47-21.45-56.26,0-77.73,21.32-20.61,55.13-20.61,76.45,0,7.03,7.18,11.86,16.21,13.93,26.03h124.67c18.83-.19,36.57,8.85,47.48,24.2l73.33,117.15c5.82,6.17,13.88,9.74,22.37,9.9h70.4c-.04-20.74,11.58-39.73,30.07-49.13,18.4-9.45,40.6-7.45,57.02,5.13,16.54,12.61,24.56,33.46,20.72,53.9-.03,14.51-5.68,28.44-15.77,38.87-21.03,21.21-55.27,21.36-76.48.33-4.87-4.83-8.78-10.54-11.52-16.83h-74.07c-18.83-.5-36.48-9.29-48.22-24.02l-73.33-117.52c-5.85-6.47-14.02-10.36-22.73-10.82h-123.93c-7.66,21.67-27.99,36.29-50.97,36.67h-.92Zm584.65,336.97c30.37-.63,55.5,23.48,56.12,53.85.63,30.37-23.48,55.5-53.85,56.12-14.98.31-29.45-5.51-40.04-16.11-6.01-5.95-10.53-13.24-13.2-21.27h-102.48c-18.33,0-21.08,2.93-21.45,3.67l-73.33,111.47c-11.77,15.19-29.92,24.06-49.13,24.02h-90.75c-13.06,27.43-45.87,39.08-73.3,26.02-22.08-10.51-34.57-34.33-30.65-58.47,2.96-8.15,7.87-15.45,14.3-21.27,9.53-10.24,22.69-16.36,36.67-17.05,23.84.38,44.71,16.08,51.7,38.87h91.67c8.52,0,16.64-3.6,22.37-9.9l73.33-111.28c11.63-13.75,29.44-20.66,47.3-18.33h101.38c6.65-23.42,27.91-39.68,52.25-39.97l1.1-.37Z"/>
      <path class="cls-3" d="m511.7,679.18h-160.78c-11.01,28.31-42.89,42.33-71.2,31.32-19.97-7.77-33.61-26.43-34.95-47.82.01-14.4,5.67-28.23,15.77-38.5,20.99-21.25,55.23-21.46,76.48-.47,6.7,6.62,11.55,14.87,14.08,23.93h160.23c8.81-29.07,39.52-45.5,68.59-36.69,29.07,8.81,45.5,39.52,36.69,68.59-8.81,29.07-39.52,45.5-68.59,36.69-17.59-5.33-31.36-19.1-36.69-36.69l.37-.37Z"/>
      <path class="cls-4" d="m503.27,472.75c-.08,30.38-24.76,54.94-55.14,54.86-30.38-.08-54.94-24.76-54.86-55.14.08-30.38,24.76-54.94,55.14-54.86,14.35.04,28.11,5.68,38.36,15.72,10.25,10.33,15.99,24.31,15.95,38.87l.55.55Z"/>
    </g>
  </g>
</svg>