<?xml version="1.0" encoding="UTF-8"?>
<svg id="_图层_2" data-name="图层 2" xmlns="http://www.w3.org/2000/svg" viewBox="0 0 1089.8 1095.9">
  <defs>
    <style>
      .cls-1 {
        fill: #f4f3f3;
      }

      .cls-2 {
        fill: #e5ecff;
      }

      .cls-3 {
        fill: #ff7e71;
      }

      .cls-4 {
        fill: #a4beff;
      }

      .cls-5 {
        fill: #5b79fb;
      }

      .cls-6 {
        fill: #83a4ff;
      }
    </style>
  </defs>
  <g id="logo">
    <rect id="_背景" data-name="背景" class="cls-1" width="1089.8" height="1095.9"/>
    <g id="network_earth">
      <path class="cls-2" d="m232.22,527.89c-.03,168.97,136.93,305.97,305.9,305.99,168.97.03,305.97-136.93,305.99-305.9v-.1c.03-168.97-136.93-305.97-305.9-305.99-168.97-.03-305.97,136.93-305.99,305.9v.1Z"/>
      <path class="cls-5" d="m465.4,731.88c-87.45-43.68-211.29-36.39-131.13-203.99,27.95-58.54-24.79-87.36-86.4-96.5-10.11,30.32-15.64,62.75-15.64,96.5,0,162.69,127,295.58,287.23,305.33,2.9-33.05-4.48-76.55-54.05-101.34h0Zm189.4-225.79s36.39,43.68-21.88,58.27c-58.27,14.59-94.66,43.68-80.16,101.95s0,58.27,80.16,50.98,101.95-80.16,101.95-94.66,21.88-94.66-21.88-116.54c-43.68-21.88-50.98-36.47-58.18,0h0Z"/>
      <path class="cls-3" d="m942.29,464.87c-5.54-39.81-52.21-68.38-134.91-82.71h-.18c5.71,10.55,10.81,21.45,15.29,32.7,54.23,12.04,87.8,31.73,90.97,54.05,3.52,24.96-30.41,57.22-90.79,86.31-66.97,32.34-158.82,57.83-258.57,71.81s-195.03,14.68-268.33,2.02c-66.01-11.43-107.58-33.13-111.01-58.01-2.55-18.37,15.21-40.69,48.96-62.84-.18-.26-.44-.44-.62-.62.79-12.22,2.37-24.17,4.57-35.86-58.45,32.87-86.66,68.38-81.74,103.45,5.54,39.81,52.21,68.38,134.91,82.71,36.39,6.24,77.78,9.4,122.26,9.4,48.78,0,101.34-3.78,155.04-11.25,102.66-14.41,197.49-40.78,267.19-74.44,75.5-36.56,112.5-76.9,106.96-116.72h0Z"/>
      <path class="cls-4" d="m552.94,222.29c-4.83-.18-9.76-.35-14.68-.35-110.21,0-206.72,58.27-260.6,145.63,46.93-.53,86.04-22.5,97.12-52.12,8.17.79,16.52,1.23,25.05,1.23,52.12,0,98.35-15.29,127.53-38.94,8,6.06,19.69,9.84,32.7,9.84.53,0,.97,0,1.41-.09,4.75,22.85,26.02,86.4,114.79,84.2,0,0,54.05-1.32,79.19,108.11,0,0,56.34,22.5,71.98-51.68-39.81-115.58-146.87-199.78-274.48-205.84Z"/>
      <path class="cls-6" d="m487.19,393.15c0,14.08,13.05,25.49,29.17,25.5,16.12,0,29.19-11.4,29.19-25.48v-.02c0-14.08-13.05-25.49-29.17-25.5-16.12,0-29.19,11.4-29.19,25.48v.02Z"/>
      <path class="cls-4" d="m571.85,401.98c4.61,7.64,17.52,13.12,25.08,12.54,7.57-.58,9.96-7.25,5.35-14.89-3.52-5.82-10.27-10.74-17.6-15.27-4.61-7.64-17.52-13.12-25.08-12.54s-9.96,7.25-5.35,14.89c3.52,5.82,10.27,10.74,17.6,15.27Z"/>
    </g>
  </g>
</svg>