<?xml version="1.0" encoding="UTF-8"?>
<svg id="_图层_2" data-name="图层 2" xmlns="http://www.w3.org/2000/svg" viewBox="0 0 164.03 164.03">
  <defs>
    <style>
      .cls-1 {
        fill: #a33;
      }

      .cls-1, .cls-2, .cls-3 {
        stroke-width: 0px;
      }

      .cls-2 {
        fill: #a32626;
      }

      .cls-3 {
        fill: #fff;
      }
    </style>
  </defs>
  <g id="_图层_1-2" data-name="图层 1">
    <rect class="cls-2" width="164.03" height="164.03"/>
    <g>
      <path class="cls-3" d="M77.18,72.73c1.06,3.9,8.25,6.27,12.29,5.49,4.61-.88,8.66-2.88,12.32-5.73,4.64-3.61,9.91-5.38,15.77-5.36.99,0,1.99.32,3.31.55-1.37,1.4-2.56,2.34-3.38,3.53-1.41,2.04-.55,3.54,1.91,3.64,3.13.12,5.83-.92,8.38-2.69,4.41-3.05,9-3.14,13.62-.4.69.41,1.28.96,2.4,1.82-1.12.43-1.74.68-2.37.91-1.01.37-2.1.59-3.01,1.12-2.06,1.22-3.01,4.28-2.03,6.1,1.03,1.92,3.09,2.55,5.67,1.3,1.92-.93,3.66-2.26,5.4-3.52,2.6-1.9,5.18-2.02,8.22-.86,2.01.77,4.38.6,6.86.87.01-.1.12.57-.17.87-.95,1.01-1.9,2.3-3.11,2.74-4.57,1.67-8.12,4.12-10,8.96-.61,1.58-2.91,2.54-4.5,3.69-1.27.92-2.74,1.57-3.92,2.58-.48.41-.78,1.61-.53,2.16.26.58,1.27,1.08,1.98,1.12.95.05,1.94-.33,2.9-.59,4.06-1.08,8.93,1.02,10.24,4.46-.19.13-.39.37-.59.38-5.88.24-10.23,3.33-14.37,7.2-4.59,4.3-9.72,8.01-16.2,8.77-2.54.3-5.2-.41-7.8-.61-1.34-.1-2.82-.47-4.01-.06-9.12,3.13-19.17-1.19-22.62-9.87-3.65-9.21.43-19.19,9.52-23.1,9.42-4.06,23.24.52,24.37,14.45.15,1.82-.06,3.68.16,5.49.1.85.69,2.1,1.33,2.29.71.22,2.17-.32,2.51-.95.92-1.71,1.95-3.62,2.01-5.49.45-12.84-7.63-23.56-21.73-23.55-5.33,0-10.16,1.46-14.9,3.64-5.78,2.65-11.59,3.37-17.56.49-7.95-3.84-11.57-11.58-9.52-20.63,1.67-7.37,9.44-13.31,17.18-13.13,8.49.19,15.55,6.07,17.23,14.35.93,4.58-1.18,7.39-5.81,7.49-4.91.11-9.83.05-14.75.06-.8,0-1.6,0-2.69,0ZM106.07,98.21c-3.59.03-6.19,2.72-6.18,6.38,0,3.63,2.67,6.38,6.19,6.4,3.55.02,6.66-3.02,6.59-6.43-.08-3.66-2.92-6.39-6.6-6.36ZM89.27,64.45c-1.08-3.13-3.9-4.78-7.02-4.46-2.8.29-4.93,2.02-5.26,4.46h12.29Z"/>
      <path class="cls-3" d="M31.39,58.12c0,1.05,0,2.1,0,3.15,0,5.25.08,10.5-.06,15.75-.09,3.21-1.88,5.25-4.55,5.78-2.58.5-4.88-.51-6.06-2.88-.46-.93-.72-2.07-.72-3.11-.05-10.92-.03-21.83-.04-32.75,0-2.78,1.14-4.88,3.74-5.93,2.58-1.04,4.7-.05,6.49,1.89,5.25,5.7,10.5,11.39,15.76,17.08.77.84,1.57,1.65,2.84,3,.22-1.53.46-2.43.47-3.34.04-4.17-.02-8.33.03-12.5.05-4.07,2.21-6.49,5.68-6.51,3.29-.02,5.63,2.38,5.67,6.28.09,8.5.09,17-.05,25.49-.08,4.72-3.03,7.77-6.8,7.04-1.59-.31-3.21-1.38-4.44-2.52-5.25-4.87-10.35-9.9-15.52-14.86-.52-.5-1.1-.92-1.66-1.37-.26.11-.52.21-.78.32Z"/>
      <path class="cls-3" d="M66.68,137.64c-18.16,0-36.32,0-54.49,0-3.33,0-3.41-.06-3.41-3.32-.01-35.41-.02-70.82-.02-106.22,0-3.81.07-3.86,3.97-3.86,31.74-.01,63.48-.03,95.23,0,9.52,0,14.97,4.31,16.15,13.77.81,6.49.46,13.13.5,19.7,0,.65-.92,1.31-1.41,1.97-.43-.67-1.23-1.34-1.25-2.02-.11-5.41.06-10.83-.13-16.24-.08-2.37-.48-4.84-1.31-7.05-1.92-5.1-6-7.5-11.3-7.51-31.66-.05-63.32,0-94.98-.04-2.61,0-2.98,1.24-2.98,3.4,0,32.66-.07,65.32-.08,97.97,0,6.93.08,6.92,7.08,6.91,33.24,0,66.48,0,99.73,0q3.91,0,3.92-4.01c0-.5-.14-1.06.04-1.49.34-.79.87-1.5,1.31-2.25.47.77,1.27,1.5,1.35,2.3.8,8.01.76,8.02-7.19,8.02-16.91,0-33.82,0-50.74,0Z"/>
      <path class="cls-3" d="M54.29,100.55c0-5.33-.04-10.66.02-15.99.03-2.65,1.23-4.72,3.76-5.66,2.08-.78,4.35-.53,5.73,1.25,1.04,1.35,1.64,3.23,1.87,4.95.24,1.8.68,2.39,2.6,2.23,9.4-.81,16.64,5.88,16.73,15.3.04,4.5.09,8.99.04,13.49-.03,3.69-2.28,6.11-5.5,6.12-3.27,0-5.64-2.58-5.67-6.26-.03-4.33.03-8.66-.04-12.99-.03-2-.95-3.58-2.93-4.21-1.77-.56-3.39,0-4.34,1.59-.51.87-.71,2.03-.74,3.07-.08,3.99-.01,7.99-.05,11.99-.04,4.09-2.32,6.78-5.73,6.85-3.39.07-5.74-2.63-5.76-6.74-.03-5,0-9.99,0-14.99,0,0,0,0,0,0Z"/>
      <path class="cls-3" d="M38.96,110.68c1.98,0,3.97-.04,5.95,0,3.6.1,6,2.41,5.96,5.68-.04,3.17-2.38,5.38-5.91,5.4-6.33.05-12.66,0-18.99.02-2.54.01-4.24-1.18-5.36-3.39-1.09-2.16-.48-4.07.92-5.79,3.26-4,6.59-7.94,9.87-11.93.59-.72,1.07-1.54,2.09-3.02-2.97,0-5.16.01-7.36,0-3.71-.02-6.02-1.99-6.07-5.14-.05-2.92,2.28-5.23,5.78-5.3,6.33-.13,12.66-.08,18.99-.03,2.52.02,4.55,1.1,5.6,3.49.97,2.2.42,4.21-1.1,6.03-2.83,3.38-5.64,6.78-8.43,10.19-.82,1-1.54,2.06-2.31,3.1.13.23.26.46.39.69Z"/>
      <path class="cls-2" d="M106.07,98.21c3.68-.03,6.52,2.7,6.6,6.36.08,3.41-3.04,6.45-6.59,6.43-3.53-.02-6.19-2.77-6.19-6.4,0-3.66,2.6-6.35,6.18-6.38Z"/>
      <path class="cls-1" d="M89.27,64.45h-12.29c.33-2.44,2.46-4.17,5.26-4.46,3.12-.32,5.95,1.33,7.02,4.46Z"/>
    </g>
  </g>
</svg>