<?xml version="1.0" encoding="UTF-8"?>
<svg id="_图层_2" data-name="图层 2" xmlns="http://www.w3.org/2000/svg" viewBox="0 0 868.2 873.1">
  <defs>
    <style>
      .cls-1 {
        fill: #269539;
      }

      .cls-1, .cls-2 {
        stroke-width: 0px;
      }

      .cls-2 {
        fill: #f4f3f3;
      }
    </style>
  </defs>
  <g id="logo">
    <rect id="_背景" data-name=" 背景" class="cls-2" width="868.2" height="873.1"/>
    <path id="nginx" class="cls-1" d="M434.1,23.9L76.6,230.2v412.7l357.5,206.3,357.5-206.3V230.2L434.1,23.9h0ZM640.4,594.4c0,24.2-22.2,44.4-52.6,44.4s-46.4-8.8-61.9-27.9l-206.3-245.6v229c0,24.8-19.6,44.4-43.8,44.4h-2.6c-24.8,0-44.4-20.6-44.4-44.4v-315.7c0-24.2,21.7-44.4,51.6-44.4s47.5,8.8,62.9,27.9l205.3,245.6v-229c0-24.8,20.6-44.4,44.4-44.4h2.6c24.8,0,44.4,20.6,44.4,44.4v315.7h.5-.1Z"/>
  </g>
</svg>