<?xml version="1.0" standalone="no"?><!DOCTYPE svg PUBLIC "-//W3C//DTD SVG 1.1//EN" "http://www.w3.org/Graphics/SVG/1.1/DTD/svg11.dtd"><svg class="icon" width="200px" height="200.00px" viewBox="0 0 1024 1024" version="1.1" xmlns="http://www.w3.org/2000/svg"><path d="M515.215744 290.349347m32.505782-3.22732l200.842932-19.940586q32.505782-3.22732 35.733101 29.278462l66.681078 671.616319q3.22732 32.505782-29.278462 35.733101l-200.842932 19.940587q-32.505782 3.22732-35.733101-29.278462l-66.681078-671.61632q-3.22732-32.505782 29.278462-35.733101Z" fill="#FFC646" /><path d="M304.932806-9.617763m43.144569 11.077643l294.077345 75.506229q43.144568 11.077642 32.066926 54.22221l-210.118683 818.358238q-11.077642 43.144568-54.222211 32.066926l-294.077345-75.506229q-43.144568-11.077642-32.066926-54.222211l210.118683-818.358237q11.077642-43.144568 54.222211-32.066926Z" fill="#FF5B00" /><path d="M418.664448 108.032l122.59328 31.47776L428.238848 579.6864l-122.59328-31.47776z" fill="#FFFFFF" /><path d="M306.608128 799.0272m-63.2832 0a63.2832 63.2832 0 1 0 126.5664 0 63.2832 63.2832 0 1 0-126.5664 0Z" fill="#FFFFFF" /></svg>