<?xml version="1.0" encoding="UTF-8"?>
<svg id="_图层_2" data-name="图层 2" xmlns="http://www.w3.org/2000/svg" viewBox="0 0 1089.8 1095.9">
  <defs>
    <style>
      .cls-1 {
        fill: #46af4b;
      }

      .cls-1, .cls-2, .cls-3, .cls-4 {
        stroke-width: 0px;
      }

      .cls-2 {
        fill: #000;
      }

      .cls-3 {
        fill: #cd2355;
      }

      .cls-4 {
        fill: #f4f3f3;
      }
    </style>
  </defs>
  <g id="logo">
    <rect id="_背景" data-name="背景" class="cls-4" width="1089.8" height="1095.9"/>
    <g id="raspberrypi">
      <g id="_图层_1-2" data-name=" 图层 1-2" focusable="false">
        <path class="cls-2" d="M883.35,621.67c-2.19-36.85-19.52-71.31-47.81-95.02-4.38-15.74-11.95-30.48-22.11-43.03-3.39-34.66-20.32-66.53-47.01-88.84,4.38-3.78,7.97-8.17,10.96-13.35,27.89-11.55,48.61-35.66,55.78-65.14,15.74-14.54,25.3-34.66,26.89-55.98.4-8.57-1.2-17.33-4.78-25.1,13.35-12.75,18.13-31.87,12.55-49.4-9.36-27.09-42.03-44.62-85.86-46.41-13.35-11.35-30.48-17.13-47.81-16.33-8.76,0-17.33,1.2-25.9,3.19-7.97-3.59-16.73-5.38-25.3-5.18-16.93,0-33.67,4.78-48.41,13.15-1.99-.2-3.98-.4-5.78-.4-20.32,1.99-39.44,10.36-54.58,23.9-10.76,8.76-20.52,18.73-28.69,29.88-8.37-11.16-17.93-21.12-28.69-29.88-15.14-13.55-34.26-21.91-54.58-23.9-1.99,0-3.98,0-5.78.4-14.94-8.37-31.67-13.15-48.61-13.15-8.76,0-17.33,1.59-25.3,5.18-8.37-1.99-17.13-3.19-25.9-3.19-17.53-.8-34.46,5.18-47.81,16.33-43.82,1.79-76.49,19.32-85.86,46.41-5.78,17.53-.8,36.65,12.55,49.4-3.59,7.97-5.18,16.53-4.78,25.3,1.59,21.31,11.35,41.43,26.89,55.98,7.17,29.28,27.89,53.39,55.78,64.94,2.79,4.98,6.57,9.56,10.96,13.35-26.69,22.31-43.63,54.18-47.01,88.84-10.36,12.75-17.73,27.29-22.11,43.03-28.49,23.71-45.62,58.17-47.81,95.02-4.98,36.45,5.78,73.11,29.48,101.2,3.98,20.12,12.35,39.24,24.3,55.78,2.59,31.47,15.54,61.35,36.65,84.86,21.12,24.3,49.4,41.04,80.88,48.01,18.73,17.53,40.64,31.08,64.74,40.04,57.57,52.99,146.02,52.99,203.59,0,23.9-8.96,46.02-22.51,64.74-40.04,31.47-6.97,59.76-23.71,80.88-48.01,21.12-23.51,34.06-53.39,36.65-84.86,11.95-16.73,20.32-35.66,24.3-55.78,23.71-28.09,34.46-64.74,29.48-101.2h.2Z"/>
        <path class="cls-1" d="M627.37,179.44c1.79-.6,3.78.6,4.18,2.39v1.39c-1.2,10.36,5.18,8.96,6.57,7.17,10.96-16.14,29.68-25.1,49-23.51,1.99,0,3.19,1.79,3.19,3.78,0,.6-.4,1.2-.8,1.79-6.18,9.16.4,10.76,2.99,9.16,25.1-15.74,49-15.74,58.17-9.16,1.59,1.2,1.79,3.39.6,4.78,0,0-.4.4-.4.6-9.36,7.97-4.18,11.75-.8,10.56,24.5-7.57,51-4.18,72.91,9.36,1.39,1.2,1.59,3.39.4,4.98,0,0-.2.2-.4.4-14.74,11.35-24.3,28.09-26.69,46.41-.6,6.18,9.36,4.78,13.75,3.78,1.79-.4,3.78.6,4.18,2.59v.8c.4,14.74-13.55,30.88-34.06,44.62-2.79,1.79-2.39,6.18,3.98,6.37,1.79,0,3.39,1.59,3.39,3.39,0,.6,0,1.2-.4,1.79-7.37,13.75-17.33,26.49-51.39,35.26-1.79.4-2.99,2.39-2.59,4.18.2,1,1,1.99,1.99,2.39,1.79.4,2.79,2.39,2.39,4.18,0,.8-.6,1.39-1.2,1.79-33.86,29.08-119.92,17.73-130.88-31.47-.2-1,0-1.99.6-2.79,36.45-48.8,85.86-86.26,142.63-108.57,1.39-.4,2.19-1.99,1.59-3.39-.4-1.2-1.79-1.99-2.99-1.79-62.15,8.96-117.93,42.63-154.98,93.43-1,1.39-2.99,1.79-4.38,1-55.18-28.49-9.76-112.55,39.04-127.49l.4-.2ZM303.27,312.7c-1-1.59-.4-3.78,1.2-4.58.6-.4,1.2-.4,1.79-.4,6.37,0,6.77-4.58,3.98-6.37-20.72-13.75-34.46-29.88-34.06-44.62,0-1.99,1.59-3.39,3.59-3.39h.8c4.18,1.2,14.34,2.39,13.75-3.78-2.19-18.33-11.95-35.06-26.69-46.41-1.39-1.2-1.59-3.59-.2-4.98l.4-.4c21.91-13.35,48.41-16.93,72.91-9.36,3.39,1.2,8.57-2.79-.8-10.56-1.39-1.2-1.59-3.39-.4-4.98,0,0,.4-.4.6-.6,9.16-6.57,33.07-6.57,58.17,9.16,2.39,1.59,8.96,0,2.99-9.16-1.2-1.59-1-3.59.6-4.78.6-.4,1.2-.6,1.79-.8,19.32-1.59,38.05,7.37,49,23.51,1.39,1.79,7.77,3.19,6.57-7.17,0-1.99,1.2-3.59,3.19-3.78h1.39c48.8,14.94,94.22,99,39.04,127.49-1.59.8-3.39.4-4.38-1-37.05-50.6-92.83-84.26-154.98-93.43-1.39-.2-2.79.6-3.19,2.19-.2,1.39.6,2.59,1.79,2.99,56.77,22.11,106.18,59.76,142.63,108.57.6.8.8,1.79.6,2.79-10.96,49-97.01,60.56-130.88,31.47-1.39-1-1.79-3.19-.8-4.58.4-.6,1-1,1.79-1.2,1.79-.8,2.59-2.79,1.79-4.58-.4-1-1.2-1.79-2.39-1.99-34.06-8.76-44.02-21.71-51.39-35.26h-.2Z"/>
        <path class="cls-3" d="M762.63,462.7c14.14,37.65,3.19,55.78-30.48,36.45-27.09-14.94-51-35.06-70.52-58.96-25.3-30.08-8.76-43.43,30.88-36.26,30.88,8.17,56.57,29.68,69.92,58.57l.2.2ZM612.23,420.27c48.01,39.84-6.97,68.13-66.73,68.13s-114.74-28.29-66.73-68.13c39.04-31.27,94.62-31.27,133.67,0h-.2ZM328.17,462.7c13.35-28.88,39.04-50.4,69.92-58.57,39.84-7.17,56.18,6.18,30.88,36.26-19.52,24.1-43.43,44.02-70.52,58.96-33.47,19.12-44.62,1-30.48-36.45l.2-.2ZM258.85,671.67c-11.16-30.08-8.17-63.55,7.97-91.43,17.73-30.08,35.66-28.88,42.63-3.39,8.96,35.26,5.78,72.51-9.16,105.58-13.15,26.1-29.48,17.33-41.43-10.76ZM386.53,866.89c-44.42-11.16-76.69-49.6-80.28-95.22,6.57-154.78,229.68,121.71,80.28,95.22ZM391.12,674.06c-37.45-21.51-47.41-74.5-22.11-118.13,25.3-43.63,75.9-61.55,113.35-39.84,37.45,21.51,47.41,74.5,22.11,118.13-25.3,43.63-75.9,61.55-113.35,39.84ZM607.85,926.05c-37.25,26.89-87.65,26.89-124.9,0-37.05-25.5.2-54.98,62.35-54.98s99.4,29.48,62.35,54.98h.2Z"/>
        <ellipse class="cls-3" cx="545.3" cy="757.72" rx="86.85" ry="74.5"/>
        <path class="cls-3" d="M586.34,634.22c-25.3-43.63-15.34-96.61,22.11-118.13,37.45-21.51,88.25-3.78,113.35,39.84,25.3,43.63,15.34,96.61-22.11,118.13-37.45,21.51-88.25,3.78-113.35-39.84ZM704.26,866.89c-149.4,26.29,73.71-250,80.28-95.22-3.59,45.62-35.86,84.06-80.28,95.22h0ZM831.95,671.67c-11.75,28.09-28.29,36.85-41.43,10.76-14.94-33.07-18.13-70.32-9.16-105.58,7.17-25.5,24.9-26.69,42.63,3.39,16.14,27.69,19.12,61.16,7.97,91.43h0Z"/>
      </g>
    </g>
  </g>
</svg>