<?xml version="1.0" standalone="no"?><!DOCTYPE svg PUBLIC "-//W3C//DTD SVG 1.1//EN" "http://www.w3.org/Graphics/SVG/1.1/DTD/svg11.dtd"><svg class="icon" width="200px" height="200.00px" viewBox="0 0 1024 1024" version="1.1" xmlns="http://www.w3.org/2000/svg"><path d="M759.09 98.28v733.29c0 20.17-16.71 36.3-36.87 36.3H135.24c-20.15 0-36.28-16.13-36.28-36.3v-523.6L357.6 62h364.63c20.16 0 36.86 16.13 36.86 36.28z" fill="#843DD4" /><path d="M357.77 62.21v191.56c0 30.04-24.54 54.57-54.57 54.57H98.82L357.77 62.21z" fill="#392592" /><path d="M630.2 566.91H233.19c-15.53 0-28.12-12.6-28.12-28.12s12.6-28.12 28.12-28.12H630.2c15.53 0 28.12 12.6 28.12 28.12s-12.6 28.12-28.12 28.12zM424.42 716.56H233.19c-15.53 0-28.12-12.6-28.12-28.12s12.6-28.12 28.12-28.12h191.24c15.53 0 28.12 12.6 28.12 28.12s-12.6 28.12-28.13 28.12zM623.64 417.26H233.19c-15.53 0-28.12-12.6-28.12-28.12s12.6-28.12 28.12-28.12h390.45c15.53 0 28.12 12.6 28.12 28.12s-12.59 28.12-28.12 28.12z" fill="#B684F7" /><path d="M925.18 506.86c0-136.29-118.07-245-257.51-229.42-101.71 11.36-185.86 91.53-201.47 192.68-14.1 91.33 25.45 174.4 91.86 222.98 19.98 14.62 31.25 38.32 31.25 63.08v19.79c0 19.48 15.79 35.27 35.27 35.27h139.38c19.48 0 35.27-15.79 35.27-35.27v-19.58c0-24.49 10.68-48.37 30.5-62.75 57.81-41.92 95.45-109.9 95.45-186.78zM696.02 962c-23.19 0-41.98-18.8-41.98-41.98v-20.99H738v20.99c0 23.18-18.79 41.98-41.98 41.98z" fill="#FFBC55" /><path d="M779.99 454.38c-31.36 0-59.23 14.11-78.48 35.98-19.58-22.43-48.07-35.98-78.97-35.98-11.59 0-20.99 9.39-20.99 20.99 0 11.6 9.4 20.99 20.99 20.99 24.28 0 46.06 13.93 56.56 35.6-2.39 8.78-4.08 17.84-4.08 27.37v83.97c0 11.6 9.4 20.99 20.99 20.99S717 654.9 717 643.3v-83.97c0-34.73 28.25-62.98 62.98-62.98 11.59 0 20.99-9.39 20.99-20.99 0.01-11.59-9.39-20.98-20.98-20.98z" fill="#FFFFFF" /><path d="M792.33 851.88H596.22c-13.19 0-23.89-10.7-23.89-23.89 0-13.19 10.7-23.89 23.89-23.89h196.11c13.19 0 23.89 10.7 23.89 23.89 0 13.2-10.7 23.89-23.89 23.89z" fill="#B2150A" /><path d="M792.33 899.48H596.22c-13.19 0-23.89-10.7-23.89-23.89 0-13.19 10.7-23.89 23.89-23.89h196.11c13.19 0 23.89 10.7 23.89 23.89 0 13.19-10.7 23.89-23.89 23.89z" fill="#FF4F4F" /></svg>