<?xml version="1.0" encoding="UTF-8"?>
<svg id="_图层_2" data-name="图层 2" xmlns="http://www.w3.org/2000/svg" viewBox="0 0 1000 1000">
  <defs>
    <style>
      .cls-1 {
        fill: #fff;
      }

      .cls-2 {
        fill: #791514;
      }

      .cls-3 {
        fill: #fcfcfc;
      }

      .cls-4 {
        fill: #a42122;
      }

      .cls-5 {
        fill: #d82f27;
      }

      .cls-6 {
        fill: #ad2524;
      }

      .cls-7 {
        fill: #f4f3f3;
      }
    </style>
  </defs>
  <g id="logo">
    <rect id="_背景" data-name=" 背景" class="cls-7" width="1000" height="1000"/>
    <rect id="_背景白色" data-name="背景白色" class="cls-3" x="61.99" y="61.99" width="876.02" height="876.02" rx="87.7" ry="87.7"/>
    <g id="redis">
      <path class="cls-4" d="M864.13,699.87c-42.64,22.23-263.56,113.06-310.59,137.58-47.03,24.53-73.16,24.3-110.31,6.53-37.15-17.76-272.25-112.72-314.6-132.97-21.17-10.11-32.3-18.65-32.3-26.72v-80.78s306.06-66.63,355.47-84.36c49.41-17.73,66.55-18.37,108.6-2.96,42.05,15.4,293.48,60.77,335.03,75.99,0,0-.02,72.14-.02,79.63,0,7.99-9.58,16.75-31.29,28.06Z"/>
      <path class="cls-5" d="M864.13,619.08c-42.64,22.22-263.56,113.06-310.59,137.58-47.03,24.52-73.16,24.29-110.31,6.52-37.16-17.75-272.25-112.73-314.59-132.96-42.35-20.24-43.24-34.18-1.64-50.46,41.6-16.29,275.4-108.03,324.82-125.76,49.41-17.72,66.55-18.37,108.6-2.96,42.05,15.4,261.65,102.81,303.21,118.03,41.56,15.23,43.16,27.77.51,50Z"/>
      <path class="cls-4" d="M864.13,568.16c-42.64,22.23-263.56,113.06-310.59,137.59-47.03,24.52-73.16,24.28-110.31,6.51-37.16-17.75-272.25-112.72-314.6-132.96-21.17-10.12-32.3-18.64-32.3-26.71v-80.79s306.06-66.63,355.47-84.35c49.41-17.72,66.55-18.37,108.6-2.96,42.05,15.4,293.48,60.76,335.03,75.98,0,0-.02,72.14-.02,79.64,0,7.98-9.58,16.74-31.29,28.06Z"/>
      <path class="cls-5" d="M864.13,487.36c-42.64,22.23-263.56,113.06-310.59,137.58-47.03,24.52-73.16,24.28-110.31,6.52-37.16-17.75-272.25-112.73-314.59-132.97-42.35-20.24-43.24-34.17-1.64-50.47,41.6-16.28,275.4-108.02,324.82-125.74,49.41-17.72,66.55-18.37,108.6-2.96,42.05,15.4,261.65,102.8,303.21,118.03,41.56,15.23,43.16,27.78.51,50Z"/>
      <path class="cls-4" d="M864.13,431.55c-42.64,22.23-263.56,113.06-310.59,137.59-47.03,24.52-73.16,24.28-110.31,6.52-37.16-17.75-272.25-112.73-314.59-132.97-21.17-10.12-32.3-18.65-32.3-26.71v-80.78s306.06-66.63,355.47-84.35c49.41-17.73,66.55-18.37,108.6-2.96,42.05,15.4,293.48,60.76,335.03,75.98,0,0-.02,72.14-.02,79.63,0,7.98-9.58,16.74-31.29,28.05Z"/>
      <path class="cls-5" d="M864.13,350.75c-42.64,22.23-263.56,113.06-310.59,137.59-47.03,24.52-73.16,24.28-110.31,6.52-37.15-17.76-272.25-112.73-314.6-132.96-42.35-20.24-43.24-34.17-1.64-50.47,41.6-16.29,275.4-108.02,324.82-125.74,49.41-17.73,66.55-18.37,108.6-2.96,42.05,15.4,261.65,102.81,303.21,118.03,41.56,15.22,43.16,27.77.51,50Z"/>
      <polygon class="cls-1" points="600.6 272.96 531.36 280.15 515.85 317.45 490.81 275.83 410.86 268.64 470.52 247.12 452.62 214.1 508.47 235.94 561.14 218.7 546.9 252.85 600.6 272.96"/>
      <polygon class="cls-1" points="511.72 453.91 382.49 400.31 567.67 371.89 511.72 453.91"/>
      <ellipse class="cls-1" cx="332.55" cy="332.06" rx="98.97" ry="38.36"/>
      <polygon class="cls-2" points="682.43 283.15 792.02 326.47 682.52 369.73 682.43 283.15"/>
      <polygon class="cls-6" points="561.18 331.12 682.43 283.15 682.52 369.73 670.63 374.38 561.18 331.12"/>
    </g>
  </g>
</svg>