<?xml version="1.0" encoding="UTF-8"?>
<svg id="_图层_2" data-name="图层 2" xmlns="http://www.w3.org/2000/svg" viewBox="0 0 868.21 873.07">
  <defs>
    <style>
      .cls-1 {
        fill: #1aa5e2;
      }

      .cls-1, .cls-2, .cls-3, .cls-4, .cls-5, .cls-6, .cls-7, .cls-8, .cls-9 {
        stroke-width: 0px;
      }

      .cls-2 {
        fill: #b3b3b3;
      }

      .cls-3 {
        fill: #27536b;
      }

      .cls-4 {
        fill: #f77759;
      }

      .cls-5 {
        fill: #f9b55a;
      }

      .cls-6 {
        fill: #ccc;
      }

      .cls-7 {
        fill: #f4f3f3;
      }

      .cls-8 {
        fill: #fff;
      }

      .cls-9 {
        fill: #e6e6e6;
      }
    </style>
  </defs>
  <g id="logo">
    <rect id="_背景" data-name=" 背景" class="cls-7" width="868.21" height="873.07"/>
    <g id="rocket">
      <path class="cls-3" d="M822.24,451.06c0,121.28-56.37,229.41-144.33,299.58-19.26,15.39-40.02,28.93-62.04,40.39-52.87,27.53-112.96,43.1-176.69,43.1s-123.84-15.57-176.71-43.1c-36.98-19.26-70.43-44.39-99.1-74.15-66.42-68.88-107.26-162.59-107.26-265.83,0-211.56,171.51-383.05,383.07-383.05s383.05,171.49,383.05,383.05Z"/>
      <path class="cls-8" d="M677.91,750.64c-19.26,15.39-40.02,28.93-62.04,40.39-52.87,27.53-112.96,43.1-176.69,43.1s-123.84-15.57-176.71-43.1c-36.98-19.26-70.43-44.39-99.1-74.15,26.85-24.11,66.19-26.67,95.7-7.69,7.61-16.75,24.46-28.41,44.06-28.41,11.7,0,22.43,4.17,30.8,11.08,5.77-32.73,34.31-57.6,68.7-57.6,2.81,0,5.58.18,8.31.51v-91.89h56.49v113.06c1.63-.17,3.31-.27,4.98-.27,21.95,0,40.45,14.62,46.37,34.66,16.75,2.18,32.93,9.67,45.8,22.53,1.03,1.03,2.01,2.09,2.97,3.16,11.56-13.34,28.61-21.78,47.65-21.78,32.58,0,59.38,24.71,62.7,56.41Z"/>
      <path class="cls-5" d="M615.88,791.03c-52.87,27.53-112.96,43.1-176.69,43.1s-123.84-15.57-176.71-43.1c52.87-27.55,112.97-43.11,176.71-43.11s123.82,15.57,176.69,43.11Z"/>
      <g>
        <path class="cls-4" d="M484.38,524.61h-90.53c-15.37,0-27.84-12.46-27.84-27.84v-28.65h146.2v28.65c0,15.37-12.47,27.84-27.84,27.84Z"/>
        <path class="cls-4" d="M546.41,333.97s59.44,57.32,78.54,120.93c5.53,18.4-8.58,36.86-27.8,36.86h-70.83"/>
        <path class="cls-4" d="M331.82,333.97s-58.99,56.89-78.33,120.21c-5.7,18.67,8.06,37.58,27.59,37.58h70.82"/>
      </g>
      <path class="cls-9" d="M473,220.15c-18.91-18.3-48.87-18.3-67.78,0-37.72,36.49-93.42,110.86-93.42,231.75,0,.15,0,.3,0,.45.1,21.88,18.21,39.42,40.1,39.42h174.43c21.88,0,40-17.54,40.1-39.42,0-.15,0-.3,0-.45,0-120.89-55.71-195.25-93.42-231.75Z"/>
      <path class="cls-6" d="M439.12,206.42c-5.42,0-10.83,4.58-15.02,13.72-16.71,36.5-41.4,110.87-41.4,231.75v.45c.05,21.88,8.07,39.43,17.78,39.43h-48.58c-21.88,0-39.99-17.54-40.09-39.43v-.45c0-120.88,55.71-195.25,93.42-231.75,9.45-9.14,21.67-13.72,33.89-13.72Z"/>
      <circle class="cls-1" cx="439.12" cy="378.79" r="61.47"/>
      <path class="cls-2" d="M439.11,451.06c-39.85,0-72.27-32.42-72.27-72.27s32.42-72.27,72.27-72.27,72.27,32.42,72.27,72.27-32.42,72.27-72.27,72.27ZM439.11,328.12c-27.94,0-50.67,22.73-50.67,50.67s22.73,50.67,50.67,50.67,50.67-22.73,50.67-50.67-22.73-50.67-50.67-50.67Z"/>
      <g>
        <path class="cls-8" d="M179.34,527.26l72.12-7.97-72.12-7.97-7.97-72.12-7.97,72.12-72.12,7.97,72.12,7.97,7.97,72.12,7.97-72.12Z"/>
        <path class="cls-8" d="M681.75,291.35l72.12-7.97-72.12-7.97-7.97-72.12-7.97,72.12-72.12,7.97,72.12,7.97,7.97,72.12,7.97-72.12Z"/>
        <rect class="cls-8" x="227.74" y="573.34" width="15.5" height="15.5" transform="translate(-341.92 336.72) rotate(-45)"/>
        <rect class="cls-8" x="252.01" y="198.95" width="15.5" height="15.5" transform="translate(-70.08 244.22) rotate(-45)"/>
        <rect class="cls-8" x="527.79" y="137.06" width="15.5" height="15.5" transform="translate(54.46 421.1) rotate(-45)"/>
        <rect class="cls-8" x="634.12" y="619.69" width="15.5" height="15.5" transform="translate(-255.67 637.65) rotate(-45)"/>
        <rect class="cls-8" x="720.52" y="495.91" width="15.5" height="15.5" transform="translate(-142.84 662.48) rotate(-45)"/>
      </g>
    </g>
  </g>
</svg>