<?xml version="1.0" encoding="UTF-8"?>
<svg id="_图层_2" data-name="图层 2" xmlns="http://www.w3.org/2000/svg" xmlns:xlink="http://www.w3.org/1999/xlink" viewBox="0 0 868.2 873.1">
  <defs>
    <style>
      .cls-1 {
        fill: #0f95bc;
      }

      .cls-1, .cls-2, .cls-3, .cls-4, .cls-5, .cls-6, .cls-7, .cls-8, .cls-9 {
        stroke-width: 0px;
      }

      .cls-10 {
        clip-path: url(#clippath);
      }

      .cls-2 {
        fill: none;
      }

      .cls-3 {
        fill: #474341;
      }

      .cls-4 {
        fill: #aeabaa;
      }

      .cls-5 {
        fill: #8bd4fa;
      }

      .cls-6 {
        fill: #dfdede;
      }

      .cls-7 {
        fill: #66c6f8;
      }

      .cls-8 {
        fill: #5bc1ed;
      }

      .cls-9 {
        fill: #f4f3f3;
      }
    </style>
    <clipPath id="clippath">
      <path class="cls-2" d="M859.96,441.48c0-29.72-3.1-58.69-8.87-86.7l-240.1-124.96-171.47-68.63s-22.88-14.54-66.49,77.72c-36.02,76.11-53.24,117.59-53.24,117.59,0,0-8.98,17.32,3.42,35.17,12.4,17.75,44.68,29.18,44.68,29.18,0,0-9.41,10.48-8.55,22.02.86,11.44,38.59,22.88,38.59,22.88l-20.85,51.95-17.32,32.71,8.98,17.75-17.21,7.16,1.71,24.16-17.21,7.27,3.42,21.59-18.07,9.73,6.84,18.17-26.62,16.03,18.07,55.8,96.42,140.79c5.34.21,10.69.43,16.14.43,235.28-.21,427.7-192.63,427.7-427.81h0Z"/>
    </clipPath>
  </defs>
  <g id="logo">
    <rect id="_背景" data-name=" 背景" class="cls-9" width="868.2" height="873.1"/>
    <g id="ssh">
      <path class="cls-5" d="M432.15,808.96c-202.11,0-367.48-165.37-367.48-367.48S230.04,74,432.15,74s367.48,165.37,367.48,367.48-165.37,367.48-367.48,367.48Z"/>
      <g class="cls-10">
        <path class="cls-7" d="M432.37,808.96c-202.11,0-367.48-165.37-367.48-367.48S230.25,74,432.37,74s367.48,165.37,367.48,367.48-165.37,367.48-367.48,367.48Z"/>
      </g>
      <path class="cls-1" d="M651.72,257.61l-199.58-90.54c-20.42-9.3-44.68-.11-53.88,20.2l-76.33,168.05c-9.3,20.42,0,44.68,20.2,53.88l199.58,90.65c20.42,9.3,44.68,0,53.88-20.2l76.22-168.05c9.41-20.42.32-44.68-20.1-53.98M580.53,289.79c-4.6,10.16-16.78,14.75-26.94,10.16l-68.52-31.11c-10.16-4.6-14.75-16.78-10.16-26.94s16.78-14.75,26.94-10.16l68.52,31.11c10.26,4.6,14.75,16.68,10.16,26.94"/>
      <path class="cls-3" d="M558.61,509.15c-6.41,0-12.93-1.28-19.13-4.17l-199.58-90.54c-11.22-5.13-19.88-14.32-24.27-25.98-4.38-11.65-3.96-24.27,1.18-35.49l76.22-168.05c10.58-23.3,38.16-33.67,61.57-23.09l199.58,90.65c23.3,10.58,33.67,38.16,23.09,61.57l-76.33,168.05c-7.7,17-24.69,27.05-42.33,27.05M435.47,169.21c-4.17,0-8.34.75-12.4,2.24-8.77,3.31-15.71,9.73-19.56,18.17l-76.33,168.05c-8.02,17.53-.21,38.27,17.32,46.29l199.58,90.65c17.53,8.02,38.27.21,46.29-17.32l76.33-168.05c7.91-17.53.21-38.27-17.32-46.29l-199.58-90.65c-4.49-2.03-9.41-3.1-14.32-3.1M561.93,307.43c-3.63,0-7.27-.75-10.69-2.35l-68.52-31.11c-13.15-5.99-18.92-21.49-13.04-34.64,5.99-13.15,21.49-18.92,34.53-12.93l68.52,31.11c13.15,5.99,18.92,21.49,13.04,34.64-2.89,6.31-8.02,11.22-14.65,13.68-2.89,1.07-5.99,1.6-9.19,1.6M493.51,235.59c-1.82,0-3.53.32-5.13.96-3.63,1.39-6.52,4.06-8.12,7.59-3.31,7.38,0,15.93,7.27,19.35l68.52,31.11c3.53,1.6,7.48,1.71,11.12.32,3.63-1.39,6.52-4.06,8.12-7.59,3.31-7.38,0-15.93-7.27-19.35l-68.52-31.11c-1.92-.86-3.96-1.28-5.99-1.28"/>
      <path class="cls-8" d="M524.73,455.16c19.78,8.98,43.19,0,52.17-19.56l18.71-41.26c8.98-19.78,0-43.19-19.56-52.17l-137.26-62.32c-9.83-4.49-16.68-4.81-20.85-3.96s-17.21-6.52-38.16,37.52l-11.76,25.98c-9.3,20.42,0,44.68,20.2,53.88l90.76,41.26,45.75,20.63h0Z"/>
      <path class="cls-6" d="M502.92,481.57l-122.29-55.48c-7.16-3.21-15.61,0-18.81,7.06-3.21,7.16,0,15.61,7.06,18.81l28.76,13.04-39.55,87.23,13.04,15.07-23.52,7.27,10.05,22.45-23.52,7.27,10.05,22.45-23.52,7.16,10.05,22.45h-19.88l-5.67,12.61,13.9,55.48,50.88-26.08,92.57-203.86,28.76,13.04c7.16,3.21,15.61,0,18.81-7.06,3.21-7.16,0-15.71-7.16-18.92"/>
      <path class="cls-3" d="M318.95,730.11c-2.67,0-4.92-1.82-5.56-4.38l-13.9-55.48c-.32-1.28-.21-2.57.32-3.74l5.67-12.4c.96-2.03,2.99-3.31,5.24-3.42h11.12l-6.41-14.43c-1.28-2.89,0-6.31,2.89-7.59.21,0,.43-.21.64-.21l17.21-5.34-7.38-16.46c-.64-1.5-.64-3.21,0-4.7s2.03-2.67,3.53-3.1l17.21-5.34-7.38-16.46c-.64-1.5-.64-3.21,0-4.7s2.03-2.67,3.53-3.1l15.07-4.6-7.27-8.45c-1.5-1.71-1.82-4.06-.86-6.2l37.2-81.99-23.52-10.69c-4.81-2.14-8.66-6.2-10.48-11.22-1.92-4.92-1.71-10.48.53-15.29s6.2-8.55,11.22-10.48,10.48-1.71,15.29.53l122.29,55.48h0c4.81,2.24,8.55,6.2,10.48,11.22s1.71,10.48-.53,15.29-6.2,8.55-11.22,10.48c-5.02,1.92-10.48,1.71-15.29-.53l-23.52-10.69-89.9,198.62c-.53,1.18-1.5,2.14-2.67,2.78l-50.88,26.08c-.86.32-1.71.53-2.67.53M311.14,669.39l11.65,46.5,42.65-21.81,91.72-202.04c1.28-2.89,4.7-4.17,7.59-2.89l28.76,13.04c2.03.96,4.38.96,6.52.21s3.85-2.35,4.7-4.38c.96-2.03.96-4.38.21-6.52-.75-2.14-2.35-3.85-4.38-4.7l-122.29-55.48c-2.03-.96-4.38-.96-6.52-.21-2.14.75-3.85,2.35-4.7,4.38-.96,2.03-.96,4.38-.21,6.52s2.35,3.85,4.38,4.7l28.76,13.04c2.89,1.28,4.17,4.7,2.89,7.59l-38.06,83.81,10.58,12.29c2.03,2.46,1.82,6.09-.64,8.12-.64.53-1.28.86-2.03,1.18l-17.21,5.34,7.38,16.46c1.28,2.89,0,6.31-2.89,7.59-.21,0-.43.21-.64.21l-17.21,5.34,7.38,16.46c1.28,2.89,0,6.31-2.89,7.59-.21,0-.43.21-.64.21l-17.21,5.34,7.38,16.46c.75,1.82.64,3.85-.43,5.45s-2.89,2.67-4.81,2.67h-16.25l-3.53,7.48h0Z"/>
      <path class="cls-4" d="M442.09,479.11l17.64,8.77-93.96,204.93-34.96,19.35,111.28-233.04h0Z"/>
      <path class="cls-3" d="M347.92,684.25c-2.24,0-4.06-1.82-4.06-4.06s0-1.18.32-1.71l4.06-8.87c4.28-9.41,7.16-15.82,9.3-20.2,0-.32.21-.64.32-.96l2.24-5.02.43.21c2.14-3.53,3.1-3.1,4.92-2.24,2.57,1.18,2.89,2.46,1.92,5.34h0s-.53,1.18-1.5,3.31c-.21.53-.53,1.07-.75,1.71h0c-1.92,4.28-5.13,11.33-9.51,20.95l-4.06,8.87c-.53,1.6-2.03,2.57-3.63,2.57M372.82,629.41c-.53,0-1.18,0-1.71-.32-2.03-.96-2.89-3.31-2.03-5.34l4.6-10.16c.96-2.03,3.31-2.89,5.34-2.03,2.03.96,2.89,3.31,2.03,5.34l-4.6,10.16c-.53,1.39-2.03,2.35-3.63,2.35M384.26,604.18c-.53,0-1.18,0-1.71-.32-2.03-.96-2.89-3.31-2.03-5.34l20.42-45c.96-2.03,3.31-2.89,5.34-2.03,2.03.96,2.89,3.31,2.03,5.34l-20.31,45c-.64,1.39-2.14,2.35-3.74,2.35M410.45,546.56c-2.24,0-4.06-1.82-4.06-4.06s0-1.18.32-1.71l11.87-26.08c.96-2.03,3.31-2.89,5.34-2.03,2.03.96,2.89,3.31,2.03,5.34l-11.87,26.08c-.64,1.5-2.03,2.46-3.63,2.46M539.59,461.36c-6.2,0-12.29-1.28-17.85-3.85-2.03-.96-2.89-3.31-2.03-5.34.96-2.03,3.31-2.89,5.34-2.03,8.55,3.85,18.17,4.17,27.05.86,8.87-3.31,15.93-9.83,19.78-18.49l18.71-41.26c8.12-17.75.21-38.8-17.53-46.82l-137.26-62.32c-8.55-3.85-18.17-4.17-27.05-.86-2.14.75-4.38-.43-5.13-2.46s.32-4.28,2.24-5.02c10.9-4.06,22.66-3.74,33.25,1.07l137.26,62.32c21.81,9.94,31.54,35.7,21.59,57.51l-18.71,41.26c-7.27,15.93-23.09,25.44-39.66,25.44M477.8,437.1c-.53,0-1.18-.11-1.71-.32l-90.86-41.26c-10.8-4.92-19.13-13.79-23.3-25.01-4.17-11.22-3.85-23.41,1.07-34.21l11.76-25.98c.96-2.03,3.31-2.89,5.34-2.03h0c2.03.96,2.89,3.31,2.03,5.34l-11.76,25.98c-8.34,18.39-.21,40.19,18.17,48.53l90.86,41.26c2.03.96,2.89,3.31,2.03,5.34-.64,1.39-2.03,2.35-3.63,2.35M548.89,272.04c-9.3,0-18.6-2.24-27.05-6.84-13.58-7.27-23.62-19.35-28.11-34.21s-2.99-30.36,4.28-44.04c7.27-13.58,19.35-23.62,34.1-28.11,14.75-4.49,30.47-2.99,44.04,4.28,23.09,12.29,35.06,38.7,29.08,64.14-.53,2.14-2.67,3.53-4.81,2.99h0c-2.14-.53-3.53-2.67-2.99-4.81h0c5.13-21.91-5.13-44.58-25.01-55.16-11.76-6.2-25.12-7.59-37.84-3.63-12.72,3.85-23.2,12.51-29.4,24.16-6.2,11.65-7.59,25.23-3.63,37.84,3.85,12.72,12.51,23.09,24.16,29.4,12.19,6.52,26.08,7.59,39.13,3.21,2.14-.64,4.38.53,5.02,2.67.64,2.03-.43,4.17-2.46,4.92-5.99,2.14-12.19,3.21-18.49,3.21"/>
    </g>
  </g>
</svg>