<?xml version="1.0" encoding="UTF-8"?>
<svg id="logo" xmlns="http://www.w3.org/2000/svg" xmlns:xlink="http://www.w3.org/1999/xlink" xmlns:serif="http://www.serif.com/" version="1.1" viewBox="0 0 1920 1080">
  <defs>
    <style>
      .cls-1 {
        fill: #1aa5e2;
      }

      .cls-1, .cls-2, .cls-3, .cls-4, .cls-5, .cls-6, .cls-7, .cls-8, .cls-9, .cls-10, .cls-11, .cls-12, .cls-13, .cls-14, .cls-15, .cls-16, .cls-17, .cls-18, .cls-19, .cls-20, .cls-21, .cls-22, .cls-23, .cls-24, .cls-25, .cls-26, .cls-27, .cls-28, .cls-29, .cls-30, .cls-31, .cls-32, .cls-33, .cls-34, .cls-35, .cls-36, .cls-37, .cls-38, .cls-39, .cls-40, .cls-41, .cls-42, .cls-43, .cls-44, .cls-45, .cls-46, .cls-47 {
        stroke-width: 0px;
      }

      .cls-2 {
        fill: #099dfd;
      }

      .cls-3 {
        fill: #b3b3b3;
      }

      .cls-4 {
        fill: #0f95bc;
      }

      .cls-5 {
        fill: #a4beff;
      }

      .cls-48 {
        clip-path: url(#clippath);
      }

      .cls-6 {
        fill: none;
      }

      .cls-7 {
        fill: #e5ecff;
      }

      .cls-8 {
        fill: #f05032;
      }

      .cls-8, .cls-19, .cls-49, .cls-29, .cls-50 {
        display: none;
      }

      .cls-9 {
        fill: #f5bd0c;
      }

      .cls-10 {
        fill: #f98f17;
      }

      .cls-11 {
        fill: #474341;
      }

      .cls-12 {
        fill: #4b81ee;
      }

      .cls-13 {
        fill: #46af4b;
      }

      .cls-14 {
        fill: #2965af;
      }

      .cls-15 {
        fill: #aeabaa;
      }

      .cls-16 {
        fill: #604405;
      }

      .cls-17 {
        fill: #ffd362;
      }

      .cls-18 {
        fill: #27536b;
      }

      .cls-19, .cls-41 {
        fill: #f4f3f3;
      }

      .cls-20 {
        fill: #5b79fb;
      }

      .cls-21 {
        fill: #d99a03;
      }

      .cls-22, .cls-29 {
        fill: #000;
      }

      .cls-23 {
        fill: #e98f36;
      }

      .cls-24 {
        fill: #f77759;
      }

      .cls-49 {
        stroke: #000;
        stroke-miterlimit: 10;
      }

      .cls-49, .cls-43 {
        fill: #fff;
      }

      .cls-25 {
        fill: #8bd4fa;
      }

      .cls-26 {
        fill: #dfdede;
      }

      .cls-27 {
        fill: #66c6f8;
      }

      .cls-28 {
        fill: #ff7879;
      }

      .cls-29 {
        fill-rule: evenodd;
      }

      .cls-30 {
        fill: #020204;
      }

      .cls-31 {
        fill: #5bc1ed;
      }

      .cls-32 {
        fill: #f9b55a;
      }

      .cls-33 {
        fill: #fd9308;
      }

      .cls-34 {
        fill: #83a4ff;
      }

      .cls-35 {
        fill: #ff7e71;
      }

      .cls-36 {
        fill: #6d92cb;
      }

      .cls-37 {
        fill: #ffbf44;
      }

      .cls-38 {
        fill: #cd2355;
      }

      .cls-39 {
        fill: #ffad24;
      }

      .cls-40 {
        fill: #ccc;
      }

      .cls-42 {
        fill: #9fb7de;
      }

      .cls-44 {
        fill: #e6e6e6;
      }

      .cls-45 {
        fill: #dbe6fc;
      }

      .cls-46 {
        fill: #ffe780;
      }

      .cls-47 {
        fill: #cd8907;
      }
    </style>
    <clipPath id="clippath">
      <path class="cls-6" d="M1385.7,545c0-29.7-3.1-58.7-8.9-86.7l-240.1-125-171.5-68.6s-22.9-14.5-66.5,77.7c-36,76.1-53.2,117.6-53.2,117.6,0,0-9,17.3,3.4,35.2,12.4,17.7,44.7,29.2,44.7,29.2,0,0-9.4,10.5-8.6,22,.9,11.4,38.6,22.9,38.6,22.9l-20.8,52-17.3,32.7,9,17.7-17.2,7.2,1.7,24.2-17.2,7.3,3.4,21.6-18.1,9.7,6.8,18.2-26.6,16,18.1,55.8,96.4,140.8c5.3.2,10.7.4,16.1.4,235.3-.2,427.7-192.6,427.7-427.8h0Z"/>
    </clipPath>
  </defs>
  <rect id="_背景.legacy" data-name=" 背景.legacy" class="cls-19" x="415.1" y="-7.9" width="1089.8" height="1095.9"/>
  <rect id="_背景" data-name=" 背景" class="cls-41" x="525.7" y="103.5" width="868.2" height="873.1"/>
  <g id="linux" class="cls-50">
    <path class="cls-43" d="M969.8,236.5c-7.7,5.2-14.1,12.9-18.1,21.9-3.8,11.6-2.6,24.5,1.2,36,3.8,11.6,11.6,21.9,20.6,29.6,5.2,3.8,10.3,6.4,16.7,6.4,6.4,1.2,12.9,0,18.1-2.6,6.4-3.8,11.6-9,15.5-16.7,2.6-6.4,5.2-14.1,5.2-21.9,1.2-9,0-19.3-3.8-28.4-3.8-10.3-10.3-18.1-18.1-24.5-3.8-2.6-9-5.2-14.1-5.2s-10.3,0-15.5,1.2c-2.5,1.5-5.1,2.7-7.7,4.1"/>
    <path class="cls-30" d="M1239.1,621.6c-5.2-27-12.9-52.8-21.9-77.3-6.4-19.3-16.7-36-28.4-52.8-11.6-15.5-27-28.4-37.4-43.8-6.4-7.7-11.6-16.7-18.1-25.8-2.6-5.2-5.2-10.3-7.7-15.5-7.7-16.7-14.1-33.4-23.2-48.9-1.2-2.6-2.6-5.2-3.8-7.7-1.2-15.5-2.6-29.6-3.8-45.1,1.2-31-1.2-60.6-7.7-90.2-3.8-14.1-10.3-28.4-18.1-39.9-9-15.5-20.6-28.4-34.8-38.6-23.2-16.7-50.3-24.5-77.3-24.5s-41.2,3.8-59.2,14.1c-19.3,10.3-34.8,27-43.8,46.3-9,19.3-14.1,41.2-14.1,63.2-1.2,21.9,1.2,42.5,2.6,64.4,1.2,21.9,0,43.8,2.6,65.6,0,6.4,1.2,14.1,1.2,21.9v11.5c-9,16.7-20.6,32.2-32.2,47.7-7.7,10.3-16.7,20.6-24.5,31-10.3,11.6-19.3,25.8-27,39.9-5.2,12.9-9,25.8-11.6,38.6v1.2c-5.2,15.5-10.3,29.6-16.7,43.8-1.2,1.2-1.2,2.6-1.2,3.8-3.8,9-7.7,16.7-12.9,24.5l-7.7,5.2c-2.6,5.2-6.4,11.6-9,18.1-1.2,3.8-2.6,7.7-2.6,11.6-1.2,7.7-1.2,16.7,1.2,24.5,0,2.6,1.2,3.8,1.2,6.4,2.6,6.4,5.2,11.6,7.7,16.7,1.2,2.6,2.6,5.2,3.8,7.7l1.2,1.2c1.2,2.6,2.6,5.2,3.8,6.4h0c1.2,2.6,3.8,5.2,5.2,7.7h0c1.2,2.6,3.8,5.2,5.2,7.7,6.4,27,19.3,52.8,37.4,74.7-2.6,5.2-5.2,9-7.7,14.1-9,14.1-18.1,28.4-23.2,45.1-2.6,7.7-2.6,16.7-1.2,24.5,1.2,9,5.2,16.7,12.9,21.9,3.8,3.8,9,5.2,15.5,6.4,5.2,1.2,10.3,1.2,16.7,1.2,20.6-1.2,41.2-5.2,61.8-11.6,11.6-2.6,24.5-6.4,36-9,12.9-2.6,25.8-5.2,38.6-5.2h9c9,1.2,18.1,1.2,27,1.2h10.3c15.5,1.2,31,2.6,46.3,5.2,14.1,2.6,27,5.2,39.9,7.7,20.6,6.4,42.5,10.3,63.2,11.6,5.2,0,11.6,0,16.7-1.2,5.2-1.2,10.3-3.8,15.5-6.4,6.4-5.2,10.3-12.9,12.9-21.9,1.2-9,1.2-16.7-1.2-24.5-6.4-15.5-14.1-31-24.5-45.1-3.8-5.2-6.4-11.6-10.3-18.1,14.1-16.7,27-34.8,38.6-52.8,6.4,0,12.9,0,19.3-2.6,16.7-5.2,31-16.7,41.2-31,2.6-3.8,5.2-9,6.4-14.1,6.4-10.3,10.3-21.9,12.9-33.4,3.8-17.7,2.6-38.4-1.2-57.7h0Z"/>
    <path class="cls-43" d="M875.8,354.9c-2.6,3.8-5.2,7.7-6.4,12.9-1.2,5.2-1.2,9-1.2,14.1,0,9,0,19.3-2.6,28.4-3.8,10.3-7.7,19.3-14.1,27-11.6,14.1-19.3,29.6-25.8,46.3-2.6,10.3-3.8,20.6-2.6,32.2-11.6,16.7-21.9,34.8-29.6,54.1-12.9,28.4-20.6,58-24.5,88.9-3.8,37.4,1.2,76.1,15.5,110.7,10.3,25.8,27,47.7,47.7,65.6,10.3,9,21.9,16.7,34.8,23.2,43.8,21.9,95.4,20.6,139.1-1.2,21.9-12.9,41.2-28.4,59.2-46.3,11.6-10.3,20.6-21.9,29.6-33.4,14.1-25.8,23.2-54.1,24.5-83.7,9-50.3,3.8-103.1-15.5-150.7-7.7-15.5-18.1-31-29.6-42.5-3.8-21.9-10.3-43.8-19.3-64.4-6.4-14.1-15.5-28.4-21.9-43.8-2.6-6.4-5.2-12.9-7.7-18.1-2.6-6.4-6.4-11.6-11.6-16.7-5.2-5.2-10.3-7.7-18.1-10.3-6.4-2.6-12.9-2.6-20.6-3.8-14.1-1.2-27,1.2-41.2,0-10.3,0-21.9-2.6-32.2-1.2-5.2,0-10.3,1.2-15.5,3.8-2.6,1.4-6.4,5.2-10.3,9M881,236.5c-5.2,0-10.3,2.6-14.1,6.4-3.8,3.8-6.4,7.7-7.7,12.9-2.6,10.3-2.6,20.6-1.2,29.6,0,9,1.2,18.1,5.2,27,1.2,3.8,3.8,7.7,7.7,11.6,3.8,3.8,7.7,5.2,11.6,6.4,3.8,1.2,9,1.2,12.9,0s7.7-3.8,10.3-6.4c3.8-5.2,7.7-10.3,9-16.7,1.2-6.4,2.6-12.9,2.6-19.3s-1.2-15.5-3.8-23.2-6.4-14.1-11.6-20.6c-2.6-2.6-5.2-5.2-9-6.4-5.3,0-7.9-1.4-11.8-1.4M969.8,236.5c-7.7,5.2-14.1,12.9-18.1,21.9-3.8,11.6-2.6,24.5,1.2,36,3.8,11.6,11.6,21.9,20.6,29.6,5.2,3.8,10.3,6.4,16.7,6.4,6.4,1.2,12.9,0,18.1-2.6,6.4-3.8,11.6-9,15.5-16.7,2.6-6.4,5.2-14.1,5.2-21.9,1.2-9,0-19.3-3.8-28.4-3.8-10.3-10.3-18.1-18.1-24.5-3.8-2.6-9-5.2-14.1-5.2s-10.3,0-15.5,1.2c-2.5,1.5-5.1,2.7-7.7,4.1"/>
    <path class="cls-30" d="M987.9,260.9c-2.6,0-6.4,1.2-9,2.6-2.6,1.2-5.2,3.8-6.4,6.4-2.6,5.2-5.2,10.3-5.2,16.7s0,9,1.2,12.9,3.8,7.7,7.7,10.3c3.8,2.6,7.7,5.2,12.9,5.2s9-1.2,12.9-3.8c2.6-2.6,5.2-5.2,7.7-7.7,1.2-2.6,2.6-6.4,2.6-10.3,1.2-6.4,0-12.9-2.6-19.3s-7.7-10.3-14.1-12.9c-1.1-.1-3.7-.1-7.6-.1"/>
    <path class="cls-43" d="M881,236.5c-5.2,0-10.3,2.6-14.1,6.4-3.8,3.8-6.4,7.7-7.7,12.9-2.6,10.3-2.6,20.6-1.2,29.6,0,9,1.2,18.1,5.2,27,1.2,3.8,3.8,7.7,7.7,11.6,3.8,3.8,7.7,5.2,11.6,6.4,3.8,1.2,9,1.2,12.9,0s7.7-3.8,10.3-6.4c3.8-5.2,7.7-10.3,9-16.7,1.2-6.4,2.6-12.9,2.6-19.3s-1.2-15.5-3.8-23.2-6.4-14.1-11.6-20.6c-2.6-2.6-5.2-5.2-9-6.4-5.3,0-7.9-1.4-11.8-1.4"/>
    <path class="cls-30" d="M868.1,279c-1.2,6.4-1.2,12.9,1.2,19.3,1.2,3.8,3.8,7.7,6.4,10.3,1.2,2.6,3.8,3.8,6.4,5.2s5.2,1.2,7.7,1.2c2.6-1.2,5.2-2.6,6.4-3.8,1.2-2.6,2.6-3.8,3.8-6.4,2.6-7.7,2.6-15.5,0-23.2-1.2-5.2-3.8-10.3-9-14.1-2.6-1.2-3.8-2.6-6.4-3.8-2.6-1.2-5.2,0-7.7,1.2s-5.2,3.8-6.4,6.4-2.5,5.1-2.5,7.7"/>
    <path class="cls-21" d="M856.5,358.9c0,.9.4,1.7,1.2,2.6,1.2,1.2,1.2,2.6,2.6,2.6,1.2,1.2,2.6,1.2,3.8,2.6,6.4,3.8,12.9,10.3,16.7,16.7,5.2,9,12.9,16.7,20.6,23.2,6.4,3.8,12.9,6.4,20.6,7.7,9,1.2,18.1,0,25.8-2.6s15.5-5.2,21.9-10.3c11.6-9,24.5-18.1,38.6-25.8,2.6-1.2,6.4-2.6,9-3.8s5.2-3.8,7.7-6.4c1.2-2.6,1.2-6.4,1.2-9,0-3.8,1.2-6.4,2.6-10.3s0-6.4-1.2-10.3c-1.2-2.6-3.8-5.2-6.4-6.4s-5.2-2.6-7.7-2.6c-5.2,0-11.6,1.2-16.7,1.2-7.7,1.2-15.5,0-23.2,0s-19.3,2.6-28.4,2.6-21.9-1.2-32.2-1.2-9,0-14.1,1.2c-5.2,1.2-9,2.6-12.9,5.2-3.8,2.6-6.4,6.4-10.3,9-1.2,1.2-3.8,2.6-5.2,3.8-2.6,1.2-3.8,1.2-6.4,1.2h-3.8c-1.2,0-1.2,1.2-1.2,1.2l-1.2,1.2c0,2.6,0,4-1.4,6.6"/>
    <path class="cls-16" d="M879.6,334.3c-3.8,2.6-7.7,5.2-11.6,7.7-2.6,1.2-3.8,2.6-5.2,5.2-1.2,1.2-1.2,2.6-1.2,5.2v10.3s0,1.2,1.2,1.2l1.2,1.2h2.6c3.8,1.2,6.4,2.6,9,5.2s5.2,5.2,7.7,6.4c7.7,5.2,16.7,9,25.8,9s18.1-1.2,27-3.8c6.4-1.2,14.1-3.8,20.6-5.2,10.3-3.8,20.6-10.3,28.4-16.7,3.8-3.8,7.7-6.4,11.6-10.3,3.8-2.6,7.7-3.8,11.6-6.4,0,0,1.2,0,1.2-1.2l1.2-1.2v-2.6c0-1.4,0-1.2-1.2-1.2l-1.2-1.2c-3.8-2.6-9-5.2-15.5-5.2s-10.3,0-15.5-1.2-10.3-2.6-14.1-3.8c-5.2-1.2-10.3-2.6-15.5-3.8-12.9-2.6-24.5-1.2-37.4,1.2-8.8,1.1-20.4,6.2-30.7,11.4"/>
    <path class="cls-9" d="M878.4,321.5c-5.2,3.8-10.3,7.7-14.1,12.9-2.6,2.6-3.8,6.4-5.2,10.3-1.2,2.6-1.2,5.2-1.2,9v5.1s0,1.2,1.2,1.2c.9.9,1.7,1.2,2.6,1.2h2.6c3.8,1.2,7.7,2.6,11.6,5.2,3.8,2.6,6.4,5.2,10.3,7.7,7.7,5.2,16.7,7.7,25.8,7.7s18.1-1.2,27-2.6c7.7-1.2,14.1-3.8,20.6-6.4,10.3-3.8,19.3-10.3,28.4-16.7,3.8-2.6,7.7-6.4,11.6-10.3,1.2-1.2,2.6-2.6,3.8-3.8s2.6-2.6,3.8-2.6c2.6-1.2,5.2-1.2,7.7,0,1.2,0,3.8,1.2,6.4,1.2h2.6c1.2,0,1.2-1.2,2.6-1.2,1.2-1.2,1.2-2.6,1.2-3.8s0-2.6-1.2-3.8c-1.2-2.6-3.8-3.8-6.4-5.2-3.8-1.2-6.4-2.6-10.3-2.6-10.3-2.6-20.6-6.4-31-11.6-5.2-2.6-9-5.2-14.1-7.7s-10.3-5.2-15.5-6.4c-11.6-3.8-24.5-2.6-37.4,1.2-12.9,4.1-24.4,11.9-33.4,22.2"/>
    <path class="cls-47" d="M940.2,306c1.2,2.6,3.8,1.2,6.4,2.6,2.6,1.2,2.6,2.6,5.2,2.6s5.2-1.2,5.2-2.6c0-2.6-2.6-3.8-5.2-5.2-2.6-1.2-6.4-1.2-9,0-2.6,1.4-2.6,2.6-2.6,2.6h0ZM908,306c-2.6-1.2-6.4,3.8-5.2,6.4,0,1.2,1.2,1.2,2.6,1.2s2.6-2.6,3.8-3.8c0-2.5,0-3.8-1.2-3.8h0Z"/>
    <path class="cls-9" d="M1312.5,832.9c-1.2,5.2-5.2,9-7.7,12.9-7.7,9-18.1,15.5-28.4,20.6-18.1,7.7-34.8,18.1-52.8,27-11.6,7.7-21.9,15.5-31,24.5-7.7,7.7-16.7,15.5-24.5,23.2-9,6.4-19.3,11.6-31,12.9-14.1,1.2-28.4,0-41.2-6.4-9-3.8-16.7-9-23.2-18.1-5.2-9-6.4-18.1-6.4-28.4,0-16.7,2.6-34.8,6.4-51.5,2.6-14.1,5.2-28.4,6.4-42.5,2.6-25.8,2.6-52.8,1.2-78.5v-12.9c0-9,7.7-15.5,16.7-15.5s7.7,0,11.6,1.2c9,1.2,19.3,2.6,28.4,5.2,5.2,1.2,11.6,3.8,16.7,5.2,9,2.6,19.3,3.8,29.6,2.6,10.3-2.6,20.6-3.8,32.2-5.2,3.8,0,9,1.2,12.9,2.6s9,3.8,11.6,6.4,3.8,5.2,5.2,9c1.2,5.2,2.6,10.3,3.8,15.5,0,5.2,0,9,1.2,14.1,1.2,7.7,5.2,14.1,10.3,19.3,5.2,5.2,10.3,10.3,16.7,15.5,5.2,5.2,11.6,9,18.1,14.1,2.6,2.6,6.4,3.8,9,6.4s5.2,5.2,6.4,7.7c1.4,2.7,2.6,7.8,1.4,13"/>
    <path class="cls-9" d="M1312.5,832.9c-1.2,5.2-5.2,9-7.7,12.9-7.7,9-18.1,15.5-28.4,20.6-18.1,7.7-34.8,18.1-52.8,27-11.6,7.7-21.9,15.5-31,24.5-7.7,7.7-16.7,15.5-24.5,23.2-9,6.4-19.3,11.6-31,12.9-14.1,1.2-28.4,0-41.2-6.4-9-3.8-16.7-9-23.2-18.1-5.2-9-6.4-18.1-6.4-28.4,0-16.7,2.6-34.8,6.4-51.5,2.6-14.1,5.2-28.4,6.4-42.5,2.6-25.8,2.6-52.8,1.2-78.5v-12.9c0-9,7.7-15.5,16.7-15.5s7.7,0,11.6,1.2c9,1.2,19.3,2.6,28.4,5.2,5.2,1.2,11.6,3.8,16.7,5.2,9,2.6,19.3,3.8,29.6,2.6,10.3-2.6,20.6-3.8,32.2-5.2,3.8,0,9,1.2,12.9,2.6s9,3.8,11.6,6.4,3.8,5.2,5.2,9c1.2,5.2,2.6,10.3,3.8,15.5,0,5.2,0,9,1.2,14.1,1.2,7.7,5.2,14.1,10.3,19.3,5.2,5.2,10.3,10.3,16.7,15.5,5.2,5.2,11.6,9,18.1,14.1,2.6,2.6,6.4,3.8,9,6.4s5.2,5.2,6.4,7.7c1.4,2.7,2.6,7.8,1.4,13M720,687.4c5.2-1.2,9-2.6,14.1-1.2,5.2,1.2,9,2.6,14.1,5.2,7.7,6.4,14.1,12.9,20.6,21.9,12.9,18.1,25.8,37.4,37.4,56.7,9,15.5,18.1,32.2,28.4,46.3,6.4,9,15.5,18.1,21.9,28.4,7.7,9,12.9,20.6,16.7,32.2,3.8,15.5,2.6,31-5.2,45.1-5.2,10.3-12.9,18.1-21.9,23.2-9,5.1-20.6,9-31,7.7-16.7-2.6-34.8-7.7-50.3-15.5-33.4-12.9-68.2-16.7-103.1-27-10.3-2.6-20.6-6.4-31-10.3-5.2-1.2-9-2.6-14.1-3.8-3.8-1.2-7.7-5.2-10.3-9-1.2-3.8-2.6-6.4-2.6-10.3s1.2-7.7,2.6-10.3c2.6-6.4,6.4-12.9,9-20.6,3.8-11.6,5.2-24.5,5.2-36s-2.6-24.5-3.8-36v-16.7c1.2-10.3,10.3-19.3,20.6-20.6,5.2-1.2,10.3-1.2,15.5-1.2h15.5c5.2,0,10.3-1.2,14.1-3.8,3.8-2.6,7.7-6.4,10.3-10.3s5.2-7.7,7.7-12.9,5.2-7.7,7.7-11.6c2.8-4.3,6.7-6.9,11.9-9.4"/>
    <path class="cls-9" d="M720,687.4c5.2-1.2,9-2.6,14.1-1.2,5.2,1.2,9,2.6,14.1,5.2,7.7,6.4,14.1,12.9,20.6,21.9,12.9,18.1,25.8,37.4,37.4,56.7,9,15.5,18.1,32.2,28.4,46.3,6.4,9,15.5,18.1,21.9,28.4,7.7,9,12.9,20.6,16.7,32.2,3.8,15.5,2.6,31-5.2,45.1-5.2,10.3-12.9,18.1-21.9,23.2-9,5.1-20.6,9-31,7.7-16.7-2.6-34.8-7.7-50.3-15.5-33.4-12.9-68.2-16.7-103.1-27-10.3-2.6-20.6-6.4-31-10.3-5.2-1.2-9-2.6-14.1-3.8-3.8-1.2-7.7-5.2-10.3-9-1.2-3.8-2.6-6.4-2.6-10.3s1.2-7.7,2.6-10.3c2.6-6.4,6.4-12.9,9-20.6,3.8-11.6,5.2-24.5,5.2-36s-2.6-24.5-3.8-36v-16.7c1.2-10.3,10.3-19.3,20.6-20.6,5.2-1.2,10.3-1.2,15.5-1.2h15.5c5.2,0,10.3-1.2,14.1-3.8,3.8-2.6,7.7-6.4,10.3-10.3s5.2-7.7,7.7-12.9,5.2-7.7,7.7-11.6c2.8-4.3,6.7-6.9,11.9-9.4"/>
    <path class="cls-9" d="M726.4,696.3c3.8-1.2,9-1.2,12.9-1.2s9,2.6,11.6,6.4c6.4,6.4,12.9,12.9,16.7,20.6,11.6,18.1,21.9,37.4,32.2,55.4,7.7,14.1,15.5,28.4,24.5,41.2,6.4,9,14.1,16.7,20.6,24.5,6.4,9,11.6,18.1,15.5,28.4,3.8,12.9,2.6,28.4-3.8,39.9-5.2,9-11.6,16.7-20.6,21.9-9,5.2-19.3,7.7-28.4,6.4-15.5-2.6-31-7.7-45.1-14.1-28.4-10.3-60.6-11.6-88.9-20.6-10.3-2.6-20.6-6.4-31-9-5.2-1.2-9-2.6-14.1-3.8-5.2-1.2-9-5.2-11.6-9-1.2-2.6-2.6-6.4-2.6-10.3s1.2-7.7,2.6-10.3c2.6-6.4,6.4-12.9,9-19.3,3.8-10.3,5.2-21.9,3.8-32.2-1.2-10.3-2.6-21.9-3.8-32.2,0-5.2,0-10.3,1.2-14.1,1.2-5.2,2.6-9,6.4-12.9s9-6.4,14.1-6.4,10.3-1.2,15.5,0,10.3,1.2,15.5,1.2c10.3,0,19.3-6.4,24.5-15.5,2.6-3.8,3.8-9,5.2-12.9,1.2-5.2,3.8-9,6.4-12.9,2.5-5.2,6.3-7.8,11.5-9.2"/>
  </g>
  <path id="git" class="cls-8" d="M1333.2,505.5l-338.7-338.7c-19.5-19.5-51.2-19.5-70.7,0l-70.2,70.3,89.2,89.2c31-10.5,64.9,6.2,75.4,37.2,4.2,12.5,4.2,26.1,0,38.4l85.9,85.9c31-10.7,64.7,5.9,75.4,36.9,10.7,31-5.9,64.7-36.9,75.4-30.9,10.7-64.7-5.9-75.4-36.9-4.6-13.6-4.2-28.4,1.2-41.7l-80.5-80v210.9c29.5,14.5,41.5,50.3,26.9,79.8-14.5,29.5-50.3,41.5-79.8,26.9-5.8-2.9-11.2-6.7-15.8-11.4-23.2-23.2-23.3-60.6,0-83.9h0c5.6-5.7,12.2-10.2,19.5-13.2v-213c-30.4-12.6-44.9-47.4-32.2-77.8h0c0-.1-87.6-88.2-87.6-88.2l-232.5,232.3c-19.4,19.6-19.4,51.2,0,70.8l338.8,338.6c19.5,19.5,51.2,19.5,70.7,0h0l337.1-337.1c19.5-19.5,19.5-51,0-70.5h0Z"/>
  <g id="ssh" class="cls-50">
    <path class="cls-25" d="M957.9,912.4c-202.1,0-367.5-165.4-367.5-367.5s165.4-367.5,367.5-367.5,367.5,165.4,367.5,367.5-165.4,367.5-367.5,367.5Z"/>
    <g class="cls-48">
      <path class="cls-27" d="M958.1,912.4c-202.1,0-367.5-165.4-367.5-367.5s165.4-367.5,367.5-367.5,367.5,165.4,367.5,367.5-165.4,367.5-367.5,367.5Z"/>
    </g>
    <path class="cls-4" d="M1177.4,361.1l-199.6-90.5c-20.4-9.3-44.7-.1-53.9,20.2l-76.3,168c-9.3,20.4,0,44.7,20.2,53.9l199.6,90.7c20.4,9.3,44.7,0,53.9-20.2l76.2-168c9.4-20.4.3-44.7-20.1-54M1106.2,393.3c-4.6,10.2-16.8,14.8-26.9,10.2l-68.5-31.1c-10.2-4.6-14.8-16.8-10.2-26.9s16.8-14.8,26.9-10.2l68.5,31.1c10.3,4.6,14.8,16.7,10.2,26.9"/>
    <path class="cls-11" d="M1084.3,612.6c-6.4,0-12.9-1.3-19.1-4.2l-199.6-90.5c-11.2-5.1-19.9-14.3-24.3-26-4.4-11.7-4-24.3,1.2-35.5l76.2-168c10.6-23.3,38.2-33.7,61.6-23.1l199.6,90.7c23.3,10.6,33.7,38.2,23.1,61.6l-76.3,168c-7.7,17-24.7,27-42.3,27M961.2,272.7c-4.2,0-8.3.7-12.4,2.2-8.8,3.3-15.7,9.7-19.6,18.2l-76.3,168c-8,17.5-.2,38.3,17.3,46.3l199.6,90.7c17.5,8,38.3.2,46.3-17.3l76.3-168c7.9-17.5.2-38.3-17.3-46.3l-199.6-90.7c-4.5-2-9.4-3.1-14.3-3.1M1087.6,410.9c-3.6,0-7.3-.7-10.7-2.4l-68.5-31.1c-13.1-6-18.9-21.5-13-34.6,6-13.1,21.5-18.9,34.5-12.9l68.5,31.1c13.1,6,18.9,21.5,13,34.6-2.9,6.3-8,11.2-14.6,13.7-2.9,1.1-6,1.6-9.2,1.6M1019.2,339.1c-1.8,0-3.5.3-5.1,1-3.6,1.4-6.5,4.1-8.1,7.6-3.3,7.4,0,15.9,7.3,19.3l68.5,31.1c3.5,1.6,7.5,1.7,11.1.3,3.6-1.4,6.5-4.1,8.1-7.6,3.3-7.4,0-15.9-7.3-19.3l-68.5-31.1c-1.9-.9-4-1.3-6-1.3"/>
    <path class="cls-31" d="M1050.4,558.6c19.8,9,43.2,0,52.2-19.6l18.7-41.3c9-19.8,0-43.2-19.6-52.2l-137.3-62.3c-9.8-4.5-16.7-4.8-20.8-4s-17.2-6.5-38.2,37.5l-11.8,26c-9.3,20.4,0,44.7,20.2,53.9l90.8,41.3,45.8,20.6h0Z"/>
    <path class="cls-26" d="M1028.6,585l-122.3-55.5c-7.2-3.2-15.6,0-18.8,7.1-3.2,7.2,0,15.6,7.1,18.8l28.8,13-39.6,87.2,13,15.1-23.5,7.3,10,22.4-23.5,7.3,10,22.4-23.5,7.2,10,22.4h-19.9l-5.7,12.6,13.9,55.5,50.9-26.1,92.6-203.9,28.8,13c7.2,3.2,15.6,0,18.8-7.1,3.2-7.2,0-15.7-7.2-18.9"/>
    <path class="cls-11" d="M844.6,833.6c-2.7,0-4.9-1.8-5.6-4.4l-13.9-55.5c-.3-1.3-.2-2.6.3-3.7l5.7-12.4c1-2,3-3.3,5.2-3.4h11.1l-6.4-14.4c-1.3-2.9,0-6.3,2.9-7.6.2,0,.4-.2.6-.2l17.2-5.3-7.4-16.5c-.6-1.5-.6-3.2,0-4.7s2-2.7,3.5-3.1l17.2-5.3-7.4-16.5c-.6-1.5-.6-3.2,0-4.7s2-2.7,3.5-3.1l15.1-4.6-7.3-8.4c-1.5-1.7-1.8-4.1-.9-6.2l37.2-82-23.5-10.7c-4.8-2.1-8.7-6.2-10.5-11.2-1.9-4.9-1.7-10.5.5-15.3s6.2-8.6,11.2-10.5,10.5-1.7,15.3.5l122.3,55.5h0c4.8,2.2,8.6,6.2,10.5,11.2s1.7,10.5-.5,15.3-6.2,8.6-11.2,10.5c-5,1.9-10.5,1.7-15.3-.5l-23.5-10.7-89.9,198.6c-.5,1.2-1.5,2.1-2.7,2.8l-50.9,26.1c-.9.3-1.7.5-2.7.5M836.8,772.9l11.7,46.5,42.7-21.8,91.7-202c1.3-2.9,4.7-4.2,7.6-2.9l28.8,13c2,1,4.4,1,6.5.2s3.8-2.4,4.7-4.4c1-2,1-4.4.2-6.5-.7-2.1-2.4-3.8-4.4-4.7l-122.3-55.5c-2-1-4.4-1-6.5-.2-2.1.7-3.8,2.4-4.7,4.4-1,2-1,4.4-.2,6.5s2.4,3.8,4.4,4.7l28.8,13c2.9,1.3,4.2,4.7,2.9,7.6l-38.1,83.8,10.6,12.3c2,2.5,1.8,6.1-.6,8.1-.6.5-1.3.9-2,1.2l-17.2,5.3,7.4,16.5c1.3,2.9,0,6.3-2.9,7.6-.2,0-.4.2-.6.2l-17.2,5.3,7.4,16.5c1.3,2.9,0,6.3-2.9,7.6-.2,0-.4.2-.6.2l-17.2,5.3,7.4,16.5c.7,1.8.6,3.8-.4,5.5s-2.9,2.7-4.8,2.7h-16.2l-3.5,7.5h0Z"/>
    <path class="cls-15" d="M967.8,582.6l17.6,8.8-94,204.9-35,19.3,111.3-233h0Z"/>
    <path class="cls-11" d="M873.6,787.7c-2.2,0-4.1-1.8-4.1-4.1s0-1.2.3-1.7l4.1-8.9c4.3-9.4,7.2-15.8,9.3-20.2,0-.3.2-.6.3-1l2.2-5,.4.2c2.1-3.5,3.1-3.1,4.9-2.2,2.6,1.2,2.9,2.5,1.9,5.3h0s-.5,1.2-1.5,3.3c-.2.5-.5,1.1-.7,1.7h0c-1.9,4.3-5.1,11.3-9.5,21l-4.1,8.9c-.5,1.6-2,2.6-3.6,2.6M898.5,732.9c-.5,0-1.2,0-1.7-.3-2-1-2.9-3.3-2-5.3l4.6-10.2c1-2,3.3-2.9,5.3-2,2,1,2.9,3.3,2,5.3l-4.6,10.2c-.5,1.4-2,2.4-3.6,2.4M910,707.7c-.5,0-1.2,0-1.7-.3-2-1-2.9-3.3-2-5.3l20.4-45c1-2,3.3-2.9,5.3-2,2,1,2.9,3.3,2,5.3l-20.3,45c-.6,1.4-2.1,2.4-3.7,2.4M936.2,650c-2.2,0-4.1-1.8-4.1-4.1s0-1.2.3-1.7l11.9-26.1c1-2,3.3-2.9,5.3-2,2,1,2.9,3.3,2,5.3l-11.9,26.1c-.6,1.5-2,2.5-3.6,2.5M1065.3,564.8c-6.2,0-12.3-1.3-17.9-3.8-2-1-2.9-3.3-2-5.3,1-2,3.3-2.9,5.3-2,8.6,3.8,18.2,4.2,27,.9,8.9-3.3,15.9-9.8,19.8-18.5l18.7-41.3c8.1-17.7.2-38.8-17.5-46.8l-137.3-62.3c-8.6-3.8-18.2-4.2-27-.9-2.1.7-4.4-.4-5.1-2.5s.3-4.3,2.2-5c10.9-4.1,22.7-3.7,33.2,1.1l137.3,62.3c21.8,9.9,31.5,35.7,21.6,57.5l-18.7,41.3c-7.3,15.9-23.1,25.4-39.7,25.4M1003.5,540.6c-.5,0-1.2-.1-1.7-.3l-90.9-41.3c-10.8-4.9-19.1-13.8-23.3-25-4.2-11.2-3.8-23.4,1.1-34.2l11.8-26c1-2,3.3-2.9,5.3-2h0c2,1,2.9,3.3,2,5.3l-11.8,26c-8.3,18.4-.2,40.2,18.2,48.5l90.9,41.3c2,1,2.9,3.3,2,5.3-.6,1.4-2,2.4-3.6,2.4M1074.6,375.5c-9.3,0-18.6-2.2-27-6.8-13.6-7.3-23.6-19.3-28.1-34.2s-3-30.4,4.3-44c7.3-13.6,19.3-23.6,34.1-28.1,14.8-4.5,30.5-3,44,4.3,23.1,12.3,35.1,38.7,29.1,64.1-.5,2.1-2.7,3.5-4.8,3h0c-2.1-.5-3.5-2.7-3-4.8h0c5.1-21.9-5.1-44.6-25-55.2-11.8-6.2-25.1-7.6-37.8-3.6-12.7,3.8-23.2,12.5-29.4,24.2-6.2,11.7-7.6,25.2-3.6,37.8,3.8,12.7,12.5,23.1,24.2,29.4,12.2,6.5,26.1,7.6,39.1,3.2,2.1-.6,4.4.5,5,2.7.6,2-.4,4.2-2.5,4.9-6,2.1-12.2,3.2-18.5,3.2"/>
  </g>
  <g id="homekit" class="cls-50">
    <rect id="_背景-2" data-name=" 背景-2" class="cls-49" x="414.7" y="-7.9" width="1089.8" height="1095.9"/>
    <path class="cls-10" d="M683.6,568v-60.8h-5.3c-19.2,0-38.4,0-57.5-.1-7.7-.1-13.9-7.1-11.5-14.1,1.3-4,5-7.7,8.4-10.4,27.7-22.2,55.5-44.1,83.3-66,26.6-21,53.3-41.9,79.9-63,30.8-24.4,61.4-48.9,92.2-73.2,23.7-18.8,47.7-37.3,71.3-56.1,10-8,20.3-8,30.6.2,23.5,18.6,46.9,37.3,70.4,55.9,19.4,15.4,38.9,30.6,58.4,45.9,17.7,14,35.3,28,53.6,42.4,0-2,.3-3.4.3-4.9,0-15.3.3-30.7,0-46-.2-6.8,5.3-12.3,12.3-12.2,16.9.1,33.8,0,50.6,0s13.6,4.4,13.6,13.8v104.9c0,3.4.8,5.7,3.8,8,22.3,17.3,44.4,34.9,66.5,52.5,5.5,4.3,7.3,9.3,5.5,14.3-1.9,5.4-6.2,8-13.5,8h-60.6v60.8h-50.5v-100.3c0-6.1-1.8-11.2-6.4-15.1-8.5-7.1-17.1-14.2-25.9-21.2-30.3-23.9-60.6-47.8-91-71.7-29.9-23.5-59.8-46.9-89.7-70.4-8.7-6.8-16.8-6.8-25.5,0-15.4,12-30.8,24.1-46.1,36.1-14.8,11.6-29.5,23.2-44.2,34.9-18.3,14.5-36.5,29.1-54.9,43.5-19.3,15.2-38.7,30.3-58,45.5-6.6,5.2-9.9,11.7-9.8,20.6.4,32.7,0,65.4,0,98-16.6.2-33.5.2-50.3.2h0Z"/>
    <path class="cls-33" d="M1185.3,568h50.5v255c0,6.7-1.3,13.5-2.7,20.1-2.4,11.5-15.9,18.5-26.5,18.5h-494.8c-12.2,0-23.7-8.5-26.6-20.9-1.1-4.7-1.5-9.6-1.5-14.4v-255.5c0-85.2,0-1.8,0-2.8h50.5v220.4c0,14.9,7.8,22.7,22.7,22.7h406.8c13.6,0,21.7-8.1,21.7-21.7v-221.3h-.1Z"/>
    <path class="cls-39" d="M1185.3,568v221.3c0,13.6-8.1,21.7-21.7,21.7h-406.8c-14.9,0-22.7-7.8-22.7-22.7v-220.4c0-32.7.2-65.4,0-98,0-8.9,3.2-15.4,9.8-20.6,19.3-15.2,38.7-30.3,58-45.5,18.3-14.5,36.6-29,54.9-43.5,14.7-11.7,29.4-23.3,44.2-34.9,15.4-12.1,30.8-24.1,46.1-36.1,8.7-6.8,16.8-6.8,25.5,0,29.9,23.5,59.8,46.9,89.7,70.4,30.3,23.9,60.7,47.7,91,71.7,8.7,6.9,17.3,14,25.9,21.2,4.6,3.9,6.4,9,6.4,15.1-.3,33.4-.2,66.8-.2,100.3h-.1ZM959.9,759.5c51.4,0,102.8-.2,154.2.2,11.4,0,19.7-7.2,19.7-19.9-.2-82.1-.2-164.2,0-246.3,0-8.5-3.6-14.2-9.8-19.1-20.6-16.1-41.2-32.1-61.7-48.2-30.4-23.9-60.6-47.8-91-71.7-8.5-6.7-14.7-6.7-23.2-.1-10.7,8.3-21.4,16.7-32.1,25.1-17.7,13.8-35.3,27.7-52.9,41.6-21.3,16.8-42.5,33.9-64.1,50.3-9.1,6.9-13.7,14.5-13.6,26.5.5,80.7.3,161.4.3,242.1s6.6,19.5,19.5,19.5h154.7Z"/>
    <path class="cls-37" d="M959.9,759.5h-154.7c-12.9,0-19.5-6.6-19.5-19.5,0-80.7.2-161.4-.3-242.1,0-12,4.5-19.6,13.6-26.5,21.6-16.4,42.8-33.5,64.1-50.3,17.6-13.9,35.3-27.8,52.9-41.6,10.7-8.4,21.4-16.7,32.1-25.1,8.5-6.6,14.7-6.6,23.2.1,30.4,23.8,60.6,47.8,91,71.7,20.5,16.1,41.1,32.1,61.7,48.2,6.2,4.8,9.8,10.6,9.8,19.1-.2,82.1-.2,164.2,0,246.3,0,12.8-8.3,20-19.7,19.9-51.4-.4-102.8-.2-154.2-.2h0ZM959.7,707.9h106.8c9.8,0,15.6-5.9,15.7-15.7v-45.1c0-43.1,0-86.2-.2-129.3,0-4.2-1.6-9.8-4.5-12.4-10.2-9.1-21.3-17.3-32.1-25.8-14.1-11.2-28.2-22.4-42.3-33.6-11.5-9.1-22.9-18.2-34.6-27.1-5.6-4.3-11.8-4.3-17.5-.1-8.4,6.3-16.7,12.8-24.9,19.4-27.5,21.8-54.8,43.8-82.4,65.5-4.4,3.5-6.4,7.8-6.4,13v176.3c0,8.9,6.2,14.9,15.2,14.9h107.2Z"/>
    <path class="cls-17" d="M959.7,707.9h-107.2c-8.9,0-15.2-6-15.2-14.9v-176.3c0-5.2,1.9-9.5,6.4-13,27.6-21.7,54.9-43.7,82.4-65.5,8.2-6.6,16.5-13.1,24.9-19.4,5.7-4.2,11.8-4.2,17.5.1,11.6,8.9,23.1,18.1,34.6,27.1,14.1,11.2,28.2,22.4,42.3,33.6,10.8,8.5,21.9,16.6,32.1,25.8,2.9,2.6,4.5,8.2,4.5,12.4.3,43.1.2,86.2.2,129.3v45.1c0,9.8-5.9,15.7-15.7,15.7h-106.8ZM959.5,657.3c19.2,0,38.4-.3,57.5,0,10,.2,14.6-6.3,14.5-14.7-.2-33.8-.2-67.5,0-101.3,0-6.1-2.5-10.2-6.9-13.7-18.1-14.2-36.3-28.4-54.4-42.6-7.7-6.1-13.4-6.2-21-.1-18.2,14.3-36.5,28.6-54.8,42.9-4.3,3.4-6.8,7.4-6.7,13.3.2,34.2,0,68.4,0,102.6s4.6,13.4,13.2,13.4h58.6v.2Z"/>
    <path class="cls-46" d="M959.5,657.3h-58.5c-8.6,0-13.2-4.7-13.2-13.4v-102.6c0-5.9,2.5-10,6.7-13.3,18.2-14.3,36.5-28.6,54.8-42.9,7.7-6,13.3-5.9,21,.1,18.1,14.3,36.3,28.4,54.4,42.6,4.4,3.5,7,7.6,6.9,13.7-.2,33.8-.2,67.5,0,101.3,0,8.4-4.5,14.9-14.5,14.7-19.1-.5-38.3-.2-57.5-.2h0Z"/>
  </g>
  <g id="netlink" class="cls-50">
    <path class="cls-42" d="M716.1,304.6c-14.5,0-28.4-5.8-38.5-16.1-21.4-21.5-21.4-56.3,0-77.7,21.3-20.6,55.1-20.6,76.5,0,7,7.2,11.9,16.2,13.9,26h124.7c18.8-.2,36.6,8.9,47.5,24.2l73.3,117.1c5.8,6.2,13.9,9.7,22.4,9.9h70.4c0-20.7,11.6-39.7,30.1-49.1,18.4-9.4,40.6-7.4,57,5.1,16.5,12.6,24.6,33.5,20.7,53.9,0,14.5-5.7,28.4-15.8,38.9-21,21.2-55.3,21.4-76.5.3-4.9-4.8-8.8-10.5-11.5-16.8h-74.1c-18.8-.5-36.5-9.3-48.2-24l-73.3-117.5c-5.9-6.5-14-10.4-22.7-10.8h-124c-7.7,21.7-28,36.3-51,36.7h-.9,0ZM1300.8,641.6c30.4-.6,55.5,23.5,56.1,53.9s-23.5,55.5-53.9,56.1c-15,.3-29.4-5.5-40-16.1s-10.5-13.2-13.2-21.3h-102.5c-18.3,0-21.1,2.9-21.4,3.7l-73.3,111.5c-11.8,15.2-29.9,24.1-49.1,24h-90.8c-13.1,27.4-45.9,39.1-73.3,26-22.1-10.5-34.6-34.3-30.6-58.5,3-8.1,7.9-15.4,14.3-21.3,9.5-10.2,22.7-16.4,36.7-17,23.8.4,44.7,16.1,51.7,38.9h91.7c8.5,0,16.6-3.6,22.4-9.9l73.3-111.3c11.6-13.8,29.4-20.7,47.3-18.3h101.4c6.7-23.4,27.9-39.7,52.2-40l1-.4h0Z"/>
    <path class="cls-36" d="M926.4,671.3h-160.8c-11,28.3-42.9,42.3-71.2,31.3-20-7.8-33.6-26.4-35-47.8,0-14.4,5.7-28.2,15.8-38.5,21-21.2,55.2-21.5,76.5-.5,6.7,6.6,11.6,14.9,14.1,23.9h160.2c8.8-29.1,39.5-45.5,68.6-36.7s45.5,39.5,36.7,68.6-39.5,45.5-68.6,36.7c-17.6-5.3-31.4-19.1-36.7-36.7l.4-.3h0Z"/>
    <path class="cls-14" d="M918,464.8c0,30.4-24.8,54.9-55.1,54.9s-54.9-24.8-54.9-55.1,24.8-54.9,55.1-54.9,28.1,5.7,38.4,15.7c10.3,10.3,16,24.3,15.9,38.9l.6.5h0Z"/>
  </g>
  <g id="brain" class="cls-50">
    <path class="cls-23" d="M1128.2,563.8c-22.3,0-38.2,16.6-44.6,34.6h-59v24.5h59c5.8,20.2,22.3,34.6,44.6,34.6s46.8-20.2,46.8-46.8c-.7-26.7-20.9-46.9-46.8-46.9h0ZM1164.2,429.9h56.9c4.3,20.2,24.5,34.6,44.6,34.6s46.8-20.2,46.8-46.8-20.2-46.8-46.8-46.8-38.2,16.6-44.6,34.6h-69.1l-59,91.4h-70.6v24.5h82.8l59-91.5h0ZM1128.2,365.1c26.6,0,46.8-20.2,46.8-46.8s-20.2-46.8-46.8-46.8-38.2,16.6-44.6,34.6h-59v24.5h59c5.7,22.3,22.3,34.5,44.6,34.5h0ZM1184.3,776.2c-22.3,0-38.2,16.6-44.6,34.6h-117.4v24.5h118.1c4.3,20.2,24.5,34.6,44.6,34.6s46.8-20.2,46.8-46.8c-.7-26.7-20.8-46.9-47.5-46.9h0Z"/>
    <path class="cls-2" d="M1283.7,566c-26.6,0-46.8,20.2-46.8,46.8s4.3,24.5,12.2,32.4l-34.6,54.7h-190.1v22.3h204.6l44.6-64.8c4.3,0,7.9,2.2,12.2,2.2,26.6,0,46.8-20.2,46.8-46.8-2.1-26.7-24.4-46.8-48.9-46.8h0ZM935.2,210.3c-36.7-22.3-74.9-24.5-111.6-6.5-40.3,20.2-64.8,54.7-67,92.9,0,2.9-.7,5.8-.7,8.6-48.2,2.9-79.9,20.9-94.3,54-16.6,35.3-11.5,75.6,8.6,109.4-43.9,17.3-53.3,50.4-53.3,77,0,39.6,21.6,70.6,62.6,92.9-11.5,29.5-11.5,61.9,0,90,13.7,32.4,41,50.4,80.6,54.7,1.4,40.3,23,74.9,61.2,92.9,26.6,12.2,49,16.6,67,16.6s42.5-5.8,56.9-16.6c28.1-18,44.6-49,44.6-70.6V288.6c0-25.7-24.3-58.1-54.6-78.3ZM925.1,852.5c-24.5,14.4-56.9,12.2-91.4-4.3-44.6-20.2-46.8-60.5-44.6-77,4.3-36.7,26.6-67,56.9-77,7.9-2.2,12.2-10.1,10.1-18-2.2-7.9-10.1-12.2-18-10.1-38.2,13-66.2,46.1-74.9,87.8-29.5-3.6-45.4-15.8-56.9-37.4-16.6-38.2-2.2-95,50.4-123.8,7.9-4.3,10.1-12.2,5.8-20.2s-12.2-10.1-20.2-5.8c-20.2,11.5-36.7,27.4-49,45.4-30.2-15.8-46.1-37.4-46.1-65.5s3.6-40.3,42.5-51.1c9.4,9.4,20.2,18,32.4,24.5,2.2,2.2,5.8,2.2,7.9,2.2,5.8,0,10.1-4.3,14.4-7.9,4.3-5.8,2.2-16.6-5.8-20.2-50.4-30.2-64.8-85-49-121.7,9.4-22.3,32.4-34.6,70.6-36,5.8,17.3,17.3,32.4,32.4,42.5,5.8,4.3,16.6,2.2,20.2-4.3,4.3-5.8,2.2-16.6-4.3-20.2-16.6-12.2-24.5-32.4-22.3-54.7,0-28.1,18-52.6,46.8-67,34.6-16.6,62.6-7.9,81.4,4.3,26.6,16.6,40.3,40.3,40.3,52.6v88.6c-27.4-10.8-43.9-31-50.4-57.6-2.2-7.9-10.1-14.4-18-12.2-7.9,2.2-14.4,10.1-12.2,18,9.4,43.9,36,72.7,81.4,85v394.6c0,12-10.2,34.3-30.4,46.5h0Z"/>
    <path class="cls-25" d="M898.5,434.9c-7.9,4.3-10.1,12.2-7.9,20.2,2.2,9.4,12.2,34.6-43.2,60.5-10.8-7.9-24.5-15.8-39.6-23.8-7.9-2.2-16.6,0-20.2,7.9-2.2,7.9,0,16.6,7.9,20.2,36.7,18,59,36.7,62.6,56.9,4.3,14.4-2.2,28.1-14.4,46.8-4.3,5.8-2.2,16.6,4.3,20.2,2.2,2.2,4.3,2.2,7.9,2.2s7.9-2.2,12.2-5.8c18-26.6,24.5-50.4,18-72.7-2.9-10.8-8.6-20.2-16.6-30.2,57.6-30.2,59.8-67,49-93.6-3.4-8.8-11.4-10.9-20-8.8Z"/>
  </g>
  <g id="network_earth" data-name="network earth" class="cls-50">
    <path class="cls-7" d="M646.9,520c0,169,136.9,306,305.9,306s306-136.9,306-305.9h0c0-169.1-136.9-306.1-305.9-306.1s-306,136.9-306,306h0Z"/>
    <path class="cls-20" d="M880.1,724c-87.5-43.7-211.3-36.4-131.1-204,27.9-58.5-24.8-87.4-86.4-96.5-10.1,30.3-15.6,62.8-15.6,96.5,0,162.7,127,295.6,287.2,305.3,2.8-33-4.5-76.5-54.1-101.3h0ZM1069.5,498.2s36.4,43.7-21.9,58.3-94.7,43.7-80.2,102,0,58.3,80.2,51c80.2-7.3,102-80.2,102-94.7s21.9-94.7-21.9-116.5c-43.7-22-51-36.6-58.2,0h0Z"/>
    <path class="cls-35" d="M1357,457c-5.5-39.8-52.2-68.4-134.9-82.7h-.2c5.7,10.5,10.8,21.4,15.3,32.7,54.2,12,87.8,31.7,91,54.1,3.5,25-30.4,57.2-90.8,86.3-67,32.3-158.8,57.8-258.6,71.8-99.8,14-195,14.7-268.3,2-66-11.4-107.6-33.1-111-58-2.5-18.4,15.2-40.7,49-62.8-.2-.3-.4-.4-.6-.6.8-12.2,2.4-24.2,4.6-35.9-58.4,32.9-86.7,68.4-81.7,103.4,5.5,39.8,52.2,68.4,134.9,82.7,36.4,6.2,77.8,9.4,122.3,9.4s101.3-3.8,155-11.2c102.7-14.4,197.5-40.8,267.2-74.4,75.3-36.7,112.3-77,106.8-116.8h0Z"/>
    <path class="cls-5" d="M967.6,214.4c-4.8-.2-9.8-.4-14.7-.4-110.2,0-206.7,58.3-260.6,145.6,46.9-.5,86-22.5,97.1-52.1,8.2.8,16.5,1.2,25,1.2,52.1,0,98.3-15.3,127.5-38.9,8,6.1,19.7,9.8,32.7,9.8s1,0,1.4-.1c4.7,22.9,26,86.4,114.8,84.2,0,0,54.1-1.3,79.2,108.1,0,0,56.3,22.5,72-51.7-39.7-115.4-146.7-199.6-274.4-205.7h0Z"/>
    <path class="cls-34" d="M901.9,385.3c0,14.1,13.1,25.5,29.2,25.5s29.2-11.4,29.2-25.5h0c0-14.1-13.1-25.5-29.2-25.5s-29.2,11.4-29.2,25.5q0,9.4,0,0Z"/>
    <path class="cls-5" d="M986.5,394.1c4.6,7.6,17.5,13.1,25.1,12.5s10-7.2,5.3-14.9c-3.5-5.8-10.3-10.7-17.6-15.3-4.6-7.6-17.5-13.1-25.1-12.5s-10,7.2-5.3,14.9c3.6,5.8,10.3,10.8,17.6,15.3Z"/>
  </g>
  <g id="path_planning" data-name="path planning" class="cls-50">
    <path class="cls-12" d="M760.3,671.3h-31.5c-14.9,0-27-12.1-27-27s12.1-27,27-27h31.5c34.7,0,63-24.8,63-54.9s-28.3-54.9-63-54.9h-36c-14.9,0-27-12.1-27-27s12.1-27,27-27h36c64.4,0,117,48.6,117,108.9s-52.2,108.9-117,108.9h0Z"/>
    <path class="cls-12" d="M1136.5,867.9h-431.1c-64.3,0-117-56.2-117-125.1s52.7-125.1,117-125.1h49c14.9,0,27,12.2,27,27s-12.1,27-27,27h-49c-34.7,0-63,31.9-63,71.1s28.3,71.1,63,71.1h431.1c14.8,0,27,12.1,27,27s-12.1,27-27,27h0Z"/>
    <path class="cls-45" d="M833.2,306.8c0,72.5-96.3,172.4-108.9,172.4s-108.9-98.1-108.9-172.4,48.6-108.9,108.9-108.9,108.9,49,108.9,108.9Z"/>
    <path class="cls-12" d="M724.3,506.6c-9.9,0-20.3-4.1-41-23.9-13-12.6-27-28.4-39.6-45-25.2-33.3-55.3-82.8-55.3-130.5,0-74.7,60.8-135.9,135.9-135.9s135.9,60.8,135.9,135.9-30.1,96.3-55.3,129.6c-19.4,25.7-56.3,69.8-80.6,69.8h0ZM724.3,224.9c-45,0-81.9,36.9-81.9,81.9s56.2,116.6,81.9,140c26.5-24.3,81.9-94,81.9-140s-36.4-81.9-81.9-81.9Z"/>
    <path class="cls-28" d="M687,302.3c0,20.7,16.7,37.3,37.4,37.3s37.3-16.6,37.3-37.3-16.7-37.4-37.3-37.4-37.4,16.7-37.4,37.4q0-.2,0,0Z"/>
    <path class="cls-12" d="M1136.5,867.5c-9.9,0-23.4-3.2-59.8-38.2-23.4-22.5-48.6-50.9-71.1-80.6-44.6-58.5-97.7-145.8-97.7-227.7,0-126,102.6-228.6,228.6-228.6s228.6,102.6,228.6,228.6-53.1,166.9-97.6,225.9c-22.5,29.7-47.7,59-71.1,81.5-36.5,35.9-50,39.1-59.9,39.1ZM1136.5,346.8c-96.3,0-174.6,78.3-174.6,174.6s134.1,259.2,174.2,288.9c40.5-30.1,174.6-180.5,174.6-288.9.4-96.3-77.9-174.6-174.2-174.6h0Z"/>
    <path class="cls-28" d="M1136.5,593.4c45.9,0,83.2-37.3,83.2-83.2s-37.3-83.2-83.2-83.2-83.2,37.4-83.2,83.3,37.3,83.1,83.2,83.1h0ZM1136.5,480.9c16.2,0,29.2,13,29.2,29.2s-13,29.2-29.2,29.2-29.2-13.1-29.2-29.2,13-29.2,29.2-29.2h0Z"/>
  </g>
  <g id="raspberrypi" class="cls-50">
    <g id="_图层_1-2" data-name=" 图层 1-2" focusable="false">
      <path class="cls-22" d="M1298,613.8c-2.2-36.9-19.5-71.3-47.8-95-4.4-15.7-12-30.5-22.1-43-3.4-34.7-20.3-66.5-47-88.8,4.4-3.8,8-8.2,11-13.3,27.9-11.6,48.6-35.7,55.8-65.1,15.7-14.5,25.3-34.7,26.9-56,.4-8.6-1.2-17.3-4.8-25.1,13.3-12.7,18.1-31.9,12.5-49.4-9.4-27.1-42-44.6-85.9-46.4-13.3-11.4-30.5-17.1-47.8-16.3-8.8,0-17.3,1.2-25.9,3.2-8-3.6-16.7-5.4-25.3-5.2-16.9,0-33.7,4.8-48.4,13.1-2-.2-4-.4-5.8-.4-20.3,2-39.4,10.4-54.6,23.9-10.8,8.8-20.5,18.7-28.7,29.9-8.4-11.2-17.9-21.1-28.7-29.9-15.1-13.5-34.3-21.9-54.6-23.9-2,0-4,0-5.8.4-14.9-8.4-31.7-13.1-48.6-13.1s-17.3,1.6-25.3,5.2c-8.4-2-17.1-3.2-25.9-3.2-17.5-.8-34.5,5.2-47.8,16.3-43.8,1.8-76.5,19.3-85.9,46.4-5.8,17.5-.8,36.7,12.5,49.4-3.6,8-5.2,16.5-4.8,25.3,1.6,21.3,11.4,41.4,26.9,56,7.2,29.3,27.9,53.4,55.8,64.9,2.8,5,6.6,9.6,11,13.3-26.7,22.3-43.6,54.2-47,88.8-10.4,12.7-17.7,27.3-22.1,43-28.5,23.7-45.6,58.2-47.8,95-5,36.5,5.8,73.1,29.5,101.2,4,20.1,12.4,39.2,24.3,55.8,2.6,31.5,15.5,61.4,36.7,84.9,21.1,24.3,49.4,41,80.9,48,18.7,17.5,40.6,31.1,64.7,40,57.6,53,146,53,203.6,0,23.9-9,46-22.5,64.7-40,31.5-7,59.8-23.7,80.9-48,21.1-23.5,34.1-53.4,36.7-84.9,12-16.7,20.3-35.7,24.3-55.8,23.7-28.1,34.5-64.7,29.5-101.2h.2Z"/>
      <path class="cls-13" d="M1042.1,171.5c1.8-.6,3.8.6,4.2,2.4v1.4c-1.2,10.4,5.2,9,6.6,7.2,11-16.1,29.7-25.1,49-23.5,2,0,3.2,1.8,3.2,3.8s-.4,1.2-.8,1.8c-6.2,9.2.4,10.8,3,9.2,25.1-15.7,49-15.7,58.2-9.2,1.6,1.2,1.8,3.4.6,4.8,0,0-.4.4-.4.6-9.4,8-4.2,11.8-.8,10.6,24.5-7.6,51-4.2,72.9,9.4,1.4,1.2,1.6,3.4.4,5,0,0-.2.2-.4.4-14.7,11.4-24.3,28.1-26.7,46.4-.6,6.2,9.4,4.8,13.7,3.8,1.8-.4,3.8.6,4.2,2.6v.8c.4,14.7-13.5,30.9-34.1,44.6-2.8,1.8-2.4,6.2,4,6.4,1.8,0,3.4,1.6,3.4,3.4s0,1.2-.4,1.8c-7.4,13.7-17.3,26.5-51.4,35.3-1.8.4-3,2.4-2.6,4.2.2,1,1,2,2,2.4,1.8.4,2.8,2.4,2.4,4.2,0,.8-.6,1.4-1.2,1.8-33.9,29.1-119.9,17.7-130.9-31.5-.2-1,0-2,.6-2.8,36.5-48.8,85.9-86.3,142.6-108.6,1.4-.4,2.2-2,1.6-3.4-.4-1.2-1.8-2-3-1.8-62.2,9-117.9,42.6-155,93.4-1,1.4-3,1.8-4.4,1-55.2-28.5-9.8-112.6,39-127.5l.4-.2v-.2h.1ZM718,304.8c-1-1.6-.4-3.8,1.2-4.6.6-.4,1.2-.4,1.8-.4,6.4,0,6.8-4.6,4-6.4-20.7-13.7-34.5-29.9-34.1-44.6,0-2,1.6-3.4,3.6-3.4h.8c4.2,1.2,14.3,2.4,13.7-3.8-2.2-18.3-12-35.1-26.7-46.4-1.4-1.2-1.6-3.6-.2-5l.4-.4c21.9-13.3,48.4-16.9,72.9-9.4,3.4,1.2,8.6-2.8-.8-10.6-1.4-1.2-1.6-3.4-.4-5,0,0,.4-.4.6-.6,9.2-6.6,33.1-6.6,58.2,9.2,2.4,1.6,9,0,3-9.2-1.2-1.6-1-3.6.6-4.8.6-.4,1.2-.6,1.8-.8,19.3-1.6,38,7.4,49,23.5,1.4,1.8,7.8,3.2,6.6-7.2,0-2,1.2-3.6,3.2-3.8h1.4c48.8,14.9,94.2,99,39,127.5-1.6.8-3.4.4-4.4-1-37.1-50.6-92.8-84.3-155-93.4-1.4-.2-2.8.6-3.2,2.2-.2,1.4.6,2.6,1.8,3,56.8,22.1,106.2,59.8,142.6,108.6.6.8.8,1.8.6,2.8-11,49-97,60.6-130.9,31.5-1.4-1-1.8-3.2-.8-4.6.4-.6,1-1,1.8-1.2,1.8-.8,2.6-2.8,1.8-4.6-.4-1-1.2-1.8-2.4-2-34.1-8.8-44-21.7-51.4-35.3h-.2v.2h.1Z"/>
      <path class="cls-38" d="M1177.3,454.8c14.1,37.6,3.2,55.8-30.5,36.5-27.1-14.9-51-35.1-70.5-59-25.3-30.1-8.8-43.4,30.9-36.3,30.9,8.2,56.6,29.7,69.9,58.6l.2.2h0ZM1026.9,412.4c48,39.8-7,68.1-66.7,68.1s-114.7-28.3-66.7-68.1c39-31.3,94.6-31.3,133.7,0h-.3,0ZM742.9,454.8c13.3-28.9,39-50.4,69.9-58.6,39.8-7.2,56.2,6.2,30.9,36.3-19.5,24.1-43.4,44-70.5,59-33.5,19.1-44.6,1-30.5-36.5l.2-.2h0ZM673.5,663.8c-11.2-30.1-8.2-63.5,8-91.4,17.7-30.1,35.7-28.9,42.6-3.4,9,35.3,5.8,72.5-9.2,105.6-13.1,26.1-29.5,17.3-41.4-10.8h0ZM801.2,859c-44.4-11.2-76.7-49.6-80.3-95.2,6.6-154.8,229.7,121.7,80.3,95.2ZM805.8,666.2c-37.5-21.5-47.4-74.5-22.1-118.1,25.3-43.6,75.9-61.6,113.3-39.8,37.5,21.5,47.4,74.5,22.1,118.1-25.3,43.6-75.9,61.6-113.3,39.8ZM1022.5,918.2c-37.3,26.9-87.6,26.9-124.9,0-37.1-25.5.2-55,62.4-55s99.4,29.5,62.4,55h.2-.1Z"/>
      <ellipse class="cls-38" cx="960" cy="749.8" rx="86.9" ry="74.5"/>
      <path class="cls-38" d="M1001,626.3c-25.3-43.6-15.3-96.6,22.1-118.1,37.5-21.5,88.2-3.8,113.3,39.8,25.3,43.6,15.3,96.6-22.1,118.1-37.5,21.5-88.2,3.8-113.3-39.8h0ZM1119,859c-149.4,26.3,73.7-250,80.3-95.2-3.6,45.6-35.9,84.1-80.3,95.2h0ZM1246.7,663.8c-11.8,28.1-28.3,36.9-41.4,10.8-14.9-33.1-18.1-70.3-9.2-105.6,7.2-25.5,24.9-26.7,42.6,3.4,16.1,27.7,19.1,61.2,8,91.4h0Z"/>
    </g>
  </g>
  <g id="rocket" class="cls-50">
    <path class="cls-18" d="M1347.7,554.6c0,121.3-56.4,229.4-144.3,299.6-19.3,15.4-40,28.9-62,40.4-52.9,27.5-113,43.1-176.7,43.1s-123.8-15.6-176.7-43.1c-37-19.3-70.4-44.4-99.1-74.1-66.4-68.9-107.3-162.6-107.3-265.8,0-211.6,171.5-383.1,383.1-383.1s383.1,171.5,383.1,383.1h0Z"/>
    <path class="cls-43" d="M1203.4,854.2c-19.3,15.4-40,28.9-62,40.4-52.9,27.5-113,43.1-176.7,43.1s-123.8-15.6-176.7-43.1c-37-19.3-70.4-44.4-99.1-74.1,26.8-24.1,66.2-26.7,95.7-7.7,7.6-16.7,24.5-28.4,44.1-28.4s22.4,4.2,30.8,11.1c5.8-32.7,34.3-57.6,68.7-57.6s5.6.2,8.3.5v-91.9h56.5v113.1c1.6-.2,3.3-.3,5-.3,21.9,0,40.5,14.6,46.4,34.7,16.7,2.2,32.9,9.7,45.8,22.5,1,1,2,2.1,3,3.2,11.6-13.3,28.6-21.8,47.6-21.8,32.6,0,59.4,24.7,62.7,56.4h0Z"/>
    <path class="cls-32" d="M1141.4,894.5c-52.9,27.5-113,43.1-176.7,43.1s-123.8-15.6-176.7-43.1c52.9-27.5,113-43.1,176.7-43.1s123.8,15.6,176.7,43.1Z"/>
    <g>
      <path class="cls-24" d="M1009.9,628.1h-90.5c-15.4,0-27.8-12.5-27.8-27.8v-28.6h146.2v28.6c0,15.4-12.5,27.8-27.8,27.8h-.1Z"/>
      <path class="cls-24" d="M1071.9,437.5s59.4,57.3,78.5,120.9c5.5,18.4-8.6,36.9-27.8,36.9h-70.8"/>
      <path class="cls-24" d="M857.3,437.5s-59,56.9-78.3,120.2c-5.7,18.7,8.1,37.6,27.6,37.6h70.8"/>
    </g>
    <path class="cls-44" d="M998.5,323.7c-18.9-18.3-48.9-18.3-67.8,0-37.7,36.5-93.4,110.9-93.4,231.7s0,.3,0,.5c0,21.9,18.2,39.4,40.1,39.4h174.4c21.9,0,40-17.5,40.1-39.4v-.5c0-120.9-55.7-195.3-93.4-231.7h0Z"/>
    <path class="cls-40" d="M964.6,309.9c-5.4,0-10.8,4.6-15,13.7-16.7,36.5-41.4,110.9-41.4,231.7v.4c0,21.9,8.1,39.4,17.8,39.4h-48.6c-21.9,0-40-17.5-40.1-39.4v-.4c0-120.9,55.7-195.2,93.4-231.7,9.5-9.1,21.7-13.7,33.9-13.7h0Z"/>
    <circle class="cls-1" cx="964.6" cy="482.3" r="61.5"/>
    <path class="cls-3" d="M964.6,554.6c-39.9,0-72.3-32.4-72.3-72.3s32.4-72.3,72.3-72.3,72.3,32.4,72.3,72.3-32.4,72.3-72.3,72.3h0ZM964.6,431.6c-27.9,0-50.7,22.7-50.7,50.7s22.7,50.7,50.7,50.7,50.7-22.7,50.7-50.7-22.7-50.7-50.7-50.7h0Z"/>
    <g>
      <path class="cls-43" d="M704.8,630.8l72.1-8-72.1-8-8-72.1-8,72.1-72.1,8,72.1,8,8,72.1,8-72.1Z"/>
      <path class="cls-43" d="M1207.2,394.9l72.1-8-72.1-8-8-72.1-8,72.1-72.1,8,72.1,8,8,72.1,8-72.1Z"/>
      <rect class="cls-43" x="753.2" y="676.9" width="15.5" height="15.5" transform="translate(-261.2 738.6) rotate(-45)"/>
      <rect class="cls-43" x="777.5" y="302.5" width="15.5" height="15.5" transform="translate(10.6 646.1) rotate(-45)"/>
      <rect class="cls-43" x="1053.3" y="240.6" width="15.5" height="15.5" transform="translate(135.2 823) rotate(-45)"/>
      <rect class="cls-43" x="1159.7" y="723.2" width="15.5" height="15.5" transform="translate(-174.9 1039.6) rotate(-45)"/>
      <rect class="cls-43" x="1246" y="599.4" width="15.5" height="15.5" transform="translate(-62.1 1064.4) rotate(-45)"/>
    </g>
  </g>
  <path id="github" class="cls-29" d="M959.8,161.2c-214.6,0-388.4,173.8-388.4,388.4s111.3,317.2,265.6,368.6c19.5,3.5,26.6-8.3,26.6-18.7s-.4-33.6-.5-66c-108.1,23.4-130.9-52.1-130.9-52.1-17.7-44.9-43.1-56.9-43.1-56.9-35.3-24,2.7-23.5,2.7-23.5,38.9,2.8,59.4,40,59.4,40,34.6,59.4,90.9,42.2,113,32.4,3.5-25.2,13.7-42.2,24.7-52-86.2-9.7-176.9-43.1-176.9-191.9s15.2-77.1,40-104.3c-3.9-9.7-17.3-49.3,3.8-102.8,0,0,32.6-10.4,106.8,39.8,31-8.6,64.2-12.9,97.2-13,33,.1,66.3,4.4,97.2,13,74.2-50.2,106.7-39.8,106.7-39.8,21.2,53.5,8,93.1,3.9,102.8,24.9,27.2,39.8,61.8,39.8,104.3,0,149.2-90.8,181.9-177.3,191.7,13.9,11.9,26.3,35.7,26.3,71.8,0,52-.4,93.8-.4,106.6s7,22.5,26.7,18.7c154.3-51.5,265.4-197,265.4-368.6s-173.8-388.4-388.4-388.4Z"/>
</svg>