<?xml version="1.0" encoding="utf-8"?>
<!-- Generator: Adobe Illustrator 27.7.0, SVG Export Plug-In . SVG Version: 6.00 Build 0)  -->
<svg version="1.1" id="logo" xmlns:serif="http://www.serif.com/"
	 xmlns="http://www.w3.org/2000/svg" xmlns:xlink="http://www.w3.org/1999/xlink" x="0px" y="0px" viewBox="0 0 1920 1080"
	 style="enable-background:new 0 0 1920 1080;" xml:space="preserve">
<style type="text/css">
	.st0{fill-rule:evenodd;clip-rule:evenodd;fill:#F4F3F3;}
	.st1{fill:#FFFFFF;}
	.st2{fill:#020204;}
	.st3{fill:#D99A03;}
	.st4{fill:#604405;}
	.st5{fill:#F5BD0C;}
	.st6{fill:#CD8907;}
	.st7{display:none;fill:#F05032;}
	.st8{display:none;}
	.st9{display:inline;fill:#8BD4FA;}
	.st10{display:inline;fill:#66C6F8;}
	.st11{display:inline;fill:#0F95BC;}
	.st12{display:inline;fill:#474341;}
	.st13{display:inline;fill:#5BC1ED;}
	.st14{display:inline;fill:#DFDEDE;}
	.st15{display:inline;fill:#AEABAA;}
</style>
<rect id="背景" x="414.7" y="-7.9" class="st0" width="1089.8" height="1095.9"/>
<g id="linux">
	<path class="st1" d="M967.6,293.6c-6.2,4.2-11.4,10.4-14.6,17.7c-3.1,9.4-2.1,19.8,1,29.1c3.1,9.4,9.4,17.7,16.6,23.9
		c4.2,3.1,8.3,5.2,13.5,5.2c5.2,1,10.4,0,14.6-2.1c5.2-3.1,9.4-7.3,12.5-13.5c2.1-5.2,4.2-11.4,4.2-17.7c1-7.3,0-15.6-3.1-22.9
		c-3.1-8.3-8.3-14.6-14.6-19.8c-3.1-2.1-7.3-4.2-11.4-4.2s-8.3,0-12.5,1C971.8,291.5,969.7,292.5,967.6,293.6"/>
	<path class="st2" d="M1185,604.5c-4.2-21.8-10.4-42.6-17.7-62.4c-5.2-15.6-13.5-29.1-22.9-42.6c-9.4-12.5-21.8-22.9-30.2-35.4
		c-5.2-6.2-9.4-13.5-14.6-20.8c-2.1-4.2-4.2-8.3-6.2-12.5c-6.2-13.5-11.4-27-18.7-39.5c-1-2.1-2.1-4.2-3.1-6.2
		c-1-12.5-2.1-23.9-3.1-36.4c1-25-1-48.9-6.2-72.8c-3.1-11.4-8.3-22.9-14.6-32.2c-7.3-12.5-16.6-22.9-28.1-31.2
		c-18.7-13.5-40.6-19.8-62.4-19.8c-16.6,0-33.3,3.1-47.8,11.4c-15.6,8.3-28.1,21.8-35.4,37.4c-7.3,15.6-11.4,33.3-11.4,51
		c-1,17.7,1,34.3,2.1,52c1,17.7,0,35.4,2.1,53c0,5.2,1,11.4,1,17.7c0,3.1,0,6.2,0,8.3v1c-7.3,13.5-16.6,26-26,38.5
		c-6.2,8.3-13.5,16.6-19.8,25c-8.3,9.4-15.6,20.8-21.8,32.2c-4.2,10.4-7.3,20.8-9.4,31.2v1c-4.2,12.5-8.3,23.9-13.5,35.4
		c-1,1-1,2.1-1,3.1c-3.1,7.3-6.2,13.5-10.4,19.8l-6.2,4.2c-2.1,4.2-5.2,9.4-7.3,14.6c-1,3.1-2.1,6.2-2.1,9.4c-1,6.2-1,13.5,1,19.8
		c0,2.1,1,3.1,1,5.2c2.1,5.2,4.2,9.4,6.2,13.5c1,2.1,2.1,4.2,3.1,6.2l1,1c1,2.1,2.1,4.2,3.1,5.2l0,0c1,2.1,3.1,4.2,4.2,6.2l0,0
		c1,2.1,3.1,4.2,4.2,6.2c5.2,21.8,15.6,42.6,30.2,60.3c-2.1,4.2-4.2,7.3-6.2,11.4c-7.3,11.4-14.6,22.9-18.7,36.4
		c-2.1,6.2-2.1,13.5-1,19.8c1,7.3,4.2,13.5,10.4,17.7c3.1,3.1,7.3,4.2,12.5,5.2c4.2,1,8.3,1,13.5,1c16.6-1,33.3-4.2,49.9-9.4
		c9.4-2.1,19.8-5.2,29.1-7.3c10.4-2.1,20.8-4.2,31.2-4.2c2.1,0,5.2,0,7.3,0c7.3,1,14.6,1,21.8,1h3.1c2.1,0,4.2,0,5.2,0
		c12.5,1,25,2.1,37.4,4.2c11.4,2.1,21.8,4.2,32.2,6.2c16.6,5.2,34.3,8.3,51,9.4c4.2,0,9.4,0,13.5-1c4.2-1,8.3-3.1,12.5-5.2
		c5.2-4.2,8.3-10.4,10.4-17.7c1-7.3,1-13.5-1-19.8c-5.2-12.5-11.4-25-19.8-36.4c-3.1-4.2-5.2-9.4-8.3-14.6
		c11.4-13.5,21.8-28.1,31.2-42.6c5.2,0,10.4,0,15.6-2.1c13.5-4.2,25-13.5,33.3-25c2.1-3.1,4.2-7.3,5.2-11.4
		c5.2-8.3,8.3-17.7,10.4-27C1189.1,636.8,1188.1,620.1,1185,604.5L1185,604.5z"/>
	<path class="st1" d="M891.7,389.2c-2.1,3.1-4.2,6.2-5.2,10.4c-1,4.2-1,7.3-1,11.4c0,7.3,0,15.6-2.1,22.9
		c-3.1,8.3-6.2,15.6-11.4,21.8c-9.4,11.4-15.6,23.9-20.8,37.4c-2.1,8.3-3.1,16.6-2.1,26c-9.4,13.5-17.7,28.1-23.9,43.7
		c-10.4,22.9-16.6,46.8-19.8,71.8c-3.1,30.2,1,61.4,12.5,89.4c8.3,20.8,21.8,38.5,38.5,53c8.3,7.3,17.7,13.5,28.1,18.7
		c35.4,17.7,77,16.6,112.3-1c17.7-10.4,33.3-22.9,47.8-37.4c9.4-8.3,16.6-17.7,23.9-27c11.4-20.8,18.7-43.7,19.8-67.6
		c7.3-40.6,3.1-83.2-12.5-121.7c-6.2-12.5-14.6-25-23.9-34.3c-3.1-17.7-8.3-35.4-15.6-52c-5.2-11.4-12.5-22.9-17.7-35.4
		c-2.1-5.2-4.2-10.4-6.2-14.6c-2.1-5.2-5.2-9.4-9.4-13.5c-4.2-4.2-8.3-6.2-14.6-8.3c-5.2-2.1-10.4-2.1-16.6-3.1
		c-11.4-1-21.8,1-33.3,0c-8.3,0-17.7-2.1-26-1c-4.2,0-8.3,1-12.5,3.1C897.9,383,894.8,386.1,891.7,389.2 M895.9,293.6
		c-4.2,0-8.3,2.1-11.4,5.2c-3.1,3.1-5.2,6.2-6.2,10.4c-2.1,8.3-2.1,16.6-1,23.9c0,7.3,1,14.6,4.2,21.8c1,3.1,3.1,6.2,6.2,9.4
		c3.1,3.1,6.2,4.2,9.4,5.2c3.1,1,7.3,1,10.4,0s6.2-3.1,8.3-5.2c3.1-4.2,6.2-8.3,7.3-13.5c1-5.2,2.1-10.4,2.1-15.6
		c0-6.2-1-12.5-3.1-18.7c-2.1-6.2-5.2-11.4-9.4-16.6c-2.1-2.1-4.2-4.2-7.3-5.2C901.1,294.6,899,293.6,895.9,293.6 M967.6,293.6
		c-6.2,4.2-11.4,10.4-14.6,17.7c-3.1,9.4-2.1,19.8,1,29.1c3.1,9.4,9.4,17.7,16.6,23.9c4.2,3.1,8.3,5.2,13.5,5.2
		c5.2,1,10.4,0,14.6-2.1c5.2-3.1,9.4-7.3,12.5-13.5c2.1-5.2,4.2-11.4,4.2-17.7c1-7.3,0-15.6-3.1-22.9c-3.1-8.3-8.3-14.6-14.6-19.8
		c-3.1-2.1-7.3-4.2-11.4-4.2s-8.3,0-12.5,1C971.8,291.5,969.7,292.5,967.6,293.6"/>
	<path class="st2" d="M982.2,313.3c-2.1,0-5.2,1-7.3,2.1c-2.1,1-4.2,3.1-5.2,5.2c-2.1,4.2-4.2,8.3-4.2,13.5c0,3.1,0,7.3,1,10.4
		s3.1,6.2,6.2,8.3c3.1,2.1,6.2,4.2,10.4,4.2c4.2,0,7.3-1,10.4-3.1c2.1-2.1,4.2-4.2,6.2-6.2c1-2.1,2.1-5.2,2.1-8.3
		c1-5.2,0-10.4-2.1-15.6c-2.1-5.2-6.2-8.3-11.4-10.4C987.4,313.3,985.3,313.3,982.2,313.3"/>
	<path class="st1" d="M895.9,293.6c-4.2,0-8.3,2.1-11.4,5.2c-3.1,3.1-5.2,6.2-6.2,10.4c-2.1,8.3-2.1,16.6-1,23.9
		c0,7.3,1,14.6,4.2,21.8c1,3.1,3.1,6.2,6.2,9.4c3.1,3.1,6.2,4.2,9.4,5.2c3.1,1,7.3,1,10.4,0s6.2-3.1,8.3-5.2
		c3.1-4.2,6.2-8.3,7.3-13.5c1-5.2,2.1-10.4,2.1-15.6c0-6.2-1-12.5-3.1-18.7c-2.1-6.2-5.2-11.4-9.4-16.6c-2.1-2.1-4.2-4.2-7.3-5.2
		C901.1,294.6,899,293.6,895.9,293.6"/>
	<path class="st2" d="M885.5,327.9c-1,5.2-1,10.4,1,15.6c1,3.1,3.1,6.2,5.2,8.3c1,2.1,3.1,3.1,5.2,4.2s4.2,1,6.2,1
		c2.1-1,4.2-2.1,5.2-3.1c1-2.1,2.1-3.1,3.1-5.2c2.1-6.2,2.1-12.5,0-18.7c-1-4.2-3.1-8.3-7.3-11.4c-2.1-1-3.1-2.1-5.2-3.1
		c-2.1-1-4.2,0-6.2,1s-4.2,3.1-5.2,5.2S885.5,325.8,885.5,327.9"/>
	<path class="st3" d="M876.1,392.4c0,1,0,1,1,2.1c1,1,1,2.1,2.1,2.1c1,1,2.1,1,3.1,2.1c5.2,3.1,10.4,8.3,13.5,13.5
		c4.2,7.3,10.4,13.5,16.6,18.7c5.2,3.1,10.4,5.2,16.6,6.2c7.3,1,14.6,0,20.8-2.1c6.2-2.1,12.5-4.2,17.7-8.3
		c9.4-7.3,19.8-14.6,31.2-20.8c2.1-1,5.2-2.1,7.3-3.1c2.1-1,4.2-3.1,6.2-5.2c1-2.1,1-5.2,1-7.3c0-3.1,1-5.2,2.1-8.3s0-5.2-1-8.3
		c-1-2.1-3.1-4.2-5.2-5.2s-4.2-2.1-6.2-2.1c-4.2,0-9.4,1-13.5,1c-6.2,1-12.5,0-18.7,0c-7.3,0-15.6,2.1-22.9,2.1c-8.3,0-17.7-1-26-1
		c-4.2,0-7.3,0-11.4,1c-4.2,1-7.3,2.1-10.4,4.2c-3.1,2.1-5.2,5.2-8.3,7.3c-1,1-3.1,2.1-4.2,3.1c-2.1,1-3.1,1-5.2,1c-1,0-2.1,0-3.1,0
		c-1,0-1,1-1,1l-1,1C877.1,389.2,877.1,390.3,876.1,392.4"/>
	<path class="st4" d="M894.8,372.6c-3.1,2.1-6.2,4.2-9.4,6.2c-2.1,1-3.1,2.1-4.2,4.2c-1,1-1,2.1-1,4.2c0,1,0,2.1,0,4.2
		c0,1,0,2.1,0,3.1v1c0,0,0,1,1,1l1,1c1,0,1,0,2.1,0c3.1,1,5.2,2.1,7.3,4.2c2.1,2.1,4.2,4.2,6.2,5.2c6.2,4.2,13.5,7.3,20.8,7.3
		s14.6-1,21.8-3.1c5.2-1,11.4-3.1,16.6-4.2c8.3-3.1,16.6-8.3,22.9-13.5c3.1-3.1,6.2-5.2,9.4-8.3c3.1-2.1,6.2-3.1,9.4-5.2
		c0,0,1,0,1-1c0,0,0,0,1-1c0-1,0-1,0-2.1s0-1-1-1l-1-1c-3.1-2.1-7.3-4.2-12.5-4.2c-4.2,0-8.3,0-12.5-1c-4.2-1-8.3-2.1-11.4-3.1
		c-4.2-1-8.3-2.1-12.5-3.1c-10.4-2.1-19.8-1-30.2,1C912.5,364.3,903.1,368.4,894.8,372.6"/>
	<path class="st5" d="M893.8,362.2c-4.2,3.1-8.3,6.2-11.4,10.4c-2.1,2.1-3.1,5.2-4.2,8.3c-1,2.1-1,4.2-1,7.3c0,1,0,2.1,0,3.1v1
		c0,0,0,1,1,1c1,1,1,1,2.1,1s1,0,2.1,0c3.1,1,6.2,2.1,9.4,4.2c3.1,2.1,5.2,4.2,8.3,6.2c6.2,4.2,13.5,6.2,20.8,6.2s14.6-1,21.8-2.1
		c6.2-1,11.4-3.1,16.6-5.2c8.3-3.1,15.6-8.3,22.9-13.5c3.1-2.1,6.2-5.2,9.4-8.3c1-1,2.1-2.1,3.1-3.1c1-1,2.1-2.1,3.1-2.1
		c2.1-1,4.2-1,6.2,0c1,0,3.1,1,5.2,1c1,0,2.1,0,2.1,0c1,0,1-1,2.1-1c1-1,1-2.1,1-3.1s0-2.1-1-3.1c-1-2.1-3.1-3.1-5.2-4.2
		c-3.1-1-5.2-2.1-8.3-2.1c-8.3-2.1-16.6-5.2-25-9.4c-4.2-2.1-7.3-4.2-11.4-6.2s-8.3-4.2-12.5-5.2c-9.4-3.1-19.8-2.1-30.2,1
		C910.4,347.6,901.1,353.9,893.8,362.2"/>
	<path class="st6" d="M943.7,349.7c1,2.1,3.1,1,5.2,2.1c2.1,1,2.1,2.1,4.2,2.1c2.1,0,4.2-1,4.2-2.1c0-2.1-2.1-3.1-4.2-4.2
		c-2.1-1-5.2-1-7.3,0C943.7,348.7,943.7,349.7,943.7,349.7z M917.7,349.7c-2.1-1-5.2,3.1-4.2,5.2c0,1,1,1,2.1,1s2.1-2.1,3.1-3.1
		C918.7,350.8,918.7,349.7,917.7,349.7z"/>
	<path class="st5" d="M1244.3,775.1c-1,4.2-4.2,7.3-6.2,10.4c-6.2,7.3-14.6,12.5-22.9,16.6c-14.6,6.2-28.1,14.6-42.6,21.8
		c-9.4,6.2-17.7,12.5-25,19.8c-6.2,6.2-13.5,12.5-19.8,18.7c-7.3,5.2-15.6,9.4-25,10.4c-11.4,1-22.9,0-33.3-5.2
		c-7.3-3.1-13.5-7.3-18.7-14.6c-4.2-7.3-5.2-14.6-5.2-22.9c0-13.5,2.1-28.1,5.2-41.6c2.1-11.4,4.2-22.9,5.2-34.3
		c2.1-20.8,2.1-42.6,1-63.4c0-3.1,0-7.3,0-10.4c0-7.3,6.2-12.5,13.5-12.5c3.1,0,6.2,0,9.4,1c7.3,1,15.6,2.1,22.9,4.2
		c4.2,1,9.4,3.1,13.5,4.2c7.3,2.1,15.6,3.1,23.9,2.1c8.3-2.1,16.6-3.1,26-4.2c3.1,0,7.3,1,10.4,2.1s7.3,3.1,9.4,5.2s3.1,4.2,4.2,7.3
		c1,4.2,2.1,8.3,3.1,12.5c0,4.2,0,7.3,1,11.4c1,6.2,4.2,11.4,8.3,15.6c4.2,4.2,8.3,8.3,13.5,12.5c4.2,4.2,9.4,7.3,14.6,11.4
		c2.1,2.1,5.2,3.1,7.3,5.2s4.2,4.2,5.2,6.2C1244.3,766.8,1245.3,770.9,1244.3,775.1"/>
	<path class="st5" d="M1244.3,775.1c-1,4.2-4.2,7.3-6.2,10.4c-6.2,7.3-14.6,12.5-22.9,16.6c-14.6,6.2-28.1,14.6-42.6,21.8
		c-9.4,6.2-17.7,12.5-25,19.8c-6.2,6.2-13.5,12.5-19.8,18.7c-7.3,5.2-15.6,9.4-25,10.4c-11.4,1-22.9,0-33.3-5.2
		c-7.3-3.1-13.5-7.3-18.7-14.6c-4.2-7.3-5.2-14.6-5.2-22.9c0-13.5,2.1-28.1,5.2-41.6c2.1-11.4,4.2-22.9,5.2-34.3
		c2.1-20.8,2.1-42.6,1-63.4c0-3.1,0-7.3,0-10.4c0-7.3,6.2-12.5,13.5-12.5c3.1,0,6.2,0,9.4,1c7.3,1,15.6,2.1,22.9,4.2
		c4.2,1,9.4,3.1,13.5,4.2c7.3,2.1,15.6,3.1,23.9,2.1c8.3-2.1,16.6-3.1,26-4.2c3.1,0,7.3,1,10.4,2.1s7.3,3.1,9.4,5.2s3.1,4.2,4.2,7.3
		c1,4.2,2.1,8.3,3.1,12.5c0,4.2,0,7.3,1,11.4c1,6.2,4.2,11.4,8.3,15.6c4.2,4.2,8.3,8.3,13.5,12.5c4.2,4.2,9.4,7.3,14.6,11.4
		c2.1,2.1,5.2,3.1,7.3,5.2s4.2,4.2,5.2,6.2C1244.3,766.8,1245.3,770.9,1244.3,775.1 M765.9,657.6c4.2-1,7.3-2.1,11.4-1
		c4.2,1,7.3,2.1,11.4,4.2c6.2,5.2,11.4,10.4,16.6,17.7c10.4,14.6,20.8,30.2,30.2,45.8c7.3,12.5,14.6,26,22.9,37.4
		c5.2,7.3,12.5,14.6,17.7,22.9c6.2,7.3,10.4,16.6,13.5,26c3.1,12.5,2.1,25-4.2,36.4c-4.2,8.3-10.4,14.6-17.7,18.7s-16.6,7.3-25,6.2
		c-13.5-2.1-28.1-6.2-40.6-12.5c-27-10.4-55.1-13.5-83.2-21.8c-8.3-2.1-16.6-5.2-25-8.3c-4.2-1-7.3-2.1-11.4-3.1
		c-3.1-1-6.2-4.2-8.3-7.3c-1-3.1-2.1-5.2-2.1-8.3c0-3.1,1-6.2,2.1-8.3c2.1-5.2,5.2-10.4,7.3-16.6c3.1-9.4,4.2-19.8,4.2-29.1
		c0-9.4-2.1-19.8-3.1-29.1c0-4.2,0-8.3,0-13.5c1-8.3,8.3-15.6,16.6-16.6c4.2-1,8.3-1,12.5-1s8.3,0,12.5,0c4.2,0,8.3-1,11.4-3.1
		c3.1-2.1,6.2-5.2,8.3-8.3c2.1-3.1,4.2-6.2,6.2-10.4s4.2-6.2,6.2-9.4C758.6,661.7,761.7,659.6,765.9,657.6"/>
	<path class="st5" d="M765.9,657.6c4.2-1,7.3-2.1,11.4-1c4.2,1,7.3,2.1,11.4,4.2c6.2,5.2,11.4,10.4,16.6,17.7
		c10.4,14.6,20.8,30.2,30.2,45.8c7.3,12.5,14.6,26,22.9,37.4c5.2,7.3,12.5,14.6,17.7,22.9c6.2,7.3,10.4,16.6,13.5,26
		c3.1,12.5,2.1,25-4.2,36.4c-4.2,8.3-10.4,14.6-17.7,18.7s-16.6,7.3-25,6.2c-13.5-2.1-28.1-6.2-40.6-12.5
		c-27-10.4-55.1-13.5-83.2-21.8c-8.3-2.1-16.6-5.2-25-8.3c-4.2-1-7.3-2.1-11.4-3.1c-3.1-1-6.2-4.2-8.3-7.3c-1-3.1-2.1-5.2-2.1-8.3
		c0-3.1,1-6.2,2.1-8.3c2.1-5.2,5.2-10.4,7.3-16.6c3.1-9.4,4.2-19.8,4.2-29.1c0-9.4-2.1-19.8-3.1-29.1c0-4.2,0-8.3,0-13.5
		c1-8.3,8.3-15.6,16.6-16.6c4.2-1,8.3-1,12.5-1s8.3,0,12.5,0c4.2,0,8.3-1,11.4-3.1c3.1-2.1,6.2-5.2,8.3-8.3
		c2.1-3.1,4.2-6.2,6.2-10.4s4.2-6.2,6.2-9.4C758.6,661.7,761.7,659.6,765.9,657.6"/>
	<path class="st5" d="M771.1,664.8c3.1-1,7.3-1,10.4-1c3.1,0,7.3,2.1,9.4,5.2c5.2,5.2,10.4,10.4,13.5,16.6
		c9.4,14.6,17.7,30.2,26,44.7c6.2,11.4,12.5,22.9,19.8,33.3c5.2,7.3,11.4,13.5,16.6,19.8c5.2,7.3,9.4,14.6,12.5,22.9
		c3.1,10.4,2.1,22.9-3.1,32.2c-4.2,7.3-9.4,13.5-16.6,17.7c-7.3,4.2-15.6,6.2-22.9,5.2c-12.5-2.1-25-6.2-36.4-11.4
		c-22.9-8.3-48.9-9.4-71.8-16.6c-8.3-2.1-16.6-5.2-25-7.3c-4.2-1-7.3-2.1-11.4-3.1c-4.2-1-7.3-4.2-9.4-7.3c-1-2.1-2.1-5.2-2.1-8.3
		s1-6.2,2.1-8.3c2.1-5.2,5.2-10.4,7.3-15.6c3.1-8.3,4.2-17.7,3.1-26c-1-8.3-2.1-17.7-3.1-26c0-4.2,0-8.3,1-11.4
		c1-4.2,2.1-7.3,5.2-10.4c3.1-3.1,7.3-5.2,11.4-5.2s8.3-1,12.5,0c4.2,1,8.3,1,12.5,1c8.3,0,15.6-5.2,19.8-12.5
		c2.1-3.1,3.1-7.3,4.2-10.4c1-4.2,3.1-7.3,5.2-10.4C763.8,668,766.9,665.9,771.1,664.8"/>
</g>
<path class="st7" d="M1266.4,487.5L987,208.1c-16.1-16.1-42.2-16.1-58.3,0l-57.9,58l73.6,73.6c25.6-8.7,53.5,5.1,62.2,30.7
	c3.5,10.3,3.5,21.5-0.1,31.7l70.9,70.9c25.6-8.8,53.4,4.9,62.2,30.4c8.8,25.6-4.9,53.4-30.4,62.2s-53.4-4.9-62.2-30.4
	c-3.8-11.2-3.5-23.4,1-34.4l-66.4-66v174c24.3,12,34.2,41.5,22.2,65.8s-41.5,34.2-65.8,22.2c-4.8-2.4-9.2-5.5-13-9.4
	c-19.1-19.1-19.2-50-0.1-69.2l0.1-0.1c4.6-4.6,10.1-8.3,16.1-10.8V431.6c-25.1-10.4-37-39.1-26.6-64.2c0,0,0-0.1,0.1-0.1l-72.3-72.7
	L650.5,486.2c-16,16.2-16,42.2,0,58.4L930,823.9c16.1,16.1,42.2,16.1,58.3,0l0,0l278.1-278.1c16.1-16.1,16.1-42.1,0.1-58.2
	C1266.4,487.5,1266.4,487.5,1266.4,487.5L1266.4,487.5z"/>
<g id="ssh" class="st8">
	<path class="st9" d="M958.5,916c-220,0-400-180-400-400s180-400,400-400s400,180,400,400S1178.5,916,958.5,916z"/>
	<path class="st10" d="M1358.5,516c0-27.8-2.9-54.9-8.3-81.1L1125.6,318l-160.4-64.2c0,0-21.4-13.6-62.2,72.7
		c-33.7,71.2-49.8,110-49.8,110s-8.4,16.2,3.2,32.9c11.6,16.6,41.8,27.3,41.8,27.3s-8.8,9.8-8,20.6c0.8,10.7,36.1,21.4,36.1,21.4
		l-19.5,48.6l-16.2,30.6l8.4,16.6l-16.1,6.7l1.6,22.6l-16.1,6.8l3.2,20.2l-16.9,9.1l6.4,17l-24.9,15l16.9,52.2l90.2,131.7
		c5,0.2,10,0.4,15.1,0.4C1178.5,916,1358.5,736,1358.5,516z"/>
	<path class="st11" d="M1163.7,344L977,259.3c-19.1-8.7-41.8-0.1-50.4,18.9l-71.4,157.2c-8.7,19.1-0.1,41.8,18.9,50.4l186.7,84.8
		c19.1,8.7,41.8,0.1,50.4-18.9l71.3-157.2C1191.3,375.4,1182.8,352.7,1163.7,344 M1097.1,374.1c-4.3,9.5-15.7,13.8-25.2,9.5
		l-64.1-29.1c-9.5-4.3-13.8-15.7-9.5-25.2s15.7-13.8,25.2-9.5l64.1,29.1C1097.2,353.2,1101.4,364.5,1097.1,374.1"/>
	<path class="st12" d="M1076.6,579.3c-6,0-12.1-1.2-17.9-3.9L872,490.7c-10.5-4.8-18.6-13.4-22.7-24.3c-4.1-10.9-3.7-22.7,1.1-33.2
		L921.7,276c9.9-21.8,35.7-31.5,57.6-21.6l186.7,84.8c21.8,9.9,31.5,35.7,21.6,57.6L1116.2,554
		C1109,569.9,1093.1,579.3,1076.6,579.3 M961.4,261.3c-3.9,0-7.8,0.7-11.6,2.1c-8.2,3.1-14.7,9.1-18.3,17l-71.4,157.2
		c-7.5,16.4-0.2,35.8,16.2,43.3l186.7,84.8c16.4,7.5,35.8,0.2,43.3-16.2l71.4-157.2c7.4-16.4,0.2-35.8-16.2-43.3l-186.7-84.8
		C970.6,262.3,966,261.3,961.4,261.3 M1079.7,390.6c-3.4,0-6.8-0.7-10-2.2l-64.1-29.1c-12.3-5.6-17.7-20.1-12.2-32.4
		c5.6-12.3,20.1-17.7,32.3-12.1l64.1,29.1c12.3,5.6,17.7,20.1,12.2,32.4c-2.7,5.9-7.5,10.5-13.7,12.8
		C1085.6,390.1,1082.7,390.6,1079.7,390.6 M1015.7,323.4c-1.7,0-3.3,0.3-4.8,0.9c-3.4,1.3-6.1,3.8-7.6,7.1
		c-3.1,6.9-0.1,14.9,6.8,18.1l64.1,29.1c3.3,1.5,7,1.6,10.4,0.3c3.4-1.3,6.1-3.8,7.6-7.1c3.1-6.9,0.1-14.9-6.8-18.1l-64.1-29.1
		C1019.5,323.8,1017.6,323.4,1015.7,323.4"/>
	<path class="st13" d="M1044.9,528.8c18.5,8.4,40.4,0.1,48.8-18.3l17.5-38.6c8.4-18.5,0.1-40.4-18.3-48.8l-128.4-58.3
		c-9.2-4.2-15.6-4.5-19.5-3.7s-16.1-6.1-35.7,35.1l-11,24.3c-8.7,19.1-0.1,41.8,18.9,50.4l84.9,38.6L1044.9,528.8L1044.9,528.8z"/>
	<path class="st14" d="M1024.5,553.5l-114.4-51.9c-6.7-3-14.6,0-17.6,6.6c-3,6.7,0,14.6,6.6,17.6L926,538l-37,81.6l12.2,14.1
		l-22,6.8l9.4,21l-22,6.8l9.4,21l-22,6.7l9.4,21l-18.6,0.1l-5.3,11.7l13,51.9l47.6-24.4l86.6-190.7l26.9,12.2c6.7,3,14.6,0,17.6-6.6
		C1034.2,564.5,1031.2,556.5,1024.5,553.5"/>
	<path class="st12" d="M852.4,786c-2.5,0-4.6-1.7-5.2-4.1l-13-51.9c-0.3-1.2-0.2-2.4,0.3-3.5l5.3-11.6c0.9-1.9,2.8-3.1,4.9-3.2
		l10.4-0.1l-6-13.4c-1.2-2.7,0-5.9,2.7-7.1c0.2-0.1,0.4-0.2,0.6-0.2l16.1-5l-6.9-15.4c-0.6-1.4-0.6-3,0-4.4s1.9-2.5,3.3-2.9l16.1-5
		l-6.9-15.4c-0.6-1.4-0.6-3,0-4.4s1.9-2.5,3.3-2.9l14.1-4.3l-6.8-7.9c-1.4-1.6-1.7-3.8-0.8-5.8l34.8-76.7l-22-10
		c-4.5-2-8.1-5.8-9.8-10.5c-1.8-4.6-1.6-9.8,0.5-14.3s5.8-8,10.5-9.8s9.8-1.6,14.3,0.5l114.4,51.9l0,0c4.5,2.1,8,5.8,9.8,10.5
		s1.6,9.8-0.5,14.3s-5.8,8-10.5,9.8c-4.7,1.8-9.8,1.6-14.3-0.5l-22-10L905,758.5c-0.5,1.1-1.4,2-2.5,2.6l-47.6,24.4
		C854.1,785.8,853.3,786,852.4,786 M845.1,729.2l10.9,43.5l39.9-20.4l85.8-189c1.2-2.7,4.4-3.9,7.1-2.7l26.9,12.2
		c1.9,0.9,4.1,0.9,6.1,0.2s3.6-2.2,4.4-4.1c0.9-1.9,0.9-4.1,0.2-6.1c-0.7-2-2.2-3.6-4.1-4.4l-114.4-51.9c-1.9-0.9-4.1-0.9-6.1-0.2
		c-2,0.7-3.6,2.2-4.4,4.1c-0.9,1.9-0.9,4.1-0.2,6.1s2.2,3.6,4.1,4.4l26.9,12.2c2.7,1.2,3.9,4.4,2.7,7.1l-35.6,78.4l9.9,11.5
		c1.9,2.3,1.7,5.7-0.6,7.6c-0.6,0.5-1.2,0.8-1.9,1.1l-16.1,5l6.9,15.4c1.2,2.7,0,5.9-2.7,7.1c-0.2,0.1-0.4,0.2-0.6,0.2l-16.1,5
		l6.9,15.4c1.2,2.7,0,5.9-2.7,7.1c-0.2,0.1-0.4,0.2-0.6,0.2l-16.1,5l6.9,15.4c0.7,1.7,0.6,3.6-0.4,5.1s-2.7,2.5-4.5,2.5l-15.2,0.1
		L845.1,729.2L845.1,729.2z"/>
	<path class="st15" d="M967.6,551.2l16.5,8.2l-87.9,191.7l-32.7,18.1L967.6,551.2z"/>
	<path class="st12" d="M879.5,743.1c-2.1,0-3.8-1.7-3.8-3.8c0-0.5,0.1-1.1,0.3-1.6l3.8-8.3c4-8.8,6.7-14.8,8.7-18.9
		c0.1-0.3,0.2-0.6,0.3-0.9l2.1-4.7l0.4,0.2c2-3.3,2.9-2.9,4.6-2.1c2.4,1.1,2.7,2.3,1.8,5h0.1c0,0.1-0.5,1.1-1.4,3.1
		c-0.2,0.5-0.5,1-0.7,1.6c0,0,0,0.1-0.1,0.1c-1.8,4-4.8,10.6-8.9,19.6l-3.8,8.3C882.4,742.2,881,743.1,879.5,743.1 M902.8,691.8
		c-0.5,0-1.1-0.1-1.6-0.3c-1.9-0.9-2.7-3.1-1.9-5l4.3-9.5c0.9-1.9,3.1-2.7,5-1.9c1.9,0.9,2.7,3.1,1.9,5l-4.3,9.5
		C905.7,690.9,904.3,691.8,902.8,691.8 M913.5,668.2c-0.5,0-1.1-0.1-1.6-0.3c-1.9-0.9-2.7-3.1-1.9-5l19.1-42.1
		c0.9-1.9,3.1-2.7,5-1.9c1.9,0.9,2.7,3.1,1.9,5L917,666C916.4,667.3,915,668.2,913.5,668.2 M938,614.3c-2.1,0-3.8-1.7-3.8-3.8
		c0-0.5,0.1-1.1,0.3-1.6l11.1-24.4c0.9-1.9,3.1-2.7,5-1.9c1.9,0.9,2.7,3.1,1.9,5L941.4,612C940.8,613.4,939.5,614.3,938,614.3
		 M1058.8,534.6c-5.8,0-11.5-1.2-16.7-3.6c-1.9-0.9-2.7-3.1-1.9-5c0.9-1.9,3.1-2.7,5-1.9c8,3.6,17,3.9,25.3,0.8
		c8.3-3.1,14.9-9.2,18.5-17.3l17.5-38.6c7.6-16.6,0.2-36.3-16.4-43.8l-128.4-58.3c-8-3.6-17-3.9-25.3-0.8c-2,0.7-4.1-0.4-4.8-2.3
		s0.3-4,2.1-4.7c10.2-3.8,21.2-3.5,31.1,1l128.4,58.3c20.4,9.3,29.5,33.4,20.2,53.8l-17.5,38.6
		C1089.1,525.7,1074.3,534.6,1058.8,534.6 M1001,511.9c-0.5,0-1.1-0.1-1.6-0.3l-85-38.6c-10.1-4.6-17.9-12.9-21.8-23.4
		c-3.9-10.5-3.6-21.9,1-32l11-24.3c0.9-1.9,3.1-2.7,5-1.9l0,0c1.9,0.9,2.7,3.1,1.9,5l-11,24.3c-7.8,17.2-0.2,37.6,17,45.4l85,38.6
		c1.9,0.9,2.7,3.1,1.9,5C1003.8,511,1002.5,511.9,1001,511.9 M1067.5,357.5c-8.7,0-17.4-2.1-25.3-6.4c-12.7-6.8-22.1-18.1-26.3-32
		s-2.8-28.4,4-41.2c6.8-12.7,18.1-22.1,31.9-26.3c13.8-4.2,28.5-2.8,41.2,4c21.6,11.5,32.8,36.2,27.2,60c-0.5,2-2.5,3.3-4.5,2.8l0,0
		c-2-0.5-3.3-2.5-2.8-4.5l0,0c4.8-20.5-4.8-41.7-23.4-51.6c-11-5.8-23.5-7.1-35.4-3.4c-11.9,3.6-21.7,11.7-27.5,22.6
		s-7.1,23.6-3.4,35.4c3.6,11.9,11.7,21.6,22.6,27.5c11.4,6.1,24.4,7.1,36.6,3c2-0.6,4.1,0.5,4.7,2.5c0.6,1.9-0.4,3.9-2.3,4.6
		C1079.2,356.5,1073.4,357.5,1067.5,357.5"/>
</g>
</svg>
