<?xml version="1.0" encoding="UTF-8"?>
<svg id="_图层_2" data-name="图层 2" xmlns="http://www.w3.org/2000/svg" viewBox="0 0 939 363">
  <defs>
    <style>
      .cls-1 {
        fill: #f5f6f7;
      }

      .cls-2 {
        fill: #dff5e5;
      }

      .cls-3, .cls-4, .cls-5, .cls-6, .cls-7, .cls-8, .cls-9, .cls-10, .cls-11 {
        fill: none;
      }

      .cls-3, .cls-4, .cls-5, .cls-6, .cls-7, .cls-9, .cls-10, .cls-11 {
        stroke-width: 2px;
      }

      .cls-3, .cls-7 {
        stroke: #d25d5a;
      }

      .cls-3, .cls-9, .cls-11 {
        stroke-linecap: round;
      }

      .cls-12 {
        fill: #d25d5a;
      }

      .cls-4 {
        stroke: #000;
      }

      .cls-13 {
        fill: #646a73;
      }

      .cls-5, .cls-9 {
        stroke: #509863;
      }

      .cls-14 {
        fill: #eff0f1;
      }

      .cls-6 {
        stroke: #646a73;
      }

      .cls-8 {
        stroke: #bbbfc4;
      }

      .cls-15 {
        fill: #d4b45b;
      }

      .cls-16 {
        fill: #fef1ce;
      }

      .cls-17 {
        fill: #509863;
      }

      .cls-10, .cls-11 {
        stroke: #d4b45b;
      }

      .cls-18 {
        fill: #f0f4fc;
      }

      .cls-19 {
        fill: #fee3e2;
      }

      .cls-20 {
        fill: #f5f5f5;
      }

      .cls-21 {
        opacity: 0;
      }

      .cls-22 {
        fill: #1f2329;
      }
    </style>
  </defs>
  <g id="_图层_1-2" data-name="图层 1">
    <rect class="cls-21" width="939" height="363"/>
    <path class="cls-1" d="M24,334.38V58c0-1.1.39-2.05,1.17-2.83.78-.78,1.72-1.17,2.83-1.17h419.44c1.1,0,2.05.39,2.83,1.17s1.17,1.72,1.17,2.83v276.38c0,1.1-.39,2.05-1.17,2.83-.78.78-1.72,1.17-2.83,1.17H28c-1.1,0-2.05-.39-2.83-1.17-.78-.78-1.17-1.72-1.17-2.83Z"/>
    <path class="cls-8" d="M24.5,334.38V58c0-.97.34-1.79,1.03-2.47.68-.68,1.51-1.03,2.47-1.03h419.44c.97,0,1.79.34,2.47,1.03s1.03,1.51,1.03,2.47v276.38c0,.97-.34,1.79-1.03,2.47-.68.68-1.51,1.03-2.47,1.03H28c-.97,0-1.79-.34-2.47-1.03-.68-.68-1.03-1.51-1.03-2.47Z"/>
    <path class="cls-18" d="M37.51,115.3v-37.73c0-.8.15-1.56.46-2.3.3-.74.74-1.38,1.3-1.95.56-.56,1.21-1,1.95-1.3s1.5-.46,2.3-.46h37.73c.8,0,1.56.15,2.3.46.74.3,1.38.74,1.95,1.3.56.56,1,1.21,1.3,1.95.3.74.46,1.5.46,2.3v37.73c0,.8-.15,1.56-.46,2.3-.3.74-.74,1.38-1.3,1.95s-1.21,1-1.95,1.3c-.74.3-1.5.46-2.3.46h-37.73c-.8,0-1.56-.15-2.3-.46-.74-.3-1.38-.74-1.95-1.3-.56-.56-1-1.21-1.3-1.95-.3-.74-.46-1.5-.46-2.3Z"/>
    <path class="cls-4" d="M38.39,115.3v-37.73c0-.68.13-1.33.39-1.96.26-.63.63-1.18,1.11-1.66.48-.48,1.03-.85,1.66-1.11.63-.26,1.28-.39,1.96-.39h37.73c.68,0,1.33.13,1.96.39.63.26,1.18.63,1.66,1.11.48.48.85,1.03,1.11,1.66.26.63.39,1.28.39,1.96v37.73c0,.68-.13,1.33-.39,1.96-.26.63-.63,1.18-1.11,1.66-.48.48-1.03.85-1.66,1.11-.63.26-1.28.39-1.96.39h-37.73c-.68,0-1.33-.13-1.96-.39-.63-.26-1.18-.63-1.66-1.11-.48-.48-.85-1.03-1.11-1.66-.26-.63-.39-1.28-.39-1.96Z"/>
    <path class="cls-22" d="M62.38,101.7c-1.18,0-1.96-1.3-1.96-4.32s.79-4.27,1.96-4.27,1.94,1.27,1.94,4.27-.78,4.32-1.94,4.32ZM62.38,102.72c1.94,0,3.19-1.78,3.19-5.35s-1.25-5.29-3.19-5.29-3.21,1.72-3.21,5.29,1.24,5.35,3.21,5.35Z"/>
    <path class="cls-22" d="M62.38,136.7c-1.18,0-1.96-1.3-1.96-4.32s.79-4.27,1.96-4.27,1.94,1.27,1.94,4.27-.78,4.32-1.94,4.32ZM62.38,137.73c1.94,0,3.19-1.78,3.19-5.35s-1.25-5.29-3.19-5.29-3.21,1.72-3.21,5.29,1.24,5.35,3.21,5.35Z"/>
    <path class="cls-18" d="M87.24,115.3v-37.73c0-.8.15-1.56.46-2.3.3-.74.74-1.38,1.3-1.95.56-.56,1.21-1,1.95-1.3s1.5-.46,2.3-.46h37.73c.8,0,1.56.15,2.3.46.74.3,1.38.74,1.95,1.3.56.56,1,1.21,1.3,1.95.3.74.46,1.5.46,2.3v37.73c0,.8-.15,1.56-.46,2.3-.3.74-.74,1.38-1.3,1.95s-1.21,1-1.95,1.3c-.74.3-1.5.46-2.3.46h-37.73c-.8,0-1.56-.15-2.3-.46-.74-.3-1.38-.74-1.95-1.3-.56-.56-1-1.21-1.3-1.95-.3-.74-.46-1.5-.46-2.3Z"/>
    <path class="cls-4" d="M88.12,115.3v-37.73c0-.68.13-1.33.39-1.96.26-.63.63-1.18,1.11-1.66.48-.48,1.03-.85,1.66-1.11.63-.26,1.28-.39,1.96-.39h37.73c.68,0,1.33.13,1.96.39s1.18.63,1.66,1.11.85,1.03,1.11,1.66c.26.63.39,1.28.39,1.96v37.73c0,.68-.13,1.33-.39,1.96s-.63,1.18-1.11,1.66-1.03.85-1.66,1.11-1.28.39-1.96.39h-37.73c-.68,0-1.33-.13-1.96-.39-.63-.26-1.18-.63-1.66-1.11-.48-.48-.85-1.03-1.11-1.66s-.39-1.28-.39-1.96Z"/>
    <path class="cls-22" d="M112.12,101.7c-1.18,0-1.96-1.3-1.96-4.32s.79-4.27,1.96-4.27,1.94,1.27,1.94,4.27-.78,4.32-1.94,4.32ZM112.12,102.72c1.94,0,3.19-1.78,3.19-5.35s-1.25-5.29-3.19-5.29-3.21,1.72-3.21,5.29,1.24,5.35,3.21,5.35Z"/>
    <path class="cls-22" d="M109.45,137.54h5.63v-1.06h-2.06v-9.21h-.98c-.56.33-1.22.57-2.13.74v.81h1.82v7.66h-2.28v1.06Z"/>
    <path class="cls-18" d="M136.97,115.3v-37.73c0-.8.15-1.56.46-2.3.3-.74.74-1.38,1.3-1.95.56-.56,1.21-1,1.95-1.3.74-.3,1.5-.46,2.3-.46h37.73c.8,0,1.56.15,2.3.46.74.3,1.38.74,1.95,1.3.56.56,1,1.21,1.3,1.95.3.74.46,1.5.46,2.3v37.73c0,.8-.15,1.56-.46,2.3-.3.74-.74,1.38-1.3,1.95s-1.21,1-1.95,1.3c-.74.3-1.5.46-2.3.46h-37.73c-.8,0-1.56-.15-2.3-.46-.74-.3-1.38-.74-1.95-1.3s-1-1.21-1.3-1.95c-.3-.74-.46-1.5-.46-2.3Z"/>
    <path class="cls-4" d="M137.85,115.3v-37.73c0-.68.13-1.33.39-1.96.26-.63.63-1.18,1.11-1.66.48-.48,1.03-.85,1.66-1.11s1.28-.39,1.96-.39h37.73c.68,0,1.33.13,1.96.39s1.18.63,1.66,1.11.85,1.03,1.11,1.66c.26.63.39,1.28.39,1.96v37.73c0,.68-.13,1.33-.39,1.96s-.63,1.18-1.11,1.66-1.03.85-1.66,1.11-1.28.39-1.96.39h-37.73c-.68,0-1.33-.13-1.96-.39s-1.18-.63-1.66-1.11c-.48-.48-.85-1.03-1.11-1.66-.26-.63-.39-1.28-.39-1.96Z"/>
    <path class="cls-22" d="M161.85,101.7c-1.18,0-1.96-1.3-1.96-4.32s.79-4.27,1.96-4.27,1.94,1.27,1.94,4.27-.78,4.32-1.94,4.32ZM161.85,102.72c1.94,0,3.19-1.78,3.19-5.35s-1.25-5.29-3.19-5.29-3.21,1.72-3.21,5.29,1.24,5.35,3.21,5.35Z"/>
    <path class="cls-22" d="M158.57,137.54h6.45v-1.11h-2.84c-.52,0-1.15.06-1.68.1,2.41-2.28,4.02-4.37,4.02-6.41,0-1.83-1.15-3.04-2.98-3.04-1.3,0-2.18.6-3.02,1.51l.74.73c.56-.67,1.29-1.19,2.13-1.19,1.27,0,1.89.85,1.89,2.03,0,1.77-1.48,3.81-4.7,6.62v.76Z"/>
    <path class="cls-18" d="M186.71,115.3v-37.73c0-.8.15-1.56.46-2.3.3-.74.74-1.38,1.3-1.95.56-.56,1.21-1,1.95-1.3.74-.3,1.5-.46,2.3-.46h37.73c.8,0,1.56.15,2.3.46.74.3,1.38.74,1.95,1.3.56.56,1,1.21,1.3,1.95.3.74.46,1.5.46,2.3v37.73c0,.8-.15,1.56-.46,2.3-.3.74-.74,1.38-1.3,1.95s-1.21,1-1.95,1.3c-.74.3-1.5.46-2.3.46h-37.73c-.8,0-1.56-.15-2.3-.46-.74-.3-1.38-.74-1.95-1.3s-1-1.21-1.3-1.95c-.3-.74-.46-1.5-.46-2.3Z"/>
    <path class="cls-4" d="M187.59,115.3v-37.73c0-.68.13-1.33.39-1.96.26-.63.63-1.18,1.11-1.66.48-.48,1.03-.85,1.66-1.11s1.28-.39,1.96-.39h37.73c.68,0,1.33.13,1.96.39s1.18.63,1.66,1.11.85,1.03,1.11,1.66c.26.63.39,1.28.39,1.96v37.73c0,.68-.13,1.33-.39,1.96s-.63,1.18-1.11,1.66-1.03.85-1.66,1.11-1.28.39-1.96.39h-37.73c-.68,0-1.33-.13-1.96-.39s-1.18-.63-1.66-1.11c-.48-.48-.85-1.03-1.11-1.66-.26-.63-.39-1.28-.39-1.96Z"/>
    <path class="cls-22" d="M211.58,101.7c-1.18,0-1.96-1.3-1.96-4.32s.79-4.27,1.96-4.27,1.94,1.27,1.94,4.27-.78,4.32-1.94,4.32ZM211.58,102.72c1.94,0,3.19-1.78,3.19-5.35s-1.25-5.29-3.19-5.29-3.21,1.72-3.21,5.29,1.24,5.35,3.21,5.35Z"/>
    <path class="cls-22" d="M211.38,137.73c1.82,0,3.29-1.09,3.29-2.93,0-1.4-.97-2.32-2.17-2.6v-.05c1.08-.41,1.82-1.23,1.82-2.48,0-1.62-1.26-2.58-2.98-2.58-1.19,0-2.1.52-2.87,1.23l.69.81c.57-.59,1.3-.99,2.13-.99,1.06,0,1.74.65,1.74,1.63,0,1.1-.73,1.96-2.84,1.96v.98c2.37,0,3.19.82,3.19,2.04s-.87,1.92-2.08,1.92-1.95-.55-2.55-1.18l-.64.84c.67.73,1.68,1.4,3.29,1.4Z"/>
    <path class="cls-18" d="M236.44,115.3v-37.73c0-.8.15-1.56.46-2.3.3-.74.74-1.38,1.3-1.95.56-.56,1.21-1,1.95-1.3.74-.3,1.5-.46,2.3-.46h37.73c.8,0,1.56.15,2.3.46.74.3,1.38.74,1.95,1.3.56.56,1,1.21,1.3,1.95.3.74.46,1.5.46,2.3v37.73c0,.8-.15,1.56-.46,2.3-.3.74-.74,1.38-1.3,1.95-.56.56-1.21,1-1.95,1.3-.74.3-1.5.46-2.3.46h-37.73c-.8,0-1.56-.15-2.3-.46-.74-.3-1.38-.74-1.95-1.3s-1-1.21-1.3-1.95c-.3-.74-.46-1.5-.46-2.3Z"/>
    <path class="cls-4" d="M237.32,115.3v-37.73c0-.68.13-1.33.39-1.96.26-.63.63-1.18,1.11-1.66.48-.48,1.03-.85,1.66-1.11s1.28-.39,1.96-.39h37.73c.68,0,1.33.13,1.96.39.63.26,1.18.63,1.66,1.11.48.48.85,1.03,1.11,1.66.26.63.39,1.28.39,1.96v37.73c0,.68-.13,1.33-.39,1.96s-.63,1.18-1.11,1.66c-.48.48-1.03.85-1.66,1.11-.63.26-1.28.39-1.96.39h-37.73c-.68,0-1.33-.13-1.96-.39s-1.18-.63-1.66-1.11c-.48-.48-.85-1.03-1.11-1.66-.26-.63-.39-1.28-.39-1.96Z"/>
    <path class="cls-22" d="M261.32,101.7c-1.18,0-1.96-1.3-1.96-4.32s.79-4.27,1.96-4.27,1.94,1.27,1.94,4.27-.78,4.32-1.94,4.32ZM261.32,102.72c1.94,0,3.19-1.78,3.19-5.35s-1.25-5.29-3.19-5.29-3.21,1.72-3.21,5.29,1.24,5.35,3.21,5.35Z"/>
    <path class="cls-22" d="M262.18,137.54h1.2v-2.83h1.36v-1.02h-1.36v-6.43h-1.42l-4.27,6.61v.84h4.48v2.83ZM259.03,133.7l2.34-3.5c.29-.51.57-1.01.83-1.51h.05c-.03.53-.07,1.36-.07,1.86v3.15h-3.15Z"/>
    <path class="cls-18" d="M286.18,115.3v-37.73c0-.8.15-1.56.46-2.3.3-.74.74-1.38,1.3-1.95.56-.56,1.21-1,1.95-1.3.74-.3,1.5-.46,2.3-.46h37.73c.8,0,1.56.15,2.3.46.74.3,1.38.74,1.95,1.3.56.56,1,1.21,1.3,1.95.3.74.46,1.5.46,2.3v37.73c0,.8-.15,1.56-.46,2.3-.3.74-.74,1.38-1.3,1.95-.56.56-1.21,1-1.95,1.3-.74.3-1.5.46-2.3.46h-37.73c-.8,0-1.56-.15-2.3-.46-.74-.3-1.38-.74-1.95-1.3-.56-.56-1-1.21-1.3-1.95-.3-.74-.46-1.5-.46-2.3Z"/>
    <path class="cls-4" d="M287.06,115.3v-37.73c0-.68.13-1.33.39-1.96.26-.63.63-1.18,1.11-1.66s1.03-.85,1.66-1.11c.63-.26,1.28-.39,1.96-.39h37.73c.68,0,1.33.13,1.96.39.63.26,1.18.63,1.66,1.11.48.48.85,1.03,1.11,1.66.26.63.39,1.28.39,1.96v37.73c0,.68-.13,1.33-.39,1.96s-.63,1.18-1.11,1.66c-.48.48-1.03.85-1.66,1.11-.63.26-1.28.39-1.96.39h-37.73c-.68,0-1.33-.13-1.96-.39-.63-.26-1.18-.63-1.66-1.11s-.85-1.03-1.11-1.66-.39-1.28-.39-1.96Z"/>
    <path class="cls-22" d="M311.05,101.7c-1.18,0-1.96-1.3-1.96-4.32s.79-4.27,1.96-4.27,1.94,1.27,1.94,4.27-.78,4.32-1.94,4.32ZM311.05,102.72c1.94,0,3.19-1.78,3.19-5.35s-1.25-5.29-3.19-5.29-3.21,1.72-3.21,5.29,1.24,5.35,3.21,5.35Z"/>
    <path class="cls-22" d="M310.81,137.73c1.74,0,3.36-1.27,3.36-3.53s-1.38-3.26-3.09-3.26c-.62,0-1.06.15-1.53.4l.25-2.97h3.88v-1.1h-5l-.32,4.82.69.42c.59-.39,1.02-.6,1.71-.6,1.29,0,2.13.87,2.13,2.34s-.98,2.42-2.18,2.42-1.93-.55-2.52-1.13l-.63.84c.68.69,1.66,1.36,3.26,1.36Z"/>
    <path class="cls-18" d="M335.91,115.3v-37.73c0-.8.15-1.56.46-2.3.3-.74.74-1.38,1.3-1.95.56-.56,1.21-1,1.95-1.3.74-.3,1.5-.46,2.3-.46h37.73c.8,0,1.56.15,2.3.46.74.3,1.38.74,1.95,1.3.56.56,1,1.21,1.3,1.95.3.74.46,1.5.46,2.3v37.73c0,.8-.15,1.56-.46,2.3-.3.74-.74,1.38-1.3,1.95-.56.56-1.21,1-1.95,1.3-.74.3-1.5.46-2.3.46h-37.73c-.8,0-1.56-.15-2.3-.46-.74-.3-1.38-.74-1.95-1.3-.56-.56-1-1.21-1.3-1.95-.3-.74-.46-1.5-.46-2.3Z"/>
    <path class="cls-4" d="M336.79,115.3v-37.73c0-.68.13-1.33.39-1.96.26-.63.63-1.18,1.11-1.66s1.03-.85,1.66-1.11c.63-.26,1.28-.39,1.96-.39h37.73c.68,0,1.33.13,1.96.39.63.26,1.18.63,1.66,1.11.48.48.85,1.03,1.11,1.66.26.63.39,1.28.39,1.96v37.73c0,.68-.13,1.33-.39,1.96s-.63,1.18-1.11,1.66c-.48.48-1.03.85-1.66,1.11-.63.26-1.28.39-1.96.39h-37.73c-.68,0-1.33-.13-1.96-.39-.63-.26-1.18-.63-1.66-1.11s-.85-1.03-1.11-1.66-.39-1.28-.39-1.96Z"/>
    <path class="cls-22" d="M360.78,101.7c-1.18,0-1.96-1.3-1.96-4.32s.79-4.27,1.96-4.27,1.94,1.27,1.94,4.27-.78,4.32-1.94,4.32ZM360.78,102.72c1.94,0,3.19-1.78,3.19-5.35s-1.25-5.29-3.19-5.29-3.21,1.72-3.21,5.29,1.24,5.35,3.21,5.35Z"/>
    <path class="cls-22" d="M361.11,137.73c1.6,0,2.94-1.34,2.94-3.33,0-2.14-1.11-3.22-2.84-3.22-.81,0-1.71.48-2.34,1.25.05-3.19,1.24-4.27,2.65-4.27.63,0,1.24.29,1.65.78l.7-.8c-.56-.6-1.33-1.05-2.4-1.05-1.99,0-3.79,1.54-3.79,5.56,0,3.39,1.46,5.08,3.43,5.08ZM360.99,132.13c1.25,0,1.86.88,1.86,2.27s-.77,2.34-1.75,2.34c-1.29,0-2.06-1.16-2.21-3.29.63-.94,1.46-1.32,2.1-1.32Z"/>
    <path class="cls-18" d="M385.64,115.3v-37.73c0-.8.15-1.56.46-2.3.3-.74.74-1.38,1.3-1.95.56-.56,1.21-1,1.95-1.3.74-.3,1.5-.46,2.3-.46h37.73c.8,0,1.56.15,2.3.46.74.3,1.38.74,1.95,1.3.56.56,1,1.21,1.3,1.95.3.74.46,1.5.46,2.3v37.73c0,.8-.15,1.56-.46,2.3-.3.74-.74,1.38-1.3,1.95-.56.56-1.21,1-1.95,1.3-.74.3-1.5.46-2.3.46h-37.73c-.8,0-1.56-.15-2.3-.46-.74-.3-1.38-.74-1.95-1.3-.56-.56-1-1.21-1.3-1.95-.3-.74-.46-1.5-.46-2.3Z"/>
    <path class="cls-4" d="M386.52,115.3v-37.73c0-.68.13-1.33.39-1.96.26-.63.63-1.18,1.11-1.66s1.03-.85,1.66-1.11c.63-.26,1.28-.39,1.96-.39h37.73c.68,0,1.33.13,1.96.39.63.26,1.18.63,1.66,1.11.48.48.85,1.03,1.11,1.66.26.63.39,1.28.39,1.96v37.73c0,.68-.13,1.33-.39,1.96s-.63,1.18-1.11,1.66c-.48.48-1.03.85-1.66,1.11-.63.26-1.28.39-1.96.39h-37.73c-.68,0-1.33-.13-1.96-.39-.63-.26-1.18-.63-1.66-1.11s-.85-1.03-1.11-1.66-.39-1.28-.39-1.96Z"/>
    <path class="cls-22" d="M410.52,101.7c-1.18,0-1.96-1.3-1.96-4.32s.79-4.27,1.96-4.27,1.94,1.27,1.94,4.27-.78,4.32-1.94,4.32ZM410.52,102.72c1.94,0,3.19-1.78,3.19-5.35s-1.25-5.29-3.19-5.29-3.21,1.72-3.21,5.29,1.24,5.35,3.21,5.35Z"/>
    <path class="cls-22" d="M409.4,137.54h1.33c.15-4.02.6-6.41,3.01-9.49v-.78h-6.43v1.1h4.97c-2,2.8-2.72,5.28-2.88,9.17Z"/>
    <path class="cls-2" d="M136.97,256.72v-37.73c0-.8.15-1.56.46-2.3.3-.74.74-1.38,1.3-1.95s1.21-1,1.95-1.3c.74-.3,1.5-.46,2.3-.46h37.73c.8,0,1.56.15,2.3.46.74.3,1.38.74,1.95,1.3.56.56,1,1.21,1.3,1.95.3.74.46,1.5.46,2.3v37.73c0,.8-.15,1.56-.46,2.3-.3.74-.74,1.38-1.3,1.95-.56.56-1.21,1-1.95,1.3-.74.3-1.5.46-2.3.46h-37.73c-.8,0-1.56-.15-2.3-.46-.74-.3-1.38-.74-1.95-1.3s-1-1.21-1.3-1.95c-.3-.74-.46-1.5-.46-2.3Z"/>
    <path class="cls-5" d="M137.85,256.72v-37.73c0-.68.13-1.33.39-1.96.26-.63.63-1.18,1.11-1.66.48-.48,1.03-.85,1.66-1.11.63-.26,1.28-.39,1.96-.39h37.73c.68,0,1.33.13,1.96.39.63.26,1.18.63,1.66,1.11s.85,1.03,1.11,1.66.39,1.28.39,1.96v37.73c0,.68-.13,1.33-.39,1.96-.26.63-.63,1.18-1.11,1.66-.48.48-1.03.85-1.66,1.11-.63.26-1.28.39-1.96.39h-37.73c-.68,0-1.33-.13-1.96-.39-.63-.26-1.18-.63-1.66-1.11-.48-.48-.85-1.03-1.11-1.66-.26-.63-.39-1.28-.39-1.96Z"/>
    <path class="cls-22" d="M173.55,243.95h5.63v-1.06h-2.06v-9.21h-.98c-.56.33-1.22.57-2.13.74v.81h1.82v7.66h-2.28v1.06ZM169.48,244.14c.91,0,1.78-.35,2.46-.96l-.56-.85c-.48.43-1.09.76-1.79.76-1.4,0-2.35-1.16-2.35-2.91s1.01-2.94,2.39-2.94c.6,0,1.07.28,1.51.67l.66-.84c-.54-.48-1.23-.9-2.23-.9-1.94,0-3.67,1.47-3.67,4s1.56,3.98,3.57,3.98ZM157.93,243.95h1.27v-5.52c.77-.77,1.3-1.16,2.08-1.16,1.01,0,1.44.6,1.44,2.03v4.65h1.27v-4.82c0-1.94-.72-2.98-2.32-2.98-1.04,0-1.82.57-2.55,1.29h-.04l-.11-1.09h-1.05v7.6ZM151.64,244.14c1.05,0,1.8-.54,2.52-1.37h.04l.1,1.19h1.07v-7.6h-1.27v5.39c-.73.91-1.27,1.29-2.06,1.29-1.01,0-1.43-.6-1.43-2.02v-4.66h-1.27v4.82c0,1.93.71,2.97,2.31,2.97ZM145.09,243.95h1.27v-6.57h1.61v-1.04h-1.61v-1.2c0-.98.35-1.5,1.08-1.5.27,0,.57.07.85.2l.28-.97c-.35-.15-.81-.25-1.27-.25-1.51,0-2.21.97-2.21,2.51v1.22l-1.04.07v.97h1.04v6.57Z"/>
    <path class="cls-19" d="M212.85,256.72v-37.73c0-.8.15-1.56.46-2.3.3-.74.74-1.38,1.3-1.95s1.21-1,1.95-1.3c.74-.3,1.5-.46,2.3-.46h37.73c.8,0,1.56.15,2.3.46.74.3,1.38.74,1.95,1.3.56.56,1,1.21,1.3,1.95.3.74.46,1.5.46,2.3v37.73c0,.8-.15,1.56-.46,2.3-.3.74-.74,1.38-1.3,1.95-.56.56-1.21,1-1.95,1.3-.74.3-1.5.46-2.3.46h-37.73c-.8,0-1.56-.15-2.3-.46-.74-.3-1.38-.74-1.95-1.3s-1-1.21-1.3-1.95c-.3-.74-.46-1.5-.46-2.3Z"/>
    <path class="cls-7" d="M213.73,256.72v-37.73c0-.68.13-1.33.39-1.96.26-.63.63-1.18,1.11-1.66.48-.48,1.03-.85,1.66-1.11.63-.26,1.28-.39,1.96-.39h37.73c.68,0,1.33.13,1.96.39.63.26,1.18.63,1.66,1.11.48.48.85,1.03,1.11,1.66s.39,1.28.39,1.96v37.73c0,.68-.13,1.33-.39,1.96-.26.63-.63,1.18-1.11,1.66-.48.48-1.03.85-1.66,1.11-.63.26-1.28.39-1.96.39h-37.73c-.68,0-1.33-.13-1.96-.39-.63-.26-1.18-.63-1.66-1.11-.48-.48-.85-1.03-1.11-1.66-.26-.63-.39-1.28-.39-1.96Z"/>
    <path class="cls-22" d="M248.81,243.95h6.45v-1.11h-2.84c-.52,0-1.15.06-1.68.1,2.41-2.28,4.02-4.37,4.02-6.41,0-1.83-1.15-3.04-2.98-3.04-1.3,0-2.18.6-3.02,1.51l.74.73c.56-.67,1.29-1.19,2.13-1.19,1.27,0,1.89.85,1.89,2.03,0,1.77-1.48,3.81-4.7,6.62v.76ZM245.35,244.14c.91,0,1.78-.35,2.46-.96l-.56-.85c-.48.43-1.09.76-1.79.76-1.4,0-2.35-1.16-2.35-2.91s1.01-2.94,2.39-2.94c.6,0,1.07.28,1.51.67l.66-.84c-.54-.48-1.23-.9-2.23-.9-1.94,0-3.67,1.47-3.67,4s1.56,3.98,3.57,3.98ZM233.81,243.95h1.27v-5.52c.77-.77,1.3-1.16,2.08-1.16,1.01,0,1.44.6,1.44,2.03v4.65h1.27v-4.82c0-1.94-.72-2.98-2.32-2.98-1.04,0-1.82.57-2.55,1.29h-.04l-.11-1.09h-1.05v7.6ZM227.52,244.14c1.05,0,1.8-.54,2.52-1.37h.04l.1,1.19h1.07v-7.6h-1.27v5.39c-.73.91-1.27,1.29-2.06,1.29-1.01,0-1.43-.6-1.43-2.02v-4.66h-1.27v4.82c0,1.93.71,2.97,2.31,2.97ZM220.97,243.95h1.27v-6.57h1.61v-1.04h-1.61v-1.2c0-.98.35-1.5,1.08-1.5.27,0,.57.07.85.2l.28-.97c-.35-.15-.81-.25-1.27-.25-1.51,0-2.21.97-2.21,2.51v1.22l-1.04.07v.97h1.04v6.57Z"/>
    <path class="cls-16" d="M286.18,256.72v-37.73c0-.8.15-1.56.46-2.3.3-.74.74-1.38,1.3-1.95.56-.56,1.21-1,1.95-1.3.74-.3,1.5-.46,2.3-.46h37.73c.8,0,1.56.15,2.3.46.74.3,1.38.74,1.95,1.3.56.56,1,1.21,1.3,1.95.3.74.46,1.5.46,2.3v37.73c0,.8-.15,1.56-.46,2.3-.3.74-.74,1.38-1.3,1.95-.56.56-1.21,1-1.95,1.3-.74.3-1.5.46-2.3.46h-37.73c-.8,0-1.56-.15-2.3-.46-.74-.3-1.38-.74-1.95-1.3-.56-.56-1-1.21-1.3-1.95-.3-.74-.46-1.5-.46-2.3Z"/>
    <path class="cls-10" d="M287.06,256.72v-37.73c0-.68.13-1.33.39-1.96s.63-1.18,1.11-1.66c.48-.48,1.03-.85,1.66-1.11.63-.26,1.28-.39,1.96-.39h37.73c.68,0,1.33.13,1.96.39.63.26,1.18.63,1.66,1.11.48.48.85,1.03,1.11,1.66s.39,1.28.39,1.96v37.73c0,.68-.13,1.33-.39,1.96-.26.63-.63,1.18-1.11,1.66-.48.48-1.03.85-1.66,1.11-.63.26-1.28.39-1.96.39h-37.73c-.68,0-1.33-.13-1.96-.39-.63-.26-1.18-.63-1.66-1.11-.48-.48-.85-1.03-1.11-1.66-.26-.63-.39-1.28-.39-1.96Z"/>
    <path class="cls-22" d="M325.22,244.14c1.82,0,3.29-1.09,3.29-2.93,0-1.4-.97-2.32-2.17-2.6v-.05c1.08-.41,1.82-1.23,1.82-2.48,0-1.62-1.26-2.58-2.98-2.58-1.19,0-2.1.52-2.87,1.23l.69.81c.57-.59,1.3-.99,2.13-.99,1.06,0,1.74.65,1.74,1.63,0,1.1-.73,1.96-2.84,1.96v.98c2.37,0,3.19.82,3.19,2.04s-.87,1.92-2.08,1.92-1.95-.55-2.55-1.18l-.64.84c.67.73,1.68,1.4,3.29,1.4ZM318.68,244.14c.91,0,1.78-.35,2.46-.96l-.56-.85c-.48.43-1.09.76-1.79.76-1.4,0-2.35-1.16-2.35-2.91s1.01-2.94,2.39-2.94c.6,0,1.07.28,1.51.67l.66-.84c-.54-.48-1.23-.9-2.23-.9-1.94,0-3.67,1.47-3.67,4s1.56,3.98,3.57,3.98ZM307.13,243.95h1.27v-5.52c.77-.77,1.3-1.16,2.08-1.16,1.01,0,1.44.6,1.44,2.03v4.65h1.27v-4.82c0-1.94-.72-2.98-2.32-2.98-1.04,0-1.82.57-2.55,1.29h-.04l-.11-1.09h-1.05v7.6ZM300.84,244.14c1.05,0,1.8-.54,2.52-1.37h.04l.1,1.19h1.07v-7.6h-1.27v5.39c-.73.91-1.27,1.29-2.06,1.29-1.01,0-1.43-.6-1.43-2.02v-4.66h-1.27v4.82c0,1.93.71,2.97,2.31,2.97ZM294.29,243.95h1.27v-6.57h1.61v-1.04h-1.61v-1.2c0-.98.35-1.5,1.08-1.5.27,0,.57.07.85.2l.28-.97c-.35-.15-.81-.25-1.27-.25-1.51,0-2.21.97-2.21,2.51v1.22l-1.04.07v.97h1.04v6.57Z"/>
    <path class="cls-14" d="M24,42v-14c0-1.1.39-2.05,1.17-2.83.78-.78,1.72-1.17,2.83-1.17h229.12c1.1,0,2.05.39,2.83,1.17s1.17,1.72,1.17,2.83v14c0,1.1-.39,2.05-1.17,2.83-.78.78-1.72,1.17-2.83,1.17H28c-1.1,0-2.05-.39-2.83-1.17-.78-.78-1.17-1.72-1.17-2.83Z"/>
    <path class="cls-8" d="M24.5,42v-14c0-.97.34-1.79,1.03-2.47.68-.68,1.51-1.03,2.47-1.03h229.12c.97,0,1.79.34,2.47,1.03.68.68,1.03,1.51,1.03,2.47v14c0,.97-.34,1.79-1.03,2.47-.68.68-1.51,1.03-2.47,1.03H28c-.97,0-1.79-.34-2.47-1.03-.68-.68-1.03-1.51-1.03-2.47Z"/>
    <path class="cls-13" d="M256.51,33.5v-1.54h-3.73c.17-.74.31-1.52.42-2.31l-1.51-.23c-.32,2.49-.94,4.87-2.06,6.33.33.24.96.79,1.19,1.07.27-.38.52-.8.74-1.25.28,1.06.59,2.04.99,2.93-.71,1.16-1.75,2.04-3.17,2.68.29.32.73,1.02.88,1.36,1.3-.66,2.31-1.5,3.11-2.56.63.98,1.4,1.78,2.37,2.38.22-.42.71-1.02,1.08-1.32-1.05-.57-1.9-1.46-2.55-2.56.66-1.37,1.08-3.01,1.34-4.97h.88ZM254.09,33.5c-.14,1.19-.36,2.24-.69,3.19-.36-.99-.64-2.07-.85-3.19h1.54ZM249.65,40.51c-.28-.19-.62-.41-.99-.62.71-.81,1.27-1.82,1.61-3.05l-.9-.33-.25.04h-1.78c.08-.18.17-.37.24-.55l-1.47-.27c-.1.27-.21.53-.33.81h-1.75v1.34h1.06c-.28.48-.54.91-.8,1.27.63.27,1.33.59,1.99.94-.8.49-1.74.85-2.74,1.08.28.28.6.87.76,1.24,1.26-.35,2.38-.85,3.32-1.57.42.25.78.51,1.06.71l.98-1.06ZM248.39,37.89c-.25.49-.59.92-.98,1.32-.36-.19-.76-.39-1.13-.57.14-.22.28-.48.42-.74h1.7ZM246.42,35.67h1.54v-1.53c.53.42,1.08.88,1.39,1.18l.87-1.16c-.24-.17-1.02-.63-1.65-.99h2.04v-1.32h-2.65v-2.46h-1.54v2.46h-1.42l1.13-.51c-.11-.48-.46-1.2-.84-1.72l-1.18.49c.31.54.63,1.26.74,1.74h-1.09v1.32h2.07c-.66.68-1.54,1.3-2.37,1.64.31.31.67.85.85,1.22.7-.38,1.44-.96,2.09-1.61v1.26ZM249.07,29.56c-.23.52-.6,1.27-.93,1.76l1.07.48c.36-.43.8-1.06,1.26-1.69l-1.4-.55ZM234.88,34.97c-.39-.5-1.15-1.26-1.8-1.8l-1.04.85c.62.6,1.4,1.44,1.76,1.96l1.08-1.01ZM240.44,32.56v7.85h-8.63v-7.78h-1.68v9.28h10.31v.59h1.65v-9.94h-1.65ZM235.3,38.4c0,.17-.05.22-.24.22s-.8,0-1.33-.03c.19.42.4,1.04.46,1.47.92,0,1.62-.03,2.1-.25.52-.24.66-.62.66-1.38v-1.76c.9.85,1.78,1.75,2.28,2.41l1.04-1.13c-.45-.53-1.16-1.23-1.94-1.93.62-.63,1.33-1.44,1.98-2.2l-1.39-.73c-.38.63-.97,1.47-1.51,2.12l-.45-.35v-1.58c1.32-.71,2.62-1.66,3.58-2.57l-1.09-.88-.37.08h-7.41v1.53h5.63c-.63.48-1.33.92-2,1.24v2.87c-1.32.77-2.63,1.52-3.49,1.97l.77,1.37c.82-.55,1.78-1.2,2.71-1.88v1.4ZM221.27,41.24h2.06v-5.39c.57-.57.98-.88,1.62-.88.77,0,1.1.42,1.1,1.64v4.63h2.06v-4.89c0-1.97-.73-3.15-2.42-3.15-1.06,0-1.84.56-2.46,1.15l.1-1.47v-2.82h-2.06v11.17ZM216.58,41.43c2.04,0,3.12-1.1,3.12-2.48,0-1.46-1.15-1.97-2.18-2.37-.82-.31-1.55-.52-1.55-1.09,0-.45.33-.76,1.05-.76.57,0,1.12.27,1.68.67l.93-1.24c-.65-.49-1.53-.97-2.66-.97-1.79,0-2.93.99-2.93,2.39,0,1.32,1.11,1.92,2.1,2.3.83.32,1.64.59,1.64,1.18,0,.49-.35.83-1.13.83-.73,0-1.4-.31-2.1-.85l-.94,1.29c.79.64,1.93,1.1,2.98,1.1ZM208.67,39.82c-.6,0-1.04-.27-1.04-.88,0-.7.65-1.23,2.56-1.47v1.58c-.51.49-.94.77-1.53.77ZM208,41.43c.9,0,1.68-.45,2.37-1.04h.05l.14.84h1.68v-4.58c0-2.27-1.02-3.46-3.01-3.46-1.23,0-2.35.46-3.27,1.04l.74,1.36c.73-.42,1.43-.74,2.16-.74.96,0,1.3.59,1.34,1.36-3.17.33-4.52,1.22-4.52,2.9,0,1.33.92,2.32,2.32,2.32ZM197.11,41.24h2.06v-5.39c.57-.57.98-.88,1.62-.88.77,0,1.1.42,1.1,1.64v4.63h2.06v-4.89c0-1.97-.73-3.15-2.42-3.15-1.06,0-1.84.56-2.46,1.15l.1-1.47v-2.82h-2.06v11.17ZM194.38,40.71v-10.64h-5.73v10.64h-1.23v1.5h8.08v-1.5h-1.12ZM190.23,35.08h2.5v2.04h-2.5v-2.04ZM192.73,31.58v2.02h-2.5v-2.02h2.5ZM190.23,38.59h2.5v2.11h-2.5v-2.11ZM187.48,39.07c-1.77.42-3.6.83-4.82,1.06l.29,1.58c1.36-.35,3.07-.8,4.7-1.27l-.18-1.37ZM185.29,36.84c.96-1.13,1.9-2.45,2.69-3.75l-1.26-.81c-.25.48-.54.96-.84,1.44l-1.37.11c.81-1.13,1.58-2.51,2.14-3.81l-1.48-.7c-.53,1.64-1.5,3.39-1.82,3.82-.32.46-.56.77-.84.84.17.42.42,1.16.51,1.47.22-.11.57-.19,1.94-.35-.52.69-.96,1.23-1.18,1.47-.48.49-.8.81-1.15.9.17.39.41,1.08.48,1.39.38-.21.95-.38,4.59-1.08-.01-.32,0-.94.05-1.34l-2.46.41ZM168.57,34.88v1.81h12.88v-1.81h-12.88ZM161.23,30.7v11.09h1.64v-1.11h2.24v1.01h1.72v-10.99h-5.6ZM162.86,39.08v-6.79h2.24v6.79h-2.24ZM158.83,35.08h2.03v-1.54h-2.03v-2.14c.74-.17,1.47-.37,2.08-.59l-1.08-1.3c-1.27.5-3.32.95-5.14,1.2.18.36.38.92.45,1.3.64-.09,1.32-.18,2-.29v1.82h-2.49v1.54h2.08c-.55,1.54-1.44,3.15-2.4,4.16.28.42.69,1.08.84,1.57.74-.83,1.4-2.03,1.96-3.35v4.98h1.68v-5.16c.46.66.91,1.36,1.18,1.83l.95-1.38c-.31-.38-1.57-1.85-2.13-2.41v-.24ZM153.34,32.7v-1.54h-5.67c.11-.63.18-1.27.24-1.93h-1.72c-.05.67-.12,1.3-.25,1.93h-5.25v1.54h4.8c-.67,1.49-2,2.72-4.96,3.46.36.37.77,1.01.94,1.4,3.47-.97,5-2.63,5.74-4.63,1.07,2.24,2.7,3.73,5.32,4.47.24-.46.73-1.18,1.1-1.53-2.25-.49-3.78-1.6-4.74-3.17h4.45ZM150.33,38.02c.67,1.23,1.33,2.86,1.57,3.86l1.57-.54c-.26-1.04-.98-2.6-1.66-3.79l-1.47.48ZM145.67,37.64c.71.71,1.57,1.75,1.93,2.4l1.37-.85c-.39-.67-1.3-1.64-2.03-2.3l-1.27.76ZM145.25,35.75c.81.45,1.82,1.16,2.3,1.64l1.54-.93c-.54-.5-1.6-1.16-2.39-1.58l-1.44.87ZM146.3,40.69c-.81,0-.95-.05-.95-.5v-2.38h-1.65v2.4c0,1.51.51,1.97,2.44,1.97h2.7c1.57,0,2.06-.5,2.25-2.51-.45-.1-1.13-.33-1.5-.6-.09,1.42-.2,1.62-.88,1.62h-2.41ZM142.08,41.98c.57-.99.97-2.53,1.25-3.78l-1.48-.5c-.24,1.23-.7,2.59-1.27,3.53l1.51.76ZM139.34,34.91v-1.65h-3.69v-3.85h-1.65v3.85h-2.84v1.65h2.74c-.22,2.04-.94,4.34-3.09,6.29v-11.83h-1.65v3.83c-.37-.65-.88-1.44-1.33-2.04l-1.3.76c.56.84,1.24,2,1.51,2.72l1.12-.69v1.99c-1.01.87-2.04,1.68-2.72,2.17l.84,1.43c.59-.48,1.23-1.05,1.88-1.62v4.52h1.65v-.91c.42.28.85.63,1.13.92,1.72-1.5,2.69-3.26,3.18-5.04.77,2.11,1.85,3.88,3.42,5.01.27-.46.81-1.09,1.2-1.4-1.93-1.19-3.19-3.48-3.86-6.1h3.47ZM139.12,32.07c-.31-.66-1.01-1.65-1.57-2.38l-1.24.69c.53.8,1.19,1.83,1.46,2.49l1.36-.8ZM118.27,42.46h1.51v-.56h3.43v.54h1.58v-5.84h-6.52v5.85ZM123.21,38.06v2.37h-3.43v-2.37h3.43ZM125.73,35.3c-.39-1.12-1.34-2.73-2.3-3.95l-1.33.66c.37.5.74,1.08,1.08,1.68l-3.31.23c.77-1.18,1.57-2.63,2.17-4.06l-1.74-.46c-.59,1.74-1.58,3.53-1.92,4-.33.51-.57.79-.88.87.18.43.43,1.23.53,1.56.53-.21,1.22-.28,5.9-.69.14.33.28.66.36.94l1.43-.77ZM116.55,32.13l-.28.03h-1.02c.15-.88.28-1.78.38-2.59l-1.57-.1c-.07.84-.18,1.76-.32,2.69h-1.19v1.52h.92c-.24,1.25-.52,2.41-.78,3.31.63.5,1.3,1.1,1.94,1.74-.56,1.08-1.27,1.9-2.2,2.41.33.31.77.91.98,1.32.98-.64,1.76-1.46,2.37-2.55.39.43.73.85.95,1.22l.99-1.38c-.29-.42-.74-.9-1.23-1.4.56-1.6.88-3.59,1.01-6.08l-.95-.12ZM115.91,33.68c-.13,1.32-.35,2.48-.67,3.51-.28-.25-.57-.5-.87-.74.21-.84.43-1.79.62-2.77h.93ZM104.01,30.46v1.61h1.76c-.1,4.17-.62,7.29-2.94,9.04.38.29,1.08.98,1.27,1.3,2.52-2.16,3.18-5.57,3.36-10.35h1.89c-.1,5.74-.24,8.01-.63,8.48-.14.21-.29.27-.52.27-.33,0-.99,0-1.74-.07.27.46.46,1.15.49,1.6.76.03,1.51.04,2.03-.06.53-.1.88-.27,1.23-.8.52-.76.64-3.17.77-10.22,0-.2.01-.81.01-.81h-7ZM104.34,37.7c-.18-.2-.63-.66-1.12-1.11.39-.33.84-.78,1.36-1.19l-1.08-.91c-.25.39-.7.96-1.05,1.36l-.24-.21v-.21c.64-.98,1.2-2.04,1.62-3.09l-.94-.66-.23.06h-1.02l.95-.6c-.28-.49-.81-1.25-1.26-1.82l-1.32.73c.36.52.83,1.18,1.11,1.7h-2.4v1.5h3.02c-.81,1.57-2.12,3.12-3.42,3.99.24.32.65,1.19.79,1.65.45-.35.91-.79,1.36-1.26v4.83h1.72v-5.02c.46.59.91,1.18,1.19,1.6l.94-1.32ZM97.34,36.65v-1.44h-2.38l.45-.43c-.32-.25-.82-.53-1.34-.77h2.28v-4.04h-4.79v4.04h1.43l-.52.49c.45.18.98.45,1.4.71h-3.1c.23-.35.42-.71.6-1.08l-1.07-.19v-3.98h-4.59v4.04h3.92c-.2.41-.45.81-.76,1.21h-4.21v1.44h2.77c-.83.64-1.86,1.23-3.12,1.69.31.29.71.91.88,1.3.18-.07.35-.15.52-.22v3.04h1.51v-.33h1.51v.25h1.58v-4.33h-2.24c.6-.43,1.12-.91,1.58-1.4h2.32c.43.5.94.98,1.51,1.4h-1.92v4.41h1.5v-.33h1.67v.25h1.61v-2.8c.13.04.24.08.36.12.24-.4.69-1.02,1.05-1.33-1.37-.35-2.7-.96-3.69-1.72h3.26ZM93.07,31.36h1.68v1.25h-1.68v-1.25ZM88.76,32.6h-1.57v-1.25h1.57v1.25ZM88.75,40.68h-1.51v-1.2h1.51v1.2ZM93.08,40.68v-1.2h1.67v1.2h-1.67ZM81.13,38.29c.67,1.01,1.29,2.35,1.5,3.23l1.06-.51c-.24-.86-.91-2.17-1.58-3.16l-.98.43ZM79.25,41.09c-.4,0-.48-.04-.48-.41v-2.34h-1.3v2.35c0,1.13.32,1.47,1.6,1.47h1.58c.99,0,1.34-.42,1.46-2.03-.32-.08-.85-.26-1.11-.46-.05,1.23-.12,1.42-.49,1.42h-1.26ZM81.14,39.52c-.28-.59-.9-1.5-1.44-2.14l-.94.52c.52.7,1.13,1.64,1.39,2.26l.99-.63ZM81.27,37.15c1.13,0,1.54-.35,1.7-1.65-.39-.09-.97-.28-1.26-.49-.07.8-.15.93-.59.93h-1.74c-.57,0-.67-.06-.67-.45v-.27l2.52-.21-.09-1.12-2.43.19v-.91h3.21c-.13.4-.27.8-.39,1.1l1.19.27c.31-.6.65-1.58.87-2.44l-.98-.22-.24.05h-3.12v-.6h3.59v-1.2h-3.59v-.74h-1.58v2.55h-3.33v2.97c0,1.92-.1,4.68-1.25,6.62.29.17.92.74,1.16,1.05,1.33-2.14,1.58-5.52,1.58-7.66v-1.75h1.44v1.02l-1.06.08.08,1.15.98-.08v.17c0,1.26.38,1.64,1.94,1.64h2.06ZM76.41,41.67c.39-.77.67-2.03.85-3l-1.05-.35c-.15.95-.49,2.16-.91,2.94l1.11.41ZM72.66,36.73c-.59,1.58-1.38,3.33-1.94,4.38l1.42.87c.62-1.34,1.26-2.91,1.78-4.37l-1.25-.88ZM73.6,34.9c-.49-.46-1.5-1.13-2.24-1.57l-.94,1.02c.74.48,1.72,1.2,2.17,1.69l1.01-1.15ZM74.21,31.48c-.48-.49-1.44-1.19-2.17-1.65l-.99.98c.76.51,1.68,1.27,2.13,1.78l1.04-1.11ZM59.89,34.55h-3.26v1.56h1.62v3.09c-.6.27-1.29.8-1.94,1.48l1.18,1.7c.49-.83,1.11-1.76,1.51-1.76.31,0,.8.45,1.46.78,1.02.56,2.21.73,3.99.73,1.43,0,3.71-.09,4.68-.15.03-.49.31-1.36.52-1.85-1.4.23-3.68.35-5.14.35-1.54,0-2.84-.09-3.79-.63-.32-.18-.59-.35-.81-.49v-4.8ZM60.23,32.18c-.41-.7-1.34-1.67-2.12-2.37l-1.29.87c.76.73,1.64,1.78,2.01,2.46l1.39-.97ZM61.08,34.69c.69.88,1.54,2.07,1.9,2.83l1.43-.86c-.41-.76-1.3-1.89-2-2.7l-1.33.74ZM65.88,37.92c0,.24-.1.32-.39.34-.28,0-1.29,0-2.18-.04.24.46.49,1.21.56,1.7,1.3,0,2.27-.04,2.87-.31.63-.25.84-.7.84-1.67v-4.59h1.72v-1.57h-1.72v-2.3h-1.69v2.3h-5.2v1.57h5.2v4.58ZM53.83,30.38l-.24.05h-2.46c.18-.27.33-.53.49-.81l-1.58-.26c-.52,1.02-1.54,2.14-3.07,2.97.33.21.83.74,1.05,1.09.45-.28.84-.57,1.22-.88.26.31.56.59.87.85-.99.48-2.1.85-3.22,1.08.28.31.63.88.8,1.26.43-.11.85-.24,1.27-.38v.8h4.86v-.87c.33.1.69.18,1.05.25.2-.39.6-.98.94-1.29-1.12-.17-2.17-.46-3.08-.85.86-.69,1.59-1.51,2.1-2.48l-.99-.53ZM50.18,31.64h2.41c-.34.37-.76.71-1.21,1.02-.46-.31-.87-.64-1.2-1.02ZM49.94,34.98c.51-.21.99-.45,1.47-.71.48.27.99.51,1.52.71h-3ZM52.13,40.15h2.46v-1.16h-2.46v-.67h2.74v-1.18h-2.74v-.77h-1.55v.77h-1.09c.1-.21.18-.43.25-.65l-1.34-.32c-.27.81-.74,1.65-1.33,2.24.1-.31.14-.67.14-1.11,0-.83-.18-1.79-1.04-2.88.4-1.1.87-2.65,1.24-3.86l-1.09-.65-.24.07h-3.05v12.47h1.44v-10.99h1.11c-.24.97-.53,2.23-.83,3.13.8.95.98,1.84.98,2.48,0,.42-.07.7-.23.83-.11.07-.25.11-.39.13-.18,0-.38,0-.63-.03.24.41.37,1.04.38,1.43.33.01.67.01.91-.01.31-.06.57-.16.8-.32.2-.13.34-.32.45-.57.32.2.85.53,1.11.73l.15-.17v1.07h2.3v.7h-3.45v1.3h8.29v-1.3h-3.29v-.7ZM48.37,38.99c.15-.2.32-.43.48-.67h1.74v.67h-2.21ZM41.26,32.97v-1.6h-6.83c.19-.54.38-1.09.55-1.64l-1.72-.39c-.15.67-.36,1.35-.63,2.03h-3.84v1.6h3.12c-.87,1.71-2.06,3.26-3.61,4.27.29.38.73,1.05.94,1.47.66-.46,1.23-.97,1.78-1.54v4.05h1.66v-4.55h2.21v5.78h1.68v-5.78h2.32v2.73c0,.18-.07.24-.29.24-.2,0-.94,0-1.58-.03.21.42.45,1.05.52,1.51,1.05,0,1.81-.01,2.34-.25.56-.25.71-.67.71-1.44v-4.34h-4.02v-1.61h-1.68v1.61h-2.25c.43-.67.8-1.39,1.13-2.12h7.49Z"/>
    <path class="cls-1" d="M486.68,334.38V58c0-1.1.39-2.05,1.17-2.83s1.72-1.17,2.83-1.17h419.44c1.1,0,2.05.39,2.83,1.17s1.17,1.72,1.17,2.83v276.38c0,1.1-.39,2.05-1.17,2.83-.78.78-1.72,1.17-2.83,1.17h-419.44c-1.1,0-2.05-.39-2.83-1.17-.78-.78-1.17-1.72-1.17-2.83Z"/>
    <path class="cls-8" d="M487.18,334.38V58c0-.97.34-1.79,1.03-2.47.68-.68,1.51-1.03,2.47-1.03h419.44c.97,0,1.79.34,2.47,1.03.68.68,1.03,1.51,1.03,2.47v276.38c0,.97-.34,1.79-1.03,2.47-.68.68-1.51,1.03-2.47,1.03h-419.44c-.97,0-1.79-.34-2.47-1.03-.68-.68-1.03-1.51-1.03-2.47Z"/>
    <path class="cls-18" d="M500.19,299.45v-37.73c0-.8.15-1.56.46-2.3s.74-1.38,1.3-1.95c.56-.56,1.21-1,1.95-1.3.74-.3,1.5-.46,2.3-.46h37.73c.8,0,1.56.15,2.3.46.74.3,1.38.74,1.95,1.3.56.56,1,1.21,1.3,1.95.3.74.46,1.5.46,2.3v37.73c0,.8-.15,1.56-.46,2.3-.3.74-.74,1.38-1.3,1.95-.56.56-1.21,1-1.95,1.3-.74.3-1.5.46-2.3.46h-37.73c-.8,0-1.56-.15-2.3-.46-.74-.3-1.38-.74-1.95-1.3-.56-.56-1-1.21-1.3-1.95s-.46-1.5-.46-2.3Z"/>
    <path class="cls-4" d="M501.07,299.45v-37.73c0-.68.13-1.33.39-1.96.26-.63.63-1.18,1.11-1.66.48-.48,1.03-.85,1.66-1.11.63-.26,1.28-.39,1.96-.39h37.73c.68,0,1.33.13,1.96.39s1.18.63,1.66,1.11c.48.48.85,1.03,1.11,1.66.26.63.39,1.28.39,1.96v37.73c0,.68-.13,1.33-.39,1.96s-.63,1.18-1.11,1.66c-.48.48-1.03.85-1.66,1.11-.63.26-1.28.39-1.96.39h-37.73c-.68,0-1.33-.13-1.96-.39-.63-.26-1.18-.63-1.66-1.11-.48-.48-.85-1.03-1.11-1.66s-.39-1.28-.39-1.96Z"/>
    <path class="cls-22" d="M522.4,286.69h5.63v-1.06h-2.06v-9.21h-.98c-.56.33-1.22.57-2.13.74v.81h1.82v7.66h-2.28v1.06Z"/>
    <path class="cls-22" d="M525.06,320.85c-1.18,0-1.96-1.3-1.96-4.32s.79-4.27,1.96-4.27,1.94,1.27,1.94,4.27-.78,4.32-1.94,4.32ZM525.06,321.87c1.94,0,3.19-1.78,3.19-5.35s-1.25-5.29-3.19-5.29-3.21,1.72-3.21,5.29,1.24,5.35,3.21,5.35Z"/>
    <path class="cls-18" d="M549.92,299.45v-37.73c0-.8.15-1.56.46-2.3s.74-1.38,1.3-1.95c.56-.56,1.21-1,1.95-1.3.74-.3,1.5-.46,2.3-.46h37.73c.8,0,1.56.15,2.3.46.74.3,1.38.74,1.95,1.3.56.56,1,1.21,1.3,1.95s.46,1.5.46,2.3v37.73c0,.8-.15,1.56-.46,2.3s-.74,1.38-1.3,1.95c-.56.56-1.21,1-1.95,1.3-.74.3-1.5.46-2.3.46h-37.73c-.8,0-1.56-.15-2.3-.46-.74-.3-1.38-.74-1.95-1.3-.56-.56-1-1.21-1.3-1.95s-.46-1.5-.46-2.3Z"/>
    <path class="cls-4" d="M550.8,299.45v-37.73c0-.68.13-1.33.39-1.96.26-.63.63-1.18,1.11-1.66.48-.48,1.03-.85,1.66-1.11s1.28-.39,1.96-.39h37.73c.68,0,1.33.13,1.96.39.63.26,1.18.63,1.66,1.11.48.48.85,1.03,1.11,1.66.26.63.39,1.28.39,1.96v37.73c0,.68-.13,1.33-.39,1.96s-.63,1.18-1.11,1.66c-.48.48-1.03.85-1.66,1.11-.63.26-1.28.39-1.96.39h-37.73c-.68,0-1.33-.13-1.96-.39-.63-.26-1.18-.63-1.66-1.11-.48-.48-.85-1.03-1.11-1.66s-.39-1.28-.39-1.96Z"/>
    <path class="cls-22" d="M574.8,285.85c-1.18,0-1.96-1.3-1.96-4.32s.79-4.27,1.96-4.27,1.94,1.27,1.94,4.27-.78,4.32-1.94,4.32ZM574.8,286.87c1.94,0,3.19-1.78,3.19-5.35s-1.25-5.29-3.19-5.29-3.21,1.72-3.21,5.29,1.24,5.35,3.21,5.35Z"/>
    <path class="cls-22" d="M572.13,321.69h5.63v-1.06h-2.06v-9.21h-.98c-.56.33-1.22.57-2.13.74v.81h1.82v7.66h-2.28v1.06Z"/>
    <path class="cls-18" d="M599.66,299.45v-37.73c0-.8.15-1.56.46-2.3s.74-1.38,1.3-1.95c.56-.56,1.21-1,1.95-1.3.74-.3,1.5-.46,2.3-.46h37.73c.8,0,1.56.15,2.3.46.74.3,1.38.74,1.95,1.3.56.56,1,1.21,1.3,1.95s.46,1.5.46,2.3v37.73c0,.8-.15,1.56-.46,2.3s-.74,1.38-1.3,1.95c-.56.56-1.21,1-1.95,1.3-.74.3-1.5.46-2.3.46h-37.73c-.8,0-1.56-.15-2.3-.46-.74-.3-1.38-.74-1.95-1.3-.56-.56-1-1.21-1.3-1.95s-.46-1.5-.46-2.3Z"/>
    <path class="cls-4" d="M600.54,299.45v-37.73c0-.68.13-1.33.39-1.96.26-.63.63-1.18,1.11-1.66.48-.48,1.03-.85,1.66-1.11s1.28-.39,1.96-.39h37.73c.68,0,1.33.13,1.96.39.63.26,1.18.63,1.66,1.11.48.48.85,1.03,1.11,1.66.26.63.39,1.28.39,1.96v37.73c0,.68-.13,1.33-.39,1.96s-.63,1.18-1.11,1.66c-.48.48-1.03.85-1.66,1.11-.63.26-1.28.39-1.96.39h-37.73c-.68,0-1.33-.13-1.96-.39-.63-.26-1.18-.63-1.66-1.11-.48-.48-.85-1.03-1.11-1.66s-.39-1.28-.39-1.96Z"/>
    <path class="cls-22" d="M621.87,286.69h5.63v-1.06h-2.06v-9.21h-.98c-.56.33-1.22.57-2.13.74v.81h1.82v7.66h-2.28v1.06Z"/>
    <path class="cls-22" d="M621.25,321.69h6.45v-1.11h-2.84c-.52,0-1.15.06-1.68.1,2.41-2.28,4.02-4.37,4.02-6.41,0-1.83-1.15-3.04-2.98-3.04-1.3,0-2.18.6-3.02,1.51l.74.73c.56-.67,1.29-1.19,2.13-1.19,1.27,0,1.89.85,1.89,2.03,0,1.77-1.48,3.81-4.7,6.62v.76Z"/>
    <path class="cls-18" d="M649.39,299.45v-37.73c0-.8.15-1.56.46-2.3s.74-1.38,1.3-1.95c.56-.56,1.21-1,1.95-1.3.74-.3,1.5-.46,2.3-.46h37.73c.8,0,1.56.15,2.3.46.74.3,1.38.74,1.95,1.3.56.56,1,1.21,1.3,1.95s.46,1.5.46,2.3v37.73c0,.8-.15,1.56-.46,2.3s-.74,1.38-1.3,1.95c-.56.56-1.21,1-1.95,1.3-.74.3-1.5.46-2.3.46h-37.73c-.8,0-1.56-.15-2.3-.46-.74-.3-1.38-.74-1.95-1.3-.56-.56-1-1.21-1.3-1.95s-.46-1.5-.46-2.3Z"/>
    <path class="cls-4" d="M650.27,299.45v-37.73c0-.68.13-1.33.39-1.96.26-.63.63-1.18,1.11-1.66.48-.48,1.03-.85,1.66-1.11s1.28-.39,1.96-.39h37.73c.68,0,1.33.13,1.96.39.63.26,1.18.63,1.66,1.11.48.48.85,1.03,1.11,1.66.26.63.39,1.28.39,1.96v37.73c0,.68-.13,1.33-.39,1.96s-.63,1.18-1.11,1.66c-.48.48-1.03.85-1.66,1.11-.63.26-1.28.39-1.96.39h-37.73c-.68,0-1.33-.13-1.96-.39-.63-.26-1.18-.63-1.66-1.11-.48-.48-.85-1.03-1.11-1.66s-.39-1.28-.39-1.96Z"/>
    <path class="cls-22" d="M674.26,285.85c-1.18,0-1.96-1.3-1.96-4.32s.79-4.27,1.96-4.27,1.94,1.27,1.94,4.27-.78,4.32-1.94,4.32ZM674.26,286.87c1.94,0,3.19-1.78,3.19-5.35s-1.25-5.29-3.19-5.29-3.21,1.72-3.21,5.29,1.24,5.35,3.21,5.35Z"/>
    <path class="cls-22" d="M674.07,321.87c1.82,0,3.29-1.09,3.29-2.93,0-1.4-.97-2.32-2.17-2.6v-.05c1.08-.41,1.82-1.23,1.82-2.48,0-1.62-1.26-2.58-2.98-2.58-1.19,0-2.1.52-2.87,1.23l.69.81c.57-.59,1.3-.99,2.13-.99,1.06,0,1.74.65,1.74,1.63,0,1.1-.73,1.96-2.84,1.96v.98c2.37,0,3.19.82,3.19,2.04s-.87,1.92-2.08,1.92-1.95-.55-2.55-1.18l-.64.84c.67.73,1.68,1.4,3.29,1.4Z"/>
    <path class="cls-18" d="M699.12,299.45v-37.73c0-.8.15-1.56.46-2.3s.74-1.38,1.3-1.95c.56-.56,1.21-1,1.95-1.3.74-.3,1.5-.46,2.3-.46h37.73c.8,0,1.56.15,2.3.46.74.3,1.38.74,1.95,1.3.56.56,1,1.21,1.3,1.95s.46,1.5.46,2.3v37.73c0,.8-.15,1.56-.46,2.3s-.74,1.38-1.3,1.95c-.56.56-1.21,1-1.95,1.3-.74.3-1.5.46-2.3.46h-37.73c-.8,0-1.56-.15-2.3-.46-.74-.3-1.38-.74-1.95-1.3-.56-.56-1-1.21-1.3-1.95s-.46-1.5-.46-2.3Z"/>
    <path class="cls-4" d="M700,299.45v-37.73c0-.68.13-1.33.39-1.96.26-.63.63-1.18,1.11-1.66.48-.48,1.03-.85,1.66-1.11s1.28-.39,1.96-.39h37.73c.68,0,1.33.13,1.96.39.63.26,1.18.63,1.66,1.11.48.48.85,1.03,1.11,1.66.26.63.39,1.28.39,1.96v37.73c0,.68-.13,1.33-.39,1.96s-.63,1.18-1.11,1.66c-.48.48-1.03.85-1.66,1.11-.63.26-1.28.39-1.96.39h-37.73c-.68,0-1.33-.13-1.96-.39-.63-.26-1.18-.63-1.66-1.11-.48-.48-.85-1.03-1.11-1.66s-.39-1.28-.39-1.96Z"/>
    <path class="cls-22" d="M724,285.85c-1.18,0-1.96-1.3-1.96-4.32s.79-4.27,1.96-4.27,1.94,1.27,1.94,4.27-.78,4.32-1.94,4.32ZM724,286.87c1.94,0,3.19-1.78,3.19-5.35s-1.25-5.29-3.19-5.29-3.21,1.72-3.21,5.29,1.24,5.35,3.21,5.35Z"/>
    <path class="cls-22" d="M724.87,321.69h1.2v-2.83h1.36v-1.02h-1.36v-6.43h-1.42l-4.27,6.61v.84h4.48v2.83ZM721.72,317.84l2.34-3.5c.29-.51.57-1.01.83-1.51h.05c-.03.53-.07,1.36-.07,1.86v3.15h-3.15Z"/>
    <path class="cls-18" d="M748.86,299.45v-37.73c0-.8.15-1.56.46-2.3s.74-1.38,1.3-1.95c.56-.56,1.21-1,1.95-1.3.74-.3,1.5-.46,2.3-.46h37.73c.8,0,1.56.15,2.3.46.74.3,1.38.74,1.95,1.3.56.56,1,1.21,1.3,1.95s.46,1.5.46,2.3v37.73c0,.8-.15,1.56-.46,2.3s-.74,1.38-1.3,1.95c-.56.56-1.21,1-1.95,1.3-.74.3-1.5.46-2.3.46h-37.73c-.8,0-1.56-.15-2.3-.46-.74-.3-1.38-.74-1.95-1.3-.56-.56-1-1.21-1.3-1.95s-.46-1.5-.46-2.3Z"/>
    <path class="cls-4" d="M749.74,299.45v-37.73c0-.68.13-1.33.39-1.96.26-.63.63-1.18,1.11-1.66.48-.48,1.03-.85,1.66-1.11s1.28-.39,1.96-.39h37.73c.68,0,1.33.13,1.96.39.63.26,1.18.63,1.66,1.11.48.48.85,1.03,1.11,1.66.26.63.39,1.28.39,1.96v37.73c0,.68-.13,1.33-.39,1.96s-.63,1.18-1.11,1.66c-.48.48-1.03.85-1.66,1.11-.63.26-1.28.39-1.96.39h-37.73c-.68,0-1.33-.13-1.96-.39-.63-.26-1.18-.63-1.66-1.11-.48-.48-.85-1.03-1.11-1.66s-.39-1.28-.39-1.96Z"/>
    <path class="cls-22" d="M771.07,286.69h5.63v-1.06h-2.06v-9.21h-.98c-.56.33-1.22.57-2.13.74v.81h1.82v7.66h-2.28v1.06Z"/>
    <path class="cls-22" d="M773.49,321.87c1.74,0,3.36-1.27,3.36-3.53s-1.38-3.26-3.09-3.26c-.62,0-1.06.15-1.53.4l.25-2.97h3.88v-1.1h-5l-.32,4.82.69.42c.59-.39,1.02-.6,1.71-.6,1.29,0,2.13.87,2.13,2.34s-.98,2.42-2.18,2.42-1.93-.55-2.52-1.13l-.63.84c.68.69,1.66,1.36,3.26,1.36Z"/>
    <path class="cls-18" d="M798.59,299.45v-37.73c0-.8.15-1.56.46-2.3s.74-1.38,1.3-1.95c.56-.56,1.21-1,1.95-1.3.74-.3,1.5-.46,2.3-.46h37.73c.8,0,1.56.15,2.3.46.74.3,1.38.74,1.95,1.3.56.56,1,1.21,1.3,1.95s.46,1.5.46,2.3v37.73c0,.8-.15,1.56-.46,2.3s-.74,1.38-1.3,1.95c-.56.56-1.21,1-1.95,1.3-.74.3-1.5.46-2.3.46h-37.73c-.8,0-1.56-.15-2.3-.46-.74-.3-1.38-.74-1.95-1.3-.56-.56-1-1.21-1.3-1.95s-.46-1.5-.46-2.3Z"/>
    <path class="cls-4" d="M799.47,299.45v-37.73c0-.68.13-1.33.39-1.96.26-.63.63-1.18,1.11-1.66.48-.48,1.03-.85,1.66-1.11s1.28-.39,1.96-.39h37.73c.68,0,1.33.13,1.96.39.63.26,1.18.63,1.66,1.11.48.48.85,1.03,1.11,1.66.26.63.39,1.28.39,1.96v37.73c0,.68-.13,1.33-.39,1.96s-.63,1.18-1.11,1.66c-.48.48-1.03.85-1.66,1.11-.63.26-1.28.39-1.96.39h-37.73c-.68,0-1.33-.13-1.96-.39-.63-.26-1.18-.63-1.66-1.11-.48-.48-.85-1.03-1.11-1.66s-.39-1.28-.39-1.96Z"/>
    <path class="cls-22" d="M823.47,285.85c-1.18,0-1.96-1.3-1.96-4.32s.79-4.27,1.96-4.27,1.94,1.27,1.94,4.27-.78,4.32-1.94,4.32ZM823.47,286.87c1.94,0,3.19-1.78,3.19-5.35s-1.25-5.29-3.19-5.29-3.21,1.72-3.21,5.29,1.24,5.35,3.21,5.35Z"/>
    <path class="cls-22" d="M823.79,321.87c1.6,0,2.94-1.34,2.94-3.33,0-2.14-1.11-3.22-2.84-3.22-.81,0-1.71.48-2.34,1.25.05-3.19,1.24-4.27,2.65-4.27.63,0,1.24.29,1.65.78l.7-.8c-.56-.6-1.33-1.05-2.4-1.05-1.99,0-3.79,1.54-3.79,5.56,0,3.39,1.46,5.08,3.43,5.08ZM823.67,316.27c1.25,0,1.86.88,1.86,2.27s-.77,2.34-1.75,2.34c-1.29,0-2.06-1.16-2.21-3.29.63-.94,1.46-1.32,2.1-1.32Z"/>
    <path class="cls-18" d="M848.32,299.45v-37.73c0-.8.15-1.56.46-2.3s.74-1.38,1.3-1.95c.56-.56,1.21-1,1.95-1.3.74-.3,1.5-.46,2.3-.46h37.73c.8,0,1.56.15,2.3.46.74.3,1.38.74,1.95,1.3.56.56,1,1.21,1.3,1.95s.46,1.5.46,2.3v37.73c0,.8-.15,1.56-.46,2.3s-.74,1.38-1.3,1.95c-.56.56-1.21,1-1.95,1.3-.74.3-1.5.46-2.3.46h-37.73c-.8,0-1.56-.15-2.3-.46-.74-.3-1.38-.74-1.95-1.3-.56-.56-1-1.21-1.3-1.95s-.46-1.5-.46-2.3Z"/>
    <path class="cls-4" d="M849.2,299.45v-37.73c0-.68.13-1.33.39-1.96.26-.63.63-1.18,1.11-1.66.48-.48,1.03-.85,1.66-1.11s1.28-.39,1.96-.39h37.73c.68,0,1.33.13,1.96.39.63.26,1.18.63,1.66,1.11.48.48.85,1.03,1.11,1.66.26.63.39,1.28.39,1.96v37.73c0,.68-.13,1.33-.39,1.96s-.63,1.18-1.11,1.66c-.48.48-1.03.85-1.66,1.11-.63.26-1.28.39-1.96.39h-37.73c-.68,0-1.33-.13-1.96-.39-.63-.26-1.18-.63-1.66-1.11-.48-.48-.85-1.03-1.11-1.66s-.39-1.28-.39-1.96Z"/>
    <path class="cls-22" d="M870.54,286.69h5.63v-1.06h-2.06v-9.21h-.98c-.56.33-1.22.57-2.13.74v.81h1.82v7.66h-2.28v1.06Z"/>
    <path class="cls-22" d="M872.08,321.69h1.33c.15-4.02.6-6.41,3.01-9.49v-.78h-6.43v1.1h4.97c-2,2.8-2.72,5.28-2.88,9.17Z"/>
    <path class="cls-20" d="M549.92,113.71v-37.73c0-.8.15-1.56.46-2.3.3-.74.74-1.38,1.3-1.95.56-.56,1.21-1,1.95-1.3.74-.3,1.5-.46,2.3-.46h37.73c.8,0,1.56.15,2.3.46.74.3,1.38.74,1.95,1.3.56.56,1,1.21,1.3,1.95.3.74.46,1.5.46,2.3v37.73c0,.8-.15,1.56-.46,2.3-.3.74-.74,1.38-1.3,1.95s-1.21,1-1.95,1.3c-.74.3-1.5.46-2.3.46h-37.73c-.8,0-1.56-.15-2.3-.46-.74-.3-1.38-.74-1.95-1.3-.56-.56-1-1.21-1.3-1.95-.3-.74-.46-1.5-.46-2.3Z"/>
    <path class="cls-6" d="M550.8,113.71v-37.73c0-.68.13-1.33.39-1.96.26-.63.63-1.18,1.11-1.66.48-.48,1.03-.85,1.66-1.11s1.28-.39,1.96-.39h37.73c.68,0,1.33.13,1.96.39s1.18.63,1.66,1.11.85,1.03,1.11,1.66c.26.63.39,1.28.39,1.96v37.73c0,.68-.13,1.33-.39,1.96s-.63,1.18-1.11,1.66-1.03.85-1.66,1.11-1.28.39-1.96.39h-37.73c-.68,0-1.33-.13-1.96-.39s-1.18-.63-1.66-1.11c-.48-.48-.85-1.03-1.11-1.66s-.39-1.28-.39-1.96Z"/>
    <path class="cls-22" d="M587.01,100.94h5.63v-1.06h-2.06v-9.21h-.98c-.56.33-1.22.57-2.13.74v.81h1.82v7.66h-2.28v1.06ZM581.28,100.1c-.76,0-1.34-.35-1.34-1.22,0-.98.87-1.61,3.43-1.92v2.13c-.74.66-1.35,1.01-2.09,1.01ZM580.92,101.12c.94,0,1.79-.49,2.52-1.09h.04l.11.91h1.05v-4.68c0-1.88-.78-3.12-2.63-3.12-1.22,0-2.29.54-2.99.99l.5.88c.6-.4,1.4-.81,2.28-.81,1.24,0,1.57.94,1.57,1.92-3.24.36-4.68,1.19-4.68,2.84,0,1.37.95,2.16,2.23,2.16ZM576.29,101.12c.46,0,.97-.14,1.4-.28l-.25-.95c-.25.1-.6.19-.87.19-.88,0-1.18-.53-1.18-1.47v-4.24h2.06v-1.04h-2.06v-2.14h-1.06l-.15,2.14-1.19.07v.97h1.13v4.21c0,1.51.55,2.53,2.17,2.53ZM568.11,100.1c-.76,0-1.34-.35-1.34-1.22,0-.98.87-1.61,3.43-1.92v2.13c-.74.66-1.35,1.01-2.09,1.01ZM567.75,101.12c.94,0,1.79-.49,2.52-1.09h.04l.11.91h1.05v-4.68c0-1.88-.78-3.12-2.63-3.12-1.22,0-2.29.54-2.99.99l.5.88c.6-.4,1.4-.81,2.28-.81,1.24,0,1.57.94,1.57,1.92-3.24.36-4.68,1.19-4.68,2.84,0,1.37.95,2.16,2.23,2.16ZM560.19,100.06c-1.35,0-2.1-1.09-2.1-2.93,0-1.74.97-2.91,2.2-2.91.63,0,1.2.22,1.86.8v3.99c-.64.7-1.26,1.05-1.96,1.05ZM559.91,101.12c.91,0,1.71-.49,2.31-1.08h.04l.11.9h1.04v-11.14h-1.26v2.93l.05,1.32c-.67-.56-1.24-.9-2.14-.9-1.74,0-3.29,1.54-3.29,4s1.23,3.98,3.14,3.98Z"/>
    <path class="cls-20" d="M798.59,113.71v-37.73c0-.8.15-1.56.46-2.3.3-.74.74-1.38,1.3-1.95.56-.56,1.21-1,1.95-1.3.74-.3,1.5-.46,2.3-.46h37.73c.8,0,1.56.15,2.3.46.74.3,1.38.74,1.95,1.3.56.56,1,1.21,1.3,1.95.3.74.46,1.5.46,2.3v37.73c0,.8-.15,1.56-.46,2.3-.3.74-.74,1.38-1.3,1.95s-1.21,1-1.95,1.3c-.74.3-1.5.46-2.3.46h-37.73c-.8,0-1.56-.15-2.3-.46-.74-.3-1.38-.74-1.95-1.3-.56-.56-1-1.21-1.3-1.95-.3-.74-.46-1.5-.46-2.3Z"/>
    <path class="cls-6" d="M799.47,113.71v-37.73c0-.68.13-1.33.39-1.96.26-.63.63-1.18,1.11-1.66.48-.48,1.03-.85,1.66-1.11s1.28-.39,1.96-.39h37.73c.68,0,1.33.13,1.96.39s1.18.63,1.66,1.11.85,1.03,1.11,1.66c.26.63.39,1.28.39,1.96v37.73c0,.68-.13,1.33-.39,1.96s-.63,1.18-1.11,1.66-1.03.85-1.66,1.11-1.28.39-1.96.39h-37.73c-.68,0-1.33-.13-1.96-.39s-1.18-.63-1.66-1.11c-.48-.48-.85-1.03-1.11-1.66s-.39-1.28-.39-1.96Z"/>
    <path class="cls-22" d="M835.06,100.94h6.45v-1.11h-2.84c-.52,0-1.15.06-1.68.1,2.41-2.28,4.02-4.37,4.02-6.41,0-1.83-1.15-3.04-2.98-3.04-1.3,0-2.18.6-3.02,1.51l.74.73c.56-.67,1.29-1.19,2.13-1.19,1.27,0,1.89.85,1.89,2.03,0,1.77-1.48,3.81-4.7,6.62v.76ZM829.95,100.1c-.76,0-1.34-.35-1.34-1.22,0-.98.87-1.61,3.43-1.92v2.13c-.74.66-1.35,1.01-2.09,1.01ZM829.59,101.12c.94,0,1.79-.49,2.52-1.09h.04l.11.91h1.05v-4.68c0-1.88-.78-3.12-2.63-3.12-1.22,0-2.29.54-2.99.99l.5.88c.6-.4,1.4-.81,2.28-.81,1.24,0,1.57.94,1.57,1.92-3.24.36-4.68,1.19-4.68,2.84,0,1.37.95,2.16,2.23,2.16ZM824.95,101.12c.46,0,.97-.14,1.4-.28l-.25-.95c-.25.1-.6.19-.87.19-.88,0-1.18-.53-1.18-1.47v-4.24h2.06v-1.04h-2.06v-2.14h-1.06l-.15,2.14-1.19.07v.97h1.13v4.21c0,1.51.55,2.53,2.17,2.53ZM816.78,100.1c-.76,0-1.34-.35-1.34-1.22,0-.98.87-1.61,3.43-1.92v2.13c-.74.66-1.35,1.01-2.09,1.01ZM816.42,101.12c.94,0,1.79-.49,2.52-1.09h.04l.11.91h1.05v-4.68c0-1.88-.78-3.12-2.63-3.12-1.22,0-2.29.54-2.99.99l.5.88c.6-.4,1.4-.81,2.28-.81,1.24,0,1.57.94,1.57,1.92-3.24.36-4.68,1.19-4.68,2.84,0,1.37.95,2.16,2.23,2.16ZM808.86,100.06c-1.35,0-2.1-1.09-2.1-2.93,0-1.74.97-2.91,2.2-2.91.63,0,1.2.22,1.86.8v3.99c-.64.7-1.26,1.05-1.96,1.05ZM808.58,101.12c.91,0,1.71-.49,2.31-1.08h.04l.11.9h1.04v-11.14h-1.26v2.93l.05,1.32c-.67-.56-1.24-.9-2.14-.9-1.74,0-3.29,1.54-3.29,4s1.23,3.98,3.14,3.98Z"/>
    <path class="cls-2" d="M748.86,196.09v-37.73c0-.8.15-1.56.46-2.3.3-.74.74-1.38,1.3-1.95.56-.56,1.21-1,1.95-1.3.74-.3,1.5-.46,2.3-.46h37.73c.8,0,1.56.15,2.3.46.74.3,1.38.74,1.95,1.3s1,1.21,1.3,1.95c.3.74.46,1.5.46,2.3v37.73c0,.8-.15,1.56-.46,2.3-.3.74-.74,1.38-1.3,1.95s-1.21,1-1.95,1.3c-.74.3-1.5.46-2.3.46h-37.73c-.8,0-1.56-.15-2.3-.46-.74-.3-1.38-.74-1.95-1.3-.56-.56-1-1.21-1.3-1.95-.3-.74-.46-1.5-.46-2.3Z"/>
    <path class="cls-5" d="M749.74,196.09v-37.73c0-.68.13-1.33.39-1.96s.63-1.18,1.11-1.66c.48-.48,1.03-.85,1.66-1.11.63-.26,1.28-.39,1.96-.39h37.73c.68,0,1.33.13,1.96.39.63.26,1.18.63,1.66,1.11.48.48.85,1.03,1.11,1.66s.39,1.28.39,1.96v37.73c0,.68-.13,1.33-.39,1.96s-.63,1.18-1.11,1.66-1.03.85-1.66,1.11-1.28.39-1.96.39h-37.73c-.68,0-1.33-.13-1.96-.39s-1.18-.63-1.66-1.11c-.48-.48-.85-1.03-1.11-1.66s-.39-1.28-.39-1.96Z"/>
    <path class="cls-22" d="M785.43,183.33h5.63v-1.06h-2.06v-9.21h-.98c-.56.33-1.22.57-2.13.74v.81h1.82v7.66h-2.28v1.06ZM781.36,183.51c.91,0,1.78-.35,2.46-.96l-.56-.85c-.48.43-1.09.76-1.79.76-1.4,0-2.35-1.16-2.35-2.91s1.01-2.94,2.39-2.94c.6,0,1.07.28,1.51.67l.66-.84c-.54-.48-1.23-.9-2.23-.9-1.94,0-3.67,1.47-3.67,4s1.56,3.98,3.57,3.98ZM769.81,183.33h1.27v-5.52c.77-.77,1.3-1.16,2.08-1.16,1.01,0,1.44.6,1.44,2.03v4.65h1.27v-4.82c0-1.94-.72-2.98-2.32-2.98-1.04,0-1.82.57-2.55,1.29h-.04l-.11-1.09h-1.05v7.6ZM763.52,183.51c1.05,0,1.8-.54,2.52-1.37h.04l.1,1.19h1.07v-7.6h-1.27v5.39c-.73.91-1.27,1.29-2.06,1.29-1.01,0-1.43-.6-1.43-2.02v-4.66h-1.27v4.82c0,1.93.71,2.97,2.31,2.97ZM756.97,183.33h1.27v-6.57h1.61v-1.04h-1.61v-1.2c0-.98.35-1.5,1.08-1.5.27,0,.57.07.85.2l.28-.97c-.35-.15-.81-.25-1.27-.25-1.51,0-2.21.97-2.21,2.51v1.22l-1.04.07v.97h1.04v6.57Z"/>
    <path class="cls-19" d="M798.59,196.09v-37.73c0-.8.15-1.56.46-2.3.3-.74.74-1.38,1.3-1.95.56-.56,1.21-1,1.95-1.3.74-.3,1.5-.46,2.3-.46h37.73c.8,0,1.56.15,2.3.46.74.3,1.38.74,1.95,1.3s1,1.21,1.3,1.95c.3.74.46,1.5.46,2.3v37.73c0,.8-.15,1.56-.46,2.3-.3.74-.74,1.38-1.3,1.95s-1.21,1-1.95,1.3c-.74.3-1.5.46-2.3.46h-37.73c-.8,0-1.56-.15-2.3-.46-.74-.3-1.38-.74-1.95-1.3-.56-.56-1-1.21-1.3-1.95-.3-.74-.46-1.5-.46-2.3Z"/>
    <path class="cls-7" d="M799.47,196.09v-37.73c0-.68.13-1.33.39-1.96s.63-1.18,1.11-1.66c.48-.48,1.03-.85,1.66-1.11.63-.26,1.28-.39,1.96-.39h37.73c.68,0,1.33.13,1.96.39.63.26,1.18.63,1.66,1.11.48.48.85,1.03,1.11,1.66s.39,1.28.39,1.96v37.73c0,.68-.13,1.33-.39,1.96s-.63,1.18-1.11,1.66-1.03.85-1.66,1.11-1.28.39-1.96.39h-37.73c-.68,0-1.33-.13-1.96-.39s-1.18-.63-1.66-1.11c-.48-.48-.85-1.03-1.11-1.66s-.39-1.28-.39-1.96Z"/>
    <path class="cls-22" d="M834.55,183.33h6.45v-1.11h-2.84c-.52,0-1.15.06-1.68.1,2.41-2.28,4.02-4.37,4.02-6.41,0-1.83-1.15-3.04-2.98-3.04-1.3,0-2.18.6-3.02,1.51l.74.73c.56-.67,1.29-1.19,2.13-1.19,1.27,0,1.89.85,1.89,2.03,0,1.77-1.48,3.81-4.7,6.62v.76ZM831.09,183.51c.91,0,1.78-.35,2.46-.96l-.56-.85c-.48.43-1.09.76-1.79.76-1.4,0-2.35-1.16-2.35-2.91s1.01-2.94,2.39-2.94c.6,0,1.07.28,1.51.67l.66-.84c-.54-.48-1.23-.9-2.23-.9-1.94,0-3.67,1.47-3.67,4s1.56,3.98,3.57,3.98ZM819.55,183.33h1.27v-5.52c.77-.77,1.3-1.16,2.08-1.16,1.01,0,1.44.6,1.44,2.03v4.65h1.27v-4.82c0-1.94-.72-2.98-2.32-2.98-1.04,0-1.82.57-2.55,1.29h-.04l-.11-1.09h-1.05v7.6ZM813.26,183.51c1.05,0,1.8-.54,2.52-1.37h.04l.1,1.19h1.07v-7.6h-1.27v5.39c-.73.91-1.27,1.29-2.06,1.29-1.01,0-1.43-.6-1.43-2.02v-4.66h-1.27v4.82c0,1.93.71,2.97,2.31,2.97ZM806.71,183.33h1.27v-6.57h1.61v-1.04h-1.61v-1.2c0-.98.35-1.5,1.08-1.5.27,0,.57.07.85.2l.28-.97c-.35-.15-.81-.25-1.27-.25-1.51,0-2.21.97-2.21,2.51v1.22l-1.04.07v.97h1.04v6.57Z"/>
    <path class="cls-16" d="M848.32,196.09v-37.73c0-.8.15-1.56.46-2.3.3-.74.74-1.38,1.3-1.95.56-.56,1.21-1,1.95-1.3.74-.3,1.5-.46,2.3-.46h37.73c.8,0,1.56.15,2.3.46.74.3,1.38.74,1.95,1.3s1,1.21,1.3,1.95c.3.74.46,1.5.46,2.3v37.73c0,.8-.15,1.56-.46,2.3-.3.74-.74,1.38-1.3,1.95s-1.21,1-1.95,1.3c-.74.3-1.5.46-2.3.46h-37.73c-.8,0-1.56-.15-2.3-.46-.74-.3-1.38-.74-1.95-1.3-.56-.56-1-1.21-1.3-1.95-.3-.74-.46-1.5-.46-2.3Z"/>
    <path class="cls-10" d="M849.2,196.09v-37.73c0-.68.13-1.33.39-1.96s.63-1.18,1.11-1.66c.48-.48,1.03-.85,1.66-1.11.63-.26,1.28-.39,1.96-.39h37.73c.68,0,1.33.13,1.96.39.63.26,1.18.63,1.66,1.11.48.48.85,1.03,1.11,1.66s.39,1.28.39,1.96v37.73c0,.68-.13,1.33-.39,1.96s-.63,1.18-1.11,1.66-1.03.85-1.66,1.11-1.28.39-1.96.39h-37.73c-.68,0-1.33-.13-1.96-.39s-1.18-.63-1.66-1.11c-.48-.48-.85-1.03-1.11-1.66s-.39-1.28-.39-1.96Z"/>
    <path class="cls-22" d="M887.37,183.51c1.82,0,3.29-1.09,3.29-2.93,0-1.4-.97-2.32-2.17-2.6v-.05c1.08-.41,1.82-1.23,1.82-2.48,0-1.62-1.26-2.58-2.98-2.58-1.19,0-2.1.52-2.87,1.23l.69.81c.57-.59,1.3-.99,2.13-.99,1.06,0,1.74.65,1.74,1.63,0,1.1-.73,1.96-2.84,1.96v.98c2.37,0,3.19.82,3.19,2.04s-.87,1.92-2.08,1.92-1.95-.55-2.55-1.18l-.64.84c.67.73,1.68,1.4,3.29,1.4ZM880.83,183.51c.91,0,1.78-.35,2.46-.96l-.56-.85c-.48.43-1.09.76-1.79.76-1.4,0-2.35-1.16-2.35-2.91s1.01-2.94,2.39-2.94c.6,0,1.07.28,1.51.67l.66-.84c-.54-.48-1.23-.9-2.23-.9-1.94,0-3.67,1.47-3.67,4s1.56,3.98,3.57,3.98ZM869.28,183.33h1.27v-5.52c.77-.77,1.3-1.16,2.08-1.16,1.01,0,1.44.6,1.44,2.03v4.65h1.27v-4.82c0-1.94-.72-2.98-2.32-2.98-1.04,0-1.82.57-2.55,1.29h-.04l-.11-1.09h-1.05v7.6ZM862.99,183.51c1.05,0,1.8-.54,2.52-1.37h.04l.1,1.19h1.07v-7.6h-1.27v5.39c-.73.91-1.27,1.29-2.06,1.29-1.01,0-1.43-.6-1.43-2.02v-4.66h-1.27v4.82c0,1.93.71,2.97,2.31,2.97ZM856.44,183.33h1.27v-6.57h1.61v-1.04h-1.61v-1.2c0-.98.35-1.5,1.08-1.5.27,0,.57.07.85.2l.28-.97c-.35-.15-.81-.25-1.27-.25-1.51,0-2.21.97-2.21,2.51v1.22l-1.04.07v.97h1.04v6.57Z"/>
    <path class="cls-15" d="M872.19,148.36v-6c0-.67.33-1,1-1s1,.33,1,1v6c0,.67-.33,1-1,1s-1-.33-1-1ZM867.9,141.65l6,6-.71.71-.71-.71,6-6c.47-.47.94-.47,1.41,0,.47.47.47.94,0,1.41l-6,6c-.47.47-.94.47-1.41,0l-6-6c-.47-.47-.47-.94,0-1.41.47-.47.94-.47,1.41,0Z"/>
    <path class="cls-11" d="M823.46,123.71c0,23.8,49.73-5.14,49.73,18.65"/>
    <path class="cls-15" d="M872.19,251.72v-6c0-.67.33-1,1-1s1,.33,1,1v6c0,.67-.33,1-1,1s-1-.33-1-1ZM867.9,245.01l6,6-.71.71-.71-.71,6-6c.47-.47.94-.47,1.41,0,.47.47.47.94,0,1.41l-6,6c-.47.47-.94.47-1.41,0l-6-6c-.47-.47-.47-.94,0-1.41.47-.47.94-.47,1.41,0Z"/>
    <path class="cls-11" d="M873.19,206.09v39.62"/>
    <path class="cls-12" d="M822.46,148.36v-6c0-.67.33-1,1-1s1,.33,1,1v6c0,.67-.33,1-1,1s-1-.33-1-1ZM818.16,141.65l6,6-.71.71-.71-.71,6-6c.47-.47.94-.47,1.41,0,.47.47.47.94,0,1.41l-6,6c-.47.47-.94.47-1.41,0l-6-6c-.47-.47-.47-.94,0-1.41.47-.47.94-.47,1.41,0Z"/>
    <line class="cls-3" x1="823.46" y1="123.71" x2="823.46" y2="142.36"/>
    <path class="cls-12" d="M772.72,251.72v-6c0-.67.33-1,1-1s1,.33,1,1v6c0,.67-.33,1-1,1s-1-.33-1-1ZM768.43,245.01l6,6-.71.71-.71-.71,6-6c.47-.47.94-.47,1.41,0,.47.47.47.94,0,1.41l-6,6c-.47.47-.94.47-1.41,0l-6-6c-.47-.47-.47-.94,0-1.41.47-.47.94-.47,1.41,0Z"/>
    <path class="cls-3" d="M823.46,206.09c0,29.25-49.73,10.37-49.73,39.62"/>
    <path class="cls-2" d="M500.19,196.09v-37.73c0-.8.15-1.56.46-2.3.3-.74.74-1.38,1.3-1.95.56-.56,1.21-1,1.95-1.3.74-.3,1.5-.46,2.3-.46h37.73c.8,0,1.56.15,2.3.46.74.3,1.38.74,1.95,1.3s1,1.21,1.3,1.95c.3.74.46,1.5.46,2.3v37.73c0,.8-.15,1.56-.46,2.3-.3.74-.74,1.38-1.3,1.95s-1.21,1-1.95,1.3c-.74.3-1.5.46-2.3.46h-37.73c-.8,0-1.56-.15-2.3-.46-.74-.3-1.38-.74-1.95-1.3-.56-.56-1-1.21-1.3-1.95-.3-.74-.46-1.5-.46-2.3Z"/>
    <path class="cls-5" d="M501.07,196.09v-37.73c0-.68.13-1.33.39-1.96s.63-1.18,1.11-1.66c.48-.48,1.03-.85,1.66-1.11.63-.26,1.28-.39,1.96-.39h37.73c.68,0,1.33.13,1.96.39.63.26,1.18.63,1.66,1.11.48.48.85,1.03,1.11,1.66s.39,1.28.39,1.96v37.73c0,.68-.13,1.33-.39,1.96s-.63,1.18-1.11,1.66-1.03.85-1.66,1.11-1.28.39-1.96.39h-37.73c-.68,0-1.33-.13-1.96-.39-.63-.26-1.18-.63-1.66-1.11s-.85-1.03-1.11-1.66-.39-1.28-.39-1.96Z"/>
    <path class="cls-22" d="M536.77,183.33h5.63v-1.06h-2.06v-9.21h-.98c-.56.33-1.22.57-2.13.74v.81h1.82v7.66h-2.28v1.06ZM532.69,183.51c.91,0,1.78-.35,2.46-.96l-.56-.85c-.48.43-1.09.76-1.79.76-1.4,0-2.35-1.16-2.35-2.91s1.01-2.94,2.39-2.94c.6,0,1.07.28,1.51.67l.66-.84c-.54-.48-1.23-.9-2.23-.9-1.94,0-3.67,1.47-3.67,4s1.56,3.98,3.57,3.98ZM521.14,183.33h1.27v-5.52c.77-.77,1.3-1.16,2.08-1.16,1.01,0,1.44.6,1.44,2.03v4.65h1.27v-4.82c0-1.94-.72-2.98-2.32-2.98-1.04,0-1.82.57-2.55,1.29h-.04l-.11-1.09h-1.05v7.6ZM514.86,183.51c1.05,0,1.8-.54,2.52-1.37h.04l.1,1.19h1.07v-7.6h-1.27v5.39c-.73.91-1.27,1.29-2.06,1.29-1.01,0-1.43-.6-1.43-2.02v-4.66h-1.27v4.82c0,1.93.71,2.97,2.31,2.97ZM508.3,183.33h1.27v-6.57h1.61v-1.04h-1.61v-1.2c0-.98.35-1.5,1.08-1.5.27,0,.57.07.85.2l.28-.97c-.35-.15-.81-.25-1.27-.25-1.51,0-2.21.97-2.21,2.51v1.22l-1.04.07v.97h1.04v6.57Z"/>
    <path class="cls-19" d="M549.92,196.09v-37.73c0-.8.15-1.56.46-2.3.3-.74.74-1.38,1.3-1.95.56-.56,1.21-1,1.95-1.3.74-.3,1.5-.46,2.3-.46h37.73c.8,0,1.56.15,2.3.46.74.3,1.38.74,1.95,1.3s1,1.21,1.3,1.95c.3.74.46,1.5.46,2.3v37.73c0,.8-.15,1.56-.46,2.3-.3.74-.74,1.38-1.3,1.95s-1.21,1-1.95,1.3c-.74.3-1.5.46-2.3.46h-37.73c-.8,0-1.56-.15-2.3-.46-.74-.3-1.38-.74-1.95-1.3-.56-.56-1-1.21-1.3-1.95-.3-.74-.46-1.5-.46-2.3Z"/>
    <path class="cls-7" d="M550.8,196.09v-37.73c0-.68.13-1.33.39-1.96s.63-1.18,1.11-1.66c.48-.48,1.03-.85,1.66-1.11.63-.26,1.28-.39,1.96-.39h37.73c.68,0,1.33.13,1.96.39.63.26,1.18.63,1.66,1.11.48.48.85,1.03,1.11,1.66s.39,1.28.39,1.96v37.73c0,.68-.13,1.33-.39,1.96s-.63,1.18-1.11,1.66-1.03.85-1.66,1.11-1.28.39-1.96.39h-37.73c-.68,0-1.33-.13-1.96-.39s-1.18-.63-1.66-1.11c-.48-.48-.85-1.03-1.11-1.66s-.39-1.28-.39-1.96Z"/>
    <path class="cls-22" d="M585.88,183.33h6.45v-1.11h-2.84c-.52,0-1.15.06-1.68.1,2.41-2.28,4.02-4.37,4.02-6.41,0-1.83-1.15-3.04-2.98-3.04-1.3,0-2.18.6-3.02,1.51l.74.73c.56-.67,1.29-1.19,2.13-1.19,1.27,0,1.89.85,1.89,2.03,0,1.77-1.48,3.81-4.7,6.62v.76ZM582.43,183.51c.91,0,1.78-.35,2.46-.96l-.56-.85c-.48.43-1.09.76-1.79.76-1.4,0-2.35-1.16-2.35-2.91s1.01-2.94,2.39-2.94c.6,0,1.07.28,1.51.67l.66-.84c-.54-.48-1.23-.9-2.23-.9-1.94,0-3.67,1.47-3.67,4s1.56,3.98,3.57,3.98ZM570.88,183.33h1.27v-5.52c.77-.77,1.3-1.16,2.08-1.16,1.01,0,1.44.6,1.44,2.03v4.65h1.27v-4.82c0-1.94-.72-2.98-2.32-2.98-1.04,0-1.82.57-2.55,1.29h-.04l-.11-1.09h-1.05v7.6ZM564.59,183.51c1.05,0,1.8-.54,2.52-1.37h.04l.1,1.19h1.07v-7.6h-1.27v5.39c-.73.91-1.27,1.29-2.06,1.29-1.01,0-1.43-.6-1.43-2.02v-4.66h-1.27v4.82c0,1.93.71,2.97,2.31,2.97ZM558.04,183.33h1.27v-6.57h1.61v-1.04h-1.61v-1.2c0-.98.35-1.5,1.08-1.5.27,0,.57.07.85.2l.28-.97c-.35-.15-.81-.25-1.27-.25-1.51,0-2.21.97-2.21,2.51v1.22l-1.04.07v.97h1.04v6.57Z"/>
    <path class="cls-16" d="M599.66,196.09v-37.73c0-.8.15-1.56.46-2.3.3-.74.74-1.38,1.3-1.95.56-.56,1.21-1,1.95-1.3.74-.3,1.5-.46,2.3-.46h37.73c.8,0,1.56.15,2.3.46.74.3,1.38.74,1.95,1.3s1,1.21,1.3,1.95c.3.74.46,1.5.46,2.3v37.73c0,.8-.15,1.56-.46,2.3-.3.74-.74,1.38-1.3,1.95s-1.21,1-1.95,1.3c-.74.3-1.5.46-2.3.46h-37.73c-.8,0-1.56-.15-2.3-.46-.74-.3-1.38-.74-1.95-1.3-.56-.56-1-1.21-1.3-1.95-.3-.74-.46-1.5-.46-2.3Z"/>
    <path class="cls-10" d="M600.54,196.09v-37.73c0-.68.13-1.33.39-1.96s.63-1.18,1.11-1.66c.48-.48,1.03-.85,1.66-1.11.63-.26,1.28-.39,1.96-.39h37.73c.68,0,1.33.13,1.96.39.63.26,1.18.63,1.66,1.11.48.48.85,1.03,1.11,1.66s.39,1.28.39,1.96v37.73c0,.68-.13,1.33-.39,1.96s-.63,1.18-1.11,1.66-1.03.85-1.66,1.11-1.28.39-1.96.39h-37.73c-.68,0-1.33-.13-1.96-.39s-1.18-.63-1.66-1.11c-.48-.48-.85-1.03-1.11-1.66s-.39-1.28-.39-1.96Z"/>
    <path class="cls-22" d="M638.7,183.51c1.82,0,3.29-1.09,3.29-2.93,0-1.4-.97-2.32-2.17-2.6v-.05c1.08-.41,1.82-1.23,1.82-2.48,0-1.62-1.26-2.58-2.98-2.58-1.19,0-2.1.52-2.87,1.23l.69.81c.57-.59,1.3-.99,2.13-.99,1.06,0,1.74.65,1.74,1.63,0,1.1-.73,1.96-2.84,1.96v.98c2.37,0,3.19.82,3.19,2.04s-.87,1.92-2.08,1.92-1.95-.55-2.55-1.18l-.64.84c.67.73,1.68,1.4,3.29,1.4ZM632.16,183.51c.91,0,1.78-.35,2.46-.96l-.56-.85c-.48.43-1.09.76-1.79.76-1.4,0-2.35-1.16-2.35-2.91s1.01-2.94,2.39-2.94c.6,0,1.07.28,1.51.67l.66-.84c-.54-.48-1.23-.9-2.23-.9-1.94,0-3.67,1.47-3.67,4s1.56,3.98,3.57,3.98ZM620.61,183.33h1.27v-5.52c.77-.77,1.3-1.16,2.08-1.16,1.01,0,1.44.6,1.44,2.03v4.65h1.27v-4.82c0-1.94-.72-2.98-2.32-2.98-1.04,0-1.82.57-2.55,1.29h-.04l-.11-1.09h-1.05v7.6ZM614.32,183.51c1.05,0,1.8-.54,2.52-1.37h.04l.1,1.19h1.07v-7.6h-1.27v5.39c-.73.91-1.27,1.29-2.06,1.29-1.01,0-1.43-.6-1.43-2.02v-4.66h-1.27v4.82c0,1.93.71,2.97,2.31,2.97ZM607.77,183.33h1.27v-6.57h1.61v-1.04h-1.61v-1.2c0-.98.35-1.5,1.08-1.5.27,0,.57.07.85.2l.28-.97c-.35-.15-.81-.25-1.27-.25-1.51,0-2.21.97-2.21,2.51v1.22l-1.04.07v.97h1.04v6.57Z"/>
    <path class="cls-12" d="M573.79,148.36v-6c0-.67.33-1,1-1s1,.33,1,1v6c0,.67-.33,1-1,1s-1-.33-1-1ZM569.5,141.65l6,6-.71.71-.71-.71,6-6c.47-.47.94-.47,1.41,0,.47.47.47.94,0,1.41l-6,6c-.47.47-.94.47-1.41,0l-6-6c-.47-.47-.47-.94,0-1.41.47-.47.94-.47,1.41,0Z"/>
    <line class="cls-3" x1="574.79" y1="123.71" x2="574.79" y2="142.36"/>
    <path class="cls-12" d="M673.26,251.72v-6c0-.67.33-1,1-1s1,.33,1,1v6c0,.67-.33,1-1,1s-1-.33-1-1ZM668.96,245.01l6,6-.71.71-.71-.71,6-6c.47-.47.94-.47,1.41,0,.47.47.47.94,0,1.41l-6,6c-.47.47-.94.47-1.41,0l-6-6c-.47-.47-.47-.94,0-1.41.47-.47.94-.47,1.41,0Z"/>
    <path class="cls-3" d="M574.79,206.09c0,40,99.47-.38,99.47,39.62"/>
    <path class="cls-15" d="M623.52,148.36v-6c0-.67.33-1,1-1s1,.33,1,1v6c0,.67-.33,1-1,1s-1-.33-1-1ZM619.23,141.65l6,6-.71.71-.71-.71,6-6c.47-.47.94-.47,1.41,0,.47.47.47.94,0,1.41l-6,6c-.47.47-.94.47-1.41,0l-6-6c-.47-.47-.47-.94,0-1.41.47-.47.94-.47,1.41,0Z"/>
    <path class="cls-11" d="M574.79,123.71c0,23.8,49.73-5.14,49.73,18.65"/>
    <path class="cls-15" d="M524.06,251.72v-6c0-.67.33-1,1-1s1,.33,1,1v6c0,.67-.33,1-1,1s-1-.33-1-1ZM519.76,245.01l6,6-.71.71-.71-.71,6-6c.47-.47.94-.47,1.41,0,.47.47.47.94,0,1.41l-6,6c-.47.47-.94.47-1.41,0l-6-6c-.47-.47-.47-.94,0-1.41.47-.47.94-.47,1.41,0Z"/>
    <path class="cls-11" d="M624.52,206.09c0,40-99.47-.38-99.47,39.62"/>
    <path class="cls-17" d="M772.72,148.36v-6c0-.67.33-1,1-1s1,.33,1,1v6c0,.67-.33,1-1,1s-1-.33-1-1ZM768.43,141.65l6,6-.71.71-.71-.71,6-6c.47-.47.94-.47,1.41,0,.47.47.47.94,0,1.41l-6,6c-.47.47-.94.47-1.41,0l-6-6c-.47-.47-.47-.94,0-1.41.47-.47.94-.47,1.41,0Z"/>
    <path class="cls-9" d="M823.46,123.71c0,23.8-49.73-5.14-49.73,18.65"/>
    <path class="cls-17" d="M673.26,251.72v-6c0-.67.33-1,1-1s1,.33,1,1v6c0,.67-.33,1-1,1s-1-.33-1-1ZM668.96,245.01l6,6-.71.71-.71-.71,6-6c.47-.47.94-.47,1.41,0,.47.47.47.94,0,1.41l-6,6c-.47.47-.94.47-1.41,0l-6-6c-.47-.47-.47-.94,0-1.41.47-.47.94-.47,1.41,0Z"/>
    <path class="cls-9" d="M773.72,206.09c0,40-99.47-.38-99.47,39.62"/>
    <path class="cls-17" d="M524.06,148.36v-6c0-.67.33-1,1-1s1,.33,1,1v6c0,.67-.33,1-1,1s-1-.33-1-1ZM519.76,141.65l6,6-.71.71-.71-.71,6-6c.47-.47.94-.47,1.41,0,.47.47.47.94,0,1.41l-6,6c-.47.47-.94.47-1.41,0l-6-6c-.47-.47-.47-.94,0-1.41.47-.47.94-.47,1.41,0Z"/>
    <path class="cls-9" d="M574.79,123.71c0,23.8-49.73-5.14-49.73,18.65"/>
    <path class="cls-17" d="M524.06,251.72v-6c0-.67.33-1,1-1s1,.33,1,1v6c0,.67-.33,1-1,1s-1-.33-1-1ZM519.76,245.01l6,6-.71.71-.71-.71,6-6c.47-.47.94-.47,1.41,0,.47.47.47.94,0,1.41l-6,6c-.47.47-.94.47-1.41,0l-6-6c-.47-.47-.47-.94,0-1.41.47-.47.94-.47,1.41,0Z"/>
    <path class="cls-9" d="M525.06,206.09v39.62"/>
    <path class="cls-14" d="M486.68,42v-14c0-1.1.39-2.05,1.17-2.83s1.72-1.17,2.83-1.17h140c1.1,0,2.05.39,2.83,1.17s1.17,1.72,1.17,2.83v14c0,1.1-.39,2.05-1.17,2.83-.78.78-1.72,1.17-2.83,1.17h-140c-1.1,0-2.05-.39-2.83-1.17-.78-.78-1.17-1.72-1.17-2.83Z"/>
    <path class="cls-8" d="M487.18,42v-14c0-.97.34-1.79,1.03-2.47.68-.68,1.51-1.03,2.47-1.03h140c.97,0,1.79.34,2.47,1.03.68.68,1.03,1.51,1.03,2.47v14c0,.97-.34,1.79-1.03,2.47-.68.68-1.51,1.03-2.47,1.03h-140c-.97,0-1.79-.34-2.47-1.03-.68-.68-1.03-1.51-1.03-2.47Z"/>
    <path class="cls-13" d="M620.39,33.22v-1.26c3.07-.18,6.4-.54,8.93-1.16l-1.36-1.36c-2.24.56-5.98.95-9.31,1.12v3.83c0,2.08-.13,5-1.64,6.96.38.21,1.09.81,1.39,1.15,1.6-2.06,1.94-5.36,1.99-7.69h9.8v-1.6h-9.8ZM621.12,42.46h1.7v-.63h4.68v.59h1.76v-6.06h-8.13v6.1ZM627.49,37.89v2.38h-4.68v-2.38h4.68ZM616.11,36.62v-1.4h-2.84v-1.23h2.45v-4.04h-7.68v4.27c0,2.18-.11,5.25-1.49,7.31.35.18,1.05.69,1.35.98,1.06-1.58,1.51-3.84,1.66-5.88h2.16v1.35h-2.24v4.49h1.43v-.4h3.39v.39h1.5v-4.48h-2.52v-1.35h2.84ZM614.29,40.74h-3.39v-1.4h3.39v1.4ZM614.15,31.36v1.2h-4.49v-1.2h4.49ZM609.64,35.22c.01-.37.01-.69.01-1.01v-.23h2.06v1.23h-2.07ZM607.46,35.3l-1.23.34v-2.07h1.4v-1.54h-1.4v-2.65h-1.51v2.65h-1.47v1.54h1.47v2.46c-.64.17-1.2.31-1.7.42l.38,1.61,1.32-.38v2.83c0,.18-.07.24-.24.24-.17.01-.64.01-1.15,0,.2.43.38,1.12.42,1.52.9.01,1.51-.04,1.93-.32.42-.25.54-.66.54-1.43v-3.29c.48-.14.97-.29,1.43-.43l-.19-1.5ZM602.07,33.5v-1.54h-3.73c.17-.74.31-1.52.42-2.31l-1.51-.23c-.32,2.49-.94,4.87-2.06,6.33.33.24.96.79,1.19,1.07.27-.38.52-.8.74-1.25.28,1.06.59,2.04.99,2.93-.71,1.16-1.75,2.04-3.17,2.68.29.32.73,1.02.88,1.36,1.3-.66,2.31-1.5,3.11-2.56.63.98,1.4,1.78,2.37,2.38.22-.42.71-1.02,1.08-1.32-1.05-.57-1.9-1.46-2.55-2.56.66-1.37,1.08-3.01,1.34-4.97h.88ZM599.64,33.5c-.14,1.19-.36,2.24-.69,3.19-.36-.99-.64-2.07-.85-3.19h1.54ZM595.21,40.51c-.28-.19-.62-.41-.99-.62.71-.81,1.27-1.82,1.61-3.05l-.9-.33-.25.04h-1.78c.08-.18.17-.37.24-.55l-1.47-.27c-.1.27-.21.53-.33.81h-1.75v1.34h1.06c-.28.48-.54.91-.8,1.27.63.27,1.33.59,1.99.94-.8.49-1.74.85-2.74,1.08.28.28.6.87.76,1.24,1.26-.35,2.38-.85,3.32-1.57.42.25.78.51,1.06.71l.98-1.06ZM593.95,37.89c-.25.49-.59.92-.98,1.32-.36-.19-.76-.39-1.13-.57.14-.22.28-.48.42-.74h1.7ZM591.97,35.67h1.54v-1.53c.53.42,1.08.88,1.39,1.18l.87-1.16c-.24-.17-1.02-.63-1.65-.99h2.04v-1.32h-2.65v-2.46h-1.54v2.46h-1.42l1.13-.51c-.11-.48-.46-1.2-.84-1.72l-1.18.49c.31.54.63,1.26.74,1.74h-1.09v1.32h2.07c-.66.68-1.54,1.3-2.37,1.64.31.31.67.85.85,1.22.7-.38,1.44-.96,2.09-1.61v1.26ZM594.63,29.56c-.23.52-.6,1.27-.93,1.76l1.07.48c.36-.43.8-1.06,1.26-1.69l-1.4-.55ZM580.04,37.77c-.57-.55-1.74-1.23-2.59-1.68l-1.11,1.01c.88.5,2,1.26,2.51,1.8l1.19-1.13ZM585.82,36.02h2.03v-1.44h-1.71c.14-1.44.24-3.05.26-4.51l-1.34-.07-.31.07h-8.34v1.51h8.12l-.03.76h-7.63v1.48h7.55l-.04.76h-8.81v1.44h5.21v2.2c-1.96.77-4.02,1.54-5.34,1.99l.91,1.5c1.27-.53,2.87-1.22,4.42-1.89v1.04c0,.2-.09.25-.31.25-.21.01-1.02.01-1.68-.03.23.41.46.99.56,1.44,1.05,0,1.82-.03,2.38-.24.57-.22.76-.59.76-1.38v-2c1.12,1.4,2.59,2.45,4.42,3.05.25-.43.74-1.12,1.12-1.47-1.3-.34-2.45-.9-3.39-1.62.8-.52,1.75-1.18,2.55-1.84l-1.37-.99ZM582.5,36.02h3.23c-.56.59-1.42,1.29-2.16,1.84-.43-.48-.78-.99-1.08-1.54v-.29ZM569.39,40.64c-.77,0-.9-.1-.9-.69v-3.6h3.23v.69h1.68v-6.75h-6.93v1.65h5.25v2.84h-4.96v5.15c0,1.8.59,2.3,2.43,2.3h2.64c1.72,0,2.21-.69,2.41-3.09-.46-.13-1.19-.39-1.57-.67-.1,1.85-.22,2.17-.95,2.17h-2.34ZM564.94,39.18v-5.53h-3.69v1.6h2.03v4.31c0,.75-.41,1.29-.7,1.54.27.25.71.85.87,1.2.25-.31.69-.68,3.09-2.41-.18-.34-.42-1.02-.5-1.47l-1.09.76ZM565.64,31.85c-.52-.65-1.6-1.58-2.39-2.26l-1.11,1.04c.78.71,1.85,1.75,2.3,2.4l1.2-1.18ZM560.02,36.65v-1.44h-2.38l.45-.43c-.32-.25-.82-.53-1.34-.77h2.28v-4.04h-4.79v4.04h1.43l-.52.49c.45.18.98.45,1.4.71h-3.1c.23-.35.42-.71.6-1.08l-1.07-.19v-3.98h-4.59v4.04h3.92c-.2.41-.45.81-.76,1.21h-4.21v1.44h2.77c-.83.64-1.86,1.23-3.12,1.69.31.29.71.91.88,1.3.18-.07.35-.15.52-.22v3.04h1.51v-.33h1.51v.25h1.58v-4.33h-2.24c.6-.43,1.12-.91,1.58-1.4h2.32c.43.5.94.98,1.51,1.4h-1.92v4.41h1.5v-.33h1.67v.25h1.61v-2.8c.13.04.24.08.36.12.24-.4.69-1.02,1.05-1.33-1.37-.35-2.7-.96-3.69-1.72h3.26ZM555.75,31.36h1.68v1.25h-1.68v-1.25ZM551.44,32.6h-1.57v-1.25h1.57v1.25ZM551.43,40.68h-1.51v-1.2h1.51v1.2ZM555.77,40.68v-1.2h1.67v1.2h-1.67ZM543.81,38.29c.67,1.01,1.29,2.35,1.5,3.23l1.06-.51c-.24-.86-.91-2.17-1.58-3.16l-.98.43ZM541.93,41.09c-.4,0-.48-.04-.48-.41v-2.34h-1.3v2.35c0,1.13.32,1.47,1.6,1.47h1.58c.99,0,1.34-.42,1.46-2.03-.32-.08-.85-.26-1.11-.46-.05,1.23-.12,1.42-.49,1.42h-1.26ZM543.82,39.52c-.28-.59-.9-1.5-1.44-2.14l-.94.52c.52.7,1.13,1.64,1.39,2.26l.99-.63ZM543.95,37.15c1.13,0,1.54-.35,1.7-1.65-.39-.09-.97-.28-1.26-.49-.07.8-.15.93-.59.93h-1.74c-.57,0-.67-.06-.67-.45v-.27l2.52-.21-.09-1.12-2.43.19v-.91h3.21c-.13.4-.27.8-.39,1.1l1.19.27c.31-.6.65-1.58.87-2.44l-.98-.22-.24.05h-3.12v-.6h3.59v-1.2h-3.59v-.74h-1.58v2.55h-3.33v2.97c0,1.92-.1,4.68-1.25,6.62.29.17.92.74,1.16,1.05,1.33-2.14,1.58-5.52,1.58-7.66v-1.75h1.44v1.02l-1.06.08.08,1.15.98-.08v.17c0,1.26.38,1.64,1.94,1.64h2.06ZM539.09,41.67c.39-.77.67-2.03.85-3l-1.05-.35c-.15.95-.49,2.16-.91,2.94l1.11.41ZM535.34,36.73c-.59,1.58-1.38,3.33-1.94,4.38l1.42.87c.62-1.34,1.26-2.91,1.78-4.37l-1.25-.88ZM536.28,34.9c-.49-.46-1.5-1.13-2.24-1.57l-.94,1.02c.74.48,1.72,1.2,2.17,1.69l1.01-1.15ZM536.9,31.48c-.48-.49-1.44-1.19-2.17-1.65l-.99.98c.76.51,1.68,1.27,2.13,1.78l1.04-1.11ZM522.57,34.55h-3.26v1.56h1.62v3.09c-.6.27-1.29.8-1.94,1.48l1.18,1.7c.49-.83,1.11-1.76,1.51-1.76.31,0,.8.45,1.46.78,1.02.56,2.21.73,3.99.73,1.43,0,3.71-.09,4.68-.15.03-.49.31-1.36.52-1.85-1.4.23-3.68.35-5.14.35-1.54,0-2.84-.09-3.79-.63-.32-.18-.59-.35-.81-.49v-4.8ZM522.91,32.18c-.41-.7-1.34-1.67-2.12-2.37l-1.29.87c.76.73,1.64,1.78,2.01,2.46l1.39-.97ZM523.76,34.69c.69.88,1.54,2.07,1.9,2.83l1.43-.86c-.41-.76-1.3-1.89-2-2.7l-1.33.74ZM528.57,37.92c0,.24-.1.32-.39.34-.28,0-1.29,0-2.18-.04.24.46.49,1.21.56,1.7,1.3,0,2.27-.04,2.87-.31.63-.25.84-.7.84-1.67v-4.59h1.72v-1.57h-1.72v-2.3h-1.69v2.3h-5.2v1.57h5.2v4.58ZM516.51,30.38l-.24.05h-2.46c.18-.27.33-.53.49-.81l-1.58-.26c-.52,1.02-1.54,2.14-3.07,2.97.33.21.83.74,1.05,1.09.45-.28.84-.57,1.22-.88.26.31.56.59.87.85-.99.48-2.1.85-3.22,1.08.28.31.63.88.8,1.26.43-.11.85-.24,1.27-.38v.8h4.86v-.87c.33.1.69.18,1.05.25.2-.39.6-.98.94-1.29-1.12-.17-2.17-.46-3.08-.85.86-.69,1.59-1.51,2.1-2.48l-.99-.53ZM512.86,31.64h2.41c-.34.37-.76.71-1.21,1.02-.46-.31-.87-.64-1.2-1.02ZM512.62,34.98c.51-.21.99-.45,1.47-.71.48.27.99.51,1.52.71h-3ZM514.82,40.15h2.46v-1.16h-2.46v-.67h2.74v-1.18h-2.74v-.77h-1.55v.77h-1.09c.1-.21.18-.43.25-.65l-1.34-.32c-.27.81-.74,1.65-1.33,2.24.1-.31.14-.67.14-1.11,0-.83-.18-1.79-1.04-2.88.4-1.1.87-2.65,1.24-3.86l-1.09-.65-.24.07h-3.05v12.47h1.44v-10.99h1.11c-.24.97-.53,2.23-.83,3.13.8.95.98,1.84.98,2.48,0,.42-.07.7-.23.83-.11.07-.25.11-.39.13-.18,0-.38,0-.63-.03.24.41.37,1.04.38,1.43.33.01.67.01.91-.01.31-.06.57-.16.8-.32.2-.13.34-.32.45-.57.32.2.85.53,1.11.73l.15-.17v1.07h2.3v.7h-3.45v1.3h8.29v-1.3h-3.29v-.7ZM511.05,38.99c.15-.2.32-.43.48-.67h1.74v.67h-2.21ZM503.94,32.97v-1.6h-6.83c.19-.54.38-1.09.55-1.64l-1.72-.39c-.15.67-.36,1.35-.63,2.03h-3.84v1.6h3.12c-.87,1.71-2.06,3.26-3.61,4.27.29.38.73,1.05.94,1.47.66-.46,1.23-.97,1.78-1.54v4.05h1.66v-4.55h2.21v5.78h1.68v-5.78h2.32v2.73c0,.18-.07.24-.29.24-.2,0-.94,0-1.58-.03.21.42.45,1.05.52,1.51,1.05,0,1.81-.01,2.34-.25.56-.25.71-.67.71-1.44v-4.34h-4.02v-1.61h-1.68v1.61h-2.25c.43-.67.8-1.39,1.13-2.12h7.49Z"/>
  </g>
</svg>