<svg width="4089" height="949" xmlns="http://www.w3.org/2000/svg" xmlns:xlink="http://www.w3.org/1999/xlink" xml:space="preserve" overflow="hidden"><g transform="translate(-155 -270)"><g><path d="M1741.5 300.667C1741.5 286.767 1752.77 275.5 1766.67 275.5L2634.33 275.5C2648.23 275.5 2659.5 286.767 2659.5 300.667L2659.5 401.332C2659.5 415.232 2648.23 426.499 2634.33 426.499L1766.67 426.499C1752.77 426.499 1741.5 415.232 1741.5 401.332Z" stroke="#D9D9D9" stroke-width="6.875" stroke-linecap="butt" stroke-linejoin="miter" stroke-miterlimit="8" stroke-opacity="1" fill="none" fill-rule="evenodd"/><text fill="#000000" fill-opacity="1" font-family="Smiley Sans Oblique,Smiley Sans Oblique_MSFontService,sans-serif" font-style="oblique" font-variant="normal" font-weight="400" font-stretch="normal" font-size="83" text-anchor="start" direction="ltr" writing-mode="lr-tb" unicode-bidi="normal" text-decoration="none" transform="matrix(1 0 0 1 1822.16 381)">在</text><text fill="#000000" fill-opacity="1" font-family="Smiley Sans Oblique,Smiley Sans Oblique_MSFontService,sans-serif" font-style="oblique" font-variant="normal" font-weight="400" font-stretch="normal" font-size="83" text-anchor="start" direction="ltr" writing-mode="lr-tb" unicode-bidi="normal" text-decoration="none" transform="matrix(1 0 0 1 1903.52 381)">[ 1,2,3,4 ]</text><text fill="#000000" fill-opacity="1" font-family="Smiley Sans Oblique,Smiley Sans Oblique_MSFontService,sans-serif" font-style="oblique" font-variant="normal" font-weight="400" font-stretch="normal" font-size="83" text-anchor="start" direction="ltr" writing-mode="lr-tb" unicode-bidi="normal" text-decoration="none" transform="matrix(1 0 0 1 2175.08 381)">中取</text><text fill="#000000" fill-opacity="1" font-family="Smiley Sans Oblique,Smiley Sans Oblique_MSFontService,sans-serif" font-style="oblique" font-variant="normal" font-weight="400" font-stretch="normal" font-size="83" text-anchor="start" direction="ltr" writing-mode="lr-tb" unicode-bidi="normal" text-decoration="none" transform="matrix(1 0 0 1 2322.32 381)">k=2 </text><text fill="#000000" fill-opacity="1" font-family="Smiley Sans Oblique,Smiley Sans Oblique_MSFontService,sans-serif" font-style="oblique" font-variant="normal" font-weight="400" font-stretch="normal" font-size="83" text-anchor="start" direction="ltr" writing-mode="lr-tb" unicode-bidi="normal" text-decoration="none" transform="matrix(1 0 0 1 2446.07 381)">个数</text><text fill="#000000" fill-opacity="1" font-family="Smiley Sans Oblique,Smiley Sans Oblique_MSFontService,sans-serif" font-style="oblique" font-variant="normal" font-weight="400" font-stretch="normal" font-size="83" text-anchor="start" direction="ltr" writing-mode="lr-tb" unicode-bidi="normal" text-decoration="none" transform="matrix(1 0 0 1 314.704 398)">n=4,</text><text fill="#000000" fill-opacity="1" font-family="Smiley Sans Oblique,Smiley Sans Oblique_MSFontService,sans-serif" font-style="oblique" font-variant="normal" font-weight="400" font-stretch="normal" font-size="83" text-anchor="start" direction="ltr" writing-mode="lr-tb" unicode-bidi="normal" text-decoration="none" transform="matrix(1 0 0 1 463.089 398)">k=</text><text fill="#000000" fill-opacity="1" font-family="Smiley Sans Oblique,Smiley Sans Oblique_MSFontService,sans-serif" font-style="oblique" font-variant="normal" font-weight="400" font-stretch="normal" font-size="83" text-anchor="start" direction="ltr" writing-mode="lr-tb" unicode-bidi="normal" text-decoration="none" transform="matrix(1 0 0 1 536.995 398)">2</text><path d="M161.5 673.668C161.5 659.768 172.768 648.5 186.667 648.5L1053.33 648.5C1067.23 648.5 1078.5 659.768 1078.5 673.668L1078.5 774.333C1078.5 788.232 1067.23 799.5 1053.33 799.5L186.667 799.5C172.768 799.5 161.5 788.232 161.5 774.333Z" stroke="#D9D9D9" stroke-width="6.875" stroke-linecap="butt" stroke-linejoin="miter" stroke-miterlimit="8" stroke-opacity="1" fill="none" fill-rule="evenodd"/><text fill="#000000" fill-opacity="1" font-family="Smiley Sans Oblique,Smiley Sans Oblique_MSFontService,sans-serif" font-style="oblique" font-variant="normal" font-weight="400" font-stretch="normal" font-size="83" text-anchor="start" direction="ltr" writing-mode="lr-tb" unicode-bidi="normal" text-decoration="none" transform="matrix(1 0 0 1 297.781 754)">在</text><text fill="#000000" fill-opacity="1" font-family="Smiley Sans Oblique,Smiley Sans Oblique_MSFontService,sans-serif" font-style="oblique" font-variant="normal" font-weight="400" font-stretch="normal" font-size="83" text-anchor="start" direction="ltr" writing-mode="lr-tb" unicode-bidi="normal" text-decoration="none" transform="matrix(1 0 0 1 379.135 754)">[  2,3,4 ]</text><text fill="#000000" fill-opacity="1" font-family="Smiley Sans Oblique,Smiley Sans Oblique_MSFontService,sans-serif" font-style="oblique" font-variant="normal" font-weight="400" font-stretch="normal" font-size="83" text-anchor="start" direction="ltr" writing-mode="lr-tb" unicode-bidi="normal" text-decoration="none" transform="matrix(1 0 0 1 623.198 754)">中取</text><text fill="#000000" fill-opacity="1" font-family="Smiley Sans Oblique,Smiley Sans Oblique_MSFontService,sans-serif" font-style="oblique" font-variant="normal" font-weight="400" font-stretch="normal" font-size="83" text-anchor="start" direction="ltr" writing-mode="lr-tb" unicode-bidi="normal" text-decoration="none" transform="matrix(1 0 0 1 770.437 754)">1</text><text fill="#000000" fill-opacity="1" font-family="Smiley Sans Oblique,Smiley Sans Oblique_MSFontService,sans-serif" font-style="oblique" font-variant="normal" font-weight="400" font-stretch="normal" font-size="83" text-anchor="start" direction="ltr" writing-mode="lr-tb" unicode-bidi="normal" text-decoration="none" transform="matrix(1 0 0 1 809.396 754)">个数</text><path d="M1215.5 673.668C1215.5 659.768 1226.77 648.5 1240.67 648.5L2107.33 648.5C2121.23 648.5 2132.5 659.768 2132.5 673.668L2132.5 774.333C2132.5 788.232 2121.23 799.5 2107.33 799.5L1240.67 799.5C1226.77 799.5 1215.5 788.232 1215.5 774.333Z" stroke="#D9D9D9" stroke-width="6.875" stroke-linecap="butt" stroke-linejoin="miter" stroke-miterlimit="8" stroke-opacity="1" fill="none" fill-rule="evenodd"/><text fill="#000000" fill-opacity="1" font-family="Smiley Sans Oblique,Smiley Sans Oblique_MSFontService,sans-serif" font-style="oblique" font-variant="normal" font-weight="400" font-stretch="normal" font-size="83" text-anchor="start" direction="ltr" writing-mode="lr-tb" unicode-bidi="normal" text-decoration="none" transform="matrix(1 0 0 1 1386.13 754)">在</text><text fill="#000000" fill-opacity="1" font-family="Smiley Sans Oblique,Smiley Sans Oblique_MSFontService,sans-serif" font-style="oblique" font-variant="normal" font-weight="400" font-stretch="normal" font-size="83" text-anchor="start" direction="ltr" writing-mode="lr-tb" unicode-bidi="normal" text-decoration="none" transform="matrix(1 0 0 1 1467.48 754)">[ 3,4 ]</text><text fill="#000000" fill-opacity="1" font-family="Smiley Sans Oblique,Smiley Sans Oblique_MSFontService,sans-serif" font-style="oblique" font-variant="normal" font-weight="400" font-stretch="normal" font-size="83" text-anchor="start" direction="ltr" writing-mode="lr-tb" unicode-bidi="normal" text-decoration="none" transform="matrix(1 0 0 1 1642.22 754)">中取</text><text fill="#000000" fill-opacity="1" font-family="Smiley Sans Oblique,Smiley Sans Oblique_MSFontService,sans-serif" font-style="oblique" font-variant="normal" font-weight="400" font-stretch="normal" font-size="83" text-anchor="start" direction="ltr" writing-mode="lr-tb" unicode-bidi="normal" text-decoration="none" transform="matrix(1 0 0 1 1789.46 754)">1</text><text fill="#000000" fill-opacity="1" font-family="Smiley Sans Oblique,Smiley Sans Oblique_MSFontService,sans-serif" font-style="oblique" font-variant="normal" font-weight="400" font-stretch="normal" font-size="83" text-anchor="start" direction="ltr" writing-mode="lr-tb" unicode-bidi="normal" text-decoration="none" transform="matrix(1 0 0 1 1828.42 754)">个数</text><path d="M2268.5 673.668C2268.5 659.768 2279.77 648.5 2293.67 648.5L3160.33 648.5C3174.23 648.5 3185.5 659.768 3185.5 673.668L3185.5 774.333C3185.5 788.232 3174.23 799.5 3160.33 799.5L2293.67 799.5C2279.77 799.5 2268.5 788.232 2268.5 774.333Z" stroke="#D9D9D9" stroke-width="6.875" stroke-linecap="butt" stroke-linejoin="miter" stroke-miterlimit="8" stroke-opacity="1" fill="none" fill-rule="evenodd"/><text fill="#000000" fill-opacity="1" font-family="Smiley Sans Oblique,Smiley Sans Oblique_MSFontService,sans-serif" font-style="oblique" font-variant="normal" font-weight="400" font-stretch="normal" font-size="83" text-anchor="start" direction="ltr" writing-mode="lr-tb" unicode-bidi="normal" text-decoration="none" transform="matrix(1 0 0 1 2475.04 754)">在</text><text fill="#000000" fill-opacity="1" font-family="Smiley Sans Oblique,Smiley Sans Oblique_MSFontService,sans-serif" font-style="oblique" font-variant="normal" font-weight="400" font-stretch="normal" font-size="83" text-anchor="start" direction="ltr" writing-mode="lr-tb" unicode-bidi="normal" text-decoration="none" transform="matrix(1 0 0 1 2556.4 754)">[ 4 ]</text><text fill="#000000" fill-opacity="1" font-family="Smiley Sans Oblique,Smiley Sans Oblique_MSFontService,sans-serif" font-style="oblique" font-variant="normal" font-weight="400" font-stretch="normal" font-size="83" text-anchor="start" direction="ltr" writing-mode="lr-tb" unicode-bidi="normal" text-decoration="none" transform="matrix(1 0 0 1 2676.14 754)">中取</text><text fill="#000000" fill-opacity="1" font-family="Smiley Sans Oblique,Smiley Sans Oblique_MSFontService,sans-serif" font-style="oblique" font-variant="normal" font-weight="400" font-stretch="normal" font-size="83" text-anchor="start" direction="ltr" writing-mode="lr-tb" unicode-bidi="normal" text-decoration="none" transform="matrix(1 0 0 1 2823.38 754)">1</text><text fill="#000000" fill-opacity="1" font-family="Smiley Sans Oblique,Smiley Sans Oblique_MSFontService,sans-serif" font-style="oblique" font-variant="normal" font-weight="400" font-stretch="normal" font-size="83" text-anchor="start" direction="ltr" writing-mode="lr-tb" unicode-bidi="normal" text-decoration="none" transform="matrix(1 0 0 1 2846.87 754)">个数</text><path d="M3322.5 673.668C3322.5 659.768 3333.77 648.5 3347.67 648.5L4214.33 648.5C4228.23 648.5 4239.5 659.768 4239.5 673.668L4239.5 774.333C4239.5 788.232 4228.23 799.5 4214.33 799.5L3347.67 799.5C3333.77 799.5 3322.5 788.232 3322.5 774.333Z" stroke="#D9D9D9" stroke-width="6.875" stroke-linecap="butt" stroke-linejoin="miter" stroke-miterlimit="8" stroke-opacity="1" fill="none" fill-rule="evenodd"/><text fill="#000000" fill-opacity="1" font-family="Smiley Sans Oblique,Smiley Sans Oblique_MSFontService,sans-serif" font-style="oblique" font-variant="normal" font-weight="400" font-stretch="normal" font-size="83" text-anchor="start" direction="ltr" writing-mode="lr-tb" unicode-bidi="normal" text-decoration="none" transform="matrix(1 0 0 1 3547.06 754)">在</text><text fill="#000000" fill-opacity="1" font-family="Smiley Sans Oblique,Smiley Sans Oblique_MSFontService,sans-serif" font-style="oblique" font-variant="normal" font-weight="400" font-stretch="normal" font-size="83" text-anchor="start" direction="ltr" writing-mode="lr-tb" unicode-bidi="normal" text-decoration="none" transform="matrix(1 0 0 1 3628.42 754)">[ ]</text><text fill="#000000" fill-opacity="1" font-family="Smiley Sans Oblique,Smiley Sans Oblique_MSFontService,sans-serif" font-style="oblique" font-variant="normal" font-weight="400" font-stretch="normal" font-size="83" text-anchor="start" direction="ltr" writing-mode="lr-tb" unicode-bidi="normal" text-decoration="none" transform="matrix(1 0 0 1 3696.02 754)">中取</text><text fill="#000000" fill-opacity="1" font-family="Smiley Sans Oblique,Smiley Sans Oblique_MSFontService,sans-serif" font-style="oblique" font-variant="normal" font-weight="400" font-stretch="normal" font-size="83" text-anchor="start" direction="ltr" writing-mode="lr-tb" unicode-bidi="normal" text-decoration="none" transform="matrix(1 0 0 1 3843.26 754)">1</text><text fill="#000000" fill-opacity="1" font-family="Smiley Sans Oblique,Smiley Sans Oblique_MSFontService,sans-serif" font-style="oblique" font-variant="normal" font-weight="400" font-stretch="normal" font-size="83" text-anchor="start" direction="ltr" writing-mode="lr-tb" unicode-bidi="normal" text-decoration="none" transform="matrix(1 0 0 1 3882.22 754)">个数</text><path d="M0.637134-4.53883 1558.47 214.14 1557.19 223.218-0.637134 4.53883ZM1555.2 204.425 1580.53 221.865 1551.38 231.658Z" fill="#BFBFBF" fill-rule="nonzero" fill-opacity="1" transform="matrix(-1 0 0 1 2200.03 426.5)"/><path d="M1.77884-4.22406 507.5 208.746 503.942 217.194-1.77884 4.22406ZM506.834 198.52 526.842 221.865 496.161 223.864Z" fill="#BFBFBF" fill-rule="nonzero" fill-opacity="1" transform="matrix(-1 0 0 1 2200.34 426.5)"/><path d="M2202.28 422.276 2708 635.246 2704.44 643.695 2198.72 430.724ZM2707.33 625.02 2727.34 648.365 2696.66 650.364Z" fill="#BFBFBF" fill-rule="nonzero" fill-opacity="1"/><path d="M2201.14 421.961 3758.96 640.64 3757.69 649.717 2199.86 431.039ZM3755.7 630.926 3781.03 648.365 3751.88 658.159Z" fill="#BFBFBF" fill-rule="nonzero" fill-opacity="1"/><path d="M161.5 1068.83C161.5 1054.84 172.842 1043.5 186.834 1043.5L402.166 1043.5C416.158 1043.5 427.5 1054.84 427.5 1068.83L427.5 1170.17C427.5 1184.16 416.158 1195.5 402.166 1195.5L186.834 1195.5C172.842 1195.5 161.5 1184.16 161.5 1170.17Z" stroke="#D9D9D9" stroke-width="6.875" stroke-linecap="butt" stroke-linejoin="miter" stroke-miterlimit="8" stroke-opacity="1" fill="none" fill-rule="evenodd"/><text fill="#000000" fill-opacity="1" font-family="Smiley Sans Oblique,Smiley Sans Oblique_MSFontService,sans-serif" font-style="oblique" font-variant="normal" font-weight="400" font-stretch="normal" font-size="83" text-anchor="start" direction="ltr" writing-mode="lr-tb" unicode-bidi="normal" text-decoration="none" transform="matrix(1 0 0 1 213.518 1149)">[ 1,2 ]</text><path d="M487.5 1068.83C487.5 1054.84 498.842 1043.5 512.834 1043.5L727.166 1043.5C741.158 1043.5 752.5 1054.84 752.5 1068.83L752.5 1170.17C752.5 1184.16 741.158 1195.5 727.166 1195.5L512.834 1195.5C498.842 1195.5 487.5 1184.16 487.5 1170.17Z" stroke="#D9D9D9" stroke-width="6.875" stroke-linecap="butt" stroke-linejoin="miter" stroke-miterlimit="8" stroke-opacity="1" fill="none" fill-rule="evenodd"/><text fill="#000000" fill-opacity="1" font-family="Smiley Sans Oblique,Smiley Sans Oblique_MSFontService,sans-serif" font-style="oblique" font-variant="normal" font-weight="400" font-stretch="normal" font-size="83" text-anchor="start" direction="ltr" writing-mode="lr-tb" unicode-bidi="normal" text-decoration="none" transform="matrix(1 0 0 1 538.692 1149)">[ 1,3 ]</text><path d="M812.5 1068.83C812.5 1054.84 823.842 1043.5 837.834 1043.5L1053.17 1043.5C1067.16 1043.5 1078.5 1054.84 1078.5 1068.83L1078.5 1170.17C1078.5 1184.16 1067.16 1195.5 1053.17 1195.5L837.834 1195.5C823.842 1195.5 812.5 1184.16 812.5 1170.17Z" stroke="#D9D9D9" stroke-width="6.875" stroke-linecap="butt" stroke-linejoin="miter" stroke-miterlimit="8" stroke-opacity="1" fill="none" fill-rule="evenodd"/><text fill="#000000" fill-opacity="1" font-family="Smiley Sans Oblique,Smiley Sans Oblique_MSFontService,sans-serif" font-style="oblique" font-variant="normal" font-weight="400" font-stretch="normal" font-size="83" text-anchor="start" direction="ltr" writing-mode="lr-tb" unicode-bidi="normal" text-decoration="none" transform="matrix(1 0 0 1 863.867 1149)">[ 1,4 ]</text><path d="M1270.5 1068.83C1270.5 1054.84 1281.84 1043.5 1295.83 1043.5L1510.17 1043.5C1524.16 1043.5 1535.5 1054.84 1535.5 1068.83L1535.5 1170.17C1535.5 1184.16 1524.16 1195.5 1510.17 1195.5L1295.83 1195.5C1281.84 1195.5 1270.5 1184.16 1270.5 1170.17Z" stroke="#D9D9D9" stroke-width="6.875" stroke-linecap="butt" stroke-linejoin="miter" stroke-miterlimit="8" stroke-opacity="1" fill="none" fill-rule="evenodd"/><text fill="#000000" fill-opacity="1" font-family="Smiley Sans Oblique,Smiley Sans Oblique_MSFontService,sans-serif" font-style="oblique" font-variant="normal" font-weight="400" font-stretch="normal" font-size="83" text-anchor="start" direction="ltr" writing-mode="lr-tb" unicode-bidi="normal" text-decoration="none" transform="matrix(1 0 0 1 1316.06 1149)">[ 2,3 ]</text><path d="M1757.5 1068.83C1757.5 1054.84 1768.84 1043.5 1782.83 1043.5L1998.17 1043.5C2012.16 1043.5 2023.5 1054.84 2023.5 1068.83L2023.5 1170.17C2023.5 1184.16 2012.16 1195.5 1998.17 1195.5L1782.83 1195.5C1768.84 1195.5 1757.5 1184.16 1757.5 1170.17Z" stroke="#D9D9D9" stroke-width="6.875" stroke-linecap="butt" stroke-linejoin="miter" stroke-miterlimit="8" stroke-opacity="1" fill="none" fill-rule="evenodd"/><text fill="#000000" fill-opacity="1" font-family="Smiley Sans Oblique,Smiley Sans Oblique_MSFontService,sans-serif" font-style="oblique" font-variant="normal" font-weight="400" font-stretch="normal" font-size="83" text-anchor="start" direction="ltr" writing-mode="lr-tb" unicode-bidi="normal" text-decoration="none" transform="matrix(1 0 0 1 1803.04 1149)">[ 2,4 ]</text><path d="M2594.5 1068.83C2594.5 1054.84 2605.84 1043.5 2619.83 1043.5L2835.17 1043.5C2849.16 1043.5 2860.5 1054.84 2860.5 1068.83L2860.5 1170.17C2860.5 1184.16 2849.16 1195.5 2835.17 1195.5L2619.83 1195.5C2605.84 1195.5 2594.5 1184.16 2594.5 1170.17Z" stroke="#D9D9D9" stroke-width="6.875" stroke-linecap="butt" stroke-linejoin="miter" stroke-miterlimit="8" stroke-opacity="1" fill="none" fill-rule="evenodd"/><text fill="#000000" fill-opacity="1" font-family="Smiley Sans Oblique,Smiley Sans Oblique_MSFontService,sans-serif" font-style="oblique" font-variant="normal" font-weight="400" font-stretch="normal" font-size="83" text-anchor="start" direction="ltr" writing-mode="lr-tb" unicode-bidi="normal" text-decoration="none" transform="matrix(1 0 0 1 2639.75 1149)">[ 3,4 ]</text><path d="M2.74842-3.66785 310.157 226.682 304.66 234.017-2.74842 3.66785ZM311.986 216.598 325.748 244.092 295.496 238.605Z" fill="#BFBFBF" fill-rule="nonzero" fill-opacity="1" transform="matrix(-1 0 0 1 620.248 799.5)"/><path d="M4.58333-6.77651e-06 4.58366 221.175-4.58301 221.175-4.58333 6.77651e-06ZM13.7503 216.592 0.000360892 244.092-13.7497 216.592Z" fill="#BFBFBF" fill-rule="nonzero" fill-opacity="1" transform="matrix(-1 0 0 1 619.5 799.5)"/><path d="M622.248 795.832 929.656 1026.18 924.16 1033.52 616.752 803.168ZM931.486 1016.1 945.248 1043.59 914.995 1038.1Z" fill="#BFBFBF" fill-rule="nonzero" fill-opacity="1"/><path d="M3.06821-3.40485 256.917 225.346 250.78 232.155-3.06821 3.40485ZM259.648 215.468 270.873 244.092 241.239 235.897Z" fill="#BFBFBF" fill-rule="nonzero" fill-opacity="1" transform="matrix(-1 0 0 1 1673.37 799.5)"/><path d="M1676.93 796.457 1878.39 1023.41 1871.53 1029.5 1670.07 802.543ZM1882.2 1013.9 1890.18 1043.59 1861.64 1032.15Z" fill="#BFBFBF" fill-rule="nonzero" fill-opacity="1"/><path d="M2732.08 799.495 2732.33 1020.67 2723.16 1020.68 2722.92 799.505ZM2741.49 1016.08 2727.77 1043.59 2713.99 1016.11Z" fill="#BFBFBF" fill-rule="nonzero" fill-opacity="1"/><path d="M1250 545.5C1250 509.878 1278.88 481 1314.5 481 1350.12 481 1379 509.878 1379 545.5 1379 581.122 1350.12 610 1314.5 610 1278.88 610 1250 581.122 1250 545.5Z" fill="#00B0F0" fill-rule="evenodd" fill-opacity="1"/><text fill="#FFFFFF" fill-opacity="1" font-family="Smiley Sans Oblique,Smiley Sans Oblique_MSFontService,sans-serif" font-style="oblique" font-variant="normal" font-weight="400" font-stretch="normal" font-size="83" text-anchor="start" direction="ltr" writing-mode="lr-tb" unicode-bidi="normal" text-decoration="none" transform="matrix(1 0 0 1 1303.11 576)">1</text><path d="M1825 545.5C1825 509.878 1853.88 481 1889.5 481 1925.12 481 1954 509.878 1954 545.5 1954 581.122 1925.12 610 1889.5 610 1853.88 610 1825 581.122 1825 545.5Z" fill="#00B0F0" fill-rule="evenodd" fill-opacity="1"/><text fill="#FFFFFF" fill-opacity="1" font-family="Smiley Sans Oblique,Smiley Sans Oblique_MSFontService,sans-serif" font-style="oblique" font-variant="normal" font-weight="400" font-stretch="normal" font-size="83" text-anchor="start" direction="ltr" writing-mode="lr-tb" unicode-bidi="normal" text-decoration="none" transform="matrix(1 0 0 1 1872.65 576)">2</text><path d="M2399 545.5C2399 509.878 2427.88 481 2463.5 481 2499.12 481 2528 509.878 2528 545.5 2528 581.122 2499.12 610 2463.5 610 2427.88 610 2399 581.122 2399 545.5Z" fill="#00B0F0" fill-rule="evenodd" fill-opacity="1"/><text fill="#FFFFFF" fill-opacity="1" font-family="Smiley Sans Oblique,Smiley Sans Oblique_MSFontService,sans-serif" font-style="oblique" font-variant="normal" font-weight="400" font-stretch="normal" font-size="83" text-anchor="start" direction="ltr" writing-mode="lr-tb" unicode-bidi="normal" text-decoration="none" transform="matrix(1 0 0 1 2445.66 576)">3</text><path d="M3018 545.5C3018 509.878 3047.1 481 3083 481 3118.9 481 3148 509.878 3148 545.5 3148 581.122 3118.9 610 3083 610 3047.1 610 3018 581.122 3018 545.5Z" fill="#00B0F0" fill-rule="evenodd" fill-opacity="1"/><text fill="#FFFFFF" fill-opacity="1" font-family="Smiley Sans Oblique,Smiley Sans Oblique_MSFontService,sans-serif" font-style="oblique" font-variant="normal" font-weight="400" font-stretch="normal" font-size="83" text-anchor="start" direction="ltr" writing-mode="lr-tb" unicode-bidi="normal" text-decoration="none" transform="matrix(1 0 0 1 3064.68 576)">4</text><path d="M363 927.5C363 891.878 391.878 863 427.5 863 463.122 863 492 891.878 492 927.5 492 963.122 463.122 992 427.5 992 391.878 992 363 963.122 363 927.5Z" fill="#00B0F0" fill-rule="evenodd" fill-opacity="1"/><text fill="#FFFFFF" fill-opacity="1" font-family="Smiley Sans Oblique,Smiley Sans Oblique_MSFontService,sans-serif" font-style="oblique" font-variant="normal" font-weight="400" font-stretch="normal" font-size="83" text-anchor="start" direction="ltr" writing-mode="lr-tb" unicode-bidi="normal" text-decoration="none" transform="matrix(1 0 0 1 410.025 958)">2</text><path d="M554 925.5C554 889.878 582.878 861 618.5 861 654.122 861 683 889.878 683 925.5 683 961.122 654.122 990 618.5 990 582.878 990 554 961.122 554 925.5Z" fill="#00B0F0" fill-rule="evenodd" fill-opacity="1"/><text fill="#FFFFFF" fill-opacity="1" font-family="Smiley Sans Oblique,Smiley Sans Oblique_MSFontService,sans-serif" font-style="oblique" font-variant="normal" font-weight="400" font-stretch="normal" font-size="83" text-anchor="start" direction="ltr" writing-mode="lr-tb" unicode-bidi="normal" text-decoration="none" transform="matrix(1 0 0 1 601.062 956)">3</text><path d="M723 926.5C723 890.878 751.878 862 787.5 862 823.122 862 852 890.878 852 926.5 852 962.122 823.122 991 787.5 991 751.878 991 723 962.122 723 926.5Z" fill="#00B0F0" fill-rule="evenodd" fill-opacity="1"/><text fill="#FFFFFF" fill-opacity="1" font-family="Smiley Sans Oblique,Smiley Sans Oblique_MSFontService,sans-serif" font-style="oblique" font-variant="normal" font-weight="400" font-stretch="normal" font-size="83" text-anchor="start" direction="ltr" writing-mode="lr-tb" unicode-bidi="normal" text-decoration="none" transform="matrix(1 0 0 1 769.538 957)">4</text><path d="M1456 925.5C1456 889.878 1484.88 861 1520.5 861 1556.12 861 1585 889.878 1585 925.5 1585 961.122 1556.12 990 1520.5 990 1484.88 990 1456 961.122 1456 925.5Z" fill="#00B0F0" fill-rule="evenodd" fill-opacity="1"/><text fill="#FFFFFF" fill-opacity="1" font-family="Smiley Sans Oblique,Smiley Sans Oblique_MSFontService,sans-serif" font-style="oblique" font-variant="normal" font-weight="400" font-stretch="normal" font-size="83" text-anchor="start" direction="ltr" writing-mode="lr-tb" unicode-bidi="normal" text-decoration="none" transform="matrix(1 0 0 1 1502.45 956)">3</text><path d="M1717 926.5C1717 890.878 1745.88 862 1781.5 862 1817.12 862 1846 890.878 1846 926.5 1846 962.122 1817.12 991 1781.5 991 1745.88 991 1717 962.122 1717 926.5Z" fill="#00B0F0" fill-rule="evenodd" fill-opacity="1"/><text fill="#FFFFFF" fill-opacity="1" font-family="Smiley Sans Oblique,Smiley Sans Oblique_MSFontService,sans-serif" font-style="oblique" font-variant="normal" font-weight="400" font-stretch="normal" font-size="83" text-anchor="start" direction="ltr" writing-mode="lr-tb" unicode-bidi="normal" text-decoration="none" transform="matrix(1 0 0 1 1763.34 957)">4</text><path d="M2658 926.5C2658 890.878 2686.88 862 2722.5 862 2758.12 862 2787 890.878 2787 926.5 2787 962.122 2758.12 991 2722.5 991 2686.88 991 2658 962.122 2658 926.5Z" fill="#00B0F0" fill-rule="evenodd" fill-opacity="1"/><text fill="#FFFFFF" fill-opacity="1" font-family="Smiley Sans Oblique,Smiley Sans Oblique_MSFontService,sans-serif" font-style="oblique" font-variant="normal" font-weight="400" font-stretch="normal" font-size="83" text-anchor="start" direction="ltr" writing-mode="lr-tb" unicode-bidi="normal" text-decoration="none" transform="matrix(1 0 0 1 2704.45 957)">4</text></g></g></svg>