<svg width="2814" height="1463" xmlns="http://www.w3.org/2000/svg" xmlns:xlink="http://www.w3.org/1999/xlink" xml:space="preserve" overflow="hidden"><g transform="translate(-577 -297)"><g><rect x="585.5" y="303.5" width="2800" height="1204" stroke="#D9D9D9" stroke-width="6.875" stroke-linecap="butt" stroke-linejoin="miter" stroke-miterlimit="8" stroke-opacity="1" fill="none"/><rect x="1083" y="354" width="1056" height="842" fill="#F2F2F2" fill-opacity="0.501961"/><text fill="#000000" fill-opacity="1" font-family="Smiley Sans Oblique,Smiley Sans Oblique_MSFontService,sans-serif" font-style="oblique" font-variant="normal" font-weight="400" font-stretch="normal" font-size="92" text-anchor="start" direction="ltr" writing-mode="lr-tb" unicode-bidi="normal" text-decoration="none" transform="matrix(1 0 0 1 690.849 756)">L1 Cache</text><text fill="#000000" fill-opacity="1" font-family="Smiley Sans Oblique,Smiley Sans Oblique_MSFontService,sans-serif" font-style="oblique" font-variant="normal" font-weight="400" font-stretch="normal" font-size="92" text-anchor="start" direction="ltr" writing-mode="lr-tb" unicode-bidi="normal" text-decoration="none" transform="matrix(1 0 0 1 684.834 1087)">L2 Cache</text><text fill="#000000" fill-opacity="1" font-family="Smiley Sans Oblique,Smiley Sans Oblique_MSFontService,sans-serif" font-style="oblique" font-variant="normal" font-weight="400" font-stretch="normal" font-size="92" text-anchor="start" direction="ltr" writing-mode="lr-tb" unicode-bidi="normal" text-decoration="none" transform="matrix(1 0 0 1 684.26 1396)">L3 Cache</text><path d="M1142.5 1307.17C1142.5 1291.89 1154.89 1279.5 1170.17 1279.5L3196.83 1279.5C3212.11 1279.5 3224.5 1291.89 3224.5 1307.17L3224.5 1417.83C3224.5 1433.11 3212.11 1445.5 3196.83 1445.5L1170.17 1445.5C1154.89 1445.5 1142.5 1433.11 1142.5 1417.83Z" stroke="#A02B93" stroke-width="6.875" stroke-linecap="butt" stroke-linejoin="miter" stroke-miterlimit="8" stroke-opacity="1" fill="#F2CFEE" fill-rule="evenodd" fill-opacity="1"/><text fill="#A02B93" fill-opacity="1" font-family="Smiley Sans Oblique,Smiley Sans Oblique_MSFontService,sans-serif" font-style="oblique" font-variant="normal" font-weight="400" font-stretch="normal" font-size="83" text-anchor="start" direction="ltr" writing-mode="lr-tb" unicode-bidi="normal" text-decoration="none" transform="matrix(1 0 0 1 2000.87 1392)">共享</text><text fill="#A02B93" fill-opacity="1" font-family="Smiley Sans Oblique,Smiley Sans Oblique_MSFontService,sans-serif" font-style="oblique" font-variant="normal" font-weight="400" font-stretch="normal" font-size="83" text-anchor="start" direction="ltr" writing-mode="lr-tb" unicode-bidi="normal" text-decoration="none" transform="matrix(1 0 0 1 2148.11 1392)">L3 </text><text fill="#A02B93" fill-opacity="1" font-family="Smiley Sans Oblique,Smiley Sans Oblique_MSFontService,sans-serif" font-style="oblique" font-variant="normal" font-weight="400" font-stretch="normal" font-size="83" text-anchor="start" direction="ltr" writing-mode="lr-tb" unicode-bidi="normal" text-decoration="none" transform="matrix(1 0 0 1 2232.9 1392)">缓存</text><path d="M1142.5 992.167C1142.5 976.887 1154.89 964.5 1170.17 964.5L2069.83 964.5C2085.11 964.5 2097.5 976.887 2097.5 992.167L2097.5 1102.83C2097.5 1118.11 2085.11 1130.5 2069.83 1130.5L1170.17 1130.5C1154.89 1130.5 1142.5 1118.11 1142.5 1102.83Z" stroke="#FF8D0B" stroke-width="6.875" stroke-linecap="butt" stroke-linejoin="miter" stroke-miterlimit="8" stroke-opacity="1" fill="#FFFCE1" fill-rule="evenodd" fill-opacity="1"/><text fill="#FF8D0B" fill-opacity="1" font-family="Smiley Sans Oblique,Smiley Sans Oblique_MSFontService,sans-serif" font-style="oblique" font-variant="normal" font-weight="400" font-stretch="normal" font-size="83" text-anchor="start" direction="ltr" writing-mode="lr-tb" unicode-bidi="normal" text-decoration="none" transform="matrix(1 0 0 1 1438.28 1078)">共享</text><text fill="#FF8D0B" fill-opacity="1" font-family="Smiley Sans Oblique,Smiley Sans Oblique_MSFontService,sans-serif" font-style="oblique" font-variant="normal" font-weight="400" font-stretch="normal" font-size="83" text-anchor="start" direction="ltr" writing-mode="lr-tb" unicode-bidi="normal" text-decoration="none" transform="matrix(1 0 0 1 1585.52 1078)">L2 </text><text fill="#FF8D0B" fill-opacity="1" font-family="Smiley Sans Oblique,Smiley Sans Oblique_MSFontService,sans-serif" font-style="oblique" font-variant="normal" font-weight="400" font-stretch="normal" font-size="83" text-anchor="start" direction="ltr" writing-mode="lr-tb" unicode-bidi="normal" text-decoration="none" transform="matrix(1 0 0 1 1669.16 1078)">缓存</text><path d="M1142.5 691.834C1142.5 676.186 1155.19 663.5 1170.83 663.5L1558.17 663.5C1573.81 663.5 1586.5 676.186 1586.5 691.834L1586.5 805.166C1586.5 820.814 1573.81 833.5 1558.17 833.5L1170.83 833.5C1155.19 833.5 1142.5 820.814 1142.5 805.166Z" stroke="#0092FB" stroke-width="6.875" stroke-linecap="butt" stroke-linejoin="miter" stroke-miterlimit="8" stroke-opacity="1" fill="#E9FAFF" fill-rule="evenodd" fill-opacity="1"/><text fill="#0092FB" fill-opacity="1" font-family="Smiley Sans Oblique,Smiley Sans Oblique_MSFontService,sans-serif" font-style="oblique" font-variant="normal" font-weight="400" font-stretch="normal" font-size="83" text-anchor="start" direction="ltr" writing-mode="lr-tb" unicode-bidi="normal" text-decoration="none" transform="matrix(1 0 0 1 1196.09 778)">L1</text><text fill="#0092FB" fill-opacity="1" font-family="Smiley Sans Oblique,Smiley Sans Oblique_MSFontService,sans-serif" font-style="oblique" font-variant="normal" font-weight="400" font-stretch="normal" font-size="83" text-anchor="start" direction="ltr" writing-mode="lr-tb" unicode-bidi="normal" text-decoration="none" transform="matrix(1 0 0 1 1268.85 778)">数据缓存</text><path d="M1653.5 691.834C1653.5 676.186 1666.19 663.5 1681.83 663.5L2069.17 663.5C2084.81 663.5 2097.5 676.186 2097.5 691.834L2097.5 805.166C2097.5 820.814 2084.81 833.5 2069.17 833.5L1681.83 833.5C1666.19 833.5 1653.5 820.814 1653.5 805.166Z" stroke="#0092FB" stroke-width="6.875" stroke-linecap="butt" stroke-linejoin="miter" stroke-miterlimit="8" stroke-opacity="1" fill="#E9FAFF" fill-rule="evenodd" fill-opacity="1"/><text fill="#0092FB" fill-opacity="1" font-family="Smiley Sans Oblique,Smiley Sans Oblique_MSFontService,sans-serif" font-style="oblique" font-variant="normal" font-weight="400" font-stretch="normal" font-size="83" text-anchor="start" direction="ltr" writing-mode="lr-tb" unicode-bidi="normal" text-decoration="none" transform="matrix(1 0 0 1 1706.83 778)">L1</text><text fill="#0092FB" fill-opacity="1" font-family="Smiley Sans Oblique,Smiley Sans Oblique_MSFontService,sans-serif" font-style="oblique" font-variant="normal" font-weight="400" font-stretch="normal" font-size="83" text-anchor="start" direction="ltr" writing-mode="lr-tb" unicode-bidi="normal" text-decoration="none" transform="matrix(1 0 0 1 1779.59 778)">指令缓存</text><path d="M1148.5 435.667C1148.5 421.215 1160.22 409.5 1174.67 409.5L1555.33 409.5C1569.78 409.5 1581.5 421.215 1581.5 435.667L1581.5 540.333C1581.5 554.785 1569.78 566.5 1555.33 566.5L1174.67 566.5C1160.22 566.5 1148.5 554.785 1148.5 540.333Z" stroke="#00B099" stroke-width="6.875" stroke-linecap="butt" stroke-linejoin="miter" stroke-miterlimit="8" stroke-opacity="1" fill="#E2FEFA" fill-rule="evenodd" fill-opacity="1"/><text fill="#00B099" fill-opacity="1" font-family="Smiley Sans Oblique,Smiley Sans Oblique_MSFontService,sans-serif" font-style="oblique" font-variant="normal" font-weight="400" font-stretch="normal" font-size="83" text-anchor="start" direction="ltr" writing-mode="lr-tb" unicode-bidi="normal" text-decoration="none" transform="matrix(1 0 0 1 1265.41 518)">寄存器</text><path d="M1369.08 589.417 1369.08 640.337 1359.92 640.338 1359.92 589.417ZM1350.75 594 1364.5 566.5 1378.25 594ZM1378.25 635.754 1364.5 663.254 1350.75 635.754Z" fill="#A6A6A6" fill-rule="nonzero" fill-opacity="1"/><path d="M1369.08 856.417 1369.08 938.663 1359.92 938.663 1359.92 856.417ZM1350.75 861 1364.5 833.5 1378.25 861ZM1378.25 934.08 1364.5 961.58 1350.75 934.08Z" fill="#A6A6A6" fill-rule="nonzero" fill-opacity="1"/><text fill="#000000" fill-opacity="1" font-family="Smiley Sans Oblique,Smiley Sans Oblique_MSFontService,sans-serif" font-style="oblique" font-variant="normal" font-weight="400" font-stretch="normal" font-size="83" text-anchor="start" direction="ltr" writing-mode="lr-tb" unicode-bidi="normal" text-decoration="none" transform="matrix(1 0 0 1 1795.31 504)">core</text><text fill="#000000" fill-opacity="1" font-family="Smiley Sans Oblique,Smiley Sans Oblique_MSFontService,sans-serif" font-style="oblique" font-variant="normal" font-weight="400" font-stretch="normal" font-size="83" text-anchor="start" direction="ltr" writing-mode="lr-tb" unicode-bidi="normal" text-decoration="none" transform="matrix(1 0 0 1 1944.27 504)">1</text><rect x="2217" y="354" width="1056" height="842" fill="#F2F2F2" fill-opacity="0.501961"/><path d="M2268.5 992.167C2268.5 976.887 2280.89 964.5 2296.17 964.5L3196.83 964.5C3212.11 964.5 3224.5 976.887 3224.5 992.167L3224.5 1102.83C3224.5 1118.11 3212.11 1130.5 3196.83 1130.5L2296.17 1130.5C2280.89 1130.5 2268.5 1118.11 2268.5 1102.83Z" stroke="#FF8D0B" stroke-width="6.875" stroke-linecap="butt" stroke-linejoin="miter" stroke-miterlimit="8" stroke-opacity="1" fill="#FFFCE1" fill-rule="evenodd" fill-opacity="1"/><text fill="#FF8D0B" fill-opacity="1" font-family="Smiley Sans Oblique,Smiley Sans Oblique_MSFontService,sans-serif" font-style="oblique" font-variant="normal" font-weight="400" font-stretch="normal" font-size="83" text-anchor="start" direction="ltr" writing-mode="lr-tb" unicode-bidi="normal" text-decoration="none" transform="matrix(1 0 0 1 2564.6 1078)">共享</text><text fill="#FF8D0B" fill-opacity="1" font-family="Smiley Sans Oblique,Smiley Sans Oblique_MSFontService,sans-serif" font-style="oblique" font-variant="normal" font-weight="400" font-stretch="normal" font-size="83" text-anchor="start" direction="ltr" writing-mode="lr-tb" unicode-bidi="normal" text-decoration="none" transform="matrix(1 0 0 1 2711.84 1078)">L2 </text><text fill="#FF8D0B" fill-opacity="1" font-family="Smiley Sans Oblique,Smiley Sans Oblique_MSFontService,sans-serif" font-style="oblique" font-variant="normal" font-weight="400" font-stretch="normal" font-size="83" text-anchor="start" direction="ltr" writing-mode="lr-tb" unicode-bidi="normal" text-decoration="none" transform="matrix(1 0 0 1 2795.49 1078)">缓存</text><path d="M2268.5 691.834C2268.5 676.185 2281.19 663.5 2296.83 663.5L2685.17 663.5C2700.81 663.5 2713.5 676.185 2713.5 691.834L2713.5 805.166C2713.5 820.815 2700.81 833.5 2685.17 833.5L2296.83 833.5C2281.19 833.5 2268.5 820.815 2268.5 805.166Z" stroke="#0092FB" stroke-width="6.875" stroke-linecap="butt" stroke-linejoin="miter" stroke-miterlimit="8" stroke-opacity="1" fill="#E9FAFF" fill-rule="evenodd" fill-opacity="1"/><text fill="#0092FB" fill-opacity="1" font-family="Smiley Sans Oblique,Smiley Sans Oblique_MSFontService,sans-serif" font-style="oblique" font-variant="normal" font-weight="400" font-stretch="normal" font-size="83" text-anchor="start" direction="ltr" writing-mode="lr-tb" unicode-bidi="normal" text-decoration="none" transform="matrix(1 0 0 1 2322.41 778)">L1</text><text fill="#0092FB" fill-opacity="1" font-family="Smiley Sans Oblique,Smiley Sans Oblique_MSFontService,sans-serif" font-style="oblique" font-variant="normal" font-weight="400" font-stretch="normal" font-size="83" text-anchor="start" direction="ltr" writing-mode="lr-tb" unicode-bidi="normal" text-decoration="none" transform="matrix(1 0 0 1 2395.17 778)">数据缓存</text><path d="M2779.5 691.834C2779.5 676.185 2792.19 663.5 2807.83 663.5L3196.17 663.5C3211.81 663.5 3224.5 676.185 3224.5 691.834L3224.5 805.166C3224.5 820.815 3211.81 833.5 3196.17 833.5L2807.83 833.5C2792.19 833.5 2779.5 820.815 2779.5 805.166Z" stroke="#0092FB" stroke-width="6.875" stroke-linecap="butt" stroke-linejoin="miter" stroke-miterlimit="8" stroke-opacity="1" fill="#E9FAFF" fill-rule="evenodd" fill-opacity="1"/><text fill="#0092FB" fill-opacity="1" font-family="Smiley Sans Oblique,Smiley Sans Oblique_MSFontService,sans-serif" font-style="oblique" font-variant="normal" font-weight="400" font-stretch="normal" font-size="83" text-anchor="start" direction="ltr" writing-mode="lr-tb" unicode-bidi="normal" text-decoration="none" transform="matrix(1 0 0 1 2833.15 778)">L1</text><text fill="#0092FB" fill-opacity="1" font-family="Smiley Sans Oblique,Smiley Sans Oblique_MSFontService,sans-serif" font-style="oblique" font-variant="normal" font-weight="400" font-stretch="normal" font-size="83" text-anchor="start" direction="ltr" writing-mode="lr-tb" unicode-bidi="normal" text-decoration="none" transform="matrix(1 0 0 1 2905.91 778)">指令缓存</text><path d="M2268.5 435.667C2268.5 421.215 2280.22 409.5 2294.67 409.5L2687.33 409.5C2701.78 409.5 2713.5 421.215 2713.5 435.667L2713.5 540.333C2713.5 554.785 2701.78 566.5 2687.33 566.5L2294.67 566.5C2280.22 566.5 2268.5 554.785 2268.5 540.333Z" stroke="#00B099" stroke-width="6.875" stroke-linecap="butt" stroke-linejoin="miter" stroke-miterlimit="8" stroke-opacity="1" fill="#E2FEFA" fill-rule="evenodd" fill-opacity="1"/><text fill="#00B099" fill-opacity="1" font-family="Smiley Sans Oblique,Smiley Sans Oblique_MSFontService,sans-serif" font-style="oblique" font-variant="normal" font-weight="400" font-stretch="normal" font-size="83" text-anchor="start" direction="ltr" writing-mode="lr-tb" unicode-bidi="normal" text-decoration="none" transform="matrix(1 0 0 1 2391.73 518)">寄存器</text><path d="M3003.08 856.417 3003.08 938.663 2993.92 938.663 2993.92 856.417ZM2984.75 861 2998.5 833.5 3012.25 861ZM3012.25 934.08 2998.5 961.58 2984.75 934.08Z" fill="#A6A6A6" fill-rule="nonzero" fill-opacity="1"/><text fill="#000000" fill-opacity="1" font-family="Smiley Sans Oblique,Smiley Sans Oblique_MSFontService,sans-serif" font-style="oblique" font-variant="normal" font-weight="400" font-stretch="normal" font-size="83" text-anchor="start" direction="ltr" writing-mode="lr-tb" unicode-bidi="normal" text-decoration="none" transform="matrix(1 0 0 1 2916.2 504)">core</text><text fill="#000000" fill-opacity="1" font-family="Smiley Sans Oblique,Smiley Sans Oblique_MSFontService,sans-serif" font-style="oblique" font-variant="normal" font-weight="400" font-stretch="normal" font-size="83" text-anchor="start" direction="ltr" writing-mode="lr-tb" unicode-bidi="normal" text-decoration="none" transform="matrix(1 0 0 1 3065.15 504)">2</text><text fill="#000000" fill-opacity="1" font-family="Smiley Sans Oblique,Smiley Sans Oblique_MSFontService,sans-serif" font-style="oblique" font-variant="normal" font-weight="400" font-stretch="normal" font-size="92" text-anchor="start" direction="ltr" writing-mode="lr-tb" unicode-bidi="normal" text-decoration="none" transform="matrix(1 0 0 1 769.625 520)">Reg</text><path d="M1148.5 1601.17C1148.5 1585.89 1160.89 1573.5 1176.17 1573.5L3196.83 1573.5C3212.11 1573.5 3224.5 1585.89 3224.5 1601.17L3224.5 1711.83C3224.5 1727.11 3212.11 1739.5 3196.83 1739.5L1176.17 1739.5C1160.89 1739.5 1148.5 1727.11 1148.5 1711.83Z" stroke="#7F7F7F" stroke-width="6.875" stroke-linecap="butt" stroke-linejoin="miter" stroke-miterlimit="8" stroke-opacity="1" fill="#F2F2F2" fill-rule="evenodd" fill-opacity="1"/><text fill="#7F7F7F" fill-opacity="1" font-family="Smiley Sans Oblique,Smiley Sans Oblique_MSFontService,sans-serif" font-style="oblique" font-variant="normal" font-weight="400" font-stretch="normal" font-size="83" text-anchor="start" direction="ltr" writing-mode="lr-tb" unicode-bidi="normal" text-decoration="none" transform="matrix(1 0 0 1 2119.66 1687)">内存</text><path d="M2188.58 1468.31 2190.36 1551.12 2181.2 1551.31 2179.41 1468.51ZM2170.35 1473.29 2183.5 1445.5 2197.84 1472.7ZM2199.43 1546.34 2186.27 1574.13 2171.93 1546.93Z" fill="#A6A6A6" fill-rule="nonzero" fill-opacity="1"/><path d="M649.5 899.5 3272.8 899.5" stroke="#D9D9D9" stroke-width="6.875" stroke-linecap="butt" stroke-linejoin="miter" stroke-miterlimit="8" stroke-dasharray="27.5 20.625" stroke-opacity="1" fill="none" fill-rule="evenodd"/><path d="M649.5 1208.5 3272.8 1208.5" stroke="#D9D9D9" stroke-width="6.875" stroke-linecap="butt" stroke-linejoin="miter" stroke-miterlimit="8" stroke-dasharray="27.5 20.625" stroke-opacity="1" fill="none" fill-rule="evenodd"/><path d="M649.5 613.5 3272.8 613.5" stroke="#D9D9D9" stroke-width="6.875" stroke-linecap="butt" stroke-linejoin="miter" stroke-miterlimit="8" stroke-dasharray="27.5 20.625" stroke-opacity="1" fill="none" fill-rule="evenodd"/><path d="M2496.08 589.417 2496.08 640.337 2486.92 640.338 2486.92 589.417ZM2477.75 594 2491.5 566.5 2505.25 594ZM2505.25 635.754 2491.5 663.254 2477.75 635.754Z" fill="#A6A6A6" fill-rule="nonzero" fill-opacity="1"/><path d="M1877.08 856.417 1877.08 938.663 1867.92 938.663 1867.92 856.417ZM1858.75 861 1872.5 833.5 1886.25 861ZM1886.25 934.08 1872.5 961.58 1858.75 934.08Z" fill="#A6A6A6" fill-rule="nonzero" fill-opacity="1"/><path d="M2496.08 856.417 2496.08 938.663 2486.92 938.663 2486.92 856.417ZM2477.75 861 2491.5 833.5 2505.25 861ZM2505.25 934.08 2491.5 961.58 2477.75 934.08Z" fill="#A6A6A6" fill-rule="nonzero" fill-opacity="1"/><path d="M1573.08 1156.42 1573.08 1255.89 1563.92 1255.89 1563.92 1156.42ZM1554.75 1161 1568.5 1133.5 1582.25 1161ZM1582.25 1251.31 1568.5 1278.81 1554.75 1251.31Z" fill="#A6A6A6" fill-rule="nonzero" fill-opacity="1"/><path d="M2751.08 1153.42 2751.08 1255.8 2741.92 1255.8 2741.92 1153.42ZM2732.75 1158 2746.5 1130.5 2760.25 1158ZM2760.25 1251.22 2746.5 1278.72 2732.75 1251.22Z" fill="#A6A6A6" fill-rule="nonzero" fill-opacity="1"/></g></g></svg>