<svg width="4038" height="1288" xmlns="http://www.w3.org/2000/svg" xmlns:xlink="http://www.w3.org/1999/xlink" xml:space="preserve" overflow="hidden"><g transform="translate(-187 -362)"><g><path d="M190 858.364C190 834.967 208.967 816 232.364 816L688.637 816C712.033 816 731 834.967 731 858.364L731 986.636C731 1010.03 712.033 1029 688.637 1029L232.364 1029C208.967 1029 190 1010.03 190 986.636Z" fill="#FF6648" fill-rule="evenodd" fill-opacity="1"/><text fill="#FFFFFF" fill-opacity="1" font-family="PingFang SC,PingFang SC_MSFontService,sans-serif" font-style="normal" font-variant="normal" font-weight="600" font-stretch="normal" font-size="73" text-anchor="start" direction="ltr" writing-mode="lr-tb" unicode-bidi="normal" text-decoration="none" transform="matrix(1 0 0 1 265.558 902)">Workspace</text><text fill="#FFFFFF" fill-opacity="1" font-family="PingFang SC,PingFang SC_MSFontService,sans-serif" font-style="normal" font-variant="normal" font-weight="600" font-stretch="normal" font-size="73" text-anchor="start" direction="ltr" writing-mode="lr-tb" unicode-bidi="normal" text-decoration="none" transform="matrix(1 0 0 1 350.35 990)">工作区</text><path d="M1350 858.364C1350 834.967 1368.97 816 1392.36 816L1848.64 816C1872.03 816 1891 834.967 1891 858.364L1891 986.636C1891 1010.03 1872.03 1029 1848.64 1029L1392.36 1029C1368.97 1029 1350 1010.03 1350 986.636Z" fill="#FFB805" fill-rule="evenodd" fill-opacity="1"/><text fill="#FFFFFF" fill-opacity="1" font-family="PingFang SC,PingFang SC_MSFontService,sans-serif" font-style="normal" font-variant="normal" font-weight="600" font-stretch="normal" font-size="73" text-anchor="start" direction="ltr" writing-mode="lr-tb" unicode-bidi="normal" text-decoration="none" transform="matrix(1 0 0 1 1407.56 902)">Index/</text><text fill="#FFFFFF" fill-opacity="1" font-family="PingFang SC,PingFang SC_MSFontService,sans-serif" font-style="normal" font-variant="normal" font-weight="600" font-stretch="normal" font-size="73" text-anchor="start" direction="ltr" writing-mode="lr-tb" unicode-bidi="normal" text-decoration="none" transform="matrix(1 0 0 1 1631 902)">Stage</text><text fill="#FFFFFF" fill-opacity="1" font-family="PingFang SC,PingFang SC_MSFontService,sans-serif" font-style="normal" font-variant="normal" font-weight="600" font-stretch="normal" font-size="73" text-anchor="start" direction="ltr" writing-mode="lr-tb" unicode-bidi="normal" text-decoration="none" transform="matrix(1 0 0 1 1510.12 990)">暂存区</text><path d="M2509 858.364C2509 834.967 2527.97 816 2551.36 816L3007.64 816C3031.03 816 3050 834.967 3050 858.364L3050 986.636C3050 1010.03 3031.03 1029 3007.64 1029L2551.36 1029C2527.97 1029 2509 1010.03 2509 986.636Z" fill="#2BAAFF" fill-rule="evenodd" fill-opacity="1"/><text fill="#FFFFFF" fill-opacity="1" font-family="PingFang SC,PingFang SC_MSFontService,sans-serif" font-style="normal" font-variant="normal" font-weight="600" font-stretch="normal" font-size="73" text-anchor="start" direction="ltr" writing-mode="lr-tb" unicode-bidi="normal" text-decoration="none" transform="matrix(1 0 0 1 2582.23 902)">Local Repo</text><text fill="#FFFFFF" fill-opacity="1" font-family="PingFang SC,PingFang SC_MSFontService,sans-serif" font-style="normal" font-variant="normal" font-weight="600" font-stretch="normal" font-size="73" text-anchor="start" direction="ltr" writing-mode="lr-tb" unicode-bidi="normal" text-decoration="none" transform="matrix(1 0 0 1 2633.22 990)">本地仓库</text><path d="M3669 858.364C3669 834.967 3687.97 816 3711.36 816L4167.64 816C4191.03 816 4210 834.967 4210 858.364L4210 986.636C4210 1010.03 4191.03 1029 4167.64 1029L3711.36 1029C3687.97 1029 3669 1010.03 3669 986.636Z" fill="#2BB972" fill-rule="evenodd" fill-opacity="1"/><text fill="#FFFFFF" fill-opacity="1" font-family="PingFang SC,PingFang SC_MSFontService,sans-serif" font-style="normal" font-variant="normal" font-weight="600" font-stretch="normal" font-size="73" text-anchor="start" direction="ltr" writing-mode="lr-tb" unicode-bidi="normal" text-decoration="none" transform="matrix(1 0 0 1 3701.89 902)">Remote Repo</text><text fill="#FFFFFF" fill-opacity="1" font-family="PingFang SC,PingFang SC_MSFontService,sans-serif" font-style="normal" font-variant="normal" font-weight="600" font-stretch="normal" font-size="73" text-anchor="start" direction="ltr" writing-mode="lr-tb" unicode-bidi="normal" text-decoration="none" transform="matrix(1 0 0 1 3792.98 990)">远程仓库</text><path d="M458.926 818.786 459.367 811.991 460.733 804.936 462.974 797.942 466.059 791.02 469.958 784.175 474.645 777.406 480.097 770.707 486.295 764.075 493.225 757.504 500.87 750.992 509.219 744.536 518.258 738.135 527.976 731.787 538.359 725.495 549.396 719.257 561.074 713.076 573.382 706.953 586.305 700.891 599.833 694.891 613.953 688.955 628.651 683.087 643.916 677.289 659.734 671.563 676.092 665.913 692.978 660.341 710.378 654.851 728.281 649.444 746.671 644.125 765.538 638.896 784.867 633.76 804.645 628.72 824.86 623.78 845.498 618.942 866.546 614.209 887.991 609.586 909.829 605.072 954.576 596.397 1000.71 588.206 1048.12 580.524 1096.69 573.377 1146.32 566.79 1196.91 560.789 1248.34 555.399 1300.52 550.645 1353.34 546.553 1406.68 543.148 1460.45 540.455 1514.55 538.5 1568.85 537.308 1623.27 536.905 1677.68 537.302 1731.98 538.474 1786.08 540.396 1839.85 543.045 1893.19 546.394 1946.01 550.418 1998.18 555.094 2049.62 560.395 2100.2 566.297 2149.84 572.774 2198.41 579.803 2245.81 587.358 2291.94 595.414 2336.69 603.945 2358.53 608.384 2379.97 612.931 2401.02 617.586 2421.66 622.343 2441.87 627.202 2461.65 632.158 2480.98 637.209 2499.84 642.352 2518.23 647.583 2536.13 652.9 2553.53 658.3 2570.42 663.78 2586.78 669.337 2602.59 674.967 2617.86 680.67 2632.56 686.44 2646.67 692.278 2660.2 698.178 2673.12 704.141 2685.43 710.162 2697.11 716.24 2708.15 722.375 2718.53 728.563 2728.25 734.805 2737.28 741.101 2745.63 747.451 2753.28 753.856 2760.21 760.319 2766.41 766.844 2771.87 773.436 2776.7 780.306 2781.21 790.538 2772.82 794.235 2768.5 784.42 2768.94 785.21 2764.47 778.858 2764.69 779.142 2759.45 772.81 2759.66 773.045 2753.66 766.734 2753.86 766.929 2747.12 760.643 2747.3 760.805 2739.83 754.547 2740 754.682 2731.81 748.456 2731.97 748.568 2723.08 742.376 2723.22 742.472 2713.64 736.317 2713.77 736.398 2703.51 730.284 2703.63 730.353 2692.71 724.283 2692.82 724.342 2681.25 718.319 2681.35 718.371 2669.14 712.397 2669.24 712.442 2656.41 706.522 2656.49 706.561 2643.05 700.697 2643.13 700.732 2629.09 694.927 2629.17 694.958 2614.54 689.216 2614.61 689.243 2599.42 683.567 2599.49 683.591 2583.73 677.983 2583.8 678.005 2567.5 672.469 2567.56 672.489 2550.73 667.028 2550.79 667.046 2533.44 661.663 2533.5 661.68 2515.65 656.378 2515.7 656.393 2497.36 651.176 2497.41 651.189 2478.59 646.06 2478.64 646.072 2459.35 641.033 2459.4 641.044 2439.66 636.099 2439.71 636.11 2419.53 631.261 2419.58 631.271 2398.98 626.522 2399.02 626.531 2378.01 621.886 2378.05 621.894 2356.64 617.355 2356.68 617.363 2334.89 612.933 2334.95 612.944 2290.26 604.425 2290.33 604.438 2244.27 596.394 2244.33 596.405 2197 588.86 2197.06 588.87 2148.55 581.851 2148.62 581.86 2099.05 575.39 2099.11 575.398 2048.59 569.503 2048.65 569.51 1997.28 564.215 1997.34 564.221 1945.22 559.551 1945.28 559.556 1892.53 555.536 1892.59 555.54 1839.3 552.195 1839.36 552.199 1785.66 549.553 1785.72 549.556 1731.69 547.635 1731.75 547.637 1677.51 546.467 1677.58 546.468 1623.23 546.072 1623.3 546.072 1568.95 546.474 1569.02 546.473 1514.78 547.664 1514.85 547.662 1460.82 549.614 1460.88 549.612 1407.17 552.301 1407.23 552.298 1353.95 555.699 1354.01 555.695 1301.26 559.782 1301.32 559.777 1249.2 564.525 1249.27 564.519 1197.89 569.903 1197.95 569.896 1147.43 575.89 1147.49 575.882 1097.93 582.46 1097.99 582.451 1049.48 589.588 1049.55 589.578 1002.21 597.249 1002.28 597.237 956.215 605.417 956.285 605.403 911.601 614.065 911.657 614.054 889.866 618.559 889.904 618.55 868.498 623.166 868.537 623.157 847.529 627.881 847.57 627.871 826.973 632.699 827.015 632.689 806.843 637.619 806.887 637.608 787.153 642.637 787.198 642.625 767.915 647.749 767.963 647.736 749.144 652.952 749.194 652.938 730.853 658.242 730.905 658.227 713.056 663.618 713.11 663.601 695.765 669.074 695.822 669.056 678.995 674.608 679.055 674.588 662.758 680.217 662.822 680.194 647.07 685.896 647.137 685.871 631.943 691.643 632.014 691.615 617.39 697.453 617.467 697.422 603.427 703.324 603.509 703.288 590.066 709.251 590.155 709.21 577.322 715.23 577.417 715.184 565.209 721.258 565.311 721.205 553.74 727.329 553.851 727.269 542.93 733.441 543.05 733.37 532.793 739.587 532.924 739.504 523.343 745.762 523.486 745.665 514.595 751.961 514.75 751.846 506.563 758.177 506.732 758.041 499.261 764.403 499.443 764.24 492.703 770.631 492.898 770.435 486.901 776.852 487.107 776.615 481.867 783.054 482.08 782.77 477.61 789.228 477.824 788.887 474.136 795.361 474.34 794.959 471.449 801.445 471.627 800.978 469.546 807.474 469.681 806.946 468.422 813.449 468.496 812.875 468.074 819.38ZM2789.08 784.355 2783.03 814.5 2762.55 791.573Z" fill="#BFBFBF" fill-rule="nonzero" fill-opacity="1"/><text fill="#000000" fill-opacity="1" font-family="PingFang SC,PingFang SC_MSFontService,sans-serif" font-style="normal" font-variant="normal" font-weight="600" font-stretch="normal" font-size="55" text-anchor="start" direction="ltr" writing-mode="lr-tb" unicode-bidi="normal" text-decoration="none" transform="matrix(1 0 0 1 943.327 830)">暂存</text><text fill="#000000" fill-opacity="1" font-family="PingFang SC,PingFang SC_MSFontService,sans-serif" font-style="normal" font-variant="normal" font-weight="600" font-stretch="normal" font-size="55" text-anchor="start" direction="ltr" writing-mode="lr-tb" unicode-bidi="normal" text-decoration="none" transform="matrix(1 0 0 1 845.931 896)">git add (</text><text fill="#000000" fill-opacity="1" font-family="PingFang SC,PingFang SC_MSFontService,sans-serif" font-style="normal" font-variant="normal" font-weight="600" font-stretch="normal" font-size="55" text-anchor="start" direction="ltr" writing-mode="lr-tb" unicode-bidi="normal" text-decoration="none" transform="matrix(1 0 0 1 1067.08 896)">-</text><text fill="#000000" fill-opacity="1" font-family="PingFang SC,PingFang SC_MSFontService,sans-serif" font-style="normal" font-variant="normal" font-weight="600" font-stretch="normal" font-size="55" text-anchor="start" direction="ltr" writing-mode="lr-tb" unicode-bidi="normal" text-decoration="none" transform="matrix(1 0 0 1 1100.31 896)">u)</text><text fill="#000000" fill-opacity="1" font-family="PingFang SC,PingFang SC_MSFontService,sans-serif" font-style="normal" font-variant="normal" font-weight="600" font-stretch="normal" font-size="55" text-anchor="start" direction="ltr" writing-mode="lr-tb" unicode-bidi="normal" text-decoration="none" transform="matrix(1 0 0 1 2134.08 830)">提交</text><text fill="#000000" fill-opacity="1" font-family="PingFang SC,PingFang SC_MSFontService,sans-serif" font-style="normal" font-variant="normal" font-weight="600" font-stretch="normal" font-size="55" text-anchor="start" direction="ltr" writing-mode="lr-tb" unicode-bidi="normal" text-decoration="none" transform="matrix(1 0 0 1 2047.57 896)">git</text><text fill="#000000" fill-opacity="1" font-family="PingFang SC,PingFang SC_MSFontService,sans-serif" font-style="normal" font-variant="normal" font-weight="600" font-stretch="normal" font-size="55" text-anchor="start" direction="ltr" writing-mode="lr-tb" unicode-bidi="normal" text-decoration="none" transform="matrix(1 0 0 1 2134.08 896)">commit</text><text fill="#000000" fill-opacity="1" font-family="PingFang SC,PingFang SC_MSFontService,sans-serif" font-style="normal" font-variant="normal" font-weight="600" font-stretch="normal" font-size="55" text-anchor="start" direction="ltr" writing-mode="lr-tb" unicode-bidi="normal" text-decoration="none" transform="matrix(1 0 0 1 1567.4 433)">提交</text><text fill="#000000" fill-opacity="1" font-family="PingFang SC,PingFang SC_MSFontService,sans-serif" font-style="normal" font-variant="normal" font-weight="600" font-stretch="normal" font-size="55" text-anchor="start" direction="ltr" writing-mode="lr-tb" unicode-bidi="normal" text-decoration="none" transform="matrix(1 0 0 1 1439.36 499)">git</text><text fill="#000000" fill-opacity="1" font-family="PingFang SC,PingFang SC_MSFontService,sans-serif" font-style="normal" font-variant="normal" font-weight="600" font-stretch="normal" font-size="55" text-anchor="start" direction="ltr" writing-mode="lr-tb" unicode-bidi="normal" text-decoration="none" transform="matrix(1 0 0 1 1525.87 499)">commit </text><text fill="#000000" fill-opacity="1" font-family="PingFang SC,PingFang SC_MSFontService,sans-serif" font-style="normal" font-variant="normal" font-weight="600" font-stretch="normal" font-size="55" text-anchor="start" direction="ltr" writing-mode="lr-tb" unicode-bidi="normal" text-decoration="none" transform="matrix(1 0 0 1 1740.72 499)">-</text><text fill="#000000" fill-opacity="1" font-family="PingFang SC,PingFang SC_MSFontService,sans-serif" font-style="normal" font-variant="normal" font-weight="600" font-stretch="normal" font-size="55" text-anchor="start" direction="ltr" writing-mode="lr-tb" unicode-bidi="normal" text-decoration="none" transform="matrix(1 0 0 1 1773.94 499)">a</text><text fill="#000000" fill-opacity="1" font-family="PingFang SC,PingFang SC_MSFontService,sans-serif" font-style="normal" font-variant="normal" font-weight="600" font-stretch="normal" font-size="55" text-anchor="start" direction="ltr" writing-mode="lr-tb" unicode-bidi="normal" text-decoration="none" transform="matrix(1 0 0 1 3338.58 830)">推送</text><text fill="#000000" fill-opacity="1" font-family="PingFang SC,PingFang SC_MSFontService,sans-serif" font-style="normal" font-variant="normal" font-weight="600" font-stretch="normal" font-size="55" text-anchor="start" direction="ltr" writing-mode="lr-tb" unicode-bidi="normal" text-decoration="none" transform="matrix(1 0 0 1 3287.59 896)">git</text><text fill="#000000" fill-opacity="1" font-family="PingFang SC,PingFang SC_MSFontService,sans-serif" font-style="normal" font-variant="normal" font-weight="600" font-stretch="normal" font-size="55" text-anchor="start" direction="ltr" writing-mode="lr-tb" unicode-bidi="normal" text-decoration="none" transform="matrix(1 0 0 1 3374.1 896)">push</text><path d="M3946.84 1027.81 3946.61 1031.19 3945.86 1034.84 3944.64 1038.42 3942.98 1041.93 3940.91 1045.36 3938.45 1048.72 3935.61 1052.02 3932.36 1055.3 3924.94 1061.58 3916.08 1067.76 3905.9 1073.8 3894.44 1079.72 3881.73 1085.51 3867.83 1091.17 3852.78 1096.7 3836.63 1102.09 3819.43 1107.32 3801.24 1112.4 3782.1 1117.3 3762.06 1122.02 3741.18 1126.54 3719.51 1130.86 3697.1 1134.96 3674 1138.83 3650.27 1142.46 3625.96 1145.83 3601.11 1148.94 3575.79 1151.78 3550.04 1154.32 3523.91 1156.57 3470.79 1160.11 3416.82 1162.3 3389.62 1162.87 3362.37 1163.06 3307.97 1162.33 3253.98 1160.21 3200.87 1156.8 3174.74 1154.63 3148.99 1152.17 3123.67 1149.44 3098.83 1146.44 3074.52 1143.18 3050.79 1139.68 3027.69 1135.94 3005.28 1131.99 2983.61 1127.82 2962.74 1123.46 2942.7 1118.9 2923.56 1114.17 2905.37 1109.28 2888.18 1104.23 2872.04 1099.03 2856.99 1093.69 2843.09 1088.23 2830.39 1082.64 2818.93 1076.94 2808.75 1071.11 2799.65 1064.98 2790.41 1055.2 2797.08 1048.9 2805.96 1058.32 2805.19 1057.66 2813.73 1063.41 2813.45 1063.24 2823.37 1068.92 2823.13 1068.79 2834.38 1074.39 2834.18 1074.3 2846.7 1079.8 2846.53 1079.73 2860.27 1085.14 2860.13 1085.08 2875.04 1090.37 2874.91 1090.32 2890.93 1095.48 2890.82 1095.45 2907.91 1100.47 2907.81 1100.44 2925.9 1105.31 2925.81 1105.29 2944.86 1109.99 2944.78 1109.97 2964.73 1114.51 2964.65 1114.49 2985.45 1118.84 2985.38 1118.83 3006.98 1122.98 3006.91 1122.96 3029.25 1126.91 3029.19 1126.9 3052.22 1130.62 3052.16 1130.61 3075.83 1134.1 3075.77 1134.1 3100.02 1137.35 3099.96 1137.34 3124.75 1140.33 3124.69 1140.33 3149.95 1143.06 3149.89 1143.05 3175.58 1145.5 3175.52 1145.5 3201.58 1147.66 3201.5 1147.65 3254.52 1151.06 3254.4 1151.06 3308.27 1153.17 3308.15 1153.17 3362.44 1153.89 3362.35 1153.89 3389.52 1153.7 3389.46 1153.7 3416.58 1153.14 3416.49 1153.14 3470.36 1150.95 3470.24 1150.96 3523.26 1147.43 3523.17 1147.43 3549.23 1145.19 3549.17 1145.2 3574.86 1142.66 3574.8 1142.66 3600.06 1139.84 3600 1139.84 3624.79 1136.74 3624.73 1136.75 3648.98 1133.38 3648.92 1133.39 3672.59 1129.77 3672.52 1129.78 3695.55 1125.92 3695.49 1125.93 3717.83 1121.85 3717.76 1121.86 3739.36 1117.56 3739.28 1117.57 3760.08 1113.07 3760 1113.08 3779.96 1108.39 3779.87 1108.41 3798.92 1103.53 3798.83 1103.55 3816.92 1098.51 3816.82 1098.54 3833.9 1093.34 3833.79 1093.37 3849.81 1088.03 3849.68 1088.07 3864.59 1082.59 3864.44 1082.65 3878.18 1077.05 3878.01 1077.13 3890.53 1071.42 3890.33 1071.52 3901.58 1065.72 3901.34 1065.85 3911.26 1059.96 3910.98 1060.15 3919.51 1054.19 3919.17 1054.45 3926.28 1048.43 3925.99 1048.7 3928.98 1045.68 3928.77 1045.91 3931.39 1042.87 3931.17 1043.15 3933.4 1040.11 3933.17 1040.45 3935.02 1037.39 3934.8 1037.81 3936.24 1034.74 3936.05 1035.23 3937.09 1032.16 3936.94 1032.72 3937.57 1029.65 3937.48 1030.25 3937.69 1027.19ZM2784.02 1062.79 2782.5 1032.08 2807.98 1049.3Z" fill="#BFBFBF" fill-rule="nonzero" fill-opacity="1"/><text fill="#000000" fill-opacity="1" font-family="PingFang SC,PingFang SC_MSFontService,sans-serif" font-style="normal" font-variant="normal" font-weight="600" font-stretch="normal" font-size="55" text-anchor="start" direction="ltr" writing-mode="lr-tb" unicode-bidi="normal" text-decoration="none" transform="matrix(1 0 0 1 3251.6 1230)">git</text><text fill="#000000" fill-opacity="1" font-family="PingFang SC,PingFang SC_MSFontService,sans-serif" font-style="normal" font-variant="normal" font-weight="600" font-stretch="normal" font-size="55" text-anchor="start" direction="ltr" writing-mode="lr-tb" unicode-bidi="normal" text-decoration="none" transform="matrix(1 0 0 1 3338.11 1230)">fetch</text><text fill="#000000" fill-opacity="1" font-family="PingFang SC,PingFang SC_MSFontService,sans-serif" font-style="normal" font-variant="normal" font-weight="600" font-stretch="normal" font-size="55" text-anchor="start" direction="ltr" writing-mode="lr-tb" unicode-bidi="normal" text-decoration="none" transform="matrix(1 0 0 1 3306.87 1296)">抓取</text><path d="M3947.37 1027.79 3946.72 1038.05 3944.73 1048.56 3941.46 1059.01 3936.93 1069.38 3931.19 1079.67 3924.28 1089.88 3916.21 1100.02 3907.01 1110.07 3896.72 1120.05 3885.34 1129.96 3872.9 1139.79 3859.41 1149.55 3844.9 1159.23 3829.39 1168.84 3812.89 1178.37 3795.43 1187.82 3777.02 1197.18 3757.67 1206.45 3737.42 1215.63 3716.28 1224.71 3694.27 1233.69 3671.41 1242.57 3647.71 1251.33 3623.21 1259.98 3597.91 1268.52 3571.83 1276.92 3545.01 1285.21 3517.44 1293.35 3489.17 1301.36 3460.2 1309.23 3430.55 1316.95 3400.25 1324.52 3369.31 1331.93 3337.76 1339.18 3305.61 1346.26 3272.88 1353.18 3239.6 1359.91 3205.78 1366.47 3171.45 1372.84 3136.62 1379.02 3101.31 1385.01 3065.54 1390.79 3029.34 1396.37 2992.71 1401.74 2955.69 1406.9 2918.29 1411.84 2842.45 1421.03 2765.32 1429.29 2687.09 1436.58 2607.89 1442.85 2527.9 1448.07 2447.27 1452.19 2366.17 1455.19 2284.74 1457.02 2203.15 1457.63 2121.56 1457.02 2040.14 1455.22 1959.03 1452.25 1878.4 1448.17 1798.41 1443.01 1719.22 1436.81 1640.98 1429.6 1563.86 1421.43 1488.02 1412.33 1450.61 1407.45 1413.59 1402.35 1376.97 1397.03 1340.77 1391.51 1305 1385.79 1269.69 1379.87 1234.86 1373.76 1200.52 1367.45 1166.71 1360.97 1133.43 1354.3 1100.7 1347.46 1068.55 1340.46 1037 1333.28 1006.06 1325.95 975.761 1318.47 946.115 1310.83 917.145 1303.05 888.869 1295.12 861.307 1287.06 834.48 1278.87 808.406 1270.56 783.107 1262.12 758.6 1253.56 734.905 1244.89 712.043 1236.11 690.032 1227.22 668.892 1218.24 648.642 1209.16 629.302 1199.99 610.89 1190.73 593.425 1181.38 576.928 1171.95 561.415 1162.45 546.908 1152.87 533.423 1143.22 520.981 1133.49 509.601 1123.69 499.303 1113.82 490.107 1103.87 482.036 1093.84 475.117 1083.74 469.377 1073.55 464.773 1063.11 463.073 1055.66 472.009 1053.62 473.612 1060.64 473.338 1059.81 477.675 1069.65 477.474 1069.25 483.005 1079.07 482.794 1078.73 489.5 1088.52 489.288 1088.23 497.149 1098 496.944 1097.76 505.94 1107.49 505.746 1107.29 515.856 1116.99 515.675 1116.82 526.88 1126.47 526.713 1126.33 538.993 1135.93 538.838 1135.82 552.174 1145.37 552.031 1145.27 566.402 1154.76 566.271 1154.67 581.657 1164.1 581.536 1164.03 597.917 1173.39 597.806 1173.33 615.163 1182.62 615.06 1182.56 633.373 1191.77 633.278 1191.73 652.526 1200.85 652.437 1200.81 672.602 1209.86 672.519 1209.82 693.579 1218.77 693.502 1218.74 715.438 1227.59 715.366 1227.56 738.158 1236.32 738.089 1236.29 761.718 1244.94 761.654 1244.91 786.099 1253.45 786.038 1253.43 811.279 1261.85 811.221 1261.83 837.239 1270.13 837.184 1270.11 863.958 1278.29 863.906 1278.27 891.416 1286.32 891.367 1286.3 919.594 1294.21 919.547 1294.2 948.471 1301.97 948.425 1301.96 978.026 1309.58 977.982 1309.57 1008.24 1317.05 1008.2 1317.04 1039.09 1324.36 1039.05 1324.35 1070.56 1331.51 1070.52 1331.51 1102.63 1338.5 1102.59 1338.5 1135.28 1345.33 1135.24 1345.32 1168.49 1351.98 1168.45 1351.97 1202.23 1358.45 1202.2 1358.44 1236.5 1364.74 1236.46 1364.73 1271.26 1370.84 1271.22 1370.83 1306.5 1376.75 1306.47 1376.74 1342.2 1382.46 1342.17 1382.45 1378.34 1387.97 1378.3 1387.96 1414.89 1393.27 1414.86 1393.27 1451.85 1398.36 1451.81 1398.36 1489.18 1403.24 1489.13 1403.23 1564.92 1412.32 1564.85 1412.32 1641.91 1420.48 1641.85 1420.47 1720.03 1427.67 1719.96 1427.67 1799.1 1433.87 1799.03 1433.86 1878.96 1439.02 1878.9 1439.02 1959.46 1443.1 1959.4 1443.09 2040.44 1446.06 2040.37 1446.05 2121.73 1447.86 2121.66 1447.86 2203.18 1448.47 2203.12 1448.47 2284.63 1447.85 2284.57 1447.85 2365.93 1446.03 2365.86 1446.03 2446.9 1443.04 2446.84 1443.04 2527.4 1438.91 2527.34 1438.92 2607.26 1433.7 2607.2 1433.71 2686.33 1427.44 2686.27 1427.45 2764.44 1420.17 2764.38 1420.18 2841.44 1411.92 2841.38 1411.93 2917.16 1402.74 2917.11 1402.75 2954.48 1397.82 2954.45 1397.82 2991.43 1392.67 2991.4 1392.67 3027.99 1387.31 3027.96 1387.31 3064.13 1381.74 3064.09 1381.74 3099.83 1375.96 3099.79 1375.97 3135.07 1369.99 3135.03 1369.99 3169.83 1363.82 3169.79 1363.83 3204.09 1357.46 3204.06 1357.47 3237.84 1350.92 3237.8 1350.93 3271.05 1344.2 3271.01 1344.2 3303.7 1337.3 3303.66 1337.31 3335.77 1330.23 3335.73 1330.24 3367.24 1323 3367.2 1323.01 3398.09 1315.61 3398.05 1315.62 3428.31 1308.06 3428.26 1308.07 3457.86 1300.36 3457.82 1300.38 3486.74 1292.52 3486.69 1292.54 3514.92 1284.54 3514.87 1284.55 3542.38 1276.42 3542.33 1276.44 3569.1 1268.17 3569.05 1268.19 3595.06 1259.8 3595.01 1259.82 3620.25 1251.31 3620.19 1251.33 3644.63 1242.7 3644.57 1242.72 3668.19 1233.98 3668.13 1234.01 3690.92 1225.16 3690.85 1225.19 3712.78 1216.24 3712.7 1216.27 3733.76 1207.22 3733.68 1207.26 3753.85 1198.12 3753.76 1198.16 3773 1188.93 3772.91 1188.98 3791.22 1179.67 3791.12 1179.73 3808.48 1170.34 3808.36 1170.4 3824.74 1160.94 3824.62 1161.01 3840.01 1151.48 3839.88 1151.56 3854.25 1141.97 3854.11 1142.07 3867.44 1132.42 3867.29 1132.54 3879.57 1122.83 3879.4 1122.97 3890.61 1113.22 3890.43 1113.38 3900.54 1103.58 3900.34 1103.78 3909.34 1093.95 3909.14 1094.18 3917 1084.31 3916.79 1084.6 3923.49 1074.7 3923.28 1075.04 3928.82 1065.11 3928.62 1065.51 3932.95 1055.57 3932.78 1056.03 3935.9 1046.07 3935.77 1046.59 3937.66 1036.62 3937.59 1037.18 3938.23 1027.21ZM454.814 1061.58 463.5 1032.08 481.883 1056.73Z" fill="#BFBFBF" fill-rule="nonzero" fill-opacity="1"/><text fill="#A6A6A6" fill-opacity="1" font-family="PingFang SC,PingFang SC_MSFontService,sans-serif" font-style="normal" font-variant="normal" font-weight="600" font-stretch="normal" font-size="55" text-anchor="start" direction="ltr" writing-mode="lr-tb" unicode-bidi="normal" text-decoration="none" transform="matrix(1 0 0 1 2008.65 1533)">git</text><text fill="#A6A6A6" fill-opacity="1" font-family="PingFang SC,PingFang SC_MSFontService,sans-serif" font-style="normal" font-variant="normal" font-weight="600" font-stretch="normal" font-size="55" text-anchor="start" direction="ltr" writing-mode="lr-tb" unicode-bidi="normal" text-decoration="none" transform="matrix(1 0 0 1 2095.16 1533)">pull/rebase</text><text fill="#A6A6A6" fill-opacity="1" font-family="PingFang SC,PingFang SC_MSFontService,sans-serif" font-style="normal" font-variant="normal" font-weight="600" font-stretch="normal" font-size="55" text-anchor="start" direction="ltr" writing-mode="lr-tb" unicode-bidi="normal" text-decoration="none" transform="matrix(1 0 0 1 2076.25 1599)">拉取</text><text fill="#A6A6A6" fill-opacity="1" font-family="PingFang SC,PingFang SC_MSFontService,sans-serif" font-style="normal" font-variant="normal" font-weight="600" font-stretch="normal" font-size="55" text-anchor="start" direction="ltr" writing-mode="lr-tb" unicode-bidi="normal" text-decoration="none" transform="matrix(1 0 0 1 2186.25 1599)">/</text><text fill="#A6A6A6" fill-opacity="1" font-family="PingFang SC,PingFang SC_MSFontService,sans-serif" font-style="normal" font-variant="normal" font-weight="600" font-stretch="normal" font-size="55" text-anchor="start" direction="ltr" writing-mode="lr-tb" unicode-bidi="normal" text-decoration="none" transform="matrix(1 0 0 1 2213.75 1599)">变基</text><path d="M2787.51 1028.48 2786.91 1031.23 2784.88 1034.34 2782.12 1036.91 2778.72 1039.17 2774.66 1041.29 2769.91 1043.33 2764.46 1045.32 2758.3 1047.28 2751.43 1049.22 2743.85 1051.13 2735.57 1053.04 2726.6 1054.92 2716.96 1056.8 2706.64 1058.65 2695.67 1060.5 2684.06 1062.32 2671.81 1064.13 2658.94 1065.93 2645.47 1067.71 2631.4 1069.46 2616.75 1071.2 2601.53 1072.92 2585.75 1074.62 2569.43 1076.29 2552.58 1077.94 2535.22 1079.57 2517.35 1081.18 2499 1082.75 2480.16 1084.3 2460.87 1085.83 2441.12 1087.32 2420.94 1088.79 2400.33 1090.23 2379.31 1091.63 2357.89 1093 2336.08 1094.34 2291.37 1096.92 2245.29 1099.35 2197.93 1101.63 2149.4 1103.75 2099.81 1105.71 2049.27 1107.49 1997.88 1109.09 1945.74 1110.5 1892.97 1111.72 1839.67 1112.73 1785.94 1113.53 1731.89 1114.11 1623.27 1114.58 1514.65 1114.14 1460.6 1113.59 1406.87 1112.83 1353.57 1111.88 1300.8 1110.73 1248.66 1109.4 1197.27 1107.89 1146.73 1106.2 1097.14 1104.36 1048.62 1102.35 1001.26 1100.2 955.175 1097.9 910.472 1095.47 888.673 1094.2 867.255 1092.91 846.235 1091.58 825.626 1090.22 805.441 1088.84 785.694 1087.43 766.39 1085.99 747.557 1084.52 729.201 1083.03 711.335 1081.52 693.972 1079.98 677.126 1078.42 660.809 1076.84 645.035 1075.24 629.817 1073.61 615.167 1071.97 601.099 1070.31 587.626 1068.63 574.76 1066.94 562.514 1065.23 550.9 1063.5 539.931 1061.76 529.62 1060.01 519.977 1058.24 511.014 1056.46 502.741 1054.67 495.167 1052.85 487.956 1050.94 481.319 1047.75 485.281 1039.49 491.53 1042.48 490.728 1042.19 497.468 1043.98 497.355 1043.95 504.826 1045.74 504.732 1045.72 512.919 1047.49 512.84 1047.48 521.731 1049.25 521.663 1049.23 531.244 1050.99 531.186 1050.98 541.444 1052.72 541.393 1052.72 552.314 1054.45 552.269 1054.44 563.841 1056.16 563.801 1056.15 576.01 1057.86 575.974 1057.85 588.806 1059.54 588.774 1059.54 602.217 1061.21 602.188 1061.21 616.228 1062.87 616.201 1062.86 630.825 1064.5 630.801 1064.5 645.996 1066.12 645.973 1066.12 661.725 1067.72 661.704 1067.72 678.001 1069.3 677.981 1069.29 694.808 1070.85 694.79 1070.85 712.135 1072.39 712.118 1072.38 729.967 1073.9 729.951 1073.9 748.291 1075.39 748.276 1075.38 767.094 1076.85 767.079 1076.85 786.348 1078.28 806.069 1079.69 826.228 1081.08 846.812 1082.43 867.809 1083.76 889.203 1085.05 910.995 1086.32 910.978 1086.32 955.662 1088.75 955.641 1088.75 1001.71 1091.04 1001.69 1091.04 1049.02 1093.19 1049.01 1093.19 1097.51 1095.2 1097.49 1095.2 1147.06 1097.04 1147.04 1097.04 1197.57 1098.72 1197.55 1098.72 1248.92 1100.23 1248.91 1100.23 1301.02 1101.57 1301 1101.57 1353.76 1102.71 1353.74 1102.71 1407.03 1103.67 1407.01 1103.67 1460.72 1104.42 1460.7 1104.42 1514.73 1104.97 1514.7 1104.97 1623.29 1105.42 1623.25 1105.42 1731.83 1104.94 1731.8 1104.94 1785.83 1104.36 1785.81 1104.36 1839.52 1103.56 1839.5 1103.56 1892.79 1102.55 1892.77 1102.55 1945.52 1101.34 1945.5 1101.34 1997.62 1099.93 1997.6 1099.93 2048.98 1098.33 2048.96 1098.33 2099.48 1096.55 2099.46 1096.55 2149.03 1094.59 2149.01 1094.59 2197.52 1092.47 2197.5 1092.47 2244.83 1090.19 2244.81 1090.2 2290.88 1087.77 2290.86 1087.77 2335.54 1085.19 2335.52 1085.19 2357.3 1083.86 2378.7 1082.48 2399.69 1081.08 2420.27 1079.65 2440.43 1078.18 2460.17 1076.69 2460.15 1076.69 2479.43 1075.17 2479.42 1075.17 2498.24 1073.62 2498.22 1073.62 2516.56 1072.04 2516.54 1072.04 2534.39 1070.44 2534.37 1070.44 2551.72 1068.82 2551.7 1068.82 2568.53 1067.17 2568.51 1067.17 2584.8 1065.5 2584.78 1065.5 2600.53 1063.81 2600.51 1063.81 2615.7 1062.09 2615.68 1062.1 2630.3 1060.36 2630.27 1060.36 2644.31 1058.61 2644.28 1058.61 2657.73 1056.84 2657.69 1056.85 2670.52 1055.06 2670.49 1055.06 2682.7 1053.26 2682.65 1053.27 2694.22 1051.45 2694.18 1051.45 2705.1 1049.62 2705.05 1049.63 2715.3 1047.78 2715.24 1047.79 2724.82 1045.93 2724.75 1045.95 2733.64 1044.08 2733.56 1044.09 2741.75 1042.21 2741.65 1042.24 2749.12 1040.34 2749 1040.38 2755.74 1038.48 2755.59 1038.52 2761.59 1036.61 2761.41 1036.68 2766.65 1034.76 2766.41 1034.86 2770.88 1032.94 2770.57 1033.08 2774.26 1031.16 2773.84 1031.41 2776.73 1029.48 2776.15 1029.94 2778.24 1028.01 2777.51 1028.86 2778.77 1026.93 2778.13 1028.45 2778.56 1026.52ZM480.337 1057.81 463.5 1032.08 494.183 1034.05Z" fill="#BFBFBF" fill-rule="nonzero" fill-opacity="1"/><text fill="#000000" fill-opacity="1" font-family="PingFang SC,PingFang SC_MSFontService,sans-serif" font-style="normal" font-variant="normal" font-weight="600" font-stretch="normal" font-size="55" text-anchor="start" direction="ltr" writing-mode="lr-tb" unicode-bidi="normal" text-decoration="none" transform="matrix(1 0 0 1 1491.21 1230)">git</text><text fill="#000000" fill-opacity="1" font-family="PingFang SC,PingFang SC_MSFontService,sans-serif" font-style="normal" font-variant="normal" font-weight="600" font-stretch="normal" font-size="55" text-anchor="start" direction="ltr" writing-mode="lr-tb" unicode-bidi="normal" text-decoration="none" transform="matrix(1 0 0 1 1577.72 1230)">rebase</text><text fill="#000000" fill-opacity="1" font-family="PingFang SC,PingFang SC_MSFontService,sans-serif" font-style="normal" font-variant="normal" font-weight="600" font-stretch="normal" font-size="55" text-anchor="start" direction="ltr" writing-mode="lr-tb" unicode-bidi="normal" text-decoration="none" transform="matrix(1 0 0 1 1457.41 1296)">更新至工作区</text><path d="M0.497827-4.55622 2.90221-4.29351 5.6776-3.38967 8.27258-1.99073 10.6956-0.173788 12.9804 2.01583 15.1625 4.55717 17.2695 7.44216 19.3496 10.7129 23.3045 18.1263 27.1792 26.9428 30.9667 37.0763 34.6765 48.4928 38.3103 61.152 41.8661 75.0091 45.3393 90.0168 48.7246 106.126 52.0158 123.287 55.2061 141.449 58.2887 160.559 61.2564 180.567 64.102 201.421 66.8183 223.067 69.3978 245.454 71.8332 268.529 74.1169 292.239 76.2415 316.531 78.1995 341.354 79.9835 366.654 81.5858 392.378 82.9995 418.482 85.2278 471.567 86.6095 525.511 87.0835 579.882 86.6358 634.251 85.3311 688.191 83.2266 741.272 81.8916 767.374 80.3784 793.096 78.6937 818.394 76.8446 843.214 74.8382 867.505 72.6816 891.213 70.3818 914.285 67.9458 936.67 65.3808 958.313 62.6936 979.164 59.8911 999.169 56.9803 1018.28 53.9677 1036.43 50.8601 1053.59 47.6637 1069.7 44.3844 1084.7 41.0275 1098.55 37.5972 1111.21 34.0956 1122.61 30.4341 1132.99 23.8259 1144.88 15.8139 1140.42 22.2346 1128.87 21.9186 1129.57 25.42 1119.65 25.3603 1119.83 28.8117 1108.59 28.7697 1108.73 32.1641 1096.21 32.1333 1096.33 35.4635 1082.59 35.4402 1082.69 38.699 1067.78 38.681 1067.87 41.8614 1051.85 41.8471 1051.92 44.9418 1034.83 44.9302 1034.9 47.9322 1016.81 47.9227 1016.87 50.8248 997.816 50.8169 997.87 53.612 977.917 53.6053 977.967 56.2863 957.165 56.2806 957.211 58.8403 935.613 58.8353 935.656 61.2667 913.314 61.2624 913.355 63.5582 890.323 63.5544 890.363 65.7075 866.693 65.7042 866.731 67.7076 842.478 67.7047 842.515 69.5511 817.731 69.5485 817.767 71.2308 792.505 71.2286 792.54 72.7397 766.853 72.7378 766.888 74.0706 740.83 74.0682 740.883 76.1702 687.864 76.1679 687.934 77.471 634.066 77.4698 634.139 77.9168 579.846 77.9168 579.923 77.4435 525.63 77.4448 525.707 76.0651 471.839 76.0677 471.914 73.842 418.895 73.8447 418.95 72.4335 392.892 72.4357 392.929 70.8357 367.242 70.8382 367.28 69.0569 342.018 69.0597 342.056 67.1047 317.272 67.108 317.311 64.9868 293.057 64.9905 293.098 62.7107 269.428 62.7149 269.47 60.2841 246.438 60.2889 246.481 57.7146 224.139 57.7201 224.185 55.0098 202.587 55.0162 202.636 52.1775 181.833 52.185 181.886 49.2255 161.933 49.2343 161.99 46.1615 142.94 46.1721 143.003 42.9935 124.908 43.0064 124.979 39.7297 107.893 39.7456 107.972 36.3782 91.9475 36.3982 92.0384 32.9477 77.1289 32.9735 77.2347 29.4475 63.4933 29.4816 63.6187 25.8875 51.0983 25.934 51.2502 22.2796 40.004 22.3453 40.1922 18.638 30.2732 18.7352 30.5126 14.9826 21.974 15.1347 22.2872 11.3443 15.182 11.5207 15.4844 9.61375 12.4859 9.77986 12.7294 7.86625 10.1092 8.09018 10.3918 6.17091 8.15649 6.47712 8.4799 4.55313 6.63613 4.97459 6.99385 3.04682 5.54825 3.62159 5.9158 1.69098 4.87501 2.44668 5.19865 0.514188 4.56931 1.43561 4.76747-0.497827 4.55622ZM33.1379 1148.37 4.58333 1159.77 12.5966 1130.08Z" fill="#BFBFBF" fill-rule="nonzero" fill-opacity="1" transform="matrix(-1.83697e-16 -1 -1 1.83697e-16 1623.27 819.083)"/><text fill="#000000" fill-opacity="1" font-family="PingFang SC,PingFang SC_MSFontService,sans-serif" font-style="normal" font-variant="normal" font-weight="600" font-stretch="normal" font-size="55" text-anchor="start" direction="ltr" writing-mode="lr-tb" unicode-bidi="normal" text-decoration="none" transform="matrix(1 0 0 1 888.327 710)">撤销提交</text><path d="M731.5 918.917 1327.36 918.917 1327.36 928.084 731.5 928.083ZM1322.77 909.751 1350.27 923.501 1322.77 937.251Z" fill="#BFBFBF" fill-rule="nonzero" fill-opacity="1"/><path d="M1891.5 918.917 2487.36 918.917 2487.36 928.084 1891.5 928.083ZM2482.77 909.751 2510.27 923.501 2482.77 937.251Z" fill="#BFBFBF" fill-rule="nonzero" fill-opacity="1"/><path d="M3050.5 918.917 3646.36 918.917 3646.36 928.084 3050.5 928.083ZM3641.77 909.751 3669.27 923.501 3641.77 937.251Z" fill="#BFBFBF" fill-rule="nonzero" fill-opacity="1"/></g></g></svg>