<svg width="3612" height="1164" xmlns="http://www.w3.org/2000/svg" xmlns:xlink="http://www.w3.org/1999/xlink" xml:space="preserve" overflow="hidden"><defs><clipPath id="clip0"><rect x="91" y="201" width="3612" height="1164"/></clipPath></defs><g clip-path="url(#clip0)" transform="translate(-91 -201)"><path d="M6.875-1.75434e-05 6.87533 127.816-6.87467 127.816-6.875 1.75434e-05ZM30.0012 90.0302 0.000361934 141.461-30.0007 90.0304C-31.9139 86.7506-30.8061 82.5409-27.5264 80.6278-24.2467 78.7146-20.037 79.8224-18.1238 83.1021L5.9388 124.352-5.93816 124.352 18.1242 83.102C20.0374 79.8223 24.2471 78.7145 27.5268 80.6276 30.8066 82.5408 31.9144 86.7505 30.0012 90.0302Z" fill="#4CD29F" fill-rule="nonzero" fill-opacity="1" transform="matrix(1 0 0 -1 1120 1101.43)"/><path d="M1.11142e-05-9.16667 279.502-9.16633 279.502 9.16701-1.11142e-05 9.16667ZM229.121-40.001 297.695 0.000360855 229.121 40.0016C224.748 42.5525 219.135 41.0754 216.584 36.7024 214.033 32.3294 215.51 26.7165 219.883 24.1656L274.883-7.91764 274.883 7.91831 219.883-24.1651C215.51-26.716 214.033-32.3289 216.584-36.7019 219.135-41.0749 224.748-42.5519 229.121-40.001Z" fill="#A6A6A6" fill-rule="nonzero" fill-opacity="1" transform="matrix(-1 0 0 1 1482.65 857)"/><path d="M5.53997e-06-9.16667 578.999-9.16632C584.061-9.16631 588.165-5.06225 588.165 0.000355464 588.165 5.06297 584.061 9.16702 578.999 9.16702L-5.53997e-06 9.16667C-5.06262 9.16666-9.16667 5.0626-9.16667-5.53997e-06-9.16666-5.06262-5.0626-9.16667 5.53997e-06-9.16667ZM528.617-40.001 597.191 0.000358083 528.617 40.0016C524.244 42.5525 518.631 41.0754 516.08 36.7025 513.529 32.3295 515.006 26.7166 519.379 24.1657L574.379-7.91763 574.379 7.91832 519.379-24.165C515.006-26.716 513.529-32.3289 516.08-36.7018 518.631-41.0748 524.244-42.5519 528.617-40.001Z" fill="#A6A6A6" fill-rule="nonzero" fill-opacity="1" transform="matrix(-1 0 0 1 1265.15 566)"/><path d="M990.11 856.228C941.583 856.228 893.055 783.671 893.055 711.114 893.055 638.557 844.528 566 796 566" stroke="#A6A6A6" stroke-width="18.3333" stroke-linecap="round" stroke-linejoin="round" stroke-miterlimit="10" stroke-opacity="1" fill="none" fill-rule="evenodd"/><path d="M18.1641-9.13861 129.421-8.96672C134.483-8.9589 138.581-4.84851 138.573 0.214097 138.565 5.2767 134.455 9.37441 129.392 9.36659L18.1358 9.1947C13.0732 9.18688 8.97547 5.07648 8.98329 0.0138793 8.99111-5.04872 13.1015-9.14644 18.1641-9.13861ZM68.4693 40.1071-0.0424894-6.50901e-05 68.5929-39.8954C72.9698-42.4395 78.5804-40.9538 81.1246-36.5769 83.6687-32.1999 82.183-26.5893 77.8061-24.0452L22.7566 7.95314 22.781-7.88279 77.7314 24.2855C82.1004 26.8431 83.5688 32.4583 81.0112 36.8274 78.4535 41.1964 72.8383 42.6648 68.4693 40.1071Z" fill="#A6A6A6" fill-rule="nonzero" fill-opacity="1" transform="matrix(1 0 0 -1 668 566.2)"/><path d="M0 0 64.7033 0.398425" stroke="#A6A6A6" stroke-width="18.3333" stroke-linecap="round" stroke-linejoin="round" stroke-miterlimit="10" stroke-opacity="1" fill="none" fill-rule="evenodd" transform="matrix(-1 0 0 1 1054.7 856)"/><path d="M92.0001 563.502C92.0001 524.013 124.013 492 163.503 492L418.497 492C457.987 492 490 524.013 490 563.502L490 567.498C490 606.987 457.987 639 418.497 639L163.503 639C124.013 639 92.0001 606.987 92.0001 567.498Z" fill="#90D5FF" fill-rule="evenodd" fill-opacity="1"/><text fill="#404040" fill-opacity="1" font-family="PingFang SC,PingFang SC_MSFontService,sans-serif" font-style="normal" font-variant="normal" font-weight="600" font-stretch="normal" font-size="83" text-anchor="start" direction="ltr" writing-mode="lr-tb" unicode-bidi="normal" text-decoration="none" transform="matrix(1 0 0 1 195.738 591)">main</text><path d="M92.0001 853.503C92.0001 814.013 124.013 782 163.503 782L418.497 782C457.987 782 490 814.013 490 853.503L490 857.498C490 896.987 457.987 929 418.497 929L163.503 929C124.013 929 92.0001 896.987 92.0001 857.498Z" fill="#4CD29F" fill-rule="evenodd" fill-opacity="1"/><text fill="#404040" fill-opacity="1" font-family="PingFang SC,PingFang SC_MSFontService,sans-serif" font-style="normal" font-variant="normal" font-weight="600" font-stretch="normal" font-size="83" text-anchor="start" direction="ltr" writing-mode="lr-tb" unicode-bidi="normal" text-decoration="none" transform="matrix(1 0 0 1 221.806 881)">dev</text><path d="M539 566C539 530.101 567.878 501 603.5 501 639.122 501 668 530.101 668 566 668 601.899 639.122 631 603.5 631 567.878 631 539 601.899 539 566Z" stroke="#A6A6A6" stroke-width="13.75" stroke-linecap="butt" stroke-linejoin="miter" stroke-miterlimit="8" stroke-opacity="1" fill="#90D5FF" fill-rule="evenodd" fill-opacity="1"/><path d="M1055 857C1055 821.102 1084.1 792 1120 792 1155.9 792 1185 821.102 1185 857 1185 892.898 1155.9 922 1120 922 1084.1 922 1055 892.898 1055 857Z" stroke="#A6A6A6" stroke-width="13.75" stroke-linecap="butt" stroke-linejoin="miter" stroke-miterlimit="8" stroke-opacity="1" fill="#4CD29F" fill-rule="evenodd" fill-opacity="1"/><path d="M1265 566C1265 530.101 1293.88 501 1329.5 501 1365.12 501 1394 530.101 1394 566 1394 601.899 1365.12 631 1329.5 631 1293.88 631 1265 601.899 1265 566Z" stroke="#A6A6A6" stroke-width="13.75" stroke-linecap="butt" stroke-linejoin="miter" stroke-miterlimit="8" stroke-opacity="1" fill="#90D5FF" fill-rule="evenodd" fill-opacity="1"/><path d="M1482 857C1482 821.102 1511.1 792 1547 792 1582.9 792 1612 821.102 1612 857 1612 892.898 1582.9 922 1547 922 1511.1 922 1482 892.898 1482 857Z" stroke="#A6A6A6" stroke-width="13.75" stroke-linecap="butt" stroke-linejoin="miter" stroke-miterlimit="8" stroke-opacity="1" fill="#4CD29F" fill-rule="evenodd" fill-opacity="1"/><rect x="953" y="1140" width="334" height="98" fill="#4CD29F" fill-opacity="1"/><text fill="#404040" fill-opacity="1" font-family="PingFang SC,PingFang SC_MSFontService,sans-serif" font-style="normal" font-variant="normal" font-weight="600" font-stretch="normal" font-size="64" text-anchor="start" direction="ltr" writing-mode="lr-tb" unicode-bidi="normal" text-decoration="none" transform="matrix(1 0 0 1 993.502 1208)">d8243fa</text><rect x="1380" y="1140" width="334" height="98" fill="#4CD29F" fill-opacity="1"/><text fill="#404040" fill-opacity="1" font-family="PingFang SC,PingFang SC_MSFontService,sans-serif" font-style="normal" font-variant="normal" font-weight="600" font-stretch="normal" font-size="64" text-anchor="start" direction="ltr" writing-mode="lr-tb" unicode-bidi="normal" text-decoration="none" transform="matrix(1 0 0 1 1421.71 1208)">cf234e0</text><path d="M6.875-1.75434e-05 6.87533 127.816-6.87467 127.816-6.875 1.75434e-05ZM30.0012 90.0302 0.000361934 141.461-30.0007 90.0304C-31.9139 86.7506-30.8061 82.5409-27.5264 80.6278-24.2467 78.7146-20.037 79.8224-18.1238 83.1021L5.9388 124.352-5.93816 124.352 18.1242 83.102C20.0374 79.8223 24.2471 78.7145 27.5268 80.6276 30.8066 82.5408 31.9144 86.7505 30.0012 90.0302Z" fill="#4CD29F" fill-rule="nonzero" fill-opacity="1" transform="matrix(1 0 0 -1 1547 1101.43)"/><rect x="1163" y="213" width="334" height="98" fill="#90D5FF" fill-opacity="1"/><text fill="#404040" fill-opacity="1" font-family="PingFang SC,PingFang SC_MSFontService,sans-serif" font-style="normal" font-variant="normal" font-weight="600" font-stretch="normal" font-size="64" text-anchor="start" direction="ltr" writing-mode="lr-tb" unicode-bidi="normal" text-decoration="none" transform="matrix(1 0 0 1 1206.3 282)">0ad3f77</text><path d="M6.87503 13.6125 6.87536 141.429-6.87464 141.429-6.87497 13.6125ZM-30.0008 51.3985-1.04199e-06-0.0318643 30.0011 51.3983C31.9143 54.678 30.8065 58.8877 27.5268 60.8009 24.247 62.7141 20.0374 61.6063 18.1242 58.3266L-5.93844 17.0766 5.93852 17.0766-18.1239 58.3267C-20.037 61.6064-24.2467 62.7142-27.5265 60.8011-30.8062 58.8879-31.914 54.6782-30.0008 51.3985Z" fill="#90D5FF" fill-rule="nonzero" fill-opacity="1" transform="matrix(1 0 0 -1 1331 479.429)"/><path d="M6.875-1.75434e-05 6.87533 127.816-6.87467 127.816-6.875 1.75434e-05ZM30.0012 90.0302 0.000361934 141.461-30.0007 90.0304C-31.9139 86.7506-30.8061 82.5409-27.5264 80.6278-24.2467 78.7146-20.037 79.8224-18.1238 83.1021L5.9388 124.352-5.93816 124.352 18.1242 83.102C20.0374 79.8223 24.2471 78.7145 27.5268 80.6276 30.8066 82.5408 31.9144 86.7505 30.0012 90.0302Z" fill="#4CD29F" fill-rule="nonzero" fill-opacity="1" transform="matrix(1 0 0 -1 3109 1101.43)"/><path d="M1.11142e-05-9.16667 279.502-9.16633 279.502 9.16701-1.11142e-05 9.16667ZM229.121-40.001 297.695 0.000360855 229.121 40.0016C224.748 42.5525 219.135 41.0754 216.584 36.7024 214.033 32.3294 215.51 26.7165 219.883 24.1656L274.883-7.91764 274.883 7.91831 219.883-24.1651C215.51-26.716 214.033-32.3289 216.584-36.7019 219.135-41.0749 224.748-42.5519 229.121-40.001Z" fill="#A6A6A6" fill-rule="nonzero" fill-opacity="1" transform="matrix(-1 0 0 1 3471.65 857)"/><path d="M1.41406e-05-9.16667 215.798-9.16633C220.861-9.16633 224.965-5.06226 224.965 0.000347035 224.965 5.06296 220.861 9.16701 215.798 9.167L-1.41406e-05 9.16667C-5.06262 9.16666-9.16667 5.0626-9.16667-1.41406e-05-9.16666-5.06262-5.0626-9.16667 1.41406e-05-9.16667ZM165.417-40.0011 233.991 0.000360512 165.417 40.0016C161.044 42.5525 155.431 41.0754 152.88 36.7024 150.33 32.3294 151.807 26.7165 156.18 24.1656L211.18-7.91765 211.18 7.9183 156.18-24.1651C151.807-26.716 150.33-32.3289 152.881-36.7019 155.431-41.0749 161.044-42.552 165.417-40.0011Z" fill="#A6A6A6" fill-rule="nonzero" fill-opacity="1" transform="matrix(-1 0 0 1 2527.95 566)"/><path d="M2980.11 856.228C2931.58 856.228 2883.06 783.671 2883.06 711.114 2883.06 638.557 2834.53 566 2786 566" stroke="#A6A6A6" stroke-width="18.3333" stroke-linecap="round" stroke-linejoin="round" stroke-miterlimit="10" stroke-opacity="1" fill="none" fill-rule="evenodd"/><path d="M18.1641-9.13861 129.421-8.96672C134.483-8.9589 138.581-4.84851 138.573 0.214097 138.565 5.2767 134.455 9.37441 129.392 9.36659L18.1358 9.1947C13.0732 9.18688 8.97547 5.07648 8.98329 0.0138793 8.99111-5.04872 13.1015-9.14644 18.1641-9.13861ZM68.4693 40.1071-0.0424894-6.50901e-05 68.5929-39.8954C72.9698-42.4395 78.5804-40.9538 81.1246-36.5769 83.6687-32.1999 82.183-26.5893 77.8061-24.0452L22.7566 7.95314 22.781-7.88279 77.7314 24.2855C82.1004 26.8431 83.5688 32.4583 81.0112 36.8274 78.4535 41.1964 72.8383 42.6648 68.4693 40.1071Z" fill="#A6A6A6" fill-rule="nonzero" fill-opacity="1" transform="matrix(1 0 0 -1 2657 566.2)"/><path d="M0 0 64.7033 0.398425" stroke="#A6A6A6" stroke-width="18.3333" stroke-linecap="round" stroke-linejoin="round" stroke-miterlimit="10" stroke-opacity="1" fill="none" fill-rule="evenodd" transform="matrix(-1 0 0 1 3044.7 856)"/><path d="M2164 566C2164 530.101 2193.1 501 2229 501 2264.9 501 2294 530.101 2294 566 2294 601.899 2264.9 631 2229 631 2193.1 631 2164 601.899 2164 566Z" stroke="#A6A6A6" stroke-width="13.75" stroke-linecap="butt" stroke-linejoin="miter" stroke-miterlimit="8" stroke-opacity="1" fill="#90D5FF" fill-rule="evenodd" fill-opacity="1"/><path d="M3044 857C3044 821.102 3073.1 792 3109 792 3144.9 792 3174 821.102 3174 857 3174 892.898 3144.9 922 3109 922 3073.1 922 3044 892.898 3044 857Z" stroke="#A6A6A6" stroke-width="13.75" stroke-linecap="butt" stroke-linejoin="miter" stroke-miterlimit="8" stroke-opacity="1" fill="#4CD29F" fill-rule="evenodd" fill-opacity="1"/><path d="M2528 566C2528 530.101 2556.88 501 2592.5 501 2628.12 501 2657 530.101 2657 566 2657 601.899 2628.12 631 2592.5 631 2556.88 631 2528 601.899 2528 566Z" stroke="#A6A6A6" stroke-width="13.75" stroke-linecap="butt" stroke-linejoin="miter" stroke-miterlimit="8" stroke-opacity="1" fill="#90D5FF" fill-rule="evenodd" fill-opacity="1"/><path d="M3471 857C3471 821.102 3500.1 792 3536 792 3571.9 792 3601 821.102 3601 857 3601 892.898 3571.9 922 3536 922 3500.1 922 3471 892.898 3471 857Z" stroke="#A6A6A6" stroke-width="13.75" stroke-linecap="butt" stroke-linejoin="miter" stroke-miterlimit="8" stroke-opacity="1" fill="#4CD29F" fill-rule="evenodd" fill-opacity="1"/><rect x="2942" y="1140" width="334" height="98" fill="#4CD29F" fill-opacity="1"/><text fill="#404040" fill-opacity="1" font-family="PingFang SC,PingFang SC_MSFontService,sans-serif" font-style="normal" font-variant="normal" font-weight="600" font-stretch="normal" font-size="64" text-anchor="start" direction="ltr" writing-mode="lr-tb" unicode-bidi="normal" text-decoration="none" transform="matrix(1 0 0 1 2982.72 1208)">d8243fa</text><rect x="3369" y="1140" width="334" height="98" fill="#4CD29F" fill-opacity="1"/><text fill="#404040" fill-opacity="1" font-family="PingFang SC,PingFang SC_MSFontService,sans-serif" font-style="normal" font-variant="normal" font-weight="600" font-stretch="normal" font-size="64" text-anchor="start" direction="ltr" writing-mode="lr-tb" unicode-bidi="normal" text-decoration="none" transform="matrix(1 0 0 1 3410.93 1208)">cf234e0</text><path d="M6.875-1.75434e-05 6.87533 127.816-6.87467 127.816-6.875 1.75434e-05ZM30.0012 90.0302 0.000361934 141.461-30.0007 90.0304C-31.9139 86.7506-30.8061 82.5409-27.5264 80.6278-24.2467 78.7146-20.037 79.8224-18.1238 83.1021L5.9388 124.352-5.93816 124.352 18.1242 83.102C20.0374 79.8223 24.2471 78.7145 27.5268 80.6276 30.8066 82.5408 31.9144 86.7505 30.0012 90.0302Z" fill="#4CD29F" fill-rule="nonzero" fill-opacity="1" transform="matrix(1 0 0 -1 3536 1101.43)"/><rect x="2426" y="213" width="333" height="98" fill="#90D5FF" fill-opacity="1"/><text fill="#404040" fill-opacity="1" font-family="PingFang SC,PingFang SC_MSFontService,sans-serif" font-style="normal" font-variant="normal" font-weight="600" font-stretch="normal" font-size="64" text-anchor="start" direction="ltr" writing-mode="lr-tb" unicode-bidi="normal" text-decoration="none" transform="matrix(1 0 0 1 2468.96 282)">0ad3f77</text><path d="M6.87503 13.6125 6.87536 141.429-6.87464 141.429-6.87497 13.6125ZM-30.0008 51.3985-1.04199e-06-0.0318643 30.0011 51.3983C31.9143 54.678 30.8065 58.8877 27.5268 60.8009 24.247 62.7141 20.0374 61.6063 18.1242 58.3266L-5.93844 17.0766 5.93852 17.0766-18.1239 58.3267C-20.037 61.6064-24.2467 62.7142-27.5265 60.8011-30.8062 58.8879-31.914 54.6782-30.0008 51.3985Z" fill="#90D5FF" fill-rule="nonzero" fill-opacity="1" transform="matrix(1 0 0 -1 2594 479.429)"/><path d="M1789 627 2035 627 2035 598 2093 656 2035 714 2035 685 1789 685Z" fill="#404040" fill-rule="evenodd" fill-opacity="1"/><text fill="#404040" fill-opacity="1" font-family="PingFang SC,PingFang SC_MSFontService,sans-serif" font-style="normal" font-variant="normal" font-weight="500" font-stretch="normal" font-size="73" text-anchor="start" direction="ltr" writing-mode="lr-tb" unicode-bidi="normal" text-decoration="none" transform="matrix(1 0 0 1 1669.57 811)">git</text><text fill="#404040" fill-opacity="1" font-family="PingFang SC,PingFang SC_MSFontService,sans-serif" font-style="normal" font-variant="normal" font-weight="500" font-stretch="normal" font-size="73" text-anchor="start" direction="ltr" writing-mode="lr-tb" unicode-bidi="normal" text-decoration="none" transform="matrix(1 0 0 1 1784.73 811)">rebase main</text><rect x="1380" y="1238" width="334" height="97.0002" fill="#FFE192" fill-opacity="1"/><text fill="#404040" fill-opacity="1" font-family="PingFang SC,PingFang SC_MSFontService,sans-serif" font-style="normal" font-variant="normal" font-weight="600" font-stretch="normal" font-size="64" text-anchor="start" direction="ltr" writing-mode="lr-tb" unicode-bidi="normal" text-decoration="none" transform="matrix(1 0 0 1 1457.8 1306)">HEAD</text><rect x="3369" y="1238" width="334" height="97.0002" fill="#FFE192" fill-opacity="1"/><text fill="#404040" fill-opacity="1" font-family="PingFang SC,PingFang SC_MSFontService,sans-serif" font-style="normal" font-variant="normal" font-weight="600" font-stretch="normal" font-size="64" text-anchor="start" direction="ltr" writing-mode="lr-tb" unicode-bidi="normal" text-decoration="none" transform="matrix(1 0 0 1 3447.02 1306)">HEAD</text></g></svg>