<svg width="3465" height="880" xmlns="http://www.w3.org/2000/svg" xmlns:xlink="http://www.w3.org/1999/xlink" xml:space="preserve" overflow="hidden"><defs><clipPath id="clip0"><rect x="91" y="485" width="3465" height="880"/></clipPath></defs><g clip-path="url(#clip0)" transform="translate(-91 -485)"><path d="M6.875-1.75434e-05 6.87533 127.816-6.87467 127.816-6.875 1.75434e-05ZM30.0012 90.0302 0.000361934 141.461-30.0007 90.0304C-31.9139 86.7506-30.8061 82.5409-27.5264 80.6278-24.2467 78.7146-20.037 79.8224-18.1238 83.1021L5.9388 124.352-5.93816 124.352 18.1242 83.102C20.0374 79.8223 24.2471 78.7145 27.5268 80.6276 30.8066 82.5408 31.9144 86.7505 30.0012 90.0302Z" fill="#4CD29F" fill-rule="nonzero" fill-opacity="1" transform="matrix(1 0 0 -1 1120 1101.43)"/><path d="M990.11 856.228C941.583 856.228 893.055 783.671 893.055 711.114 893.055 638.557 844.528 566 796 566" stroke="#A6A6A6" stroke-width="18.3333" stroke-linecap="round" stroke-linejoin="round" stroke-miterlimit="10" stroke-opacity="1" fill="none" fill-rule="evenodd"/><path d="M18.1641-9.13861 129.421-8.96672C134.483-8.9589 138.581-4.84851 138.573 0.214097 138.565 5.2767 134.455 9.37441 129.392 9.36659L18.1358 9.1947C13.0732 9.18688 8.97547 5.07648 8.98329 0.0138793 8.99111-5.04872 13.1015-9.14644 18.1641-9.13861ZM68.4693 40.1071-0.0424894-6.50901e-05 68.5929-39.8954C72.9698-42.4395 78.5804-40.9538 81.1246-36.5769 83.6687-32.1999 82.183-26.5893 77.8061-24.0452L22.7566 7.95314 22.781-7.88279 77.7314 24.2855C82.1004 26.8431 83.5688 32.4583 81.0112 36.8274 78.4535 41.1964 72.8383 42.6648 68.4693 40.1071Z" fill="#A6A6A6" fill-rule="nonzero" fill-opacity="1" transform="matrix(1 0 0 -1 668 566.2)"/><path d="M0 0 64.7033 0.398425" stroke="#A6A6A6" stroke-width="18.3333" stroke-linecap="round" stroke-linejoin="round" stroke-miterlimit="10" stroke-opacity="1" fill="none" fill-rule="evenodd" transform="matrix(-1 0 0 1 1054.7 856)"/><path d="M92.0001 563.502C92.0001 524.013 124.013 492 163.503 492L418.497 492C457.987 492 490 524.013 490 563.502L490 567.498C490 606.987 457.987 639 418.497 639L163.503 639C124.013 639 92.0001 606.987 92.0001 567.498Z" fill="#90D5FF" fill-rule="evenodd" fill-opacity="1"/><text fill="#404040" fill-opacity="1" font-family="PingFang SC,PingFang SC_MSFontService,sans-serif" font-style="normal" font-variant="normal" font-weight="600" font-stretch="normal" font-size="83" text-anchor="start" direction="ltr" writing-mode="lr-tb" unicode-bidi="normal" text-decoration="none" transform="matrix(1 0 0 1 195.738 591)">main</text><path d="M92.0001 853.503C92.0001 814.013 124.013 782 163.503 782L418.497 782C457.987 782 490 814.013 490 853.503L490 857.498C490 896.987 457.987 929 418.497 929L163.503 929C124.013 929 92.0001 896.987 92.0001 857.498Z" fill="#4CD29F" fill-rule="evenodd" fill-opacity="1"/><text fill="#404040" fill-opacity="1" font-family="PingFang SC,PingFang SC_MSFontService,sans-serif" font-style="normal" font-variant="normal" font-weight="600" font-stretch="normal" font-size="83" text-anchor="start" direction="ltr" writing-mode="lr-tb" unicode-bidi="normal" text-decoration="none" transform="matrix(1 0 0 1 221.806 881)">dev</text><path d="M539 566C539 530.101 567.878 501 603.5 501 639.122 501 668 530.101 668 566 668 601.899 639.122 631 603.5 631 567.878 631 539 601.899 539 566Z" stroke="#A6A6A6" stroke-width="13.75" stroke-linecap="butt" stroke-linejoin="miter" stroke-miterlimit="8" stroke-opacity="1" fill="#90D5FF" fill-rule="evenodd" fill-opacity="1"/><path d="M1055 857C1055 821.102 1084.1 792 1120 792 1155.9 792 1185 821.102 1185 857 1185 892.898 1155.9 922 1120 922 1084.1 922 1055 892.898 1055 857Z" stroke="#A6A6A6" stroke-width="13.75" stroke-linecap="butt" stroke-linejoin="miter" stroke-miterlimit="8" stroke-opacity="1" fill="#4CD29F" fill-rule="evenodd" fill-opacity="1"/><rect x="953" y="1140" width="334" height="98" fill="#4CD29F" fill-opacity="1"/><text fill="#404040" fill-opacity="1" font-family="PingFang SC,PingFang SC_MSFontService,sans-serif" font-style="normal" font-variant="normal" font-weight="600" font-stretch="normal" font-size="64" text-anchor="start" direction="ltr" writing-mode="lr-tb" unicode-bidi="normal" text-decoration="none" transform="matrix(1 0 0 1 993.502 1208)">d8243fa</text><rect x="953" y="1236" width="334" height="96.9999" fill="#FFE192" fill-opacity="1"/><text fill="#404040" fill-opacity="1" font-family="PingFang SC,PingFang SC_MSFontService,sans-serif" font-style="normal" font-variant="normal" font-weight="600" font-stretch="normal" font-size="64" text-anchor="start" direction="ltr" writing-mode="lr-tb" unicode-bidi="normal" text-decoration="none" transform="matrix(1 0 0 1 1030.81 1304)">HEAD</text></g></svg>