<svg width="3969" height="1219" xmlns="http://www.w3.org/2000/svg" xmlns:xlink="http://www.w3.org/1999/xlink" xml:space="preserve" overflow="hidden"><g transform="translate(-215 -545)"><g><path d="M218 858.363C218 834.967 236.967 816 260.363 816L660.637 816C684.033 816 703 834.967 703 858.363L703 986.637C703 1010.03 684.033 1029 660.637 1029L260.363 1029C236.967 1029 218 1010.03 218 986.637Z" fill="#FF6648" fill-rule="evenodd" fill-opacity="1"/><text fill="#FFFFFF" fill-opacity="1" font-family="PingFang SC,PingFang SC_MSFontService,sans-serif" font-style="normal" font-variant="normal" font-weight="600" font-stretch="normal" font-size="73" text-anchor="start" direction="ltr" writing-mode="lr-tb" unicode-bidi="normal" text-decoration="none" transform="matrix(1 0 0 1 265.558 946)">Workspace</text><path d="M1378 858.363C1378 834.967 1396.97 816 1420.36 816L1820.64 816C1844.03 816 1863 834.967 1863 858.363L1863 986.637C1863 1010.03 1844.03 1029 1820.64 1029L1420.36 1029C1396.97 1029 1378 1010.03 1378 986.637Z" fill="#FFB805" fill-rule="evenodd" fill-opacity="1"/><text fill="#FFFFFF" fill-opacity="1" font-family="PingFang SC,PingFang SC_MSFontService,sans-serif" font-style="normal" font-variant="normal" font-weight="600" font-stretch="normal" font-size="73" text-anchor="start" direction="ltr" writing-mode="lr-tb" unicode-bidi="normal" text-decoration="none" transform="matrix(1 0 0 1 1407.56 946)">Index/</text><text fill="#FFFFFF" fill-opacity="1" font-family="PingFang SC,PingFang SC_MSFontService,sans-serif" font-style="normal" font-variant="normal" font-weight="600" font-stretch="normal" font-size="73" text-anchor="start" direction="ltr" writing-mode="lr-tb" unicode-bidi="normal" text-decoration="none" transform="matrix(1 0 0 1 1631 946)">Stage</text><path d="M2537 858.363C2537 834.967 2555.97 816 2579.36 816L2979.64 816C3003.03 816 3022 834.967 3022 858.363L3022 986.637C3022 1010.03 3003.03 1029 2979.64 1029L2579.36 1029C2555.97 1029 2537 1010.03 2537 986.637Z" fill="#2BAAFF" fill-rule="evenodd" fill-opacity="1"/><text fill="#FFFFFF" fill-opacity="1" font-family="PingFang SC,PingFang SC_MSFontService,sans-serif" font-style="normal" font-variant="normal" font-weight="600" font-stretch="normal" font-size="73" text-anchor="start" direction="ltr" writing-mode="lr-tb" unicode-bidi="normal" text-decoration="none" transform="matrix(1 0 0 1 2685.08 902)">Local</text><text fill="#FFFFFF" fill-opacity="1" font-family="PingFang SC,PingFang SC_MSFontService,sans-serif" font-style="normal" font-variant="normal" font-weight="600" font-stretch="normal" font-size="73" text-anchor="start" direction="ltr" writing-mode="lr-tb" unicode-bidi="normal" text-decoration="none" transform="matrix(1 0 0 1 2591.97 990)">Repository</text><path d="M3697 858.363C3697 834.967 3715.97 816 3739.36 816L4139.64 816C4163.03 816 4182 834.967 4182 858.363L4182 986.637C4182 1010.03 4163.03 1029 4139.64 1029L3739.36 1029C3715.97 1029 3697 1010.03 3697 986.637Z" fill="#2BB972" fill-rule="evenodd" fill-opacity="1"/><text fill="#FFFFFF" fill-opacity="1" font-family="PingFang SC,PingFang SC_MSFontService,sans-serif" font-style="normal" font-variant="normal" font-weight="600" font-stretch="normal" font-size="73" text-anchor="start" direction="ltr" writing-mode="lr-tb" unicode-bidi="normal" text-decoration="none" transform="matrix(1 0 0 1 3804.74 902)">Remote</text><text fill="#FFFFFF" fill-opacity="1" font-family="PingFang SC,PingFang SC_MSFontService,sans-serif" font-style="normal" font-variant="normal" font-weight="600" font-stretch="normal" font-size="73" text-anchor="start" direction="ltr" writing-mode="lr-tb" unicode-bidi="normal" text-decoration="none" transform="matrix(1 0 0 1 3751.73 990)">Repository</text><path d="M458.977 818.342 459.508 815.099 461.291 811.45 463.936 808.18 467.312 805.177 471.389 802.341 476.168 799.606 481.653 796.935 487.848 794.309 494.75 791.715 502.355 789.148 510.656 786.605 519.643 784.083 529.308 781.581 539.639 779.1 550.625 776.64 562.254 774.201 574.514 771.784 587.393 769.39 600.878 767.02 614.956 764.675 629.616 762.356 644.843 760.064 660.626 757.8 676.95 755.566 693.804 753.362 711.174 751.19 729.047 749.051 747.409 746.947 766.248 744.878 785.551 742.845 805.304 740.851 825.494 738.895 846.108 736.98 867.133 735.107 888.556 733.277 910.367 731.491 955.077 728.056 1001.17 724.813 1048.54 721.771 1097.07 718.942 1146.66 716.334 1197.21 713.957 1248.61 711.823 1300.75 709.941 1353.53 708.32 1406.84 706.972 1460.57 705.905 1514.63 705.131 1623.27 704.5 1731.9 705.105 1785.96 705.847 1839.69 706.869 1893 708.161 1945.78 709.714 1997.92 711.518 2049.31 713.563 2099.86 715.84 2149.45 718.34 2197.99 721.051 2245.35 723.966 2291.44 727.074 2336.15 730.365 2357.96 732.077 2379.38 733.831 2400.41 735.626 2421.02 737.461 2441.21 739.335 2460.96 741.246 2480.26 743.194 2499.1 745.177 2517.46 747.194 2535.34 749.243 2552.71 751.325 2569.56 753.436 2585.88 755.578 2601.66 757.747 2616.89 759.943 2631.55 762.165 2645.62 764.413 2659.11 766.684 2671.98 768.978 2684.24 771.293 2695.87 773.63 2706.85 775.988 2717.18 778.365 2726.84 780.761 2735.83 783.177 2744.12 785.614 2751.73 788.072 2758.93 790.668 2767.77 795.837 2763.14 803.75 2754.67 798.794 2755.43 799.149 2748.69 796.722 2748.83 796.771 2741.36 794.355 2741.48 794.392 2733.29 791.987 2733.4 792.016 2724.51 789.625 2724.59 789.647 2715.01 787.271 2715.09 787.289 2704.83 784.928 2704.9 784.943 2693.98 782.599 2694.03 782.611 2682.46 780.286 2682.51 780.296 2670.31 777.989 2670.35 777.998 2657.52 775.712 2657.56 775.719 2644.12 773.455 2644.16 773.462 2630.12 771.22 2630.16 771.226 2615.53 769.009 2615.56 769.014 2600.37 766.822 2600.4 766.826 2584.65 764.661 2584.68 764.664 2568.38 762.527 2568.4 762.53 2551.58 760.422 2551.6 760.425 2534.26 758.346 2534.28 758.349 2516.43 756.302 2516.45 756.304 2498.11 754.29 2498.13 754.292 2479.31 752.311 2479.33 752.313 2460.05 750.368 2460.07 750.37 2440.34 748.46 2440.35 748.462 2420.18 746.59 2420.2 746.591 2399.6 744.758 2399.62 744.759 2378.61 742.965 2378.63 742.967 2357.22 741.214 2357.24 741.215 2335.45 739.505 2335.47 739.506 2290.78 736.217 2290.81 736.219 2244.75 733.113 2244.77 733.115 2197.44 730.202 2197.46 730.203 2148.95 727.493 2148.98 727.494 2099.41 724.996 2099.44 724.997 2048.91 722.721 2048.94 722.722 1997.56 720.678 1997.59 720.679 1945.47 718.875 1945.49 718.876 1892.74 717.324 1892.76 717.325 1839.48 716.033 1839.5 716.033 1785.79 715.012 1785.82 715.012 1731.79 714.271 1731.83 714.271 1623.24 713.666 1623.29 713.666 1514.71 714.298 1514.75 714.297 1460.72 715.071 1460.74 715.07 1407.03 716.136 1407.06 716.136 1353.77 717.484 1353.8 717.483 1301.05 719.103 1301.07 719.102 1248.95 720.983 1248.98 720.982 1197.6 723.116 1197.63 723.115 1147.11 725.49 1147.13 725.488 1097.56 728.095 1097.59 728.094 1049.08 730.922 1049.11 730.92 1001.77 733.96 1001.8 733.958 955.735 737.199 955.764 737.197 911.08 740.629 911.103 740.628 889.312 742.412 889.328 742.411 867.922 744.24 867.938 744.239 846.93 746.11 846.948 746.109 826.351 748.022 826.369 748.02 806.197 749.974 806.215 749.972 786.482 751.964 786.501 751.962 767.218 753.993 767.239 753.991 748.421 756.057 748.442 756.055 730.102 758.157 730.124 758.154 712.275 760.29 712.299 760.287 694.954 762.456 694.98 762.453 678.153 764.653 678.18 764.65 661.883 766.88 661.913 766.876 646.161 769.135 646.192 769.131 630.997 771.418 631.031 771.413 616.407 773.726 616.444 773.72 602.404 776.059 602.444 776.052 589.001 778.415 589.046 778.407 576.213 780.792 576.262 780.783 564.054 783.189 564.108 783.178 552.537 785.605 552.598 785.592 541.677 788.038 541.745 788.022 531.488 790.485 531.566 790.466 521.985 792.945 522.075 792.921 513.185 795.416 513.289 795.385 505.103 797.894 505.225 797.854 497.755 800.376 497.902 800.323 491.161 802.856 491.338 802.785 485.342 805.328 485.559 805.229 480.318 807.781 480.589 807.638 476.118 810.197 476.459 809.981 472.771 812.547 473.199 812.209 470.308 814.78 470.827 814.236 468.745 816.811 469.299 815.94 468.041 818.517 468.445 817.247 468.023 819.824ZM2770.77 786.307 2783.03 814.5 2753.12 807.397Z" fill="#BFBFBF" fill-rule="nonzero" fill-opacity="1"/><text fill="#000000" fill-opacity="1" font-family="PingFang SC,PingFang SC_MSFontService,sans-serif" font-style="normal" font-variant="normal" font-weight="600" font-stretch="normal" font-size="55" text-anchor="start" direction="ltr" writing-mode="lr-tb" unicode-bidi="normal" text-decoration="none" transform="matrix(1 0 0 1 943.327 807)">暂存</text><text fill="#000000" fill-opacity="1" font-family="PingFang SC,PingFang SC_MSFontService,sans-serif" font-style="normal" font-variant="normal" font-weight="600" font-stretch="normal" font-size="55" text-anchor="start" direction="ltr" writing-mode="lr-tb" unicode-bidi="normal" text-decoration="none" transform="matrix(1 0 0 1 845.931 873)">git add (</text><text fill="#000000" fill-opacity="1" font-family="PingFang SC,PingFang SC_MSFontService,sans-serif" font-style="normal" font-variant="normal" font-weight="600" font-stretch="normal" font-size="55" text-anchor="start" direction="ltr" writing-mode="lr-tb" unicode-bidi="normal" text-decoration="none" transform="matrix(1 0 0 1 1067.08 873)">-</text><text fill="#000000" fill-opacity="1" font-family="PingFang SC,PingFang SC_MSFontService,sans-serif" font-style="normal" font-variant="normal" font-weight="600" font-stretch="normal" font-size="55" text-anchor="start" direction="ltr" writing-mode="lr-tb" unicode-bidi="normal" text-decoration="none" transform="matrix(1 0 0 1 1100.31 873)">u)</text><text fill="#000000" fill-opacity="1" font-family="PingFang SC,PingFang SC_MSFontService,sans-serif" font-style="normal" font-variant="normal" font-weight="600" font-stretch="normal" font-size="55" text-anchor="start" direction="ltr" writing-mode="lr-tb" unicode-bidi="normal" text-decoration="none" transform="matrix(1 0 0 1 2134.08 807)">提交</text><text fill="#000000" fill-opacity="1" font-family="PingFang SC,PingFang SC_MSFontService,sans-serif" font-style="normal" font-variant="normal" font-weight="600" font-stretch="normal" font-size="55" text-anchor="start" direction="ltr" writing-mode="lr-tb" unicode-bidi="normal" text-decoration="none" transform="matrix(1 0 0 1 2047.57 873)">git</text><text fill="#000000" fill-opacity="1" font-family="PingFang SC,PingFang SC_MSFontService,sans-serif" font-style="normal" font-variant="normal" font-weight="600" font-stretch="normal" font-size="55" text-anchor="start" direction="ltr" writing-mode="lr-tb" unicode-bidi="normal" text-decoration="none" transform="matrix(1 0 0 1 2134.08 873)">commit</text><text fill="#000000" fill-opacity="1" font-family="PingFang SC,PingFang SC_MSFontService,sans-serif" font-style="normal" font-variant="normal" font-weight="600" font-stretch="normal" font-size="55" text-anchor="start" direction="ltr" writing-mode="lr-tb" unicode-bidi="normal" text-decoration="none" transform="matrix(1 0 0 1 1567.4 616)">提交</text><text fill="#000000" fill-opacity="1" font-family="PingFang SC,PingFang SC_MSFontService,sans-serif" font-style="normal" font-variant="normal" font-weight="600" font-stretch="normal" font-size="55" text-anchor="start" direction="ltr" writing-mode="lr-tb" unicode-bidi="normal" text-decoration="none" transform="matrix(1 0 0 1 1439.36 682)">git</text><text fill="#000000" fill-opacity="1" font-family="PingFang SC,PingFang SC_MSFontService,sans-serif" font-style="normal" font-variant="normal" font-weight="600" font-stretch="normal" font-size="55" text-anchor="start" direction="ltr" writing-mode="lr-tb" unicode-bidi="normal" text-decoration="none" transform="matrix(1 0 0 1 1525.87 682)">commit </text><text fill="#000000" fill-opacity="1" font-family="PingFang SC,PingFang SC_MSFontService,sans-serif" font-style="normal" font-variant="normal" font-weight="600" font-stretch="normal" font-size="55" text-anchor="start" direction="ltr" writing-mode="lr-tb" unicode-bidi="normal" text-decoration="none" transform="matrix(1 0 0 1 1740.72 682)">-</text><text fill="#000000" fill-opacity="1" font-family="PingFang SC,PingFang SC_MSFontService,sans-serif" font-style="normal" font-variant="normal" font-weight="600" font-stretch="normal" font-size="55" text-anchor="start" direction="ltr" writing-mode="lr-tb" unicode-bidi="normal" text-decoration="none" transform="matrix(1 0 0 1 1773.94 682)">a</text><text fill="#000000" fill-opacity="1" font-family="PingFang SC,PingFang SC_MSFontService,sans-serif" font-style="normal" font-variant="normal" font-weight="600" font-stretch="normal" font-size="55" text-anchor="start" direction="ltr" writing-mode="lr-tb" unicode-bidi="normal" text-decoration="none" transform="matrix(1 0 0 1 3338.58 807)">推送</text><text fill="#000000" fill-opacity="1" font-family="PingFang SC,PingFang SC_MSFontService,sans-serif" font-style="normal" font-variant="normal" font-weight="600" font-stretch="normal" font-size="55" text-anchor="start" direction="ltr" writing-mode="lr-tb" unicode-bidi="normal" text-decoration="none" transform="matrix(1 0 0 1 3287.59 873)">git</text><text fill="#000000" fill-opacity="1" font-family="PingFang SC,PingFang SC_MSFontService,sans-serif" font-style="normal" font-variant="normal" font-weight="600" font-stretch="normal" font-size="55" text-anchor="start" direction="ltr" writing-mode="lr-tb" unicode-bidi="normal" text-decoration="none" transform="matrix(1 0 0 1 3374.1 873)">push</text><path d="M3946.84 1027.73 3946.62 1032.23 3945.93 1036.95 3944.79 1041.63 3943.22 1046.27 3941.23 1050.87 3938.84 1055.42 3936.06 1059.92 3932.87 1064.42 3925.49 1073.14 3916.66 1081.75 3906.48 1090.18 3895.01 1098.45 3882.28 1106.55 3868.35 1114.47 3853.28 1122.2 3837.1 1129.74 3819.88 1137.06 3801.66 1144.16 3782.49 1151.01 3762.43 1157.61 3741.53 1163.93 3719.83 1169.96 3697.4 1175.7 3674.28 1181.1 3650.52 1186.18 3626.19 1190.9 3601.32 1195.24 3575.98 1199.21 3550.21 1202.76 3524.07 1205.9 3497.61 1208.6 3470.89 1210.85 3443.95 1212.63 3416.85 1213.92 3389.65 1214.7 3362.38 1214.97 3335.12 1214.71 3307.92 1213.94 3280.82 1212.69 3253.89 1210.95 3227.17 1208.76 3200.71 1206.13 3174.57 1203.07 3148.81 1199.6 3123.47 1195.74 3098.6 1191.5 3074.27 1186.9 3050.51 1181.96 3027.39 1176.68 3004.96 1171.1 2983.27 1165.21 2962.37 1159.05 2942.31 1152.62 2923.14 1145.94 2904.92 1139.02 2887.7 1131.88 2871.53 1124.54 2856.46 1117 2842.53 1109.28 2829.81 1101.38 2818.33 1093.32 2808.15 1085.09 2799.31 1076.7 2791.93 1068.2 2788.53 1063.52 2785.14 1055.8 2793.53 1052.11 2796.72 1059.37 2796.23 1058.52 2799.23 1062.64 2798.99 1062.34 2806.09 1070.53 2805.79 1070.21 2814.33 1078.32 2814.05 1078.08 2823.97 1086.09 2823.72 1085.91 2834.97 1093.8 2834.75 1093.66 2847.27 1101.43 2847.08 1101.31 2860.82 1108.93 2860.65 1108.84 2875.56 1116.3 2875.4 1116.23 2891.42 1123.5 2891.28 1123.44 2908.37 1130.53 2908.24 1130.47 2926.34 1137.34 2926.22 1137.3 2945.27 1143.94 2945.16 1143.91 2965.11 1150.3 2965.01 1150.27 2985.81 1156.41 2985.72 1156.38 3007.31 1162.24 3007.22 1162.21 3029.56 1167.78 3029.48 1167.76 3052.51 1173.01 3052.42 1172.99 3076.09 1177.92 3076.01 1177.9 3100.26 1182.49 3100.18 1182.47 3124.97 1186.7 3124.89 1186.68 3150.15 1190.53 3150.07 1190.52 3175.76 1193.98 3175.68 1193.97 3201.74 1197.02 3201.66 1197.01 3228.03 1199.64 3227.95 1199.63 3254.6 1201.81 3254.52 1201.81 3281.37 1203.54 3281.29 1203.53 3308.3 1204.79 3308.22 1204.78 3335.34 1205.55 3335.25 1205.55 3362.43 1205.8 3362.34 1205.8 3389.51 1205.54 3389.42 1205.54 3416.54 1204.76 3416.46 1204.76 3443.47 1203.47 3443.39 1203.48 3470.24 1201.71 3470.16 1201.71 3496.8 1199.47 3496.72 1199.48 3523.1 1196.79 3523.02 1196.79 3549.08 1193.67 3549 1193.68 3574.68 1190.13 3574.6 1190.14 3599.86 1186.19 3599.78 1186.21 3624.57 1181.87 3624.48 1181.89 3648.74 1177.19 3648.65 1177.2 3672.32 1172.15 3672.23 1172.17 3695.27 1166.78 3695.18 1166.8 3717.52 1161.1 3717.42 1161.12 3739.02 1155.11 3738.92 1155.14 3759.73 1148.85 3759.62 1148.88 3779.57 1142.32 3779.46 1142.36 3798.51 1135.55 3798.39 1135.59 3816.49 1128.54 3816.36 1128.6 3833.44 1121.33 3833.3 1121.4 3849.33 1113.93 3849.17 1114.01 3864.08 1106.36 3863.91 1106.45 3877.65 1098.64 3877.45 1098.75 3889.97 1090.79 3889.75 1090.94 3901 1082.83 3900.76 1083.02 3910.67 1074.8 3910.4 1075.05 3918.94 1066.73 3918.64 1067.06 3925.74 1058.65 3925.5 1058.96 3928.5 1054.73 3928.34 1054.98 3930.96 1050.73 3930.8 1051.01 3933.04 1046.76 3932.89 1047.07 3934.73 1042.8 3934.6 1043.15 3936.04 1038.88 3935.93 1039.27 3936.97 1034.99 3936.89 1035.4 3937.52 1031.12 3937.48 1031.56 3937.69 1027.27ZM2777.57 1062.43 2782.5 1032.08 2803.82 1054.23Z" fill="#BFBFBF" fill-rule="nonzero" fill-opacity="1"/><text fill="#000000" fill-opacity="1" font-family="PingFang SC,PingFang SC_MSFontService,sans-serif" font-style="normal" font-variant="normal" font-weight="600" font-stretch="normal" font-size="55" text-anchor="start" direction="ltr" writing-mode="lr-tb" unicode-bidi="normal" text-decoration="none" transform="matrix(1 0 0 1 3283.29 1304)">git</text><text fill="#000000" fill-opacity="1" font-family="PingFang SC,PingFang SC_MSFontService,sans-serif" font-style="normal" font-variant="normal" font-weight="600" font-stretch="normal" font-size="55" text-anchor="start" direction="ltr" writing-mode="lr-tb" unicode-bidi="normal" text-decoration="none" transform="matrix(1 0 0 1 3369.8 1304)">fetch</text><text fill="#000000" fill-opacity="1" font-family="PingFang SC,PingFang SC_MSFontService,sans-serif" font-style="normal" font-variant="normal" font-weight="600" font-stretch="normal" font-size="55" text-anchor="start" direction="ltr" writing-mode="lr-tb" unicode-bidi="normal" text-decoration="none" transform="matrix(1 0 0 1 3338.57 1370)">抓取</text><path d="M3947.38 1027.73 3946.73 1040.59 3944.78 1053.65 3941.56 1066.67 3937.09 1079.64 3931.41 1092.54 3924.55 1105.37 3916.52 1118.14 3907.36 1130.82 3897.09 1143.43 3885.73 1155.96 3873.3 1168.4 3859.82 1180.75 3845.32 1193.01 3829.81 1205.18 3813.3 1217.26 3795.83 1229.22 3777.42 1241.08 3758.07 1252.83 3737.81 1264.46 3716.66 1275.97 3694.64 1287.35 3671.77 1298.59 3648.06 1309.7 3623.55 1320.66 3598.24 1331.47 3572.15 1342.13 3545.32 1352.62 3517.75 1362.94 3489.46 1373.09 3460.48 1383.05 3430.83 1392.84 3400.52 1402.42 3369.57 1411.81 3338.01 1421 3305.85 1429.97 3273.12 1438.73 3239.83 1447.27 3206 1455.57 3171.66 1463.64 3136.82 1471.47 3101.5 1479.06 3065.72 1486.38 3029.51 1493.45 2992.88 1500.26 2955.85 1506.79 2918.44 1513.05 2842.58 1524.69 2765.44 1535.16 2687.19 1544.39 2607.98 1552.33 2527.97 1558.94 2447.33 1564.17 2366.21 1567.96 2325.51 1569.31 2284.76 1570.28 2243.96 1570.86 2203.15 1571.06 2162.34 1570.86 2121.54 1570.28 2080.79 1569.32 2040.09 1567.99 1958.98 1564.23 1878.33 1559.04 1798.32 1552.49 1719.11 1544.61 1640.86 1535.46 1563.72 1525.09 1487.87 1513.54 1450.45 1507.34 1413.42 1500.86 1376.79 1494.11 1340.58 1487.11 1304.81 1479.84 1269.49 1472.32 1234.65 1464.56 1200.31 1456.56 1166.48 1448.32 1133.19 1439.86 1100.46 1431.17 1068.3 1422.28 1036.74 1413.17 1005.79 1403.86 975.484 1394.35 945.83 1384.65 916.85 1374.77 888.565 1364.71 860.994 1354.48 834.157 1344.07 808.074 1333.51 782.765 1322.79 758.249 1311.93 734.545 1300.91 711.673 1289.76 689.653 1278.48 668.504 1267.07 648.246 1255.54 628.898 1243.89 610.479 1232.13 593.01 1220.27 576.509 1208.3 560.996 1196.23 546.491 1184.07 533.013 1171.82 520.583 1159.49 509.221 1147.07 498.948 1134.57 489.786 1121.99 481.761 1109.33 474.894 1096.6 469.214 1083.8 464.717 1070.85 461.589 1055.79 470.564 1053.92 473.632 1068.7 473.473 1068.13 477.81 1080.61 477.67 1080.26 483.201 1092.72 483.046 1092.4 489.752 1104.84 489.588 1104.56 497.449 1116.95 497.283 1116.71 506.279 1129.06 506.115 1128.85 516.225 1141.15 516.066 1140.97 527.271 1153.22 527.118 1153.06 539.398 1165.25 539.253 1165.11 552.588 1177.23 552.45 1177.11 566.821 1189.15 566.69 1189.05 582.076 1201.02 581.953 1200.92 598.335 1212.81 598.219 1212.72 615.576 1224.51 615.467 1224.44 633.78 1236.13 633.678 1236.07 652.926 1247.66 652.83 1247.6 672.994 1259.08 672.903 1259.03 693.962 1270.39 693.876 1270.35 715.812 1281.59 715.731 1281.55 738.523 1292.66 738.446 1292.62 762.074 1303.6 762 1303.56 786.445 1314.4 786.375 1314.37 811.616 1325.06 811.549 1325.03 837.566 1335.57 837.502 1335.54 864.276 1345.92 864.215 1345.89 891.725 1356.11 891.666 1356.08 919.894 1366.13 919.837 1366.11 948.761 1375.97 948.706 1375.95 978.307 1385.63 978.254 1385.61 1008.51 1395.1 1008.46 1395.09 1039.36 1404.38 1039.31 1404.37 1070.82 1413.46 1070.77 1413.45 1102.88 1422.33 1102.83 1422.32 1135.52 1430.99 1135.47 1430.98 1168.72 1439.43 1168.67 1439.42 1202.45 1447.64 1202.41 1447.63 1236.71 1455.62 1236.67 1455.62 1271.46 1463.37 1271.42 1463.36 1306.7 1470.87 1306.65 1470.86 1342.39 1478.12 1342.35 1478.11 1378.52 1485.11 1378.47 1485.1 1415.06 1491.84 1415.02 1491.83 1452.01 1498.3 1451.97 1498.3 1489.34 1504.49 1489.28 1504.48 1565.06 1516.02 1564.98 1516.01 1642.04 1526.37 1641.96 1526.36 1720.14 1535.5 1720.06 1535.49 1799.19 1543.36 1799.11 1543.36 1879.04 1549.9 1878.96 1549.9 1959.52 1555.08 1959.44 1555.07 2040.48 1558.83 2040.42 1558.83 2081.07 1560.16 2081.03 1560.16 2121.74 1561.12 2121.7 1561.12 2162.45 1561.7 2162.4 1561.7 2203.17 1561.89 2203.13 1561.89 2243.9 1561.7 2243.85 1561.7 2284.6 1561.11 2284.56 1561.11 2325.27 1560.14 2325.23 1560.15 2365.88 1558.8 2365.82 1558.8 2446.86 1555.01 2446.77 1555.02 2527.34 1549.8 2527.26 1549.8 2607.18 1543.2 2607.1 1543.2 2686.24 1535.27 2686.16 1535.28 2764.33 1526.06 2764.25 1526.07 2841.31 1515.62 2841.23 1515.63 2917.02 1503.99 2916.96 1504 2954.32 1497.75 2954.28 1497.76 2991.27 1491.23 2991.23 1491.24 3027.82 1484.45 3027.78 1484.45 3063.95 1477.39 3063.91 1477.4 3099.64 1470.08 3099.6 1470.09 3134.87 1462.52 3134.83 1462.52 3169.63 1454.7 3169.58 1454.71 3203.88 1446.65 3203.84 1446.66 3237.62 1438.37 3237.57 1438.38 3270.82 1429.86 3270.77 1429.87 3303.46 1421.12 3303.41 1421.14 3335.52 1412.18 3335.47 1412.19 3366.98 1403.02 3366.93 1403.03 3397.83 1393.66 3397.78 1393.68 3428.03 1384.1 3427.98 1384.12 3457.58 1374.36 3457.53 1374.38 3486.45 1364.43 3486.39 1364.45 3514.62 1354.32 3514.56 1354.34 3542.07 1344.04 3542.01 1344.07 3568.79 1333.6 3568.72 1333.63 3594.74 1323 3594.67 1323.03 3619.91 1312.25 3619.84 1312.28 3644.29 1301.35 3644.21 1301.38 3667.84 1290.31 3667.76 1290.35 3690.55 1279.14 3690.47 1279.18 3712.41 1267.85 3712.32 1267.89 3733.38 1256.44 3733.29 1256.49 3753.46 1244.91 3753.36 1244.97 3772.61 1233.28 3772.5 1233.34 3790.82 1221.55 3790.71 1221.62 3808.07 1209.73 3807.95 1209.81 3824.33 1197.83 3824.21 1197.92 3839.59 1185.85 3839.46 1185.96 3853.83 1173.81 3853.7 1173.93 3867.03 1161.71 3866.89 1161.85 3879.17 1149.55 3879.02 1149.72 3890.22 1137.36 3890.06 1137.55 3900.17 1125.14 3900.01 1125.35 3909.01 1112.89 3908.84 1113.13 3916.7 1100.63 3916.54 1100.91 3923.25 1088.37 3923.09 1088.69 3928.62 1076.12 3928.49 1076.47 3932.82 1063.88 3932.71 1064.27 3935.83 1051.65 3935.75 1052.08 3937.63 1039.45 3937.59 1039.9 3938.22 1027.27ZM452.929 1060.95 463.5 1032.08 480.255 1057.86Z" fill="#BFBFBF" fill-rule="nonzero" fill-opacity="1"/><text fill="#000000" fill-opacity="1" font-family="PingFang SC,PingFang SC_MSFontService,sans-serif" font-style="normal" font-variant="normal" font-weight="600" font-stretch="normal" font-size="55" text-anchor="start" direction="ltr" writing-mode="lr-tb" unicode-bidi="normal" text-decoration="none" transform="matrix(1 0 0 1 2048.05 1645)">git</text><text fill="#000000" fill-opacity="1" font-family="PingFang SC,PingFang SC_MSFontService,sans-serif" font-style="normal" font-variant="normal" font-weight="600" font-stretch="normal" font-size="55" text-anchor="start" direction="ltr" writing-mode="lr-tb" unicode-bidi="normal" text-decoration="none" transform="matrix(1 0 0 1 2134.56 1645)">pull/rebase</text><text fill="#000000" fill-opacity="1" font-family="PingFang SC,PingFang SC_MSFontService,sans-serif" font-style="normal" font-variant="normal" font-weight="600" font-stretch="normal" font-size="55" text-anchor="start" direction="ltr" writing-mode="lr-tb" unicode-bidi="normal" text-decoration="none" transform="matrix(1 0 0 1 2115.66 1711)">拉取</text><text fill="#000000" fill-opacity="1" font-family="PingFang SC,PingFang SC_MSFontService,sans-serif" font-style="normal" font-variant="normal" font-weight="600" font-stretch="normal" font-size="55" text-anchor="start" direction="ltr" writing-mode="lr-tb" unicode-bidi="normal" text-decoration="none" transform="matrix(1 0 0 1 2225.66 1711)">/</text><text fill="#000000" fill-opacity="1" font-family="PingFang SC,PingFang SC_MSFontService,sans-serif" font-style="normal" font-variant="normal" font-weight="600" font-stretch="normal" font-size="55" text-anchor="start" direction="ltr" writing-mode="lr-tb" unicode-bidi="normal" text-decoration="none" transform="matrix(1 0 0 1 2253.16 1711)">变基</text><path d="M2787.6 1027.86 2787.15 1033.56 2785.74 1039.56 2783.44 1045.47 2780.29 1051.28 2776.34 1056.99 2771.61 1062.6 2766.13 1068.14 2759.91 1073.61 2752.97 1079.03 2745.32 1084.38 2736.97 1089.69 2727.93 1094.96 2718.22 1100.17 2707.85 1105.35 2696.82 1110.47 2685.15 1115.55 2672.85 1120.58 2659.94 1125.57 2646.42 1130.5 2632.31 1135.38 2617.62 1140.2 2602.36 1144.96 2586.55 1149.67 2570.2 1154.32 2553.32 1158.9 2535.93 1163.41 2518.04 1167.85 2499.65 1172.23 2480.79 1176.53 2461.47 1180.75 2441.7 1184.89 2421.49 1188.95 2400.86 1192.93 2379.82 1196.82 2358.38 1200.62 2336.55 1204.33 2291.81 1211.47 2245.69 1218.2 2198.3 1224.52 2149.73 1230.39 2100.11 1235.81 2049.54 1240.74 1998.11 1245.18 1945.95 1249.09 1893.14 1252.45 1839.8 1255.25 1786.04 1257.46 1731.96 1259.07 1677.67 1260.05 1623.27 1260.38 1568.87 1260.06 1514.57 1259.1 1460.49 1257.52 1406.73 1255.35 1353.4 1252.61 1300.59 1249.31 1248.43 1245.48 1197 1241.14 1146.43 1236.3 1096.81 1231 1048.25 1225.24 1000.86 1219.05 954.735 1212.45 909.999 1205.46 888.169 1201.82 866.731 1198.1 845.69 1194.29 825.059 1190.39 804.851 1186.41 785.08 1182.35 765.759 1178.21 746.9 1174 728.518 1169.71 710.624 1165.36 693.232 1160.94 676.355 1156.45 660.006 1151.9 644.197 1147.28 628.942 1142.61 614.254 1137.89 600.144 1133.11 586.626 1128.28 573.712 1123.4 561.415 1118.46 549.747 1113.49 538.719 1108.46 528.344 1103.4 518.633 1098.29 509.598 1093.13 501.25 1087.93 493.599 1082.68 486.659 1077.37 480.44 1072.01 474.956 1066.58 469.9 1060.69 467.585 1055.23 476.024 1051.65 478.061 1056.46 477.318 1055.26 481.789 1060.46 481.537 1060.19 486.777 1065.38 486.545 1065.17 492.542 1070.34 492.332 1070.17 499.073 1075.32 498.883 1075.18 506.354 1080.31 506.184 1080.2 514.371 1085.3 514.218 1085.21 523.109 1090.29 522.972 1090.21 532.552 1095.25 532.429 1095.19 542.686 1100.2 542.575 1100.15 553.496 1105.12 553.394 1105.08 564.966 1110.01 564.873 1109.97 577.081 1114.87 576.997 1114.84 589.829 1119.69 589.751 1119.66 603.194 1124.46 603.122 1124.44 617.162 1129.2 617.095 1129.17 631.719 1133.88 631.657 1133.86 646.851 1138.51 646.793 1138.49 662.546 1143.09 662.491 1143.07 678.787 1147.61 678.736 1147.6 695.564 1152.07 695.515 1152.06 712.86 1156.47 712.814 1156.46 730.664 1160.8 730.62 1160.79 748.961 1165.07 748.919 1165.06 767.737 1169.26 767.698 1169.25 786.981 1173.38 786.943 1173.37 806.677 1177.43 806.641 1177.42 826.813 1181.39 826.778 1181.38 847.374 1185.28 847.341 1185.27 868.349 1189.08 868.316 1189.07 889.723 1192.79 889.691 1192.78 911.482 1196.41 911.437 1196.41 956.121 1203.39 956.062 1203.38 1002.13 1209.97 1002.07 1209.96 1049.41 1216.15 1049.36 1216.14 1097.86 1221.89 1097.81 1221.88 1147.38 1227.19 1147.33 1227.18 1197.85 1232.01 1197.8 1232.01 1249.17 1236.35 1249.12 1236.34 1301.24 1240.17 1301.19 1240.16 1353.94 1243.46 1353.89 1243.46 1407.18 1246.2 1407.13 1246.19 1460.84 1248.36 1460.79 1248.36 1514.81 1249.93 1514.76 1249.93 1569 1250.89 1568.95 1250.89 1623.29 1251.22 1623.24 1251.22 1677.58 1250.89 1677.53 1250.89 1731.77 1249.91 1731.72 1249.91 1785.74 1248.3 1785.69 1248.3 1839.4 1246.09 1839.35 1246.09 1892.63 1243.3 1892.58 1243.3 1945.34 1239.94 1945.29 1239.94 1997.4 1236.04 1997.35 1236.04 2048.72 1231.61 2048.67 1231.62 2099.2 1226.69 2099.15 1226.69 2148.71 1221.28 2148.66 1221.29 2197.17 1215.42 2197.11 1215.43 2244.45 1209.12 2244.39 1209.13 2290.46 1202.4 2290.4 1202.41 2335.08 1195.29 2335.04 1195.29 2356.83 1191.59 2356.79 1191.59 2378.2 1187.8 2378.17 1187.8 2399.18 1183.92 2399.14 1183.93 2419.74 1179.96 2419.7 1179.96 2439.88 1175.91 2439.84 1175.92 2459.57 1171.78 2459.53 1171.79 2478.82 1167.57 2478.78 1167.58 2497.59 1163.29 2497.55 1163.3 2515.89 1158.94 2515.85 1158.95 2533.7 1154.52 2533.65 1154.53 2551 1150.03 2550.95 1150.04 2567.77 1145.48 2567.72 1145.49 2584.02 1140.86 2583.96 1140.88 2599.72 1136.19 2599.66 1136.21 2614.85 1131.46 2614.79 1131.48 2629.41 1126.68 2629.34 1126.7 2643.38 1121.85 2643.31 1121.87 2656.75 1116.97 2656.68 1117 2669.51 1112.05 2669.42 1112.08 2681.63 1107.09 2681.54 1107.13 2693.11 1102.09 2693.01 1102.14 2703.93 1097.06 2703.81 1097.11 2714.07 1092 2713.95 1092.07 2723.53 1086.92 2723.39 1087 2732.28 1081.82 2732.13 1081.91 2740.31 1076.7 2740.14 1076.82 2747.61 1071.59 2747.43 1071.73 2754.17 1066.47 2753.96 1066.64 2759.95 1061.37 2759.72 1061.58 2764.96 1056.29 2764.71 1056.56 2769.19 1051.25 2768.92 1051.59 2772.61 1046.27 2772.35 1046.69 2775.24 1041.36 2775 1041.88 2777.08 1036.53 2776.89 1037.15 2778.15 1031.8 2778.04 1032.49 2778.46 1027.14ZM460.65 1062.7 463.5 1032.08 486.28 1052.73Z" fill="#BFBFBF" fill-rule="nonzero" fill-opacity="1"/><text fill="#000000" fill-opacity="1" font-family="PingFang SC,PingFang SC_MSFontService,sans-serif" font-style="normal" font-variant="normal" font-weight="600" font-stretch="normal" font-size="55" text-anchor="start" direction="ltr" writing-mode="lr-tb" unicode-bidi="normal" text-decoration="none" transform="matrix(1 0 0 1 1489.91 1320)">git</text><text fill="#000000" fill-opacity="1" font-family="PingFang SC,PingFang SC_MSFontService,sans-serif" font-style="normal" font-variant="normal" font-weight="600" font-stretch="normal" font-size="55" text-anchor="start" direction="ltr" writing-mode="lr-tb" unicode-bidi="normal" text-decoration="none" transform="matrix(1 0 0 1 1576.42 1320)">rebase</text><text fill="#000000" fill-opacity="1" font-family="PingFang SC,PingFang SC_MSFontService,sans-serif" font-style="normal" font-variant="normal" font-weight="600" font-stretch="normal" font-size="55" text-anchor="start" direction="ltr" writing-mode="lr-tb" unicode-bidi="normal" text-decoration="none" transform="matrix(1 0 0 1 1456.11 1386)">更新至工作区</text><path d="M1627.82 1028 1627.56 1030.4 1626.66 1033.18 1625.26 1035.77 1623.44 1038.2 1621.25 1040.48 1618.71 1042.66 1615.82 1044.77 1612.55 1046.85 1605.14 1050.8 1596.32 1054.68 1586.19 1058.47 1574.77 1062.18 1562.11 1065.81 1548.26 1069.37 1533.25 1072.84 1517.14 1076.22 1499.98 1079.52 1481.82 1082.71 1462.71 1085.79 1442.7 1088.76 1421.85 1091.6 1400.2 1094.32 1377.81 1096.9 1354.74 1099.33 1331.03 1101.62 1306.73 1103.74 1281.91 1105.7 1256.61 1107.48 1230.89 1109.09 1204.78 1110.5 1151.7 1112.73 1097.76 1114.11 1043.38 1114.58 989.016 1114.14 935.075 1112.83 881.994 1110.73 855.892 1109.39 830.17 1107.88 804.873 1106.19 780.052 1104.34 755.762 1102.34 732.054 1100.18 708.981 1097.88 686.597 1095.45 664.953 1092.88 644.102 1090.19 624.097 1087.39 604.99 1084.48 586.832 1081.47 569.674 1078.36 553.569 1075.16 538.566 1071.88 524.714 1068.53 512.061 1065.1 500.652 1061.6 490.279 1057.93 478.391 1051.33 482.844 1043.31 494.395 1049.73 493.694 1049.42 503.613 1052.92 503.432 1052.86 514.678 1056.31 514.533 1056.27 527.053 1059.66 526.933 1059.63 540.675 1062.96 540.574 1062.94 555.483 1066.2 555.397 1066.18 571.421 1069.36 571.346 1069.35 588.432 1072.44 588.365 1072.43 606.46 1075.43 606.4 1075.42 625.451 1078.32 625.396 1078.32 645.349 1081.11 645.299 1081.11 666.102 1083.79 666.055 1083.78 687.654 1086.34 687.61 1086.34 709.952 1088.77 709.911 1088.76 732.943 1091.06 732.904 1091.05 756.573 1093.21 756.535 1093.2 780.788 1095.21 780.752 1095.2 805.536 1097.05 805.5 1097.05 830.762 1098.73 830.726 1098.73 856.413 1100.24 856.378 1100.24 882.436 1101.57 882.384 1101.57 935.403 1103.67 935.332 1103.67 989.201 1104.97 989.128 1104.97 1043.42 1105.42 1043.34 1105.42 1097.64 1104.94 1097.56 1104.94 1151.43 1103.57 1151.35 1103.57 1204.37 1101.34 1204.32 1101.34 1230.37 1099.93 1230.34 1099.94 1256.02 1098.34 1255.99 1098.34 1281.25 1096.56 1281.21 1096.56 1305.99 1094.6 1305.96 1094.61 1330.21 1092.49 1330.17 1092.49 1353.84 1090.21 1353.8 1090.21 1376.83 1087.78 1376.79 1087.79 1399.13 1085.21 1399.08 1085.22 1420.68 1082.51 1420.63 1082.52 1441.43 1079.68 1441.38 1079.69 1461.33 1076.73 1461.28 1076.73 1480.33 1073.66 1480.26 1073.67 1498.36 1070.49 1498.29 1070.51 1515.37 1067.23 1515.29 1067.25 1531.32 1063.88 1531.23 1063.9 1546.14 1060.45 1546.03 1060.47 1559.77 1056.95 1559.65 1056.98 1572.17 1053.39 1572.02 1053.43 1583.26 1049.78 1583.07 1049.85 1592.99 1046.14 1592.75 1046.24 1601.29 1042.48 1600.98 1042.63 1608.08 1038.84 1607.78 1039.02 1610.78 1037.11 1610.54 1037.28 1613.16 1035.37 1612.87 1035.59 1615.11 1033.67 1614.79 1033.98 1616.63 1032.05 1616.27 1032.47 1617.72 1030.55 1617.35 1031.12 1618.39 1029.19 1618.07 1029.95 1618.7 1028.01 1618.5 1028.94 1618.71 1027ZM474.899 1060.64 463.5 1032.08 493.183 1040.1Z" fill="#BFBFBF" fill-rule="nonzero" fill-opacity="1"/><text fill="#000000" fill-opacity="1" font-family="PingFang SC,PingFang SC_MSFontService,sans-serif" font-style="normal" font-variant="normal" font-weight="600" font-stretch="normal" font-size="55" text-anchor="start" direction="ltr" writing-mode="lr-tb" unicode-bidi="normal" text-decoration="none" transform="matrix(1 0 0 1 898.771 1181)">撤销提交</text><path d="M703.5 918.917 1355.25 918.917 1355.25 928.084 703.5 928.083ZM1350.67 909.751 1378.17 923.501 1350.67 937.251Z" fill="#BFBFBF" fill-rule="nonzero" fill-opacity="1"/><path d="M1863.5 918.917 2515.25 918.917 2515.25 928.084 1863.5 928.083ZM2510.67 909.751 2538.17 923.501 2510.67 937.251Z" fill="#BFBFBF" fill-rule="nonzero" fill-opacity="1"/><path d="M3022.5 918.917 3674.25 918.917 3674.25 928.084 3022.5 928.083ZM3669.67 909.751 3697.17 923.501 3669.67 937.251Z" fill="#BFBFBF" fill-rule="nonzero" fill-opacity="1"/></g></g></svg>