<svg xmlns="http://www.w3.org/2000/svg" viewBox="0 0 880 600" role="img" aria-labelledby="title desc">
  <title id="title">Ubuntu keyboard layout screen mockup</title>
  <desc id="desc">A simplified SVG template of the Ubuntu installer keyboard layout screen.</desc>
  <defs>
    <linearGradient id="bg" x1="0" y1="0" x2="1" y2="1">
      <stop offset="0%" stop-color="#2c1030"/>
      <stop offset="50%" stop-color="#5d183b"/>
      <stop offset="100%" stop-color="#1d1029"/>
    </linearGradient>
    <filter id="shadow" x="-20%" y="-20%" width="140%" height="140%">
      <feDropShadow dx="0" dy="12" stdDeviation="20" flood-color="#120812" flood-opacity=".28"/>
    </filter>
  </defs>
  <rect width="880" height="600" rx="18" fill="#0b0b0d"/>
  <rect x="32" y="24" width="816" height="532" rx="12" fill="url(#bg)"/>
  <rect x="32" y="24" width="816" height="16" rx="12" fill="#efebe4"/>
  <circle cx="48" cy="32" r="4" fill="#ff5f57"/>
  <circle cx="62" cy="32" r="4" fill="#febc2e"/>
  <circle cx="76" cy="32" r="4" fill="#28c840"/>
  <rect x="78" y="72" width="738" height="454" rx="18" fill="#fcfbfb" filter="url(#shadow)"/>
  
  <rect x="32" y="40" width="816" height="28" fill="#181818"/>
  <text x="440" y="59" text-anchor="middle" font-size="13" fill="#f2f2f2" font-family="Helvetica, Arial, sans-serif">May 14 06:22</text>
  <rect x="32" y="68" width="42" height="468" fill="#251a28" opacity=".82"/>
  <g fill="#f0f0f0" opacity=".98">
    <circle cx="54" cy="86" r="8"/><circle cx="54" cy="132" r="8"/><circle cx="54" cy="178" r="8"/><circle cx="54" cy="224" r="8"/><circle cx="54" cy="270" r="8"/><circle cx="54" cy="316" r="8"/><circle cx="54" cy="362" r="8"/><circle cx="54" cy="408" r="8"/><circle cx="54" cy="500" r="8"/>
  </g>
  <rect x="778" y="394" width="46" height="68" rx="4" fill="#e95420" opacity=".92"/>
  <rect x="782" y="398" width="24" height="24" rx="4" fill="#fff" opacity=".9"/>
  <text x="801" y="446" text-anchor="middle" font-size="8" fill="#fff" font-family="Helvetica, Arial, sans-serif">Install Ubuntu</text>
  <rect x="786" y="474" width="30" height="30" rx="4" fill="#6f626f" opacity=".65"/>
  <text x="801" y="524" text-anchor="middle" font-size="9" fill="#fff" font-family="Helvetica, Arial, sans-serif">Home</text>
  <text x="447" y="90" text-anchor="middle" font-size="14" fill="#7c7178" font-family="Helvetica, Arial, sans-serif">键盘布局</text>
  <circle cx="772" cy="88" r="8" fill="#f3f0f2" stroke="#d8d1d5"/>
  <path d="M768 84l8 8M776 84l-8 8" stroke="#8f838c" stroke-width="1.5"/>
  
  <g transform="translate(178 228)">
    <g transform="translate(0 54)">
      <path d="M18 18l56-36 74 42-56 36Z" fill="#fff" stroke="#bdb5ba"/>
      <path d="M18 18v18l74 43V60Z" fill="#f3f1f2" stroke="#bdb5ba"/>
      <path d="M92 60l56-36v18L92 79Z" fill="#f05a28" stroke="#c84a20"/>
      <g fill="#f7f7f8" stroke="#d7d1d5">
        <rect x="30" y="16" width="12" height="8" rx="1"/><rect x="45" y="12" width="12" height="8" rx="1"/><rect x="60" y="8" width="12" height="8" rx="1"/><rect x="75" y="18" width="12" height="8" rx="1"/><rect x="90" y="14" width="12" height="8" rx="1"/>
        <rect x="34" y="28" width="12" height="8" rx="1"/><rect x="49" y="24" width="12" height="8" rx="1"/><rect x="64" y="20" width="12" height="8" rx="1"/><rect x="79" y="30" width="12" height="8" rx="1"/><rect x="94" y="26" width="18" height="8" rx="1"/>
        <rect x="38" y="40" width="14" height="8" rx="1"/><rect x="55" y="36" width="12" height="8" rx="1"/><rect x="70" y="32" width="12" height="8" rx="1"/><rect x="85" y="42" width="12" height="8" rx="1"/><rect x="100" y="38" width="20" height="8" rx="1"/>
      </g>
    </g>
    <g transform="translate(52 0)">
      <path d="M18 18l30-20 40 22-30 20Z" fill="#fff" stroke="#bdb5ba"/>
      <path d="M18 18v14l40 22V40Z" fill="#f3f1f2" stroke="#bdb5ba"/>
      <path d="M58 40l30-20v14L58 54Z" fill="#f05a28" stroke="#c84a20"/>
      <g fill="#f7f7f8" stroke="#d7d1d5">
        <rect x="30" y="15" width="10" height="6" rx="1"/><rect x="42" y="11" width="10" height="6" rx="1"/><rect x="54" y="17" width="10" height="6" rx="1"/>
        <rect x="34" y="24" width="10" height="6" rx="1"/><rect x="46" y="20" width="10" height="6" rx="1"/><rect x="58" y="26" width="10" height="6" rx="1"/>
      </g>
    </g>
    <g fill="#f0efef">
      <rect x="0" y="36" width="10" height="10" transform="rotate(45 5 41)"/>
      <rect x="120" y="28" width="10" height="10" transform="rotate(45 125 33)"/>
      <rect x="150" y="44" width="10" height="10" transform="rotate(45 155 49)"/>
      <rect x="22" y="110" width="10" height="10" transform="rotate(45 27 115)"/>
      <rect x="134" y="118" width="10" height="10" transform="rotate(45 139 123)"/>
    </g>
    <g stroke="#ff946e" stroke-width="1.2" stroke-linecap="round">
      <path d="M10 20h4"/><path d="M130 12h4"/><path d="M100 108h4"/><path d="M154 70h4"/>
      <path d="M12 86h4"/><path d="M74 2h4"/>
    </g>
  </g>
  <text x="418" y="194" font-size="15" fill="#5c5358" font-family="PingFang SC, Helvetica, Arial, sans-serif">选择您的键盘布局</text>
  <rect x="672" y="178" width="40" height="22" rx="4" fill="#fff" stroke="#ddd6da"/>
  <text x="692" y="193" text-anchor="middle" font-size="11" fill="#8a8086" font-family="PingFang SC, Helvetica, Arial, sans-serif">检测</text>
  <rect x="418" y="212" width="294" height="136" rx="6" fill="#fff" stroke="#ded7db"/>
  <text x="426" y="226" font-size="11" fill="#6f656b" font-family="PingFang SC, Helvetica, Arial, sans-serif">柯尔克孜语(吉尔吉斯语)</text>
  <text x="426" y="257" font-size="11" fill="#6f656b" font-family="PingFang SC, Helvetica, Arial, sans-serif">比利时语</text>
  <text x="426" y="288" font-size="12" fill="#e95420" font-family="PingFang SC, Helvetica, Arial, sans-serif">汉语</text>
  <text x="426" y="319" font-size="11" fill="#6f656b" font-family="PingFang SC, Helvetica, Arial, sans-serif">法罗</text>
  <text x="426" y="346" font-size="11" fill="#6f656b" font-family="PingFang SC, Helvetica, Arial, sans-serif">法语</text>
  <text x="418" y="380" font-size="11" fill="#7f747b" font-family="PingFang SC, Helvetica, Arial, sans-serif">键盘变体:</text>
  <rect x="472" y="364" width="240" height="24" rx="4" fill="#fff" stroke="#ddd6da"/>
  <text x="484" y="380" font-size="11" fill="#5b5157" font-family="PingFang SC, Helvetica, Arial, sans-serif">汉语</text>
  <path d="M691 374l4 4 4-4" fill="none" stroke="#a0969c" stroke-width="1.2" stroke-linecap="round" stroke-linejoin="round"/>
  <rect x="418" y="410" width="294" height="24" rx="4" fill="#efefef" stroke="#e1dadd"/>
  <text x="426" y="426" font-size="10" fill="#9b9397" font-family="PingFang SC, Helvetica, Arial, sans-serif">在此键入以测试您的键盘</text>

  <rect x="126" y="488" width="82" height="28" rx="8" fill="#fff" stroke="#d9d1d5"/><text x="167" y="506" text-anchor="middle" font-size="12" fill="#7f737a" font-family="PingFang SC, Helvetica, Arial, sans-serif">返回</text>
  <rect x="688" y="488" width="92" height="30" rx="8" fill="#f2f2f3"/>
  <text x="734" y="507" text-anchor="middle" font-size="14" fill="#aca5ab" font-family="PingFang SC, Helvetica, Arial, sans-serif">下一步</text>
  <g transform="translate(384 500)">
    <circle cx="0" cy="0" r="4" fill="#d6cfd3"/><circle cx="14" cy="0" r="4" fill="#e95420"/><circle cx="28" cy="0" r="4" fill="#d6cfd3"/><circle cx="42" cy="0" r="4" fill="#d6cfd3"/><circle cx="56" cy="0" r="4" fill="#d6cfd3"/><circle cx="70" cy="0" r="4" fill="#d6cfd3"/><circle cx="84" cy="0" r="4" fill="#d6cfd3"/><circle cx="98" cy="0" r="4" fill="#d6cfd3"/><circle cx="112" cy="0" r="4" fill="#d6cfd3"/><circle cx="126" cy="0" r="4" fill="#d6cfd3"/>
  </g>

</svg>
