<svg xmlns="http://www.w3.org/2000/svg" viewBox="0 0 880 600" role="img" aria-labelledby="title desc">
  <title id="title">Ubuntu 22.04 installation type screen mockup</title>
  <desc id="desc">A simplified SVG template of the Ubuntu 22.04 installation type selection screen.</desc>
  <defs>
    <linearGradient id="bg" x1="0" y1="0" x2="1" y2="1">
      <stop offset="0%" stop-color="#2c1030"/>
      <stop offset="50%" stop-color="#5d183b"/>
      <stop offset="100%" stop-color="#1d1029"/>
    </linearGradient>
    <filter id="shadow" x="-20%" y="-20%" width="140%" height="140%">
      <feDropShadow dx="0" dy="12" stdDeviation="20" flood-color="#120812" flood-opacity=".28"/>
    </filter>
  </defs>
  <rect width="880" height="600" rx="18" fill="#0b0b0d"/>
  <rect x="32" y="24" width="816" height="532" rx="12" fill="url(#bg)"/>
  <rect x="32" y="24" width="816" height="16" rx="12" fill="#efebe4"/>
  <circle cx="48" cy="32" r="4" fill="#ff5f57"/>
  <circle cx="62" cy="32" r="4" fill="#febc2e"/>
  <circle cx="76" cy="32" r="4" fill="#28c840"/>
  <rect x="78" y="72" width="738" height="454" rx="18" fill="#fcfbfb" filter="url(#shadow)"/>
  
  <defs>
    <linearGradient id="bg2204" x1="0" y1="0" x2="1" y2="1">
      <stop offset="0%" stop-color="#c53146"/>
      <stop offset="100%" stop-color="#4b014f"/>
    </linearGradient>
    <filter id="shadow2204" x="-20%" y="-20%" width="140%" height="140%">
      <feDropShadow dx="0" dy="10" stdDeviation="18" flood-color="#120812" flood-opacity=".30"/>
    </filter>
  </defs>
  <rect x="32" y="24" width="816" height="532" rx="12" fill="url(#bg2204)"/>
  <path d="M120 230l220-90 150 48-238 120Z" fill="#d34a64" opacity=".15"/>
  <path d="M420 116l92-42 38 98-128 26Z" fill="#e06b7a" opacity=".12"/>
  <path d="M590 184l94-56 42 112-112 60Z" fill="#8a1a6a" opacity=".16"/>
  <rect x="164" y="78" width="552" height="438" rx="6" fill="#fff" filter="url(#shadow2204)"/>
  <rect x="164" y="78" width="552" height="24" rx="6" fill="#2f2d2f"/>
  <text x="440" y="95" text-anchor="middle" font-size="13" fill="#fff" font-family="PingFang SC, Helvetica, Arial, sans-serif">安装</text>
  <circle cx="690" cy="90" r="7" fill="#e95420"/>
  <path d="M686 86l8 8M694 86l-8 8" stroke="#fff" stroke-width="1.5"/>
  
  <text x="176" y="134" font-size="16" fill="#3e3940" font-family="PingFang SC, Helvetica, Arial, sans-serif">安装类型</text>
  <text x="190" y="171" font-size="12" fill="#6b6268" font-family="PingFang SC, Helvetica, Arial, sans-serif">这台计算机似乎没有安装操作系统。您准备怎么做？</text>
  <circle cx="200" cy="192" r="6" fill="#fff" stroke="#cfc6cb"/>
  <text x="212" y="197" font-size="11" fill="#5f565d" font-family="PingFang SC, Helvetica, Arial, sans-serif">清除整个磁盘并安装 Ubuntu</text>
  <text x="222" y="214" font-size="10" fill="#8f868c" font-family="PingFang SC, Helvetica, Arial, sans-serif">注意：这会删除所有系统里面的全部程序、文档、图片、音乐和其他文件。</text>
  <rect x="222" y="217" width="96" height="18" rx="2" fill="#f3f1f3" stroke="#d9d1d5"/>
  <text x="270" y="230" text-anchor="middle" font-size="10" fill="#9f979d" font-family="Helvetica, Arial, sans-serif">Advanced features.</text>
  <text x="326" y="231" font-size="11" fill="#5f565d" font-family="Helvetica, Arial, sans-serif">None selected</text>
  <rect x="208" y="243" width="266" height="18" fill="#fff7f4" stroke="#eaa48c"/>
  <circle cx="214" cy="252" r="6" fill="#8c4d92"/>
  <circle cx="214" cy="252" r="2.5" fill="#fff"/>
  <text x="228" y="257" font-size="11" fill="#5f565d" font-family="PingFang SC, Helvetica, Arial, sans-serif">其他选项</text>
  <text x="221" y="271" font-size="10" fill="#8f868c" font-family="PingFang SC, Helvetica, Arial, sans-serif">您可以自己创建、调整分区，或者为 Ubuntu 选择多个分区。</text>

  <rect x="484" y="462" width="64" height="20" rx="3" fill="#fff" stroke="#d9d1d5"/>
  <text x="516" y="476" text-anchor="middle" font-size="11" fill="#6c6168" font-family="PingFang SC, Helvetica, Arial, sans-serif">退出(Q)</text>
  <rect x="554" y="462" width="64" height="20" rx="3" fill="#fff" stroke="#d9d1d5"/>
  <text x="586" y="476" text-anchor="middle" font-size="11" fill="#6c6168" font-family="PingFang SC, Helvetica, Arial, sans-serif">后退(B)</text>
  <rect x="624" y="462" width="64" height="20" rx="3" fill="#fff" stroke="#d6cfd3"/>
  <text x="656" y="476" text-anchor="middle" font-size="11" fill="#6a6067" font-family="Helvetica, Arial, sans-serif">继续</text>
  <g transform="translate(388 524)">
    <circle cx="0" cy="0" r="5" fill="#8c4d92" stroke="#8c4d92" stroke-width="1.5"/><circle cx="18" cy="0" r="5" fill="#8c4d92" stroke="#8c4d92" stroke-width="1.5"/><circle cx="36" cy="0" r="5" fill="#8c4d92" stroke="#8c4d92" stroke-width="1.5"/><circle cx="54" cy="0" r="5" fill="#8c4d92" stroke="#8c4d92" stroke-width="1.5"/><circle cx="72" cy="0" r="5" fill="#fff" stroke="#8c4d92" stroke-width="1.5"/><circle cx="90" cy="0" r="5" fill="#fff" stroke="#8c4d92" stroke-width="1.5"/><circle cx="108" cy="0" r="5" fill="#fff" stroke="#8c4d92" stroke-width="1.5"/>
  </g>

</svg>
