<svg xmlns="http://www.w3.org/2000/svg" viewBox="0 0 880 600" role="img" aria-labelledby="title desc">
  <title id="title">Ubuntu finished partition layout mockup</title>
  <desc id="desc">A simplified SVG template of the Ubuntu installer showing a completed manual partition layout.</desc>
  <defs>
    <linearGradient id="bg" x1="0" y1="0" x2="1" y2="1">
      <stop offset="0%" stop-color="#2c1030"/>
      <stop offset="50%" stop-color="#5d183b"/>
      <stop offset="100%" stop-color="#1d1029"/>
    </linearGradient>
    <filter id="shadow" x="-20%" y="-20%" width="140%" height="140%">
      <feDropShadow dx="0" dy="12" stdDeviation="20" flood-color="#120812" flood-opacity=".28"/>
    </filter>
  </defs>
  <rect width="880" height="600" rx="18" fill="#0b0b0d"/>
  <rect x="32" y="24" width="816" height="532" rx="12" fill="url(#bg)"/>
  <rect x="32" y="24" width="816" height="16" rx="12" fill="#efebe4"/>
  <circle cx="48" cy="32" r="4" fill="#ff5f57"/>
  <circle cx="62" cy="32" r="4" fill="#febc2e"/>
  <circle cx="76" cy="32" r="4" fill="#28c840"/>
  <rect x="78" y="72" width="738" height="454" rx="18" fill="#fcfbfb" filter="url(#shadow)"/>
  
  <rect x="32" y="40" width="816" height="28" fill="#181818"/>
  <text x="440" y="59" text-anchor="middle" font-size="13" fill="#f2f2f2" font-family="Helvetica, Arial, sans-serif">May 14 06:22</text>
  <rect x="32" y="68" width="42" height="468" fill="#251a28" opacity=".82"/>
  <g fill="#f0f0f0" opacity=".98">
    <circle cx="54" cy="86" r="8"/><circle cx="54" cy="132" r="8"/><circle cx="54" cy="178" r="8"/><circle cx="54" cy="224" r="8"/><circle cx="54" cy="270" r="8"/><circle cx="54" cy="316" r="8"/><circle cx="54" cy="362" r="8"/><circle cx="54" cy="408" r="8"/><circle cx="54" cy="500" r="8"/>
  </g>
  <rect x="778" y="394" width="46" height="68" rx="4" fill="#e95420" opacity=".92"/>
  <rect x="782" y="398" width="24" height="24" rx="4" fill="#fff" opacity=".9"/>
  <text x="801" y="446" text-anchor="middle" font-size="8" fill="#fff" font-family="Helvetica, Arial, sans-serif">Install Ubuntu</text>
  <rect x="786" y="474" width="30" height="30" rx="4" fill="#6f626f" opacity=".65"/>
  <text x="801" y="524" text-anchor="middle" font-size="9" fill="#fff" font-family="Helvetica, Arial, sans-serif">Home</text>
  <text x="447" y="90" text-anchor="middle" font-size="14" fill="#7c7178" font-family="Helvetica, Arial, sans-serif">手动分区</text>
  <circle cx="772" cy="88" r="8" fill="#f3f0f2" stroke="#d8d1d5"/>
  <path d="M768 84l8 8M776 84l-8 8" stroke="#8f838c" stroke-width="1.5"/>
  
  <rect x="170" y="106" width="580" height="10" rx="2" fill="#b97219"/>
  <rect x="170" y="106" width="8" height="10" rx="2" fill="#2d66ce"/>
  <circle cx="172" cy="132" r="3" fill="#2d66ce"/>
  <text x="182" y="130" font-size="10" fill="#5f545a" font-family="Helvetica, Arial, sans-serif">sda2</text>
  <text x="182" y="142" font-size="10" fill="#a1989d" font-family="Helvetica, Arial, sans-serif">1.13 GB</text>
  <circle cx="236" cy="132" r="3" fill="#b97219"/>
  <text x="246" y="130" font-size="10" fill="#5f545a" font-family="Helvetica, Arial, sans-serif">sda1</text>
  <text x="246" y="142" font-size="10" fill="#a1989d" font-family="Helvetica, Arial, sans-serif">67.59 GB</text>

  <rect x="170" y="186" width="580" height="220" rx="4" fill="#fff" stroke="#dbd4d8"/>
  <rect x="170" y="186" width="580" height="26" rx="4" fill="#faf8f9"/>
  <text x="186" y="203" font-size="10" fill="#7d7279" font-family="PingFang SC, Helvetica, Arial, sans-serif">设备</text>
  <text x="315" y="203" font-size="10" fill="#7d7279" font-family="PingFang SC, Helvetica, Arial, sans-serif">类型</text>
  <text x="401" y="203" font-size="10" fill="#7d7279" font-family="PingFang SC, Helvetica, Arial, sans-serif">挂载点</text>
  <text x="500" y="203" font-size="10" fill="#7d7279" font-family="PingFang SC, Helvetica, Arial, sans-serif">大小</text>
  <text x="599" y="203" font-size="10" fill="#7d7279" font-family="PingFang SC, Helvetica, Arial, sans-serif">系统</text>
  <text x="684" y="203" font-size="10" fill="#7d7279" font-family="PingFang SC, Helvetica, Arial, sans-serif">格式化</text>

  <g fill="#5e535a" font-family="Helvetica, Arial, sans-serif">
    <rect x="170" y="212" width="580" height="25" fill="#fff"/>
    <rect x="170" y="237" width="580" height="25" fill="#fff"/>
    <rect x="170" y="262" width="580" height="25" fill="#f9ece7"/>
    <rect x="188" y="220" width="8" height="8" rx="1.5" fill="none" stroke="#6f646b"/>
    <path d="M190 224l2 2 4-4" fill="none" stroke="#6f646b" stroke-width="1.2" stroke-linecap="round" stroke-linejoin="round"/>
    <text x="208" y="228" font-size="12">sda</text>
    <text x="500" y="228" font-size="11">68.72 GB</text>

    <rect x="212" y="245" width="8" height="8" rx="1.5" fill="none" stroke="#8d8389"/>
    <path d="M214 249l2 2 4-4" fill="none" stroke="#8d8389" stroke-width="1.2" stroke-linecap="round" stroke-linejoin="round"/>
    <text x="236" y="253" font-size="11">sda2</text>
    <text x="314" y="253" font-size="11" fill="#8a8086">FAT32</text>
    <text x="401" y="253" font-size="11">/boot/efi</text>
    <text x="500" y="253" font-size="11">1.13 GB</text>
    <rect x="685" y="244" width="10" height="10" rx="1.5" fill="#1f1f1f"/>
    <path d="M687 249l2 2 4-5" fill="none" stroke="#fff" stroke-width="1.2" stroke-linecap="round" stroke-linejoin="round"/>

    <rect x="212" y="270" width="8" height="8" rx="1.5" fill="none" stroke="#8d8389"/>
    <path d="M214 274l2 2 4-4" fill="none" stroke="#8d8389" stroke-width="1.2" stroke-linecap="round" stroke-linejoin="round"/>
    <text x="236" y="278" font-size="11">sda1</text>
    <text x="314" y="278" font-size="11" fill="#8a8086">Ext4</text>
    <text x="401" y="278" font-size="11">/</text>
    <text x="500" y="278" font-size="11">67.59 GB</text>
    <rect x="685" y="269" width="10" height="10" rx="1.5" fill="#1f1f1f"/>
    <path d="M687 274l2 2 4-5" fill="none" stroke="#fff" stroke-width="1.2" stroke-linecap="round" stroke-linejoin="round"/>
  </g>

  <rect x="170" y="418" width="38" height="22" rx="4" fill="#fff" stroke="#ddd6da"/>
  <text x="189" y="433" text-anchor="middle" font-size="16" fill="#6e636a" font-family="Helvetica, Arial, sans-serif">+</text>
  <rect x="211" y="418" width="38" height="22" rx="4" fill="#fff" stroke="#ddd6da"/>
  <text x="230" y="433" text-anchor="middle" font-size="16" fill="#6e636a" font-family="Helvetica, Arial, sans-serif">−</text>
  <rect x="252" y="418" width="38" height="22" rx="4" fill="#fff" stroke="#ddd6da"/>
  <text x="271" y="432" text-anchor="middle" font-size="10" fill="#9f969b" font-family="PingFang SC, Helvetica, Arial, sans-serif">更改</text>
  <rect x="646" y="418" width="58" height="22" rx="4" fill="#f6f4f5" stroke="#ddd6da"/>
  <text x="675" y="432" text-anchor="middle" font-size="10" fill="#c5bec2" font-family="PingFang SC, Helvetica, Arial, sans-serif">新建分区表</text>
  <rect x="710" y="418" width="40" height="22" rx="4" fill="#fff" stroke="#ddd6da"/>
  <text x="730" y="432" text-anchor="middle" font-size="10" fill="#7f737a" font-family="PingFang SC, Helvetica, Arial, sans-serif">撤销</text>
  <rect x="170" y="452" width="290" height="24" rx="4" fill="#f0eff1" stroke="#d9d2d6"/>
  <text x="170" y="456" font-size="10" fill="#7a6f76" font-family="PingFang SC, Helvetica, Arial, sans-serif">用于安装引导程序的设备</text>
  <text x="180" y="468" font-size="11" fill="#5f545a" font-family="Helvetica, Arial, sans-serif">sda QEMU HARDDISK (68.72 GB)</text>
  <path d="M440 462l4 4 4-4" fill="none" stroke="#9d9399" stroke-width="1.2" stroke-linecap="round" stroke-linejoin="round"/>

  <rect x="170" y="488" width="80" height="30" rx="5" fill="#fff" stroke="#d8d1d5"/>
  <text x="210" y="507" text-anchor="middle" font-size="12" fill="#7f737a" font-family="PingFang SC, Helvetica, Arial, sans-serif">返回</text>
  <rect x="688" y="488" width="82" height="30" rx="5" fill="#f2f2f3"/>
  <text x="729" y="507" text-anchor="middle" font-size="14" fill="#aca5ab" font-family="PingFang SC, Helvetica, Arial, sans-serif">下一步</text>
  <g transform="translate(384 500)">
    <circle cx="0" cy="0" r="4" fill="#d6cfd3"/><circle cx="14" cy="0" r="4" fill="#d6cfd3"/><circle cx="28" cy="0" r="4" fill="#d6cfd3"/><circle cx="42" cy="0" r="4" fill="#d6cfd3"/><circle cx="56" cy="0" r="4" fill="#d6cfd3"/><circle cx="70" cy="0" r="4" fill="#d6cfd3"/><circle cx="84" cy="0" r="4" fill="#e95420"/><circle cx="98" cy="0" r="4" fill="#d6cfd3"/><circle cx="112" cy="0" r="4" fill="#d6cfd3"/><circle cx="126" cy="0" r="4" fill="#d6cfd3"/>
  </g>

</svg>
