<svg xmlns="http://www.w3.org/2000/svg" viewBox="0 0 880 600" role="img" aria-labelledby="title desc">
  <title id="title">Ubuntu partition plan screen mockup</title>
  <desc id="desc">A simplified SVG template showing a suggested partition plan.</desc>
  <defs>
    <linearGradient id="bg" x1="0" y1="0" x2="1" y2="1">
      <stop offset="0%" stop-color="#2c1030"/>
      <stop offset="50%" stop-color="#5d183b"/>
      <stop offset="100%" stop-color="#1d1029"/>
    </linearGradient>
    <filter id="shadow" x="-20%" y="-20%" width="140%" height="140%">
      <feDropShadow dx="0" dy="12" stdDeviation="20" flood-color="#120812" flood-opacity=".28"/>
    </filter>
  </defs>
  <rect width="880" height="600" rx="18" fill="#0b0b0d"/>
  <rect x="32" y="24" width="816" height="532" rx="12" fill="url(#bg)"/>
  <rect x="32" y="24" width="816" height="16" rx="12" fill="#efebe4"/>
  <circle cx="48" cy="32" r="4" fill="#ff5f57"/>
  <circle cx="62" cy="32" r="4" fill="#febc2e"/>
  <circle cx="76" cy="32" r="4" fill="#28c840"/>
  <rect x="78" y="72" width="738" height="454" rx="18" fill="#fcfbfb" filter="url(#shadow)"/>
  
  <rect x="32" y="40" width="816" height="28" fill="#181818"/>
  <text x="440" y="59" text-anchor="middle" font-size="13" fill="#f2f2f2" font-family="Helvetica, Arial, sans-serif">May 14 06:22</text>
  <rect x="32" y="68" width="42" height="468" fill="#251a28" opacity=".82"/>
  <g fill="#f0f0f0" opacity=".98">
    <circle cx="54" cy="86" r="8"/><circle cx="54" cy="132" r="8"/><circle cx="54" cy="178" r="8"/><circle cx="54" cy="224" r="8"/><circle cx="54" cy="270" r="8"/><circle cx="54" cy="316" r="8"/><circle cx="54" cy="362" r="8"/><circle cx="54" cy="408" r="8"/><circle cx="54" cy="500" r="8"/>
  </g>
  <rect x="778" y="394" width="46" height="68" rx="4" fill="#e95420" opacity=".92"/>
  <rect x="782" y="398" width="24" height="24" rx="4" fill="#fff" opacity=".9"/>
  <text x="801" y="446" text-anchor="middle" font-size="8" fill="#fff" font-family="Helvetica, Arial, sans-serif">Install Ubuntu</text>
  <rect x="786" y="474" width="30" height="30" rx="4" fill="#6f626f" opacity=".65"/>
  <text x="801" y="524" text-anchor="middle" font-size="9" fill="#fff" font-family="Helvetica, Arial, sans-serif">Home</text>
  <text x="447" y="90" text-anchor="middle" font-size="14" fill="#7c7178" font-family="Helvetica, Arial, sans-serif">手动分区</text>
  <circle cx="772" cy="88" r="8" fill="#f3f0f2" stroke="#d8d1d5"/>
  <path d="M768 84l8 8M776 84l-8 8" stroke="#8f838c" stroke-width="1.5"/>
  
  <rect x="170" y="106" width="582" height="11" rx="4" fill="#f4f1f3" stroke="#ded6da"/>
  <circle cx="180" cy="158" r="4" fill="#fff" stroke="#cfc7cb"/>
  <text x="191" y="160" font-size="10" fill="#776c73" font-family="PingFang SC, Helvetica, Arial, sans-serif">剩余空间</text>
  <text x="181" y="173" font-size="10" fill="#8d8389" font-family="Helvetica, Arial, sans-serif">68.72 GB</text>

  <rect x="170" y="186" width="582" height="220" rx="4" fill="#fff" stroke="#d9d2d6"/>
  <rect x="170" y="186" width="582" height="28" rx="4" fill="#f8f6f7"/>
  <text x="185" y="204" font-size="10" fill="#7d7279" font-family="PingFang SC, Helvetica, Arial, sans-serif">设备</text>
  <text x="328" y="204" font-size="10" fill="#7d7279" font-family="PingFang SC, Helvetica, Arial, sans-serif">类型</text>
  <text x="412" y="204" font-size="10" fill="#7d7279" font-family="PingFang SC, Helvetica, Arial, sans-serif">挂载点</text>
  <text x="501" y="204" font-size="10" fill="#7d7279" font-family="PingFang SC, Helvetica, Arial, sans-serif">大小</text>
  <text x="599" y="204" font-size="10" fill="#7d7279" font-family="PingFang SC, Helvetica, Arial, sans-serif">系统</text>
  <text x="682" y="204" font-size="10" fill="#7d7279" font-family="PingFang SC, Helvetica, Arial, sans-serif">格式化</text>
  <g fill="#5e535a" font-family="Helvetica, Arial, sans-serif">
    <rect x="170" y="214" width="582" height="24" fill="#fff"/>
    <rect x="170" y="238" width="582" height="24" fill="#fbf0eb"/>
    <rect x="186" y="222" width="8" height="8" rx="1.5" fill="none" stroke="#6f646b"/>
    <path d="M188 226l2 2 4-4" fill="none" stroke="#6f646b" stroke-width="1.2" stroke-linecap="round" stroke-linejoin="round"/>
    <text x="208" y="230" font-size="12">sda</text>
    <rect x="210" y="246" width="8" height="8" rx="1.5" fill="none" stroke="#9e9399"/>
    <path d="M212 250l2 2 4-4" fill="none" stroke="#9e9399" stroke-width="1.2" stroke-linecap="round" stroke-linejoin="round"/>
    <text x="232" y="254" font-size="11" fill="#7a6f76" font-family="PingFang SC, Helvetica, Arial, sans-serif">剩余空间</text>
  </g>

  <rect x="170" y="418" width="38" height="22" rx="4" fill="#f6f4f5" stroke="#ddd6da"/>
  <text x="189" y="433" text-anchor="middle" font-size="16" fill="#6e636a" font-family="Helvetica, Arial, sans-serif">+</text>
  <rect x="211" y="418" width="38" height="22" rx="4" fill="#f6f4f5" stroke="#ddd6da"/>
  <text x="230" y="433" text-anchor="middle" font-size="16" fill="#c5bec2" font-family="Helvetica, Arial, sans-serif">−</text>
  <rect x="252" y="418" width="38" height="22" rx="4" fill="#f6f4f5" stroke="#ddd6da"/>
  <text x="271" y="432" text-anchor="middle" font-size="10" fill="#c5bec2" font-family="PingFang SC, Helvetica, Arial, sans-serif">更改</text>
  <rect x="640" y="418" width="62" height="22" rx="4" fill="#f6f4f5" stroke="#ddd6da"/>
  <text x="671" y="432" text-anchor="middle" font-size="10" fill="#c5bec2" font-family="PingFang SC, Helvetica, Arial, sans-serif">新建分区表</text>
  <rect x="706" y="418" width="46" height="22" rx="4" fill="#f6f4f5" stroke="#ddd6da"/>
  <text x="729" y="432" text-anchor="middle" font-size="10" fill="#7f737a" font-family="PingFang SC, Helvetica, Arial, sans-serif">撤销</text>
  <rect x="170" y="450" width="150" height="22" rx="4" fill="#f6f4f5" stroke="#ddd6da"/>
  <text x="178" y="465" font-size="10" fill="#7a6f76" font-family="PingFang SC, Helvetica, Arial, sans-serif">用于安装引导程序的设备</text>
  <rect x="170" y="488" width="80" height="30" rx="5" fill="#fff" stroke="#d8d1d5"/>
  <text x="210" y="507" text-anchor="middle" font-size="12" fill="#7f737a" font-family="PingFang SC, Helvetica, Arial, sans-serif">返回</text>
  <rect x="78" y="96" width="738" height="430" rx="18" fill="#7b7378" opacity=".28"/>
  <g transform="translate(294 214)">
    <rect width="330" height="196" rx="6" fill="#fff" stroke="#ddd5da"/>
    <rect width="330" height="28" rx="6" fill="#fbf9fa"/>
    <text x="165" y="18" text-anchor="middle" font-size="12" fill="#6f656b" font-family="PingFang SC, Helvetica, Arial, sans-serif">创建分区</text>
    <circle cx="314" cy="14" r="7" fill="#f5f2f3" stroke="#d9d1d5"/>
    <path d="M310 10l8 8M318 10l-8 8" stroke="#8f838c" stroke-width="1.2"/>

    <text x="22" y="58" font-size="12" fill="#6b6168" font-family="PingFang SC, Helvetica, Arial, sans-serif">大小:</text>
    <rect x="60" y="42" width="152" height="24" rx="4" fill="#f6f3f4" stroke="#ded7db"/>
    <text x="77" y="58" font-size="16" fill="#6d6369" font-family="Helvetica, Arial, sans-serif">−</text>
    <text x="136" y="58" text-anchor="middle" font-size="14" fill="#7c7278" font-family="Helvetica, Arial, sans-serif">68717</text>
    <text x="189" y="58" font-size="16" fill="#6d6369" font-family="Helvetica, Arial, sans-serif">+</text>
    <rect x="220" y="42" width="52" height="24" rx="4" fill="#fff" stroke="#ded7db"/>
    <text x="236" y="58" font-size="11" fill="#6b6168" font-family="Helvetica, Arial, sans-serif">MB</text>
    <path d="M253 52l4 4 4-4" fill="none" stroke="#a0969c" stroke-width="1.2" stroke-linecap="round" stroke-linejoin="round"/>

    <text x="22" y="96" font-size="12" fill="#6b6168" font-family="PingFang SC, Helvetica, Arial, sans-serif">用于:</text>
    <rect x="60" y="80" width="260" height="24" rx="4" fill="#fff" stroke="#ded7db"/>
    <text x="72" y="96" font-size="12" fill="#5a5057" font-family="Helvetica, Arial, sans-serif">Ext4</text>
    <path d="M298 90l4 4 4-4" fill="none" stroke="#a0969c" stroke-width="1.2" stroke-linecap="round" stroke-linejoin="round"/>

    <text x="22" y="134" font-size="12" fill="#6b6168" font-family="PingFang SC, Helvetica, Arial, sans-serif">挂载点:</text>
    <rect x="60" y="118" width="260" height="22" rx="4" fill="#fff" stroke="#4a4a4a"/>
    <text x="66" y="134" font-size="18" fill="#4a4a4a" font-family="Helvetica, Arial, sans-serif">|</text>

    <rect x="60" y="142" width="260" height="100" rx="0 0 4 4" fill="#fff" stroke="#ded7db"/>
    <rect x="60" y="142" width="260" height="28" fill="#ececec"/>
    <text x="65" y="164" font-size="18" fill="#4a4a4a" font-family="Helvetica, Arial, sans-serif">/</text>
    <text x="63" y="186" font-size="11" fill="#5f555b" font-family="Helvetica, Arial, sans-serif">/boot</text>
    <text x="63" y="210" font-size="11" fill="#5f555b" font-family="Helvetica, Arial, sans-serif">/home</text>
    <text x="63" y="234" font-size="11" fill="#5f555b" font-family="Helvetica, Arial, sans-serif">/tmp</text>
  </g>

  <rect x="688" y="488" width="92" height="30" rx="8" fill="#f2f2f3"/>
  <text x="734" y="507" text-anchor="middle" font-size="14" fill="#aca5ab" font-family="PingFang SC, Helvetica, Arial, sans-serif">下一步</text>
  <g transform="translate(384 500)">
    <circle cx="0" cy="0" r="4" fill="#d6cfd3"/><circle cx="14" cy="0" r="4" fill="#d6cfd3"/><circle cx="28" cy="0" r="4" fill="#d6cfd3"/><circle cx="42" cy="0" r="4" fill="#d6cfd3"/><circle cx="56" cy="0" r="4" fill="#d6cfd3"/><circle cx="70" cy="0" r="4" fill="#d6cfd3"/><circle cx="84" cy="0" r="4" fill="#e95420"/><circle cx="98" cy="0" r="4" fill="#d6cfd3"/><circle cx="112" cy="0" r="4" fill="#d6cfd3"/><circle cx="126" cy="0" r="4" fill="#d6cfd3"/>
  </g>

</svg>
