<svg xmlns="http://www.w3.org/2000/svg" viewBox="0 0 880 600" role="img" aria-labelledby="title desc">
  <title id="title">Ubuntu 22.04 completed partition table mockup</title>
  <desc id="desc">A simplified SVG template of the Ubuntu 22.04 manual partition screen after creating partitions.</desc>
  <defs>
    <linearGradient id="bg" x1="0" y1="0" x2="1" y2="1">
      <stop offset="0%" stop-color="#2c1030"/>
      <stop offset="50%" stop-color="#5d183b"/>
      <stop offset="100%" stop-color="#1d1029"/>
    </linearGradient>
    <filter id="shadow" x="-20%" y="-20%" width="140%" height="140%">
      <feDropShadow dx="0" dy="12" stdDeviation="20" flood-color="#120812" flood-opacity=".28"/>
    </filter>
  </defs>
  <rect width="880" height="600" rx="18" fill="#0b0b0d"/>
  <rect x="32" y="24" width="816" height="532" rx="12" fill="url(#bg)"/>
  <rect x="32" y="24" width="816" height="16" rx="12" fill="#efebe4"/>
  <circle cx="48" cy="32" r="4" fill="#ff5f57"/>
  <circle cx="62" cy="32" r="4" fill="#febc2e"/>
  <circle cx="76" cy="32" r="4" fill="#28c840"/>
  <rect x="78" y="72" width="738" height="454" rx="18" fill="#fcfbfb" filter="url(#shadow)"/>
  
  <defs>
    <linearGradient id="bg2204" x1="0" y1="0" x2="1" y2="1">
      <stop offset="0%" stop-color="#c53146"/>
      <stop offset="100%" stop-color="#4b014f"/>
    </linearGradient>
    <filter id="shadow2204" x="-20%" y="-20%" width="140%" height="140%">
      <feDropShadow dx="0" dy="10" stdDeviation="18" flood-color="#120812" flood-opacity=".30"/>
    </filter>
  </defs>
  <rect x="32" y="24" width="816" height="532" rx="12" fill="url(#bg2204)"/>
  <path d="M120 230l220-90 150 48-238 120Z" fill="#d34a64" opacity=".15"/>
  <path d="M420 116l92-42 38 98-128 26Z" fill="#e06b7a" opacity=".12"/>
  <path d="M590 184l94-56 42 112-112 60Z" fill="#8a1a6a" opacity=".16"/>
  <rect x="164" y="78" width="552" height="438" rx="6" fill="#fff" filter="url(#shadow2204)"/>
  <rect x="164" y="78" width="552" height="24" rx="6" fill="#2f2d2f"/>
  <text x="440" y="95" text-anchor="middle" font-size="13" fill="#fff" font-family="PingFang SC, Helvetica, Arial, sans-serif">安装</text>
  <circle cx="690" cy="90" r="7" fill="#e95420"/>
  <path d="M686 86l8 8M694 86l-8 8" stroke="#fff" stroke-width="1.5"/>
  
  <text x="176" y="134" font-size="16" fill="#3e3940" font-family="PingFang SC, Helvetica, Arial, sans-serif">安装类型</text>
  <rect x="178" y="174" width="520" height="10" fill="#f3f1f3" stroke="#d9d1d5"/>
  <rect x="178" y="196" width="520" height="150" fill="#fff" stroke="#d9d1d5"/>
  <rect x="178" y="210" width="16" height="10" fill="#9ad94f"/><rect x="196" y="210" width="38" height="10" fill="#d8d8d8"/><rect x="236" y="210" width="36" height="10" fill="#f0a03a"/><rect x="274" y="210" width="190" height="10" fill="#e95420"/>
  <text x="188" y="232" font-size="10" fill="#5f565d" font-family="Helvetica, Arial, sans-serif">sda1 EFI</text>
  <text x="248" y="232" font-size="10" fill="#5f565d" font-family="Helvetica, Arial, sans-serif">sda2 /boot</text>
  <text x="324" y="232" font-size="10" fill="#5f565d" font-family="Helvetica, Arial, sans-serif">sda3 swap</text>
  <text x="402" y="232" font-size="10" fill="#5f565d" font-family="Helvetica, Arial, sans-serif">sda4 /</text>
  <rect x="178" y="284" width="520" height="16" fill="#e95420"/>
  <text x="186" y="296" font-size="10" fill="#fff" font-family="PingFang SC, Helvetica, Arial, sans-serif">空闲</text>
  <text x="188" y="324" font-size="10" fill="#5f565d" font-family="PingFang SC, Helvetica, Arial, sans-serif">安装启动引导器的设备：/dev/sda</text>

  <rect x="484" y="462" width="64" height="20" rx="3" fill="#fff" stroke="#d9d1d5"/>
  <text x="516" y="476" text-anchor="middle" font-size="11" fill="#6c6168" font-family="PingFang SC, Helvetica, Arial, sans-serif">退出(Q)</text>
  <rect x="554" y="462" width="64" height="20" rx="3" fill="#fff" stroke="#d9d1d5"/>
  <text x="586" y="476" text-anchor="middle" font-size="11" fill="#6c6168" font-family="PingFang SC, Helvetica, Arial, sans-serif">后退(B)</text>
  <rect x="624" y="462" width="64" height="20" rx="3" fill="#fff" stroke="#d6cfd3"/>
  <text x="656" y="476" text-anchor="middle" font-size="11" fill="#6a6067" font-family="Helvetica, Arial, sans-serif">现在安装(I)</text>
  <g transform="translate(388 524)">
    <circle cx="0" cy="0" r="5" fill="#8c4d92" stroke="#8c4d92" stroke-width="1.5"/><circle cx="18" cy="0" r="5" fill="#8c4d92" stroke="#8c4d92" stroke-width="1.5"/><circle cx="36" cy="0" r="5" fill="#8c4d92" stroke="#8c4d92" stroke-width="1.5"/><circle cx="54" cy="0" r="5" fill="#8c4d92" stroke="#8c4d92" stroke-width="1.5"/><circle cx="72" cy="0" r="5" fill="#8c4d92" stroke="#8c4d92" stroke-width="1.5"/><circle cx="90" cy="0" r="5" fill="#fff" stroke="#8c4d92" stroke-width="1.5"/><circle cx="108" cy="0" r="5" fill="#fff" stroke="#8c4d92" stroke-width="1.5"/>
  </g>

</svg>
