<svg width="4354" height="798" xmlns="http://www.w3.org/2000/svg" xmlns:xlink="http://www.w3.org/1999/xlink" xml:space="preserve" overflow="hidden"><g transform="translate(-18 -59)"><g><path d="M0.117498-6.874 506.4 1.77995 506.165 15.5279-0.117498 6.874ZM469.016-21.9884 519.926 8.88716 467.99 38.0048C464.678 39.8616 460.488 38.682 458.631 35.3701 456.775 32.0581 457.954 27.868 461.266 26.0111L502.921 2.65715 502.718 14.5324 461.886-10.2316 461.886-10.2316C458.639-12.2006 457.603-16.4286 459.572-19.6751 461.541-22.9217 465.769-23.9574 469.016-21.9884Z" fill="#A6A6A6" fill-rule="nonzero" fill-opacity="1" transform="matrix(1 0 0 -1 359 215.887)"/><path d="M1.24648e-06-6.875 1976.91-6.87464 1976.91 6.87536-1.24648e-06 6.875ZM1939.12-30.0006 1990.55 0.000360307 1939.12 30.0013C1935.84 31.9145 1931.63 30.8067 1929.72 27.527 1927.8 24.2472 1928.91 20.0375 1932.19 18.1244L1932.19 18.1244 1973.44-5.93812 1973.44 5.93884 1932.19-18.1237C1928.91-20.0368 1927.8-24.2465 1929.72-27.5263 1931.63-30.806 1935.84-31.9138 1939.12-30.0006Z" fill="#A6A6A6" fill-rule="nonzero" fill-opacity="1" transform="matrix(-1 0 0 1 3201.52 207)"/><path d="M2373 617.125 2414.25 617.125 2414.25 630.875 2373 630.875ZM2428 617.125 2469.25 617.125 2469.25 630.875 2428 630.875ZM2483 617.125 2524.25 617.125 2524.25 630.875 2483 630.875ZM2538 617.125 2579.25 617.125 2579.25 630.875 2538 630.875ZM2593 617.125 2634.25 617.125 2634.25 630.875 2593 630.875ZM2648 617.125 2689.25 617.125 2689.25 630.875 2648 630.875ZM2703 617.125 2744.25 617.125 2744.25 630.875 2703 630.875ZM2758 617.125 2799.25 617.125 2799.25 630.875 2758 630.875ZM2813 617.125 2854.25 617.125 2854.25 630.875 2813 630.875ZM2868 617.125 2909.25 617.125 2909.25 630.875 2868 630.875ZM2923 617.125 2964.25 617.125 2964.25 630.875 2923 630.875ZM2978 617.125 3019.25 617.125 3019.25 630.875 2978 630.875ZM3033 617.125 3074.25 617.125 3074.25 630.875 3033 630.875ZM3088 617.125 3129.25 617.125 3129.25 630.875 3088 630.875ZM3143 617.125 3184.25 617.125 3184.25 630.875 3143 630.875ZM3198 617.125 3239.25 617.125 3239.25 630.875 3198 630.875ZM3253 617.125 3294.25 617.125 3294.25 630.875 3253 630.875ZM3308 617.125 3349.25 617.125 3349.25 630.875 3308 630.875ZM3363 617.125 3404.25 617.125 3404.25 630.875 3363 630.875ZM3418 617.125 3459.25 617.125 3459.25 630.875 3418 630.875ZM3473 617.125 3514.25 617.125 3514.25 630.875 3473 630.875ZM3528 617.125 3569.25 617.125 3569.25 630.875 3528 630.875ZM3583 617.125 3624.25 617.125 3624.25 630.875 3583 630.875ZM3638 617.125 3679.25 617.125 3679.25 630.875 3638 630.875ZM3693 617.125 3734.25 617.125 3734.25 630.875 3693 630.875ZM3748 617.125 3789.25 617.125 3789.25 630.875 3748 630.875ZM3803 617.125 3844.25 617.125 3844.25 630.875 3803 630.875ZM3858 617.125 3899.25 617.125 3899.25 630.875 3858 630.875ZM3913 617.125 3954.25 617.125 3954.25 630.875 3913 630.875ZM3968 617.125 4009.25 617.125 4009.25 630.875 3968 630.875ZM3979.37 593.999 4030.8 624 3979.37 654.001C3976.09 655.914 3971.88 654.807 3969.97 651.527 3968.05 648.247 3969.16 644.037 3972.44 642.124L3972.44 642.124 4013.69 618.062 4013.69 629.939 3972.44 605.876C3969.16 603.963 3968.05 599.753 3969.97 596.474 3971.88 593.194 3976.09 592.086 3979.37 593.999Z" fill="#A6A6A6" fill-rule="nonzero" fill-opacity="1"/><path d="M1212.4 312.268 2138.44 504.371 2135.64 517.835 1209.6 325.732ZM2106.14 474.053 2150.4 513.875 2093.95 532.804C2090.35 534.011 2086.45 532.071 2085.24 528.471 2084.04 524.871 2085.98 520.974 2089.58 519.767L2134.86 504.585 2132.44 516.214 2096.94 484.275C2094.12 481.735 2093.89 477.388 2096.43 474.565 2098.97 471.743 2103.31 471.513 2106.14 474.053Z" fill="#A6A6A6" fill-rule="nonzero" fill-opacity="1"/><path d="M2038.97 630.6 1112.93 438.497 1115.73 425.033 2041.77 617.136ZM1145.23 468.816 1100.97 428.994 1157.42 410.064C1161.02 408.857 1164.92 410.797 1166.12 414.397 1167.33 417.997 1165.39 421.894 1161.79 423.101L1116.51 438.283 1118.93 426.654 1154.43 458.594C1157.25 461.133 1157.48 465.48 1154.94 468.303 1152.4 471.125 1148.06 471.355 1145.23 468.816Z" fill="#A6A6A6" fill-rule="nonzero" fill-opacity="1"/><path d="M1.39646-6.73168 927.443 185.373 924.65 198.836-1.39646 6.73168ZM895.137 155.053 939.401 194.875 882.949 213.804C879.349 215.011 875.452 213.071 874.245 209.471 873.038 205.871 874.978 201.974 878.578 200.767L923.856 185.585 921.443 197.214 885.941 165.275C883.118 162.735 882.888 158.388 885.428 155.565 887.967 152.743 892.314 152.513 895.137 155.053Z" fill="#A6A6A6" fill-rule="nonzero" fill-opacity="1" transform="matrix(1 0 0 -1 2262 513.868)"/><text fill="#000000" fill-opacity="1" font-family="Smiley Sans Oblique,Smiley Sans Oblique_MSFontService,sans-serif" font-style="oblique" font-variant="normal" font-weight="400" font-stretch="normal" font-size="92" text-anchor="start" direction="ltr" writing-mode="lr-tb" unicode-bidi="normal" text-decoration="none" transform="matrix(0.976129 0.21719 -0.21719 0.976129 1638.19 376)">被调度</text><text fill="#000000" fill-opacity="1" font-family="Smiley Sans Oblique,Smiley Sans Oblique_MSFontService,sans-serif" font-style="oblique" font-variant="normal" font-weight="400" font-stretch="normal" font-size="92" text-anchor="start" direction="ltr" writing-mode="lr-tb" unicode-bidi="normal" text-decoration="none" transform="matrix(1 0 0 1 2145.29 177)">事件完成</text><text fill="#000000" fill-opacity="1" font-family="Smiley Sans Oblique,Smiley Sans Oblique_MSFontService,sans-serif" font-style="oblique" font-variant="normal" font-weight="400" font-stretch="normal" font-size="92" text-anchor="start" direction="ltr" writing-mode="lr-tb" unicode-bidi="normal" text-decoration="none" transform="matrix(0.976712 -0.214556 0.214556 0.976712 2408.28 451)">等待事件</text><text fill="#000000" fill-opacity="1" font-family="Smiley Sans Oblique,Smiley Sans Oblique_MSFontService,sans-serif" font-style="oblique" font-variant="normal" font-weight="400" font-stretch="normal" font-size="92" text-anchor="start" direction="ltr" writing-mode="lr-tb" unicode-bidi="normal" text-decoration="none" transform="matrix(0.978122 0.208033 -0.208033 0.978122 1510.66 611)">时间片用完</text><path d="M26.0001 215.555C26.0001 124.513 45.5124 105 136.556 105L248.444 105C339.484 105 359 124.513 359 215.555L359 327.445C359 418.487 339.488 438 248.444 438L136.556 438C45.5158 438 26.0001 418.487 26.0001 327.445L26.0001 215.555" stroke="#7030A0" stroke-width="13.75" stroke-linecap="butt" stroke-linejoin="miter" stroke-miterlimit="8" stroke-opacity="1" fill="#F2E0F0" fill-rule="evenodd" fill-opacity="1"/><text fill="#000000" fill-opacity="1" font-family="Smiley Sans Oblique,Smiley Sans Oblique_MSFontService,sans-serif" font-style="oblique" font-variant="normal" font-weight="400" font-stretch="normal" font-size="110" text-anchor="start" direction="ltr" writing-mode="lr-tb" unicode-bidi="normal" text-decoration="none" transform="matrix(1 0 0 1 104.122 313)">创建</text><path d="M879 206.555C879 115.513 898.454 95.9999 989.224 95.9999L1100.78 95.9999C1191.54 95.9999 1211 115.513 1211 206.555L1211 318.445C1211 409.487 1191.55 429 1100.78 429L989.224 429C898.457 429 879 409.487 879 318.445L879 206.555" stroke="#00B050" stroke-width="13.75" stroke-linecap="butt" stroke-linejoin="miter" stroke-miterlimit="8" stroke-opacity="1" fill="#E2FEEE" fill-rule="evenodd" fill-opacity="1"/><text fill="#000000" fill-opacity="1" font-family="Smiley Sans Oblique,Smiley Sans Oblique_MSFontService,sans-serif" font-style="oblique" font-variant="normal" font-weight="400" font-stretch="normal" font-size="110" text-anchor="start" direction="ltr" writing-mode="lr-tb" unicode-bidi="normal" text-decoration="none" transform="matrix(1 0 0 1 956.687 304)">就绪</text><path d="M3202 206.555C3202 115.513 3221.45 95.9999 3312.22 95.9999L3423.78 95.9999C3514.54 95.9999 3534 115.513 3534 206.555L3534 318.445C3534 409.487 3514.55 429 3423.78 429L3312.22 429C3221.46 429 3202 409.487 3202 318.445L3202 206.555" stroke="#FF9300" stroke-width="13.75" stroke-linecap="butt" stroke-linejoin="miter" stroke-miterlimit="8" stroke-opacity="1" fill="#FFF2E0" fill-rule="evenodd" fill-opacity="1"/><text fill="#000000" fill-opacity="1" font-family="Smiley Sans Oblique,Smiley Sans Oblique_MSFontService,sans-serif" font-style="oblique" font-variant="normal" font-weight="400" font-stretch="normal" font-size="110" text-anchor="start" direction="ltr" writing-mode="lr-tb" unicode-bidi="normal" text-decoration="none" transform="matrix(1 0 0 1 3279.87 304)">阻塞</text><path d="M2040 623.555C2040 532.513 2059.51 513 2150.56 513L2262.44 513C2353.48 513 2373 532.513 2373 623.555L2373 735.445C2373 826.487 2353.49 846 2262.44 846L2150.56 846C2059.52 846 2040 826.487 2040 735.445L2040 623.555" stroke="#0092FB" stroke-width="13.75" stroke-linecap="butt" stroke-linejoin="miter" stroke-miterlimit="8" stroke-opacity="1" fill="#E9FAFF" fill-rule="evenodd" fill-opacity="1"/><text fill="#000000" fill-opacity="1" font-family="Smiley Sans Oblique,Smiley Sans Oblique_MSFontService,sans-serif" font-style="oblique" font-variant="normal" font-weight="400" font-stretch="normal" font-size="110" text-anchor="start" direction="ltr" writing-mode="lr-tb" unicode-bidi="normal" text-decoration="none" transform="matrix(1 0 0 1 2118.28 721)">运行</text><path d="M4031 623.555C4031 532.513 4050.45 513 4141.22 513L4252.78 513C4343.54 513 4363 532.513 4363 623.555L4363 735.445C4363 826.487 4343.55 846 4252.78 846L4141.22 846C4050.46 846 4031 826.487 4031 735.445L4031 623.555" stroke="#000000" stroke-width="13.75" stroke-linecap="butt" stroke-linejoin="miter" stroke-miterlimit="8" stroke-opacity="1" fill="#F2F2F2" fill-rule="evenodd" fill-opacity="1"/><text fill="#000000" fill-opacity="1" font-family="Smiley Sans Oblique,Smiley Sans Oblique_MSFontService,sans-serif" font-style="oblique" font-variant="normal" font-weight="400" font-stretch="normal" font-size="110" text-anchor="start" direction="ltr" writing-mode="lr-tb" unicode-bidi="normal" text-decoration="none" transform="matrix(1 0 0 1 4108.72 721)">结束</text></g></g></svg>