<svg width="4354" height="1265" xmlns="http://www.w3.org/2000/svg" xmlns:xlink="http://www.w3.org/1999/xlink" xml:space="preserve" overflow="hidden"><g transform="translate(-18 -1320)"><g><path d="M751.5 2119.93C751.5 2095.39 771.393 2075.5 795.932 2075.5L3618.07 2075.5C3642.61 2075.5 3662.5 2095.39 3662.5 2119.93L3662.5 2533.07C3662.5 2557.61 3642.61 2577.5 3618.07 2577.5L795.932 2577.5C771.393 2577.5 751.5 2557.61 751.5 2533.07Z" stroke="#BFBFBF" stroke-width="9.16667" stroke-linecap="butt" stroke-linejoin="miter" stroke-miterlimit="8" stroke-dasharray="36.6667 27.5" stroke-opacity="1" fill="#F2F2F2" fill-rule="evenodd" fill-opacity="0.501961"/><path d="M2.70211-6.32173 510.08 210.548 504.676 223.191-2.70211 6.32173ZM484.423 174.431 519.923 222.232 460.841 229.604C457.073 230.075 453.637 227.401 453.167 223.634 452.697 219.866 455.37 216.43 459.138 215.96L506.526 210.047 501.858 220.968 473.385 182.629C471.121 179.581 471.757 175.275 474.805 173.011 477.853 170.747 482.16 171.383 484.423 174.431Z" fill="#A6A6A6" fill-rule="nonzero" fill-opacity="1" transform="matrix(1 0 0 -1 359 1803.22)"/><path d="M362.912 1909.35 871.613 2261.35 863.789 2272.66 355.088 1920.65ZM853.699 2220.83 878.92 2274.77 819.557 2270.18C815.771 2269.88 812.94 2266.58 813.233 2262.79 813.526 2259 816.832 2256.17 820.618 2256.47L868.231 2260.15 861.472 2269.92 841.244 2226.66C839.635 2223.22 841.12 2219.13 844.559 2217.52 847.999 2215.91 852.091 2217.39 853.699 2220.83Z" fill="#A6A6A6" fill-rule="nonzero" fill-opacity="1"/><path d="M1.24648e-06-6.875 1976.91-6.87464 1976.91 6.87536-1.24648e-06 6.875ZM1939.12-30.0006 1990.55 0.000360307 1939.12 30.0013C1935.84 31.9145 1931.63 30.8067 1929.72 27.527 1927.8 24.2472 1928.91 20.0375 1932.19 18.1244L1932.19 18.1244 1973.44-5.93812 1973.44 5.93884 1932.19-18.1237C1928.91-20.0368 1927.8-24.2465 1929.72-27.5263 1931.63-30.806 1935.84-31.9138 1939.12-30.0006Z" fill="#A6A6A6" fill-rule="nonzero" fill-opacity="1" transform="matrix(-1 0 0 1 3201.52 2387)"/><path d="M6.875-5.24707e-06 6.87535 459.248-6.87465 459.248-6.875 5.24707e-06ZM30.0013 421.463 0.000358035 472.893-30.0007 421.463C-31.9138 418.183-30.806 413.973-27.5263 412.06-24.2466 410.147-20.0369 411.255-18.1237 414.534L-18.1237 414.534 5.93883 455.784-5.93813 455.784 18.1243 414.534C20.0375 411.255 24.2472 410.147 27.5269 412.06 30.8067 413.973 31.9145 418.183 30.0013 421.463Z" fill="#A6A6A6" fill-rule="nonzero" fill-opacity="1" transform="matrix(1 0 0 -1 1101 2164.86)"/><path d="M995.875 1692 995.875 2151.25 982.125 2151.25 982.125 1692ZM1019 2113.46 989 2164.89 958.999 2113.46C957.086 2110.18 958.194 2105.97 961.474 2104.06 964.753 2102.15 968.963 2103.25 970.876 2106.53L970.876 2106.53 994.939 2147.78 983.062 2147.78 1007.12 2106.53C1009.04 2103.25 1013.25 2102.15 1016.53 2104.06 1019.81 2105.97 1020.91 2110.18 1019 2113.46Z" fill="#A6A6A6" fill-rule="nonzero" fill-opacity="1"/><path d="M1.24648e-06-6.875 1976.91-6.87464 1976.91 6.87536-1.24648e-06 6.875ZM1939.12-30.0006 1990.55 0.000360307 1939.12 30.0013C1935.84 31.9145 1931.63 30.8067 1929.72 27.527 1927.8 24.2472 1928.91 20.0375 1932.19 18.1244L1932.19 18.1244 1973.44-5.93812 1973.44 5.93884 1932.19-18.1237C1928.91-20.0368 1927.8-24.2465 1929.72-27.5263 1931.63-30.806 1935.84-31.9138 1939.12-30.0006Z" fill="#A6A6A6" fill-rule="nonzero" fill-opacity="1" transform="matrix(-1 0 0 1 3201.52 1469)"/><path d="M6.875-5.24707e-06 6.87535 459.248-6.87465 459.248-6.875 5.24707e-06ZM30.0013 421.463 0.000358035 472.893-30.0007 421.463C-31.9138 418.183-30.806 413.973-27.5263 412.06-24.2466 410.147-20.0369 411.255-18.1237 414.534L-18.1237 414.534 5.93883 455.784-5.93813 455.784 18.1243 414.534C20.0375 411.255 24.2472 410.147 27.5269 412.06 30.8067 413.973 31.9145 418.183 30.0013 421.463Z" fill="#A6A6A6" fill-rule="nonzero" fill-opacity="1" transform="matrix(1 0 0 -1 3312 2164.86)"/><path d="M3430.88 1692 3430.88 2151.25 3417.13 2151.25 3417.12 1692ZM3454 2113.46 3424 2164.89 3394 2113.46C3392.09 2110.18 3393.19 2105.97 3396.47 2104.06 3399.75 2102.15 3403.96 2103.25 3405.88 2106.53L3405.88 2106.53 3429.94 2147.78 3418.06 2147.78 3442.12 2106.53C3444.04 2103.25 3448.25 2102.15 3451.53 2104.06 3454.81 2105.97 3455.91 2110.18 3454 2113.46Z" fill="#A6A6A6" fill-rule="nonzero" fill-opacity="1"/><path d="M2373 1796.12 2414.25 1796.12 2414.25 1809.88 2373 1809.88ZM2428 1796.12 2469.25 1796.12 2469.25 1809.88 2428 1809.88ZM2483 1796.12 2524.25 1796.12 2524.25 1809.88 2483 1809.88ZM2538 1796.12 2579.25 1796.12 2579.25 1809.88 2538 1809.88ZM2593 1796.12 2634.25 1796.12 2634.25 1809.88 2593 1809.88ZM2648 1796.12 2689.25 1796.13 2689.25 1809.88 2648 1809.88ZM2703 1796.13 2744.25 1796.13 2744.25 1809.88 2703 1809.88ZM2758 1796.13 2799.25 1796.13 2799.25 1809.88 2758 1809.88ZM2813 1796.13 2854.25 1796.13 2854.25 1809.88 2813 1809.88ZM2868 1796.13 2909.25 1796.13 2909.25 1809.88 2868 1809.88ZM2923 1796.13 2964.25 1796.13 2964.25 1809.88 2923 1809.88ZM2978 1796.13 3019.25 1796.13 3019.25 1809.88 2978 1809.88ZM3033 1796.13 3074.25 1796.13 3074.25 1809.88 3033 1809.88ZM3088 1796.13 3129.25 1796.13 3129.25 1809.88 3088 1809.88ZM3143 1796.13 3184.25 1796.13 3184.25 1809.88 3143 1809.88ZM3198 1796.13 3239.25 1796.13 3239.25 1809.88 3198 1809.88ZM3253 1796.13 3294.25 1796.13 3294.25 1809.88 3253 1809.88ZM3308 1796.13 3349.25 1796.13 3349.25 1809.88 3308 1809.88ZM3363 1796.13 3404.25 1796.13 3404.25 1809.88 3363 1809.88ZM3418 1796.13 3459.25 1796.13 3459.25 1809.88 3418 1809.88ZM3473 1796.13 3514.25 1796.13 3514.25 1809.88 3473 1809.88ZM3528 1796.13 3569.25 1796.13 3569.25 1809.88 3528 1809.88ZM3583 1796.13 3624.25 1796.13 3624.25 1809.88 3583 1809.88ZM3638 1796.13 3679.25 1796.13 3679.25 1809.88 3638 1809.88ZM3693 1796.13 3734.25 1796.13 3734.25 1809.88 3693 1809.88ZM3748 1796.13 3789.25 1796.13 3789.25 1809.88 3748 1809.88ZM3803 1796.13 3844.25 1796.13 3844.25 1809.88 3803 1809.88ZM3858 1796.13 3899.25 1796.13 3899.25 1809.88 3858 1809.88ZM3913 1796.13 3954.25 1796.13 3954.25 1809.88 3913 1809.88ZM3968 1796.13 4009.25 1796.13 4009.25 1809.88 3968 1809.88ZM3979.37 1773 4030.8 1803 3979.37 1833C3976.09 1834.91 3971.88 1833.81 3969.97 1830.53 3968.05 1827.25 3969.16 1823.04 3972.44 1821.12L3972.44 1821.12 4013.69 1797.06 4013.69 1808.94 3972.44 1784.88C3969.16 1782.96 3968.05 1778.75 3969.97 1775.47 3971.88 1772.19 3976.09 1771.09 3979.37 1773Z" fill="#A6A6A6" fill-rule="nonzero" fill-opacity="1"/><path d="M1211.81 1574.17 2137.66 1684.34 2136.04 1697.99 1210.19 1587.83ZM2102.88 1656.91 2150.4 1692.78 2095.79 1716.49C2092.3 1718.01 2088.25 1716.41 2086.74 1712.93 2085.23 1709.44 2086.83 1705.39 2090.31 1703.88L2134.11 1684.86 2132.71 1696.66 2094.59 1667.89C2091.56 1665.6 2090.96 1661.29 2093.25 1658.26 2095.53 1655.23 2099.85 1654.62 2102.88 1656.91Z" fill="#A6A6A6" fill-rule="nonzero" fill-opacity="1"/><path d="M2039.56 1810.6 1113.71 1700.44 1115.33 1686.78 2041.18 1796.95ZM1148.49 1727.86 1100.97 1692 1155.58 1668.28C1159.07 1666.77 1163.12 1668.37 1164.63 1671.85 1166.14 1675.33 1164.54 1679.38 1161.06 1680.89L1117.26 1699.91 1118.66 1688.12 1156.78 1716.89C1159.81 1719.18 1160.41 1723.49 1158.12 1726.52 1155.84 1729.55 1151.52 1730.15 1148.49 1727.86Z" fill="#A6A6A6" fill-rule="nonzero" fill-opacity="1"/><path d="M0.812328-6.82684 926.661 103.34 925.036 116.994-0.812328 6.82684ZM891.877 75.912 939.402 111.78 884.787 135.494C881.304 137.006 877.255 135.408 875.742 131.926 874.23 128.443 875.828 124.394 879.31 122.881L923.115 103.861 921.711 115.655 883.594 86.8872C880.563 84.5999 879.96 80.2888 882.247 77.2581 884.535 74.2274 888.846 73.6247 891.877 75.912Z" fill="#A6A6A6" fill-rule="nonzero" fill-opacity="1" transform="matrix(1 0 0 -1 2262 1692.78)"/><path d="M2.46673-6.41723 929.124 349.782 924.191 362.616-2.46673 6.41723ZM902.158 314.64 939.399 361.097 880.629 370.647C876.882 371.256 873.35 368.712 872.741 364.964 872.132 361.216 874.676 357.684 878.424 357.075L925.561 349.415 921.299 360.501 891.43 323.241C889.055 320.278 889.531 315.951 892.494 313.576 895.456 311.201 899.783 311.678 902.158 314.64Z" fill="#A6A6A6" fill-rule="nonzero" fill-opacity="1" transform="matrix(-1 0 0 1 2150.37 2026)"/><text fill="#000000" fill-opacity="1" font-family="Smiley Sans Oblique,Smiley Sans Oblique_MSFontService,sans-serif" font-style="oblique" font-variant="normal" font-weight="400" font-stretch="normal" font-size="92" text-anchor="start" direction="ltr" writing-mode="lr-tb" unicode-bidi="normal" text-decoration="none" transform="matrix(0.992967 0.118393 -0.118393 0.992967 1659.01 1607)">被调度</text><text fill="#000000" fill-opacity="1" font-family="Smiley Sans Oblique,Smiley Sans Oblique_MSFontService,sans-serif" font-style="oblique" font-variant="normal" font-weight="400" font-stretch="normal" font-size="92" text-anchor="start" direction="ltr" writing-mode="lr-tb" unicode-bidi="normal" text-decoration="none" transform="matrix(1 0 0 1 2063.32 2501)">事件出现</text><text fill="#000000" fill-opacity="1" font-family="Smiley Sans Oblique,Smiley Sans Oblique_MSFontService,sans-serif" font-style="oblique" font-variant="normal" font-weight="400" font-stretch="normal" font-size="92" text-anchor="start" direction="ltr" writing-mode="lr-tb" unicode-bidi="normal" text-decoration="none" transform="matrix(1 0 0 1 2063.32 1439)">事件完成</text><text fill="#000000" fill-opacity="1" font-family="Smiley Sans Oblique,Smiley Sans Oblique_MSFontService,sans-serif" font-style="oblique" font-variant="normal" font-weight="400" font-stretch="normal" font-size="92" text-anchor="start" direction="ltr" writing-mode="lr-tb" unicode-bidi="normal" text-decoration="none" transform="matrix(0.990565 -0.137043 0.137043 0.990565 2465.21 1640)">等待事件</text><text fill="#000000" fill-opacity="1" font-family="Smiley Sans Oblique,Smiley Sans Oblique_MSFontService,sans-serif" font-style="oblique" font-variant="normal" font-weight="400" font-stretch="normal" font-size="92" text-anchor="start" direction="ltr" writing-mode="lr-tb" unicode-bidi="normal" text-decoration="none" transform="matrix(0.992967 0.118393 -0.118393 0.992967 1526.66 1839)">时间片用完</text><path d="M26.0001 1803.56C26.0001 1712.51 45.5124 1693 136.556 1693L248.444 1693C339.484 1693 359 1712.51 359 1803.56L359 1915.45C359 2006.49 339.488 2026 248.444 2026L136.556 2026C45.5158 2026 26.0001 2006.49 26.0001 1915.45L26.0001 1803.56" stroke="#7030A0" stroke-width="13.75" stroke-linecap="butt" stroke-linejoin="miter" stroke-miterlimit="8" stroke-opacity="1" fill="#F2E0F0" fill-rule="evenodd" fill-opacity="1"/><text fill="#000000" fill-opacity="1" font-family="Smiley Sans Oblique,Smiley Sans Oblique_MSFontService,sans-serif" font-style="oblique" font-variant="normal" font-weight="400" font-stretch="normal" font-size="110" text-anchor="start" direction="ltr" writing-mode="lr-tb" unicode-bidi="normal" text-decoration="none" transform="matrix(1 0 0 1 104.122 1900)">创建</text><path d="M879 1469.56C879 1378.51 898.454 1359 989.224 1359L1100.78 1359C1191.54 1359 1211 1378.51 1211 1469.56L1211 1581.44C1211 1672.49 1191.55 1692 1100.78 1692L989.224 1692C898.457 1692 879 1672.49 879 1581.44L879 1469.56" stroke="#00B050" stroke-width="13.75" stroke-linecap="butt" stroke-linejoin="miter" stroke-miterlimit="8" stroke-opacity="1" fill="#E2FEEE" fill-rule="evenodd" fill-opacity="1"/><text fill="#000000" fill-opacity="1" font-family="Smiley Sans Oblique,Smiley Sans Oblique_MSFontService,sans-serif" font-style="oblique" font-variant="normal" font-weight="400" font-stretch="normal" font-size="110" text-anchor="start" direction="ltr" writing-mode="lr-tb" unicode-bidi="normal" text-decoration="none" transform="matrix(1 0 0 1 956.687 1566)">就绪</text><path d="M3202 1469.56C3202 1378.51 3221.45 1359 3312.22 1359L3423.78 1359C3514.54 1359 3534 1378.51 3534 1469.56L3534 1581.44C3534 1672.49 3514.55 1692 3423.78 1692L3312.22 1692C3221.46 1692 3202 1672.49 3202 1581.44L3202 1469.56" stroke="#FF9300" stroke-width="13.75" stroke-linecap="butt" stroke-linejoin="miter" stroke-miterlimit="8" stroke-opacity="1" fill="#FFF2E0" fill-rule="evenodd" fill-opacity="1"/><text fill="#000000" fill-opacity="1" font-family="Smiley Sans Oblique,Smiley Sans Oblique_MSFontService,sans-serif" font-style="oblique" font-variant="normal" font-weight="400" font-stretch="normal" font-size="110" text-anchor="start" direction="ltr" writing-mode="lr-tb" unicode-bidi="normal" text-decoration="none" transform="matrix(1 0 0 1 3279.87 1566)">阻塞</text><path d="M3202 2275.22C3202 2184.45 3221.45 2165 3312.22 2165L3423.78 2165C3514.54 2165 3534 2184.45 3534 2275.22L3534 2386.78C3534 2477.55 3514.55 2497 3423.78 2497L3312.22 2497C3221.46 2497 3202 2477.55 3202 2386.78L3202 2275.22" stroke="#FFE200" stroke-width="13.75" stroke-linecap="butt" stroke-linejoin="miter" stroke-miterlimit="8" stroke-opacity="1" fill="#FFFCE1" fill-rule="evenodd" fill-opacity="1"/><text fill="#000000" fill-opacity="1" font-family="Smiley Sans Oblique,Smiley Sans Oblique_MSFontService,sans-serif" font-style="oblique" font-variant="normal" font-weight="400" font-stretch="normal" font-size="110" text-anchor="start" direction="ltr" writing-mode="lr-tb" unicode-bidi="normal" text-decoration="none" transform="matrix(1 0 0 1 3279.87 2306)">阻塞</text><text fill="#000000" fill-opacity="1" font-family="Smiley Sans Oblique,Smiley Sans Oblique_MSFontService,sans-serif" font-style="oblique" font-variant="normal" font-weight="400" font-stretch="normal" font-size="110" text-anchor="start" direction="ltr" writing-mode="lr-tb" unicode-bidi="normal" text-decoration="none" transform="matrix(1 0 0 1 3279.87 2438)">挂起</text><path d="M879 2275.22C879 2184.45 898.454 2165 989.224 2165L1100.78 2165C1191.54 2165 1211 2184.45 1211 2275.22L1211 2386.78C1211 2477.55 1191.55 2497 1100.78 2497L989.224 2497C898.457 2497 879 2477.55 879 2386.78L879 2275.22" stroke="#00B099" stroke-width="13.75" stroke-linecap="butt" stroke-linejoin="miter" stroke-miterlimit="8" stroke-opacity="1" fill="#E2FEFA" fill-rule="evenodd" fill-opacity="1"/><text fill="#000000" fill-opacity="1" font-family="Smiley Sans Oblique,Smiley Sans Oblique_MSFontService,sans-serif" font-style="oblique" font-variant="normal" font-weight="400" font-stretch="normal" font-size="110" text-anchor="start" direction="ltr" writing-mode="lr-tb" unicode-bidi="normal" text-decoration="none" transform="matrix(1 0 0 1 956.687 2306)">就绪</text><text fill="#000000" fill-opacity="1" font-family="Smiley Sans Oblique,Smiley Sans Oblique_MSFontService,sans-serif" font-style="oblique" font-variant="normal" font-weight="400" font-stretch="normal" font-size="110" text-anchor="start" direction="ltr" writing-mode="lr-tb" unicode-bidi="normal" text-decoration="none" transform="matrix(1 0 0 1 956.687 2438)">挂起</text><path d="M2040 1803.56C2040 1712.51 2059.51 1693 2150.56 1693L2262.44 1693C2353.48 1693 2373 1712.51 2373 1803.56L2373 1915.45C2373 2006.49 2353.49 2026 2262.44 2026L2150.56 2026C2059.52 2026 2040 2006.49 2040 1915.45L2040 1803.56" stroke="#0092FB" stroke-width="13.75" stroke-linecap="butt" stroke-linejoin="miter" stroke-miterlimit="8" stroke-opacity="1" fill="#E9FAFF" fill-rule="evenodd" fill-opacity="1"/><text fill="#000000" fill-opacity="1" font-family="Smiley Sans Oblique,Smiley Sans Oblique_MSFontService,sans-serif" font-style="oblique" font-variant="normal" font-weight="400" font-stretch="normal" font-size="110" text-anchor="start" direction="ltr" writing-mode="lr-tb" unicode-bidi="normal" text-decoration="none" transform="matrix(1 0 0 1 2118.28 1900)">运行</text><path d="M4031 1803.56C4031 1712.51 4050.45 1693 4141.22 1693L4252.78 1693C4343.54 1693 4363 1712.51 4363 1803.56L4363 1915.45C4363 2006.49 4343.55 2026 4252.78 2026L4141.22 2026C4050.46 2026 4031 2006.49 4031 1915.45L4031 1803.56" stroke="#000000" stroke-width="13.75" stroke-linecap="butt" stroke-linejoin="miter" stroke-miterlimit="8" stroke-opacity="1" fill="#F2F2F2" fill-rule="evenodd" fill-opacity="1"/><text fill="#000000" fill-opacity="1" font-family="Smiley Sans Oblique,Smiley Sans Oblique_MSFontService,sans-serif" font-style="oblique" font-variant="normal" font-weight="400" font-stretch="normal" font-size="110" text-anchor="start" direction="ltr" writing-mode="lr-tb" unicode-bidi="normal" text-decoration="none" transform="matrix(1 0 0 1 4108.72 1900)">结束</text><text fill="#7F7F7F" fill-opacity="1" font-family="Smiley Sans Oblique,Smiley Sans Oblique_MSFontService,sans-serif" font-style="oblique" font-variant="normal" font-weight="400" font-stretch="normal" font-size="92" text-anchor="start" direction="ltr" writing-mode="lr-tb" unicode-bidi="normal" text-decoration="none" transform="matrix(1 0 0 1 2720.02 2173)">硬盘</text></g></g></svg>