<svg width="3253" height="1151" xmlns="http://www.w3.org/2000/svg" xmlns:xlink="http://www.w3.org/1999/xlink" xml:space="preserve" overflow="hidden"><g transform="translate(128 -847)"><g><path d="M2628.4 1654.78 2627.16 1210.63 2640.91 1210.59 2642.15 1654.74ZM2604.14 1248.48 2634 1196.97 2664.14 1248.31C2666.07 1251.59 2664.97 1255.8 2661.7 1257.72 2658.42 1259.65 2654.21 1258.55 2652.29 1255.28L2628.11 1214.09 2639.99 1214.06 2616.04 1255.38C2614.13 1258.66 2609.93 1259.78 2606.64 1257.88 2603.36 1255.97 2602.24 1251.77 2604.14 1248.48Z" fill="#A6A6A6" fill-rule="nonzero" fill-opacity="1"/><text fill="#000000" fill-opacity="1" font-family="Smiley Sans Oblique,Smiley Sans Oblique_MSFontService,sans-serif" font-style="oblique" font-variant="normal" font-weight="400" font-stretch="normal" font-size="73" text-anchor="start" direction="ltr" writing-mode="lr-tb" unicode-bidi="normal" text-decoration="none" transform="matrix(1 0 0 1 1709.86 1860)">事件</text><path d="M0.000946568-6.875 431.991-6.81552 431.989 6.93448-0.000946568 6.875ZM394.208-29.9467 445.634 0.0613596 394.2 30.0553C390.92 31.968 386.71 30.8596 384.798 27.5796 382.885 24.2996 383.993 20.0901 387.273 18.1773L428.527-5.87948 428.525 5.99748 387.278-18.0707C383.999-19.9843 382.892-24.1942 384.805-27.4736 386.719-30.7531 390.929-31.8603 394.208-29.9467Z" fill="#A6A6A6" fill-rule="nonzero" fill-opacity="1" transform="matrix(1 0 0 -1 1063 1479.06)"/><text fill="#000000" fill-opacity="1" font-family="Smiley Sans Oblique,Smiley Sans Oblique_MSFontService,sans-serif" font-style="oblique" font-variant="normal" font-weight="400" font-stretch="normal" font-size="73" text-anchor="start" direction="ltr" writing-mode="lr-tb" unicode-bidi="normal" text-decoration="none" transform="matrix(1 0 0 1 1443.07 946)">vTaskSuspend</text><text fill="#000000" fill-opacity="1" font-family="Smiley Sans Oblique,Smiley Sans Oblique_MSFontService,sans-serif" font-style="oblique" font-variant="normal" font-weight="400" font-stretch="normal" font-size="73" text-anchor="start" direction="ltr" writing-mode="lr-tb" unicode-bidi="normal" text-decoration="none" transform="matrix(1 0 0 1 1820.62 946)">()</text><text fill="#000000" fill-opacity="1" font-family="Smiley Sans Oblique,Smiley Sans Oblique_MSFontService,sans-serif" font-style="oblique" font-variant="normal" font-weight="400" font-stretch="normal" font-size="73" text-anchor="start" direction="ltr" writing-mode="lr-tb" unicode-bidi="normal" text-decoration="none" transform="matrix(1 0 0 1 2003.9 1570)">阻塞</text><text fill="#000000" fill-opacity="1" font-family="Smiley Sans Oblique,Smiley Sans Oblique_MSFontService,sans-serif" font-style="oblique" font-variant="normal" font-weight="400" font-stretch="normal" font-size="73" text-anchor="start" direction="ltr" writing-mode="lr-tb" unicode-bidi="normal" text-decoration="none" transform="matrix(1 0 0 1 2120.78 1570)">API</text><text fill="#000000" fill-opacity="1" font-family="Smiley Sans Oblique,Smiley Sans Oblique_MSFontService,sans-serif" font-style="oblique" font-variant="normal" font-weight="400" font-stretch="normal" font-size="73" text-anchor="start" direction="ltr" writing-mode="lr-tb" unicode-bidi="normal" text-decoration="none" transform="matrix(1 0 0 1 2208.43 1570)">函数调用</text><path d="M213.018 1470.13 716.041 1471.42 716.006 1485.17 212.982 1483.88ZM678.315 1448.2 729.667 1478.33 678.16 1508.2 678.16 1508.2C674.875 1510.11 670.668 1508.99 668.764 1505.7 666.859 1502.42 667.978 1498.21 671.262 1496.31L712.574 1472.35 712.544 1484.23 671.356 1460.06 671.356 1460.06C668.081 1458.14 666.984 1453.93 668.906 1450.65 670.828 1447.38 675.04 1446.28 678.315 1448.2Z" fill="#A6A6A6" fill-rule="nonzero" fill-opacity="1"/><path d="M0.000946568-6.875 431.991-6.81552 431.989 6.93448-0.000946568 6.875ZM394.208-29.9467 445.634 0.0613596 394.2 30.0553C390.92 31.968 386.71 30.8596 384.798 27.5796 382.885 24.2996 383.993 20.0901 387.273 18.1773L428.527-5.87948 428.525 5.99748 387.278-18.0707C383.999-19.9843 382.892-24.1942 384.805-27.4736 386.719-30.7531 390.929-31.8603 394.208-29.9467Z" fill="#A6A6A6" fill-rule="nonzero" fill-opacity="1" transform="matrix(-1 0 0 1 1508.6 1367)"/><path d="M2413.19 1884.11 944.597 1884.11 944.687 1623.37 958.437 1623.37 958.349 1877.23 951.474 1870.36 2413.19 1870.36ZM930.851 1629.98 952 1589 972.097 1630.51Z" fill="#A6A6A6" fill-rule="nonzero" fill-opacity="1"/><path d="M1841 1472.13 2529.17 1472.13 2529.45 1621.16 2515.7 1621.18 2515.44 1479.01 2522.31 1485.88 1841 1485.88ZM2542.92 1613.5 2523.92 1655.52 2501.7 1615.1Z" fill="#A6A6A6" fill-rule="nonzero" fill-opacity="1"/><path d="M0-6.875 10.3951-6.875 10.3951 281.303 3.52015 274.428 1537.31 274.428 1537.31 288.178-3.35485 288.178-3.35485 0 3.52015 6.875 0 6.875ZM1530.44 260.678 1571.69 281.303 1530.44 301.928Z" fill="#A6A6A6" fill-rule="nonzero" fill-opacity="1" transform="matrix(1 0 0 -1 840 1256.3)"/><path d="M0-6.875 1462.22-6.875 1463.02 135.321 1449.27 135.397 1448.51 0.0383138 1455.39 6.875 0 6.875ZM1475.89 126.262 1459.91 169.526 1434.89 130.789Z" fill="#A6A6A6" fill-rule="nonzero" fill-opacity="1" transform="matrix(-1 1.22465e-16 1.22465e-16 1 2411.91 1087)"/><path d="M0-6.875 690.021-6.875 689.76 135.125 676.01 135.1 676.259-0.0126639 683.134 6.875 0 6.875ZM703.745 128.989 681.641 169.465 662.522 127.495Z" fill="#A6A6A6" fill-rule="nonzero" fill-opacity="1" transform="matrix(1 0 0 -1 1841 1366.46)"/><path d="M730 1367.22C730 1276.45 749.512 1257 840.556 1257L952.444 1257C1043.48 1257 1063 1276.45 1063 1367.22L1063 1478.78C1063 1569.55 1043.49 1589 952.444 1589L840.556 1589C749.516 1589 730 1569.55 730 1478.78L730 1367.22" stroke="#00B050" stroke-width="13.75" stroke-linecap="butt" stroke-linejoin="miter" stroke-miterlimit="8" stroke-opacity="1" fill="#E2FEEE" fill-rule="evenodd" fill-opacity="1"/><text fill="#000000" fill-opacity="1" font-family="Smiley Sans Oblique,Smiley Sans Oblique_MSFontService,sans-serif" font-style="oblique" font-variant="normal" font-weight="400" font-stretch="normal" font-size="110" text-anchor="start" direction="ltr" writing-mode="lr-tb" unicode-bidi="normal" text-decoration="none" transform="matrix(1 0 0 1 808.097 1464)">就绪</text><path d="M0 110.555C0 19.5127 19.5123 0 110.556 0L222.444 0C313.484 0 333 19.5127 333 110.555L333 222.445C333 313.487 313.487 333 222.444 333L110.556 333C19.5157 333 0 313.487 0 222.445L0 110.555" stroke="#FF9300" stroke-width="13.75" stroke-linecap="butt" stroke-linejoin="miter" stroke-miterlimit="8" stroke-opacity="1" fill="#FFF2E0" fill-rule="evenodd" fill-opacity="1" transform="matrix(-1 0 0 1 2746 1655)"/><text fill="#000000" fill-opacity="1" font-family="Smiley Sans Oblique,Smiley Sans Oblique_MSFontService,sans-serif" font-style="oblique" font-variant="normal" font-weight="400" font-stretch="normal" font-size="110" text-anchor="start" direction="ltr" writing-mode="lr-tb" unicode-bidi="normal" text-decoration="none" transform="matrix(1 0 0 1 2491.51 1863)">阻塞</text><path d="M1508 1366.56C1508 1275.51 1527.51 1256 1618.56 1256L1730.44 1256C1821.48 1256 1841 1275.51 1841 1366.56L1841 1478.45C1841 1569.49 1821.49 1589 1730.44 1589L1618.56 1589C1527.52 1589 1508 1569.49 1508 1478.45L1508 1366.56" stroke="#0092FB" stroke-width="13.75" stroke-linecap="butt" stroke-linejoin="miter" stroke-miterlimit="8" stroke-opacity="1" fill="#E9FAFF" fill-rule="evenodd" fill-opacity="1"/><text fill="#000000" fill-opacity="1" font-family="Smiley Sans Oblique,Smiley Sans Oblique_MSFontService,sans-serif" font-style="oblique" font-variant="normal" font-weight="400" font-stretch="normal" font-size="110" text-anchor="start" direction="ltr" writing-mode="lr-tb" unicode-bidi="normal" text-decoration="none" transform="matrix(1 0 0 1 1586.37 1464)">运行</text><path d="M0 110.223C0 19.4541 19.5123 0 110.556 0L222.444 0C313.484 0 333 19.4541 333 110.223L333 221.777C333 312.546 313.487 332 222.444 332L110.556 332C19.5157 332 0 312.546 0 221.777L0 110.223" stroke="#00B099" stroke-width="13.75" stroke-linecap="butt" stroke-linejoin="miter" stroke-miterlimit="8" stroke-opacity="1" fill="#E2FEFA" fill-rule="evenodd" fill-opacity="1" transform="matrix(-1 0 0 1 2745 865)"/><text fill="#000000" fill-opacity="1" font-family="Smiley Sans Oblique,Smiley Sans Oblique_MSFontService,sans-serif" font-style="oblique" font-variant="normal" font-weight="400" font-stretch="normal" font-size="110" text-anchor="start" direction="ltr" writing-mode="lr-tb" unicode-bidi="normal" text-decoration="none" transform="matrix(1 0 0 1 2490.23 1072)">挂起</text><path d="M-119 1365.56C-119 1274.51-99.5462 1255-8.77567 1255L102.776 1255C193.543 1255 213 1274.51 213 1365.56L213 1477.45C213 1568.49 193.546 1588 102.776 1588L-8.77567 1588C-99.5428 1588-119 1568.49-119 1477.45L-119 1365.56" stroke="#7030A0" stroke-width="13.75" stroke-linecap="butt" stroke-linejoin="miter" stroke-miterlimit="8" stroke-opacity="1" fill="#F2E0F0" fill-rule="evenodd" fill-opacity="1"/><text fill="#000000" fill-opacity="1" font-family="Smiley Sans Oblique,Smiley Sans Oblique_MSFontService,sans-serif" font-style="oblique" font-variant="normal" font-weight="400" font-stretch="normal" font-size="110" text-anchor="start" direction="ltr" writing-mode="lr-tb" unicode-bidi="normal" text-decoration="none" transform="matrix(1 0 0 1 -41.2087 1463)">创建</text><text fill="#000000" fill-opacity="1" font-family="Smiley Sans Oblique,Smiley Sans Oblique_MSFontService,sans-serif" font-style="oblique" font-variant="normal" font-weight="400" font-stretch="normal" font-size="73" text-anchor="start" direction="ltr" writing-mode="lr-tb" unicode-bidi="normal" text-decoration="none" transform="matrix(1 0 0 1 1451.09 1168)">vTaskResume</text><text fill="#000000" fill-opacity="1" font-family="Smiley Sans Oblique,Smiley Sans Oblique_MSFontService,sans-serif" font-style="oblique" font-variant="normal" font-weight="400" font-stretch="normal" font-size="73" text-anchor="start" direction="ltr" writing-mode="lr-tb" unicode-bidi="normal" text-decoration="none" transform="matrix(1 0 0 1 1812.6 1168)">()</text><text fill="#000000" fill-opacity="1" font-family="Smiley Sans Oblique,Smiley Sans Oblique_MSFontService,sans-serif" font-style="oblique" font-variant="normal" font-weight="400" font-stretch="normal" font-size="73" text-anchor="start" direction="ltr" writing-mode="lr-tb" unicode-bidi="normal" text-decoration="none" transform="matrix(1 0 0 1 2659.11 1455)">vTaskSuspend</text><text fill="#000000" fill-opacity="1" font-family="Smiley Sans Oblique,Smiley Sans Oblique_MSFontService,sans-serif" font-style="oblique" font-variant="normal" font-weight="400" font-stretch="normal" font-size="73" text-anchor="start" direction="ltr" writing-mode="lr-tb" unicode-bidi="normal" text-decoration="none" transform="matrix(1 0 0 1 3036.67 1455)">()</text></g></g></svg>