<svg width="2154" height="962" xmlns="http://www.w3.org/2000/svg" xmlns:xlink="http://www.w3.org/1999/xlink" xml:space="preserve" overflow="hidden"><g transform="translate(-1113 -935)"><g><text fill="#7F7F7F" fill-opacity="1" font-family="Smiley Sans Oblique,Smiley Sans Oblique_MSFontService,sans-serif" font-style="oblique" font-variant="normal" font-weight="400" font-stretch="normal" font-size="92" text-anchor="start" direction="ltr" writing-mode="lr-tb" unicode-bidi="normal" text-decoration="none" transform="matrix(1 0 0 1 1966.23 1053)">expressionx</text><text fill="#7F7F7F" fill-opacity="1" font-family="Smiley Sans Oblique,Smiley Sans Oblique_MSFontService,sans-serif" font-style="oblique" font-variant="normal" font-weight="400" font-stretch="normal" font-size="92" text-anchor="start" direction="ltr" writing-mode="lr-tb" unicode-bidi="normal" text-decoration="none" transform="matrix(1 0 0 1 1654.67 1326)">glvaue</text><text fill="#7F7F7F" fill-opacity="1" font-family="Smiley Sans Oblique,Smiley Sans Oblique_MSFontService,sans-serif" font-style="oblique" font-variant="normal" font-weight="400" font-stretch="normal" font-size="92" text-anchor="start" direction="ltr" writing-mode="lr-tb" unicode-bidi="normal" text-decoration="none" transform="matrix(1 0 0 1 1654.09 1436)">泛左值</text><text fill="#7F7F7F" fill-opacity="1" font-family="Smiley Sans Oblique,Smiley Sans Oblique_MSFontService,sans-serif" font-style="oblique" font-variant="normal" font-weight="400" font-stretch="normal" font-size="92" text-anchor="start" direction="ltr" writing-mode="lr-tb" unicode-bidi="normal" text-decoration="none" transform="matrix(1 0 0 1 2525.83 1326)">rvalue</text><text fill="#7F7F7F" fill-opacity="1" font-family="Smiley Sans Oblique,Smiley Sans Oblique_MSFontService,sans-serif" font-style="oblique" font-variant="normal" font-weight="400" font-stretch="normal" font-size="92" text-anchor="start" direction="ltr" writing-mode="lr-tb" unicode-bidi="normal" text-decoration="none" transform="matrix(1 0 0 1 2554.47 1436)">右值</text><text fill="#7F7F7F" fill-opacity="1" font-family="Smiley Sans Oblique,Smiley Sans Oblique_MSFontService,sans-serif" font-style="oblique" font-variant="normal" font-weight="400" font-stretch="normal" font-size="92" text-anchor="start" direction="ltr" writing-mode="lr-tb" unicode-bidi="normal" text-decoration="none" transform="matrix(1 0 0 1 1173.45 1710)">lvalue</text><text fill="#7F7F7F" fill-opacity="1" font-family="Smiley Sans Oblique,Smiley Sans Oblique_MSFontService,sans-serif" font-style="oblique" font-variant="normal" font-weight="400" font-stretch="normal" font-size="92" text-anchor="start" direction="ltr" writing-mode="lr-tb" unicode-bidi="normal" text-decoration="none" transform="matrix(1 0 0 1 1197.79 1820)">左值</text><text fill="#7F7F7F" fill-opacity="1" font-family="Smiley Sans Oblique,Smiley Sans Oblique_MSFontService,sans-serif" font-style="oblique" font-variant="normal" font-weight="400" font-stretch="normal" font-size="92" text-anchor="start" direction="ltr" writing-mode="lr-tb" unicode-bidi="normal" text-decoration="none" transform="matrix(1 0 0 1 2963.84 1710)">prvalue</text><text fill="#7F7F7F" fill-opacity="1" font-family="Smiley Sans Oblique,Smiley Sans Oblique_MSFontService,sans-serif" font-style="oblique" font-variant="normal" font-weight="400" font-stretch="normal" font-size="92" text-anchor="start" direction="ltr" writing-mode="lr-tb" unicode-bidi="normal" text-decoration="none" transform="matrix(1 0 0 1 2977.02 1820)">纯右值</text><text fill="#7F7F7F" fill-opacity="1" font-family="Smiley Sans Oblique,Smiley Sans Oblique_MSFontService,sans-serif" font-style="oblique" font-variant="normal" font-weight="400" font-stretch="normal" font-size="92" text-anchor="start" direction="ltr" writing-mode="lr-tb" unicode-bidi="normal" text-decoration="none" transform="matrix(1 0 0 1 2065.86 1710)">xvalue</text><text fill="#7F7F7F" fill-opacity="1" font-family="Smiley Sans Oblique,Smiley Sans Oblique_MSFontService,sans-serif" font-style="oblique" font-variant="normal" font-weight="400" font-stretch="normal" font-size="92" text-anchor="start" direction="ltr" writing-mode="lr-tb" unicode-bidi="normal" text-decoration="none" transform="matrix(1 0 0 1 2062.42 1820)">将亡值</text><path d="M1.21123-4.42039 378.614 98.9917 376.191 107.833-1.21123 4.42039ZM376.616 88.9398 399.505 109.468 369.349 115.462Z" fill="#7F7F7F" fill-rule="nonzero" fill-opacity="1" transform="matrix(-1 0 0 1 2164 1101.5)"/><path d="M2165.55 1097.04 2607.46 1201.25 2605.35 1210.17 2163.45 1105.96ZM2605.1 1191.27 2628.71 1210.97 2598.79 1218.04Z" fill="#7F7F7F" fill-rule="nonzero" fill-opacity="1"/><path d="M0.993592-4.47434 471.58 100.026 469.593 108.975-0.993592 4.47434ZM469.092 90.0838 492.958 109.468 463.131 116.93Z" fill="#7F7F7F" fill-rule="nonzero" fill-opacity="1" transform="matrix(-1 0 0 1 1764.46 1486.5)"/><path d="M1765.69 1482.07 2151.88 1585.61 2149.51 1594.46 1763.31 1490.93ZM2149.83 1575.57 2172.83 1595.97 2142.71 1602.13Z" fill="#7F7F7F" fill-rule="nonzero" fill-opacity="1"/><path d="M1.07125-4.45638 434.174 99.6557 432.032 108.569-1.07125 4.45638ZM431.86 89.6717 455.385 109.468 425.433 116.41Z" fill="#7F7F7F" fill-rule="nonzero" fill-opacity="1" transform="matrix(-1 0 0 1 2627.88 1486.5)"/><path d="M2629.56 1482.04 3066.48 1586.2 3064.35 1595.11 2627.44 1490.96ZM3064.15 1576.22 3087.71 1595.97 3057.77 1602.97Z" fill="#7F7F7F" fill-rule="nonzero" fill-opacity="1"/></g></g></svg>